<?xml version="1.0" encoding="UTF-8" standalone="no"?>
<svg
   width="432pt"
   height="288pt"
   viewBox="0 0 432 288"
   version="1.1"
   id="svg512"
   sodipodi:docname="stat_comp_gap - Copia.svg"
   inkscape:version="1.2.2 (732a01da63, 2022-12-09)"
   inkscape:export-filename="stat_comp_gap_edited.png"
   inkscape:export-xdpi="300"
   inkscape:export-ydpi="300"
   xmlns:inkscape="http://www.inkscape.org/namespaces/inkscape"
   xmlns:sodipodi="http://sodipodi.sourceforge.net/DTD/sodipodi-0.dtd"
   xmlns:xlink="http://www.w3.org/1999/xlink"
   xmlns="http://www.w3.org/2000/svg"
   xmlns:svg="http://www.w3.org/2000/svg"
   xmlns:rdf="http://www.w3.org/1999/02/22-rdf-syntax-ns#"
   xmlns:cc="http://creativecommons.org/ns#"
   xmlns:dc="http://purl.org/dc/elements/1.1/">
  <sodipodi:namedview
     id="namedview514"
     pagecolor="#505050"
     bordercolor="#eeeeee"
     borderopacity="1"
     inkscape:showpageshadow="0"
     inkscape:pageopacity="0"
     inkscape:pagecheckerboard="0"
     inkscape:deskcolor="#505050"
     inkscape:document-units="pt"
     showgrid="false"
     inkscape:zoom="1.4805048"
     inkscape:cx="260.04643"
     inkscape:cy="199.59408"
     inkscape:window-width="1920"
     inkscape:window-height="991"
     inkscape:window-x="-9"
     inkscape:window-y="-9"
     inkscape:window-maximized="1"
     inkscape:current-layer="figure_1" />
  <metadata
     id="metadata2">
    <rdf:RDF>
      <cc:Work>
        <dc:type
           rdf:resource="http://purl.org/dc/dcmitype/StillImage" />
        <dc:date>2023-07-02T22:16:27.316291</dc:date>
        <dc:format>image/svg+xml</dc:format>
        <dc:creator>
          <cc:Agent>
            <dc:title>Matplotlib v3.6.3, https://matplotlib.org/</dc:title>
          </cc:Agent>
        </dc:creator>
      </cc:Work>
    </rdf:RDF>
  </metadata>
  <defs
     id="defs6">
    <linearGradient
       inkscape:collect="always"
       id="linearGradient12418">
      <stop
         style="stop-color:#c1ffc1;stop-opacity:0;"
         offset="0"
         id="stop12416" />
      <stop
         style="stop-color:#00ff00;stop-opacity:1;"
         offset="1"
         id="stop12414" />
    </linearGradient>
    <linearGradient
       inkscape:collect="always"
       id="linearGradient10138">
      <stop
         style="stop-color:#ffffff;stop-opacity:0;"
         offset="0"
         id="stop10136" />
      <stop
         style="stop-color:#ff0000;stop-opacity:1;"
         offset="1"
         id="stop10134" />
    </linearGradient>
    <linearGradient
       inkscape:collect="always"
       id="linearGradient9622">
      <stop
         style="stop-color:#00008f;stop-opacity:0;"
         offset="0.30069929"
         id="stop9620" />
      <stop
         style="stop-color:#00008f;stop-opacity:1;"
         offset="1"
         id="stop9618" />
    </linearGradient>
    <linearGradient
       id="linearGradient1615-2">
      <stop
         style="stop-color:#ff0000;stop-opacity:0;"
         offset="0.30419579"
         id="stop2371" />
      <stop
         style="stop-color:#ff0000;stop-opacity:0.66545457;"
         offset="1"
         id="stop2373" />
    </linearGradient>
    <style
       type="text/css"
       id="style4">*{stroke-linejoin: round; stroke-linecap: butt}</style>
    <linearGradient
       inkscape:collect="always"
       xlink:href="#linearGradient9622"
       id="linearGradient9624"
       x1="54.089554"
       y1="142.16418"
       x2="388.38806"
       y2="142.16418"
       gradientUnits="userSpaceOnUse" />
    <linearGradient
       inkscape:collect="always"
       xlink:href="#linearGradient10138"
       id="linearGradient10140"
       x1="93.549175"
       y1="291.26257"
       x2="517.72882"
       y2="291.26257"
       gradientUnits="userSpaceOnUse" />
    <linearGradient
       inkscape:collect="always"
       xlink:href="#linearGradient12418"
       id="linearGradient12420"
       x1="72.948091"
       y1="193.8528"
       x2="517.4037"
       y2="193.8528"
       gradientUnits="userSpaceOnUse" />
  </defs>
  <g
     id="figure_1">
    <g
       id="patch_1">
      <path
         d="M 0 288  L 432 288  L 432 0  L 0 0  z "
         style="fill: #ffffff"
         id="path8" />
    </g>
    <g
       id="axes_1">
      <g
         id="patch_2">
        <path
           d="M 54 256.32  L 388.8 256.32  L 388.8 34.56  L 54 34.56  z "
           style="fill: #ffffff"
           id="path11" />
      </g>
      <g
         id="matplotlib.axis_1">
        <g
           id="xtick_1">
          <g
             id="line2d_1">
            <defs
               id="defs15">
              <path
                 id="m6a032d9571"
                 d="M 0 0  L 0 3.5  "
                 style="stroke: #000000; stroke-width: 0.8" />
            </defs>
            <g
               id="g19">
              <use
                 xlink:href="#m6a032d9571"
                 x="69.218182"
                 y="256.32"
                 style="stroke: #000000; stroke-width: 0.8"
                 id="use17" />
            </g>
          </g>
          <g
             id="text_1">
            <!-- 0 -->
            <g
               transform="translate(66.036932 270.918437) scale(0.1 -0.1)"
               id="g27">
              <defs
                 id="defs23">
                <path
                   id="DejaVuSans-30"
                   d="M 2034 4250  Q 1547 4250 1301 3770  Q 1056 3291 1056 2328  Q 1056 1369 1301 889  Q 1547 409 2034 409  Q 2525 409 2770 889  Q 3016 1369 3016 2328  Q 3016 3291 2770 3770  Q 2525 4250 2034 4250  z M 2034 4750  Q 2819 4750 3233 4129  Q 3647 3509 3647 2328  Q 3647 1150 3233 529  Q 2819 -91 2034 -91  Q 1250 -91 836 529  Q 422 1150 422 2328  Q 422 3509 836 4129  Q 1250 4750 2034 4750  z "
                   transform="scale(0.015625)" />
              </defs>
              <use
                 xlink:href="#DejaVuSans-30"
                 id="use25" />
            </g>
          </g>
        </g>
        <g
           id="xtick_2">
          <g
             id="line2d_2">
            <g
               id="g33">
              <use
                 xlink:href="#m6a032d9571"
                 x="130.096997"
                 y="256.32"
                 style="stroke: #000000; stroke-width: 0.8"
                 id="use31" />
            </g>
          </g>
          <g
             id="text_2">
            <!-- 2000 -->
            <g
               transform="translate(117.371997 270.918437) scale(0.1 -0.1)"
               id="g47">
              <defs
                 id="defs37">
                <path
                   id="DejaVuSans-32"
                   d="M 1228 531  L 3431 531  L 3431 0  L 469 0  L 469 531  Q 828 903 1448 1529  Q 2069 2156 2228 2338  Q 2531 2678 2651 2914  Q 2772 3150 2772 3378  Q 2772 3750 2511 3984  Q 2250 4219 1831 4219  Q 1534 4219 1204 4116  Q 875 4013 500 3803  L 500 4441  Q 881 4594 1212 4672  Q 1544 4750 1819 4750  Q 2544 4750 2975 4387  Q 3406 4025 3406 3419  Q 3406 3131 3298 2873  Q 3191 2616 2906 2266  Q 2828 2175 2409 1742  Q 1991 1309 1228 531  z "
                   transform="scale(0.015625)" />
              </defs>
              <use
                 xlink:href="#DejaVuSans-32"
                 id="use39" />
              <use
                 xlink:href="#DejaVuSans-30"
                 x="63.623047"
                 id="use41" />
              <use
                 xlink:href="#DejaVuSans-30"
                 x="127.246094"
                 id="use43" />
              <use
                 xlink:href="#DejaVuSans-30"
                 x="190.869141"
                 id="use45" />
            </g>
          </g>
        </g>
        <g
           id="xtick_3">
          <g
             id="line2d_3">
            <g
               id="g53">
              <use
                 xlink:href="#m6a032d9571"
                 x="190.975812"
                 y="256.32"
                 style="stroke: #000000; stroke-width: 0.8"
                 id="use51" />
            </g>
          </g>
          <g
             id="text_3">
            <!-- 4000 -->
            <g
               transform="translate(178.250812 270.918437) scale(0.1 -0.1)"
               id="g67">
              <defs
                 id="defs57">
                <path
                   id="DejaVuSans-34"
                   d="M 2419 4116  L 825 1625  L 2419 1625  L 2419 4116  z M 2253 4666  L 3047 4666  L 3047 1625  L 3713 1625  L 3713 1100  L 3047 1100  L 3047 0  L 2419 0  L 2419 1100  L 313 1100  L 313 1709  L 2253 4666  z "
                   transform="scale(0.015625)" />
              </defs>
              <use
                 xlink:href="#DejaVuSans-34"
                 id="use59" />
              <use
                 xlink:href="#DejaVuSans-30"
                 x="63.623047"
                 id="use61" />
              <use
                 xlink:href="#DejaVuSans-30"
                 x="127.246094"
                 id="use63" />
              <use
                 xlink:href="#DejaVuSans-30"
                 x="190.869141"
                 id="use65" />
            </g>
          </g>
        </g>
        <g
           id="xtick_4">
          <g
             id="line2d_4">
            <g
               id="g73">
              <use
                 xlink:href="#m6a032d9571"
                 x="251.854627"
                 y="256.32"
                 style="stroke: #000000; stroke-width: 0.8"
                 id="use71" />
            </g>
          </g>
          <g
             id="text_4">
            <!-- 6000 -->
            <g
               transform="translate(239.129627 270.918437) scale(0.1 -0.1)"
               id="g87">
              <defs
                 id="defs77">
                <path
                   id="DejaVuSans-36"
                   d="M 2113 2584  Q 1688 2584 1439 2293  Q 1191 2003 1191 1497  Q 1191 994 1439 701  Q 1688 409 2113 409  Q 2538 409 2786 701  Q 3034 994 3034 1497  Q 3034 2003 2786 2293  Q 2538 2584 2113 2584  z M 3366 4563  L 3366 3988  Q 3128 4100 2886 4159  Q 2644 4219 2406 4219  Q 1781 4219 1451 3797  Q 1122 3375 1075 2522  Q 1259 2794 1537 2939  Q 1816 3084 2150 3084  Q 2853 3084 3261 2657  Q 3669 2231 3669 1497  Q 3669 778 3244 343  Q 2819 -91 2113 -91  Q 1303 -91 875 529  Q 447 1150 447 2328  Q 447 3434 972 4092  Q 1497 4750 2381 4750  Q 2619 4750 2861 4703  Q 3103 4656 3366 4563  z "
                   transform="scale(0.015625)" />
              </defs>
              <use
                 xlink:href="#DejaVuSans-36"
                 id="use79" />
              <use
                 xlink:href="#DejaVuSans-30"
                 x="63.623047"
                 id="use81" />
              <use
                 xlink:href="#DejaVuSans-30"
                 x="127.246094"
                 id="use83" />
              <use
                 xlink:href="#DejaVuSans-30"
                 x="190.869141"
                 id="use85" />
            </g>
          </g>
        </g>
        <g
           id="xtick_5">
          <g
             id="line2d_5">
            <g
               id="g93">
              <use
                 xlink:href="#m6a032d9571"
                 x="312.733442"
                 y="256.32"
                 style="stroke: #000000; stroke-width: 0.8"
                 id="use91" />
            </g>
          </g>
          <g
             id="text_5">
            <!-- 8000 -->
            <g
               transform="translate(300.008442 270.918437) scale(0.1 -0.1)"
               id="g107">
              <defs
                 id="defs97">
                <path
                   id="DejaVuSans-38"
                   d="M 2034 2216  Q 1584 2216 1326 1975  Q 1069 1734 1069 1313  Q 1069 891 1326 650  Q 1584 409 2034 409  Q 2484 409 2743 651  Q 3003 894 3003 1313  Q 3003 1734 2745 1975  Q 2488 2216 2034 2216  z M 1403 2484  Q 997 2584 770 2862  Q 544 3141 544 3541  Q 544 4100 942 4425  Q 1341 4750 2034 4750  Q 2731 4750 3128 4425  Q 3525 4100 3525 3541  Q 3525 3141 3298 2862  Q 3072 2584 2669 2484  Q 3125 2378 3379 2068  Q 3634 1759 3634 1313  Q 3634 634 3220 271  Q 2806 -91 2034 -91  Q 1263 -91 848 271  Q 434 634 434 1313  Q 434 1759 690 2068  Q 947 2378 1403 2484  z M 1172 3481  Q 1172 3119 1398 2916  Q 1625 2713 2034 2713  Q 2441 2713 2670 2916  Q 2900 3119 2900 3481  Q 2900 3844 2670 4047  Q 2441 4250 2034 4250  Q 1625 4250 1398 4047  Q 1172 3844 1172 3481  z "
                   transform="scale(0.015625)" />
              </defs>
              <use
                 xlink:href="#DejaVuSans-38"
                 id="use99" />
              <use
                 xlink:href="#DejaVuSans-30"
                 x="63.623047"
                 id="use101" />
              <use
                 xlink:href="#DejaVuSans-30"
                 x="127.246094"
                 id="use103" />
              <use
                 xlink:href="#DejaVuSans-30"
                 x="190.869141"
                 id="use105" />
            </g>
          </g>
        </g>
        <g
           id="xtick_6">
          <g
             id="line2d_6">
            <g
               id="g113">
              <use
                 xlink:href="#m6a032d9571"
                 x="373.612258"
                 y="256.32"
                 style="stroke: #000000; stroke-width: 0.8"
                 id="use111" />
            </g>
          </g>
          <g
             id="text_6">
            <!-- 10000 -->
            <g
               transform="translate(357.706008 270.918437) scale(0.1 -0.1)"
               id="g129">
              <defs
                 id="defs117">
                <path
                   id="DejaVuSans-31"
                   d="M 794 531  L 1825 531  L 1825 4091  L 703 3866  L 703 4441  L 1819 4666  L 2450 4666  L 2450 531  L 3481 531  L 3481 0  L 794 0  L 794 531  z "
                   transform="scale(0.015625)" />
              </defs>
              <use
                 xlink:href="#DejaVuSans-31"
                 id="use119" />
              <use
                 xlink:href="#DejaVuSans-30"
                 x="63.623047"
                 id="use121" />
              <use
                 xlink:href="#DejaVuSans-30"
                 x="127.246094"
                 id="use123" />
              <use
                 xlink:href="#DejaVuSans-30"
                 x="190.869141"
                 id="use125" />
              <use
                 xlink:href="#DejaVuSans-30"
                 x="254.492188"
                 id="use127" />
            </g>
          </g>
        </g>
        <g
           id="text_7">
          <!-- Number of nodes -->
          <g
             transform="translate(178.232812 284.596563) scale(0.1 -0.1)"
             id="g177">
            <defs
               id="defs145">
              <path
                 id="DejaVuSans-4e"
                 d="M 628 4666  L 1478 4666  L 3547 763  L 3547 4666  L 4159 4666  L 4159 0  L 3309 0  L 1241 3903  L 1241 0  L 628 0  L 628 4666  z "
                 transform="scale(0.015625)" />
              <path
                 id="DejaVuSans-75"
                 d="M 544 1381  L 544 3500  L 1119 3500  L 1119 1403  Q 1119 906 1312 657  Q 1506 409 1894 409  Q 2359 409 2629 706  Q 2900 1003 2900 1516  L 2900 3500  L 3475 3500  L 3475 0  L 2900 0  L 2900 538  Q 2691 219 2414 64  Q 2138 -91 1772 -91  Q 1169 -91 856 284  Q 544 659 544 1381  z M 1991 3584  L 1991 3584  z "
                 transform="scale(0.015625)" />
              <path
                 id="DejaVuSans-6d"
                 d="M 3328 2828  Q 3544 3216 3844 3400  Q 4144 3584 4550 3584  Q 5097 3584 5394 3201  Q 5691 2819 5691 2113  L 5691 0  L 5113 0  L 5113 2094  Q 5113 2597 4934 2840  Q 4756 3084 4391 3084  Q 3944 3084 3684 2787  Q 3425 2491 3425 1978  L 3425 0  L 2847 0  L 2847 2094  Q 2847 2600 2669 2842  Q 2491 3084 2119 3084  Q 1678 3084 1418 2786  Q 1159 2488 1159 1978  L 1159 0  L 581 0  L 581 3500  L 1159 3500  L 1159 2956  Q 1356 3278 1631 3431  Q 1906 3584 2284 3584  Q 2666 3584 2933 3390  Q 3200 3197 3328 2828  z "
                 transform="scale(0.015625)" />
              <path
                 id="DejaVuSans-62"
                 d="M 3116 1747  Q 3116 2381 2855 2742  Q 2594 3103 2138 3103  Q 1681 3103 1420 2742  Q 1159 2381 1159 1747  Q 1159 1113 1420 752  Q 1681 391 2138 391  Q 2594 391 2855 752  Q 3116 1113 3116 1747  z M 1159 2969  Q 1341 3281 1617 3432  Q 1894 3584 2278 3584  Q 2916 3584 3314 3078  Q 3713 2572 3713 1747  Q 3713 922 3314 415  Q 2916 -91 2278 -91  Q 1894 -91 1617 61  Q 1341 213 1159 525  L 1159 0  L 581 0  L 581 4863  L 1159 4863  L 1159 2969  z "
                 transform="scale(0.015625)" />
              <path
                 id="DejaVuSans-65"
                 d="M 3597 1894  L 3597 1613  L 953 1613  Q 991 1019 1311 708  Q 1631 397 2203 397  Q 2534 397 2845 478  Q 3156 559 3463 722  L 3463 178  Q 3153 47 2828 -22  Q 2503 -91 2169 -91  Q 1331 -91 842 396  Q 353 884 353 1716  Q 353 2575 817 3079  Q 1281 3584 2069 3584  Q 2775 3584 3186 3129  Q 3597 2675 3597 1894  z M 3022 2063  Q 3016 2534 2758 2815  Q 2500 3097 2075 3097  Q 1594 3097 1305 2825  Q 1016 2553 972 2059  L 3022 2063  z "
                 transform="scale(0.015625)" />
              <path
                 id="DejaVuSans-72"
                 d="M 2631 2963  Q 2534 3019 2420 3045  Q 2306 3072 2169 3072  Q 1681 3072 1420 2755  Q 1159 2438 1159 1844  L 1159 0  L 581 0  L 581 3500  L 1159 3500  L 1159 2956  Q 1341 3275 1631 3429  Q 1922 3584 2338 3584  Q 2397 3584 2469 3576  Q 2541 3569 2628 3553  L 2631 2963  z "
                 transform="scale(0.015625)" />
              <path
                 id="DejaVuSans-20"
                 transform="scale(0.015625)" />
              <path
                 id="DejaVuSans-6f"
                 d="M 1959 3097  Q 1497 3097 1228 2736  Q 959 2375 959 1747  Q 959 1119 1226 758  Q 1494 397 1959 397  Q 2419 397 2687 759  Q 2956 1122 2956 1747  Q 2956 2369 2687 2733  Q 2419 3097 1959 3097  z M 1959 3584  Q 2709 3584 3137 3096  Q 3566 2609 3566 1747  Q 3566 888 3137 398  Q 2709 -91 1959 -91  Q 1206 -91 779 398  Q 353 888 353 1747  Q 353 2609 779 3096  Q 1206 3584 1959 3584  z "
                 transform="scale(0.015625)" />
              <path
                 id="DejaVuSans-66"
                 d="M 2375 4863  L 2375 4384  L 1825 4384  Q 1516 4384 1395 4259  Q 1275 4134 1275 3809  L 1275 3500  L 2222 3500  L 2222 3053  L 1275 3053  L 1275 0  L 697 0  L 697 3053  L 147 3053  L 147 3500  L 697 3500  L 697 3744  Q 697 4328 969 4595  Q 1241 4863 1831 4863  L 2375 4863  z "
                 transform="scale(0.015625)" />
              <path
                 id="DejaVuSans-6e"
                 d="M 3513 2113  L 3513 0  L 2938 0  L 2938 2094  Q 2938 2591 2744 2837  Q 2550 3084 2163 3084  Q 1697 3084 1428 2787  Q 1159 2491 1159 1978  L 1159 0  L 581 0  L 581 3500  L 1159 3500  L 1159 2956  Q 1366 3272 1645 3428  Q 1925 3584 2291 3584  Q 2894 3584 3203 3211  Q 3513 2838 3513 2113  z "
                 transform="scale(0.015625)" />
              <path
                 id="DejaVuSans-64"
                 d="M 2906 2969  L 2906 4863  L 3481 4863  L 3481 0  L 2906 0  L 2906 525  Q 2725 213 2448 61  Q 2172 -91 1784 -91  Q 1150 -91 751 415  Q 353 922 353 1747  Q 353 2572 751 3078  Q 1150 3584 1784 3584  Q 2172 3584 2448 3432  Q 2725 3281 2906 2969  z M 947 1747  Q 947 1113 1208 752  Q 1469 391 1925 391  Q 2381 391 2643 752  Q 2906 1113 2906 1747  Q 2906 2381 2643 2742  Q 2381 3103 1925 3103  Q 1469 3103 1208 2742  Q 947 2381 947 1747  z "
                 transform="scale(0.015625)" />
              <path
                 id="DejaVuSans-73"
                 d="M 2834 3397  L 2834 2853  Q 2591 2978 2328 3040  Q 2066 3103 1784 3103  Q 1356 3103 1142 2972  Q 928 2841 928 2578  Q 928 2378 1081 2264  Q 1234 2150 1697 2047  L 1894 2003  Q 2506 1872 2764 1633  Q 3022 1394 3022 966  Q 3022 478 2636 193  Q 2250 -91 1575 -91  Q 1294 -91 989 -36  Q 684 19 347 128  L 347 722  Q 666 556 975 473  Q 1284 391 1588 391  Q 1994 391 2212 530  Q 2431 669 2431 922  Q 2431 1156 2273 1281  Q 2116 1406 1581 1522  L 1381 1569  Q 847 1681 609 1914  Q 372 2147 372 2553  Q 372 3047 722 3315  Q 1072 3584 1716 3584  Q 2034 3584 2315 3537  Q 2597 3491 2834 3397  z "
                 transform="scale(0.015625)" />
            </defs>
            <use
               xlink:href="#DejaVuSans-4e"
               id="use147" />
            <use
               xlink:href="#DejaVuSans-75"
               x="74.804688"
               id="use149" />
            <use
               xlink:href="#DejaVuSans-6d"
               x="138.183594"
               id="use151" />
            <use
               xlink:href="#DejaVuSans-62"
               x="235.595703"
               id="use153" />
            <use
               xlink:href="#DejaVuSans-65"
               x="299.072266"
               id="use155" />
            <use
               xlink:href="#DejaVuSans-72"
               x="360.595703"
               id="use157" />
            <use
               xlink:href="#DejaVuSans-20"
               x="401.708984"
               id="use159" />
            <use
               xlink:href="#DejaVuSans-6f"
               x="433.496094"
               id="use161" />
            <use
               xlink:href="#DejaVuSans-66"
               x="494.677734"
               id="use163" />
            <use
               xlink:href="#DejaVuSans-20"
               x="529.882812"
               id="use165" />
            <use
               xlink:href="#DejaVuSans-6e"
               x="561.669922"
               id="use167" />
            <use
               xlink:href="#DejaVuSans-6f"
               x="625.048828"
               id="use169" />
            <use
               xlink:href="#DejaVuSans-64"
               x="686.230469"
               id="use171" />
            <use
               xlink:href="#DejaVuSans-65"
               x="749.707031"
               id="use173" />
            <use
               xlink:href="#DejaVuSans-73"
               x="811.230469"
               id="use175" />
          </g>
        </g>
      </g>
      <g
         id="matplotlib.axis_2">
        <g
           id="ytick_1">
          <g
             id="line2d_7">
            <defs
               id="defs182">
              <path
                 id="m0b7816f4a8"
                 d="M 0 0  L -3.5 0  "
                 style="stroke: #000000; stroke-width: 0.8" />
            </defs>
            <g
               id="g186">
              <use
                 xlink:href="#m0b7816f4a8"
                 x="54"
                 y="256.32"
                 style="stroke: #000000; stroke-width: 0.8"
                 id="use184" />
            </g>
          </g>
          <g
             id="text_8">
            <!-- 0 -->
            <g
               transform="translate(40.6375 260.119219) scale(0.1 -0.1)"
               id="g191">
              <use
                 xlink:href="#DejaVuSans-30"
                 id="use189" />
            </g>
          </g>
        </g>
        <g
           id="ytick_2">
          <g
             id="line2d_8">
            <g
               id="g197">
              <use
                 xlink:href="#m0b7816f4a8"
                 x="54"
                 y="228.6"
                 style="stroke: #000000; stroke-width: 0.8"
                 id="use195" />
            </g>
          </g>
          <g
             id="text_9">
            <!-- 10 -->
            <g
               transform="translate(34.275 232.399219) scale(0.1 -0.1)"
               id="g204">
              <use
                 xlink:href="#DejaVuSans-31"
                 id="use200" />
              <use
                 xlink:href="#DejaVuSans-30"
                 x="63.623047"
                 id="use202" />
            </g>
          </g>
        </g>
        <g
           id="ytick_3">
          <g
             id="line2d_9">
            <g
               id="g210">
              <use
                 xlink:href="#m0b7816f4a8"
                 x="54"
                 y="200.88"
                 style="stroke: #000000; stroke-width: 0.8"
                 id="use208" />
            </g>
          </g>
          <g
             id="text_10">
            <!-- 20 -->
            <g
               transform="translate(34.275 204.679219) scale(0.1 -0.1)"
               id="g217">
              <use
                 xlink:href="#DejaVuSans-32"
                 id="use213" />
              <use
                 xlink:href="#DejaVuSans-30"
                 x="63.623047"
                 id="use215" />
            </g>
          </g>
        </g>
        <g
           id="ytick_4">
          <g
             id="line2d_10">
            <g
               id="g223">
              <use
                 xlink:href="#m0b7816f4a8"
                 x="54"
                 y="173.16"
                 style="stroke: #000000; stroke-width: 0.8"
                 id="use221" />
            </g>
          </g>
          <g
             id="text_11">
            <!-- 30 -->
            <g
               transform="translate(34.275 176.959219) scale(0.1 -0.1)"
               id="g233">
              <defs
                 id="defs227">
                <path
                   id="DejaVuSans-33"
                   d="M 2597 2516  Q 3050 2419 3304 2112  Q 3559 1806 3559 1356  Q 3559 666 3084 287  Q 2609 -91 1734 -91  Q 1441 -91 1130 -33  Q 819 25 488 141  L 488 750  Q 750 597 1062 519  Q 1375 441 1716 441  Q 2309 441 2620 675  Q 2931 909 2931 1356  Q 2931 1769 2642 2001  Q 2353 2234 1838 2234  L 1294 2234  L 1294 2753  L 1863 2753  Q 2328 2753 2575 2939  Q 2822 3125 2822 3475  Q 2822 3834 2567 4026  Q 2313 4219 1838 4219  Q 1578 4219 1281 4162  Q 984 4106 628 3988  L 628 4550  Q 988 4650 1302 4700  Q 1616 4750 1894 4750  Q 2613 4750 3031 4423  Q 3450 4097 3450 3541  Q 3450 3153 3228 2886  Q 3006 2619 2597 2516  z "
                   transform="scale(0.015625)" />
              </defs>
              <use
                 xlink:href="#DejaVuSans-33"
                 id="use229" />
              <use
                 xlink:href="#DejaVuSans-30"
                 x="63.623047"
                 id="use231" />
            </g>
          </g>
        </g>
        <g
           id="ytick_5">
          <g
             id="line2d_11">
            <g
               id="g239">
              <use
                 xlink:href="#m0b7816f4a8"
                 x="54"
                 y="145.44"
                 style="stroke: #000000; stroke-width: 0.8"
                 id="use237" />
            </g>
          </g>
          <g
             id="text_12">
            <!-- 40 -->
            <g
               transform="translate(34.275 149.239219) scale(0.1 -0.1)"
               id="g246">
              <use
                 xlink:href="#DejaVuSans-34"
                 id="use242" />
              <use
                 xlink:href="#DejaVuSans-30"
                 x="63.623047"
                 id="use244" />
            </g>
          </g>
        </g>
        <g
           id="ytick_6">
          <g
             id="line2d_12">
            <g
               id="g252">
              <use
                 xlink:href="#m0b7816f4a8"
                 x="54"
                 y="117.72"
                 style="stroke: #000000; stroke-width: 0.8"
                 id="use250" />
            </g>
          </g>
          <g
             id="text_13">
            <!-- 50 -->
            <g
               transform="translate(34.275 121.519219) scale(0.1 -0.1)"
               id="g262">
              <defs
                 id="defs256">
                <path
                   id="DejaVuSans-35"
                   d="M 691 4666  L 3169 4666  L 3169 4134  L 1269 4134  L 1269 2991  Q 1406 3038 1543 3061  Q 1681 3084 1819 3084  Q 2600 3084 3056 2656  Q 3513 2228 3513 1497  Q 3513 744 3044 326  Q 2575 -91 1722 -91  Q 1428 -91 1123 -41  Q 819 9 494 109  L 494 744  Q 775 591 1075 516  Q 1375 441 1709 441  Q 2250 441 2565 725  Q 2881 1009 2881 1497  Q 2881 1984 2565 2268  Q 2250 2553 1709 2553  Q 1456 2553 1204 2497  Q 953 2441 691 2322  L 691 4666  z "
                   transform="scale(0.015625)" />
              </defs>
              <use
                 xlink:href="#DejaVuSans-35"
                 id="use258" />
              <use
                 xlink:href="#DejaVuSans-30"
                 x="63.623047"
                 id="use260" />
            </g>
          </g>
        </g>
        <g
           id="ytick_7">
          <g
             id="line2d_13">
            <g
               id="g268">
              <use
                 xlink:href="#m0b7816f4a8"
                 x="54"
                 y="90"
                 style="stroke: #000000; stroke-width: 0.8"
                 id="use266" />
            </g>
          </g>
          <g
             id="text_14">
            <!-- 60 -->
            <g
               transform="translate(34.275 93.799219) scale(0.1 -0.1)"
               id="g275">
              <use
                 xlink:href="#DejaVuSans-36"
                 id="use271" />
              <use
                 xlink:href="#DejaVuSans-30"
                 x="63.623047"
                 id="use273" />
            </g>
          </g>
        </g>
        <g
           id="ytick_8">
          <g
             id="line2d_14">
            <g
               id="g281">
              <use
                 xlink:href="#m0b7816f4a8"
                 x="54"
                 y="62.28"
                 style="stroke: #000000; stroke-width: 0.8"
                 id="use279" />
            </g>
          </g>
          <g
             id="text_15">
            <!-- 70 -->
            <g
               transform="translate(34.275 66.079219) scale(0.1 -0.1)"
               id="g291">
              <defs
                 id="defs285">
                <path
                   id="DejaVuSans-37"
                   d="M 525 4666  L 3525 4666  L 3525 4397  L 1831 0  L 1172 0  L 2766 4134  L 525 4134  L 525 4666  z "
                   transform="scale(0.015625)" />
              </defs>
              <use
                 xlink:href="#DejaVuSans-37"
                 id="use287" />
              <use
                 xlink:href="#DejaVuSans-30"
                 x="63.623047"
                 id="use289" />
            </g>
          </g>
        </g>
        <g
           id="ytick_9">
          <g
             id="line2d_15">
            <g
               id="g297">
              <use
                 xlink:href="#m0b7816f4a8"
                 x="54"
                 y="34.56"
                 style="stroke: #000000; stroke-width: 0.8"
                 id="use295" />
            </g>
          </g>
          <g
             id="text_16">
            <!-- 80 -->
            <g
               transform="translate(34.275 38.359219) scale(0.1 -0.1)"
               id="g304">
              <use
                 xlink:href="#DejaVuSans-38"
                 id="use300" />
              <use
                 xlink:href="#DejaVuSans-30"
                 x="63.623047"
                 id="use302" />
            </g>
          </g>
        </g>
        <g
           id="text_17">
          <!-- Clique detection threshold -->
          <g
             transform="translate(28.195312 211.465781) rotate(-90) scale(0.1 -0.1)"
             id="g369">
            <defs
               id="defs315">
              <path
                 id="DejaVuSans-43"
                 d="M 4122 4306  L 4122 3641  Q 3803 3938 3442 4084  Q 3081 4231 2675 4231  Q 1875 4231 1450 3742  Q 1025 3253 1025 2328  Q 1025 1406 1450 917  Q 1875 428 2675 428  Q 3081 428 3442 575  Q 3803 722 4122 1019  L 4122 359  Q 3791 134 3420 21  Q 3050 -91 2638 -91  Q 1578 -91 968 557  Q 359 1206 359 2328  Q 359 3453 968 4101  Q 1578 4750 2638 4750  Q 3056 4750 3426 4639  Q 3797 4528 4122 4306  z "
                 transform="scale(0.015625)" />
              <path
                 id="DejaVuSans-6c"
                 d="M 603 4863  L 1178 4863  L 1178 0  L 603 0  L 603 4863  z "
                 transform="scale(0.015625)" />
              <path
                 id="DejaVuSans-69"
                 d="M 603 3500  L 1178 3500  L 1178 0  L 603 0  L 603 3500  z M 603 4863  L 1178 4863  L 1178 4134  L 603 4134  L 603 4863  z "
                 transform="scale(0.015625)" />
              <path
                 id="DejaVuSans-71"
                 d="M 947 1747  Q 947 1113 1208 752  Q 1469 391 1925 391  Q 2381 391 2643 752  Q 2906 1113 2906 1747  Q 2906 2381 2643 2742  Q 2381 3103 1925 3103  Q 1469 3103 1208 2742  Q 947 2381 947 1747  z M 2906 525  Q 2725 213 2448 61  Q 2172 -91 1784 -91  Q 1150 -91 751 415  Q 353 922 353 1747  Q 353 2572 751 3078  Q 1150 3584 1784 3584  Q 2172 3584 2448 3432  Q 2725 3281 2906 2969  L 2906 3500  L 3481 3500  L 3481 -1331  L 2906 -1331  L 2906 525  z "
                 transform="scale(0.015625)" />
              <path
                 id="DejaVuSans-74"
                 d="M 1172 4494  L 1172 3500  L 2356 3500  L 2356 3053  L 1172 3053  L 1172 1153  Q 1172 725 1289 603  Q 1406 481 1766 481  L 2356 481  L 2356 0  L 1766 0  Q 1100 0 847 248  Q 594 497 594 1153  L 594 3053  L 172 3053  L 172 3500  L 594 3500  L 594 4494  L 1172 4494  z "
                 transform="scale(0.015625)" />
              <path
                 id="DejaVuSans-63"
                 d="M 3122 3366  L 3122 2828  Q 2878 2963 2633 3030  Q 2388 3097 2138 3097  Q 1578 3097 1268 2742  Q 959 2388 959 1747  Q 959 1106 1268 751  Q 1578 397 2138 397  Q 2388 397 2633 464  Q 2878 531 3122 666  L 3122 134  Q 2881 22 2623 -34  Q 2366 -91 2075 -91  Q 1284 -91 818 406  Q 353 903 353 1747  Q 353 2603 823 3093  Q 1294 3584 2113 3584  Q 2378 3584 2631 3529  Q 2884 3475 3122 3366  z "
                 transform="scale(0.015625)" />
              <path
                 id="DejaVuSans-68"
                 d="M 3513 2113  L 3513 0  L 2938 0  L 2938 2094  Q 2938 2591 2744 2837  Q 2550 3084 2163 3084  Q 1697 3084 1428 2787  Q 1159 2491 1159 1978  L 1159 0  L 581 0  L 581 4863  L 1159 4863  L 1159 2956  Q 1366 3272 1645 3428  Q 1925 3584 2291 3584  Q 2894 3584 3203 3211  Q 3513 2838 3513 2113  z "
                 transform="scale(0.015625)" />
            </defs>
            <use
               xlink:href="#DejaVuSans-43"
               id="use317" />
            <use
               xlink:href="#DejaVuSans-6c"
               x="69.824219"
               id="use319" />
            <use
               xlink:href="#DejaVuSans-69"
               x="97.607422"
               id="use321" />
            <use
               xlink:href="#DejaVuSans-71"
               x="125.390625"
               id="use323" />
            <use
               xlink:href="#DejaVuSans-75"
               x="188.867188"
               id="use325" />
            <use
               xlink:href="#DejaVuSans-65"
               x="252.246094"
               id="use327" />
            <use
               xlink:href="#DejaVuSans-20"
               x="313.769531"
               id="use329" />
            <use
               xlink:href="#DejaVuSans-64"
               x="345.556641"
               id="use331" />
            <use
               xlink:href="#DejaVuSans-65"
               x="409.033203"
               id="use333" />
            <use
               xlink:href="#DejaVuSans-74"
               x="470.556641"
               id="use335" />
            <use
               xlink:href="#DejaVuSans-65"
               x="509.765625"
               id="use337" />
            <use
               xlink:href="#DejaVuSans-63"
               x="571.289062"
               id="use339" />
            <use
               xlink:href="#DejaVuSans-74"
               x="626.269531"
               id="use341" />
            <use
               xlink:href="#DejaVuSans-69"
               x="665.478516"
               id="use343" />
            <use
               xlink:href="#DejaVuSans-6f"
               x="693.261719"
               id="use345" />
            <use
               xlink:href="#DejaVuSans-6e"
               x="754.443359"
               id="use347" />
            <use
               xlink:href="#DejaVuSans-20"
               x="817.822266"
               id="use349" />
            <use
               xlink:href="#DejaVuSans-74"
               x="849.609375"
               id="use351" />
            <use
               xlink:href="#DejaVuSans-68"
               x="888.818359"
               id="use353" />
            <use
               xlink:href="#DejaVuSans-72"
               x="952.197266"
               id="use355" />
            <use
               xlink:href="#DejaVuSans-65"
               x="991.060547"
               id="use357" />
            <use
               xlink:href="#DejaVuSans-73"
               x="1052.583984"
               id="use359" />
            <use
               xlink:href="#DejaVuSans-68"
               x="1104.683594"
               id="use361" />
            <use
               xlink:href="#DejaVuSans-6f"
               x="1168.0625"
               id="use363" />
            <use
               xlink:href="#DejaVuSans-6c"
               x="1229.244141"
               id="use365" />
            <use
               xlink:href="#DejaVuSans-64"
               x="1257.027344"
               id="use367" />
          </g>
        </g>
      </g>
      <g
         id="line2d_16">
        <path
           d="M 69.248621 256.32  L 69.431258 240.756024  L 69.735652 233.659106  L 70.161803 228.853936  L 70.709713 225.192049  L 71.37938 222.225802  L 72.170804 219.730083  L 73.083987 217.574732  L 74.149366 215.627872  L 75.366942 213.862876  L 76.767155 212.221936  L 78.380443 210.672813  L 80.267687 209.17479  L 82.459324 207.727552  L 84.985795 206.330815  L 87.938417 204.95793  L 91.378071 203.608787  L 95.396072 202.276019  L 100.114181 200.950608  L 105.654153 199.63145  L 112.137747 198.321558  L 119.778038 197.011195  L 128.727224 195.707709  L 139.259259 194.404357  L 151.648098 193.101701  L 166.198134 191.801531  L 183.305081 190.502157  L 203.42553 189.203029  L 227.07695 187.904786  L 254.898568 186.606453  L 287.620931 185.308217  L 326.096342 184.010404  L 371.329302 182.713136  L 373.581818 182.653722  L 373.581818 182.653722  "
           clip-path="url(#p337ca35c22)"
           style="fill: none; stroke: #008000; stroke-width: 1.5; stroke-linecap: square"
           id="path373" />
      </g>
      <g
         id="line2d_17">
        <path
           d="M 69.218182 256.32  L 69.400818 252.201666  L 69.796531 248.99137  L 70.435758 245.686506  L 71.288062 242.45562  L 72.38388 239.174007  L 73.723214 235.866066  L 75.336503 232.483416  L 77.223746 229.053848  L 79.384944 225.593067  L 81.850536 222.069254  L 84.620522 218.500024  L 87.725342 214.863009  L 91.195434 211.143292  L 95.030799 207.359718  L 99.261877 203.49925  L 103.919106 199.552678  L 104.193061 199.329036  L 104.193061 199.329036  "
           clip-path="url(#p337ca35c22)"
           style="fill: none; stroke-dasharray: 1.5,2.475; stroke-dashoffset: 0; stroke: #ffa500; stroke-width: 1.5"
           id="path376" />
      </g>
      <g
         id="line2d_18">
        <path
           d="M 104.223501 199.304242  L 109.36776 195.258371  L 114.968611 191.138331  L 121.086932 186.916595  L 127.722723 182.610634  L 134.906423 178.216283  L 142.668472 173.730536  L 151.069749 169.135077  L 160.110253 164.446368  L 169.820424 159.663355  L 180.230701 154.785446  L 191.401964 149.799139  L 203.334212 144.718963  L 216.088323 139.532962  L 229.694739 134.243046  L 244.183897 128.851063  L 259.586237 123.358801  L 275.932199 117.767984  L 293.282661 112.070474  L 311.668063 106.269007  L 331.149284 100.357057  L 351.726324 94.346722  L 373.4905 88.223331  L 373.581818 88.198108  L 373.581818 88.198108  "
           clip-path="url(#p337ca35c22)"
           style="fill: none; stroke: #ffa500; stroke-width: 1.5; stroke-linecap: square"
           id="path379" />
      </g>
      <g
         id="patch_3">
        <path
           d="M 54 256.32  L 54 34.56  "
           style="fill: none; stroke: #000000; stroke-width: 0.8; stroke-linejoin: miter; stroke-linecap: square"
           id="path382" />
      </g>
      <g
         id="patch_4">
        <path
           d="M 388.8 256.32  L 388.8 34.56  "
           style="fill: none; stroke: #000000; stroke-width: 0.8; stroke-linejoin: miter; stroke-linecap: square"
           id="path385" />
      </g>
      <g
         id="patch_5">
        <path
           d="M 54 256.32  L 388.8 256.32  "
           style="fill: none; stroke: #000000; stroke-width: 0.8; stroke-linejoin: miter; stroke-linecap: square"
           id="path388" />
      </g>
      <g
         id="patch_6">
        <path
           d="M 54 34.56  L 388.8 34.56  "
           style="fill: none; stroke: #000000; stroke-width: 0.8; stroke-linejoin: miter; stroke-linecap: square"
           id="path391" />
      </g>
      <g
         id="legend_1">
        <g
           id="patch_7">
          <path
             d="M 61 78.26  L 201.7 78.26  Q 203.7 78.26 203.7 76.26  L 203.7 41.56  Q 203.7 39.56 201.7 39.56  L 61 39.56  Q 59 39.56 59 41.56  L 59 76.26  Q 59 78.26 61 78.26  z "
             style="fill: #ffffff; opacity: 0.8; stroke: #cccccc; stroke-linejoin: miter"
             id="path394" />
        </g>
        <g
           id="line2d_19">
          <path
             d="M 63 47.66  L 73 47.66  L 83 47.66  "
             style="fill: none; stroke: #008000; stroke-width: 1.5; stroke-linecap: square"
             id="path397" />
        </g>
        <g
           id="text_18">
          <!-- STAT limit = $2\log_2(N)$ -->
          <g
             transform="translate(91 51.16) scale(0.1 -0.1)"
             id="g452">
            <defs
               id="defs408">
              <path
                 id="DejaVuSans-53"
                 d="M 3425 4513  L 3425 3897  Q 3066 4069 2747 4153  Q 2428 4238 2131 4238  Q 1616 4238 1336 4038  Q 1056 3838 1056 3469  Q 1056 3159 1242 3001  Q 1428 2844 1947 2747  L 2328 2669  Q 3034 2534 3370 2195  Q 3706 1856 3706 1288  Q 3706 609 3251 259  Q 2797 -91 1919 -91  Q 1588 -91 1214 -16  Q 841 59 441 206  L 441 856  Q 825 641 1194 531  Q 1563 422 1919 422  Q 2459 422 2753 634  Q 3047 847 3047 1241  Q 3047 1584 2836 1778  Q 2625 1972 2144 2069  L 1759 2144  Q 1053 2284 737 2584  Q 422 2884 422 3419  Q 422 4038 858 4394  Q 1294 4750 2059 4750  Q 2388 4750 2728 4690  Q 3069 4631 3425 4513  z "
                 transform="scale(0.015625)" />
              <path
                 id="DejaVuSans-54"
                 d="M -19 4666  L 3928 4666  L 3928 4134  L 2272 4134  L 2272 0  L 1638 0  L 1638 4134  L -19 4134  L -19 4666  z "
                 transform="scale(0.015625)" />
              <path
                 id="DejaVuSans-41"
                 d="M 2188 4044  L 1331 1722  L 3047 1722  L 2188 4044  z M 1831 4666  L 2547 4666  L 4325 0  L 3669 0  L 3244 1197  L 1141 1197  L 716 0  L 50 0  L 1831 4666  z "
                 transform="scale(0.015625)" />
              <path
                 id="DejaVuSans-3d"
                 d="M 678 2906  L 4684 2906  L 4684 2381  L 678 2381  L 678 2906  z M 678 1631  L 4684 1631  L 4684 1100  L 678 1100  L 678 1631  z "
                 transform="scale(0.015625)" />
              <path
                 id="DejaVuSans-67"
                 d="M 2906 1791  Q 2906 2416 2648 2759  Q 2391 3103 1925 3103  Q 1463 3103 1205 2759  Q 947 2416 947 1791  Q 947 1169 1205 825  Q 1463 481 1925 481  Q 2391 481 2648 825  Q 2906 1169 2906 1791  z M 3481 434  Q 3481 -459 3084 -895  Q 2688 -1331 1869 -1331  Q 1566 -1331 1297 -1286  Q 1028 -1241 775 -1147  L 775 -588  Q 1028 -725 1275 -790  Q 1522 -856 1778 -856  Q 2344 -856 2625 -561  Q 2906 -266 2906 331  L 2906 616  Q 2728 306 2450 153  Q 2172 0 1784 0  Q 1141 0 747 490  Q 353 981 353 1791  Q 353 2603 747 3093  Q 1141 3584 1784 3584  Q 2172 3584 2450 3431  Q 2728 3278 2906 2969  L 2906 3500  L 3481 3500  L 3481 434  z "
                 transform="scale(0.015625)" />
              <path
                 id="DejaVuSans-28"
                 d="M 1984 4856  Q 1566 4138 1362 3434  Q 1159 2731 1159 2009  Q 1159 1288 1364 580  Q 1569 -128 1984 -844  L 1484 -844  Q 1016 -109 783 600  Q 550 1309 550 2009  Q 550 2706 781 3412  Q 1013 4119 1484 4856  L 1984 4856  z "
                 transform="scale(0.015625)" />
              <path
                 id="DejaVuSans-Oblique-4e"
                 d="M 1081 4666  L 1931 4666  L 3219 666  L 4000 4666  L 4616 4666  L 3706 0  L 2853 0  L 1569 4025  L 788 0  L 172 0  L 1081 4666  z "
                 transform="scale(0.015625)" />
              <path
                 id="DejaVuSans-29"
                 d="M 513 4856  L 1013 4856  Q 1481 4119 1714 3412  Q 1947 2706 1947 2009  Q 1947 1309 1714 600  Q 1481 -109 1013 -844  L 513 -844  Q 928 -128 1133 580  Q 1338 1288 1338 2009  Q 1338 2731 1133 3434  Q 928 4138 513 4856  z "
                 transform="scale(0.015625)" />
            </defs>
            <use
               xlink:href="#DejaVuSans-53"
               transform="translate(0 0.015625)"
               id="use410" />
            <use
               xlink:href="#DejaVuSans-54"
               transform="translate(63.476562 0.015625)"
               id="use412" />
            <use
               xlink:href="#DejaVuSans-41"
               transform="translate(124.560547 0.015625)"
               id="use414" />
            <use
               xlink:href="#DejaVuSans-54"
               transform="translate(192.96875 0.015625)"
               id="use416" />
            <use
               xlink:href="#DejaVuSans-20"
               transform="translate(254.052734 0.015625)"
               id="use418" />
            <use
               xlink:href="#DejaVuSans-6c"
               transform="translate(285.839844 0.015625)"
               id="use420" />
            <use
               xlink:href="#DejaVuSans-69"
               transform="translate(313.623047 0.015625)"
               id="use422" />
            <use
               xlink:href="#DejaVuSans-6d"
               transform="translate(341.40625 0.015625)"
               id="use424" />
            <use
               xlink:href="#DejaVuSans-69"
               transform="translate(438.818359 0.015625)"
               id="use426" />
            <use
               xlink:href="#DejaVuSans-74"
               transform="translate(466.601562 0.015625)"
               id="use428" />
            <use
               xlink:href="#DejaVuSans-20"
               transform="translate(505.810547 0.015625)"
               id="use430" />
            <use
               xlink:href="#DejaVuSans-3d"
               transform="translate(537.597656 0.015625)"
               id="use432" />
            <use
               xlink:href="#DejaVuSans-20"
               transform="translate(621.386719 0.015625)"
               id="use434" />
            <use
               xlink:href="#DejaVuSans-32"
               transform="translate(653.173828 0.015625)"
               id="use436" />
            <use
               xlink:href="#DejaVuSans-6c"
               transform="translate(716.796875 0.015625)"
               id="use438" />
            <use
               xlink:href="#DejaVuSans-6f"
               transform="translate(744.580078 0.015625)"
               id="use440" />
            <use
               xlink:href="#DejaVuSans-67"
               transform="translate(805.761719 0.015625)"
               id="use442" />
            <use
               xlink:href="#DejaVuSans-32"
               transform="translate(870.195312 -16.390625) scale(0.7)"
               id="use444" />
            <use
               xlink:href="#DejaVuSans-28"
               transform="translate(933.701497 0.015625)"
               id="use446" />
            <use
               xlink:href="#DejaVuSans-Oblique-4e"
               transform="translate(972.715168 0.015625)"
               id="use448" />
            <use
               xlink:href="#DejaVuSans-29"
               transform="translate(1047.519856 0.015625)"
               id="use450" />
          </g>
        </g>
        <g
           id="line2d_20">
          <path
             d="M 63 67.96  L 73 67.96  L 83 67.96  "
             style="fill: none; stroke: #ffa500; stroke-width: 1.5; stroke-linecap: square"
             id="path455" />
        </g>
        <g
           id="text_19">
          <!-- COMP limit = $\sqrt{\frac{N}{e}}$ -->
          <g
             transform="translate(91 71.46) scale(0.1 -0.1)"
             id="g501">
            <defs
               id="defs463">
              <path
                 id="DejaVuSans-4f"
                 d="M 2522 4238  Q 1834 4238 1429 3725  Q 1025 3213 1025 2328  Q 1025 1447 1429 934  Q 1834 422 2522 422  Q 3209 422 3611 934  Q 4013 1447 4013 2328  Q 4013 3213 3611 3725  Q 3209 4238 2522 4238  z M 2522 4750  Q 3503 4750 4090 4092  Q 4678 3434 4678 2328  Q 4678 1225 4090 567  Q 3503 -91 2522 -91  Q 1538 -91 948 565  Q 359 1222 359 2328  Q 359 3434 948 4092  Q 1538 4750 2522 4750  z "
                 transform="scale(0.015625)" />
              <path
                 id="DejaVuSans-4d"
                 d="M 628 4666  L 1569 4666  L 2759 1491  L 3956 4666  L 4897 4666  L 4897 0  L 4281 0  L 4281 4097  L 3078 897  L 2444 897  L 1241 4097  L 1241 0  L 628 0  L 628 4666  z "
                 transform="scale(0.015625)" />
              <path
                 id="DejaVuSans-50"
                 d="M 1259 4147  L 1259 2394  L 2053 2394  Q 2494 2394 2734 2622  Q 2975 2850 2975 3272  Q 2975 3691 2734 3919  Q 2494 4147 2053 4147  L 1259 4147  z M 628 4666  L 2053 4666  Q 2838 4666 3239 4311  Q 3641 3956 3641 3272  Q 3641 2581 3239 2228  Q 2838 1875 2053 1875  L 1259 1875  L 1259 0  L 628 0  L 628 4666  z "
                 transform="scale(0.015625)" />
              <path
                 id="STIXSizeOneSym-Regular-221a"
                 d="M 6970 9933  L 3373 -1888  L 3104 -1888  L 1626 2918  Q 1555 3149 1465 3251  Q 1376 3354 1229 3354  Q 1011 3354 794 3181  L 717 3309  L 1766 4115  L 1926 4115  L 3379 -602  L 3405 -602  L 6605 9933  L 6970 9933  z "
                 transform="scale(0.015625)" />
              <path
                 id="DejaVuSans-Oblique-65"
                 d="M 3078 2063  Q 3088 2113 3092 2166  Q 3097 2219 3097 2272  Q 3097 2653 2873 2875  Q 2650 3097 2266 3097  Q 1838 3097 1509 2826  Q 1181 2556 1013 2059  L 3078 2063  z M 3578 1613  L 903 1613  Q 884 1494 878 1425  Q 872 1356 872 1306  Q 872 872 1139 634  Q 1406 397 1894 397  Q 2269 397 2603 481  Q 2938 566 3225 728  L 3116 159  Q 2806 34 2476 -28  Q 2147 -91 1806 -91  Q 1078 -91 686 257  Q 294 606 294 1247  Q 294 1794 489 2264  Q 684 2734 1063 3103  Q 1306 3334 1642 3459  Q 1978 3584 2356 3584  Q 2950 3584 3301 3228  Q 3653 2872 3653 2272  Q 3653 2128 3634 1964  Q 3616 1800 3578 1613  z "
                 transform="scale(0.015625)" />
            </defs>
            <use
               xlink:href="#DejaVuSans-43"
               transform="translate(0 0.351562)"
               id="use465" />
            <use
               xlink:href="#DejaVuSans-4f"
               transform="translate(69.824219 0.351562)"
               id="use467" />
            <use
               xlink:href="#DejaVuSans-4d"
               transform="translate(148.535156 0.351562)"
               id="use469" />
            <use
               xlink:href="#DejaVuSans-50"
               transform="translate(234.814453 0.351562)"
               id="use471" />
            <use
               xlink:href="#DejaVuSans-20"
               transform="translate(295.117188 0.351562)"
               id="use473" />
            <use
               xlink:href="#DejaVuSans-6c"
               transform="translate(326.904297 0.351562)"
               id="use475" />
            <use
               xlink:href="#DejaVuSans-69"
               transform="translate(354.6875 0.351562)"
               id="use477" />
            <use
               xlink:href="#DejaVuSans-6d"
               transform="translate(382.470703 0.351562)"
               id="use479" />
            <use
               xlink:href="#DejaVuSans-69"
               transform="translate(479.882812 0.351562)"
               id="use481" />
            <use
               xlink:href="#DejaVuSans-74"
               transform="translate(507.666016 0.351562)"
               id="use483" />
            <use
               xlink:href="#DejaVuSans-20"
               transform="translate(546.875 0.351562)"
               id="use485" />
            <use
               xlink:href="#DejaVuSans-3d"
               transform="translate(578.662109 0.351562)"
               id="use487" />
            <use
               xlink:href="#DejaVuSans-20"
               transform="translate(662.451172 0.351562)"
               id="use489" />
            <use
               xlink:href="#STIXSizeOneSym-Regular-221a"
               transform="translate(694.238281 -2.8125) scale(0.832307)"
               id="use491" />
            <use
               xlink:href="#DejaVuSans-Oblique-4e"
               transform="translate(794.733505 43.715625) scale(0.7)"
               id="use493" />
            <use
               xlink:href="#DejaVuSans-Oblique-65"
               transform="translate(799.733505 -26.734375) scale(0.7)"
               id="use495" />
            <path
               d="M 782.233505 119.5  L 782.233505 125.75  L 872.096786 125.75  L 872.096786 119.5  L 782.233505 119.5  z "
               id="path497" />
            <path
               d="M 794.733505 18.715625  L 794.733505 24.965625  L 847.096786 24.965625  L 847.096786 18.715625  L 794.733505 18.715625  z "
               id="path499" />
          </g>
        </g>
      </g>
    </g>
    <path
       style="opacity:0.25;fill:url(#linearGradient9624);fill-opacity:1;stroke-width:2.001;stroke-linecap:round;stroke-linejoin:round;stroke-miterlimit:0;stroke-opacity:0.997151;paint-order:fill markers stroke"
       d="m 388.38806,85.701495 0.26866,95.462685 c -14.98508,0.47761 -28.75403,1.14373 -45.22388,1.43284 -49.56289,1.41785 -99.21362,3.45051 -149.01493,6.5373 l -44.0597,3.13434 -43.97015,6.3582 c 12.62693,-10.06626 26.5088,-18.73814 41.28358,-26.41791 30.51105,-17.08968 60.26826,-28.52395 90.31025,-39.75032 22.54677,-9.16109 48.14652,-17.64401 71.7112,-24.9845 12.01897,-3.74396 24.06149,-7.33852 34.99348,-10.041292 15.50341,-4.730586 30.1322,-8.99146 43.70149,-11.731343 z"
       id="path2380"
       sodipodi:nodetypes="ccccccccscc" />
    <path
       style="opacity:0.25;fill:url(#linearGradient10140);fill-opacity:1;stroke-width:0.901044;stroke-linecap:round;stroke-linejoin:round;stroke-miterlimit:0;stroke-opacity:0.997151;paint-order:fill markers stroke"
       d="m 93.614045,336.22039 c 0.02486,-3.63088 0.137238,-4.75091 0.490274,-4.88638 0.646274,-0.248 0.603128,-2.2233 -0.04856,-2.2233 -0.37655,0 -0.506584,-0.39699 -0.506584,-1.54658 0,-1.52717 0.01217,-1.54392 0.969282,-1.3337 0.815802,0.17918 1.002239,0.0899 1.177418,-0.56418 0.356154,-1.32969 0.250485,-1.54 -0.88024,-1.75184 l -1.097599,-0.20565 0.08183,-3.2936 c 0.609537,-24.53475 4.179006,-34.1135 15.453414,-41.46958 5.56516,-3.63103 11.62705,-6.17682 21.28322,-8.93824 1.67093,-0.47785 2.18851,-0.52407 2.18851,-0.19545 0,0.23672 0.30554,0.70691 0.67898,1.04487 0.6592,0.59656 0.70348,0.59147 1.51925,-0.17491 0.76008,-0.71406 0.79115,-0.84366 0.3256,-1.35809 -0.47388,-0.52362 -0.37345,-0.59814 1.26696,-0.94012 0.9799,-0.20428 3.90928,-0.8347 6.50975,-1.40092 44.83855,-9.76313 142.82798,-16.21398 325.96901,-21.45924 16.19671,-0.46389 29.60852,-0.84343 29.80403,-0.84343 0.19551,0 0.35548,-0.51531 0.35548,-1.14513 v -1.14513 l 6.67003,-0.20993 c 3.66851,-0.11546 7.84783,-0.29448 9.28737,-0.39783 l 2.61735,-0.1879 v 49.66844 49.66844 H 305.6553 93.581792 Z m 3.670985,-15.7766 c 0.387374,-1.01887 0.18723,-1.32393 -1.07256,-1.6348 -0.730401,-0.18023 -0.919075,-0.0823 -1.092987,0.56712 -0.331855,1.23927 -0.261243,1.56881 0.371594,1.73418 1.19492,0.31227 1.45915,0.2141 1.793953,-0.6665 z m 1.852795,-4.87337 c 0.297087,-0.5745 0.490959,-1.07564 0.430826,-1.11364 -0.222855,-0.14084 -2.00283,-0.88131 -2.118522,-0.88131 -0.145629,0 -0.900106,2.1161 -0.778546,2.1836 0.125825,0.0699 1.761286,0.80618 1.850325,0.83305 0.04167,0.0126 0.318829,-0.44719 0.615917,-1.0217 z m 2.504725,-5.5684 c 0.007,-0.20079 -0.38325,-0.57659 -0.86629,-0.83511 -0.788654,-0.42207 -0.926471,-0.40409 -1.350889,0.17634 -0.696409,0.9524 -0.582539,1.45106 0.4561,1.99737 0.862239,0.45353 0.958109,0.43617 1.338919,-0.2425 0.22561,-0.40206 0.41558,-0.8953 0.42216,-1.0961 z m 2.70624,-4.60854 c 0.004,-0.13502 -0.3886,-0.50504 -0.87272,-0.82225 -0.85355,-0.55927 -0.8994,-0.55183 -1.51225,0.2455 -0.83287,1.08359 -0.81165,1.2194 0.28171,1.803 0.86194,0.46007 0.9707,0.44263 1.51224,-0.2425 0.32093,-0.40603 0.58689,-0.84872 0.59102,-0.98375 z m 2.70178,-4.50997 c 0.004,-0.20079 -0.38523,-0.57527 -0.86525,-0.83217 -0.80376,-0.43016 -0.9233,-0.4013 -1.51224,0.36509 -0.82169,1.06927 -0.82129,1.07179 0.27483,1.71188 0.87772,0.51255 0.95984,0.50338 1.51164,-0.16886 0.32093,-0.39097 0.58689,-0.87514 0.59102,-1.07594 z m 2.52808,-3.37842 c 0.53846,-0.82179 0.53767,-0.91072 -0.0135,-1.51975 -0.32198,-0.35579 -0.77235,-0.64689 -1.00082,-0.64689 -0.38798,0 -1.69319,1.64854 -1.44881,1.8299 0.36224,0.26882 1.79046,1.2096 1.83634,1.2096 0.0302,0 0.31224,-0.39278 0.62679,-0.87286 z m 3.33168,-4.32087 c 0.49156,-0.75021 0.47593,-0.85072 -0.23622,-1.51975 -0.96342,-0.90509 -1.02819,-0.89919 -1.71988,0.15645 -0.53845,0.82179 -0.53766,0.91072 0.0135,1.51975 0.7768,0.85835 1.30557,0.81577 1.9426,-0.15645 z m 3.37722,-4.05267 c 0.49156,-0.75022 0.47594,-0.85072 -0.23622,-1.51975 -0.96341,-0.90509 -1.02819,-0.89919 -1.71987,0.15645 -0.53846,0.82179 -0.53767,0.91072 0.0135,1.51975 0.7768,0.85835 1.30557,0.81577 1.94259,-0.15645 z m 3.26627,-5.44453 -0.81052,-0.86275 -0.8443,0.84431 -0.84431,0.8443 0.81051,0.86275 0.81051,0.86275 0.84431,-0.8443 0.84431,-0.84431 z m 3.88381,-2.1952 c 0.59033,-0.65231 0.58936,-0.70146 -0.0285,-1.43532 -0.35187,-0.41793 -0.67998,-0.8238 -0.72912,-0.90192 -0.0491,-0.0781 -0.46013,0.20626 -0.91328,0.63198 -0.7733,0.72647 -0.79158,0.82338 -0.29755,1.57737 0.64244,0.9805 1.16605,1.01452 1.96843,0.12789 z m 3.60392,-3.59843 c 0.79535,-0.71978 0.77995,-1.21581 -0.0614,-1.97719 -0.65922,-0.59659 -0.70351,-0.59143 -1.52164,0.17716 l -0.84266,0.79164 0.73621,0.78366 c 0.87778,0.93436 0.90181,0.93756 1.68947,0.22473 z m 4.17529,-3.84428 c 0.60826,-0.67211 0.60314,-0.70799 -0.21784,-1.52897 l -0.84072,-0.84072 -0.79852,0.84999 c -0.77538,0.82535 -0.78071,0.86967 -0.18405,1.52898 0.77705,0.85863 1.25766,0.85644 2.04113,-0.009 z"
       id="path10132"
       transform="scale(0.75)" />
    <path
       style="opacity:0.25;fill:url(#linearGradient12420);stroke-width:1.80209;stroke-linecap:round;stroke-linejoin:round;stroke-miterlimit:0;stroke-opacity:0.997151;paint-order:fill markers stroke;fill-opacity:1"
       d="M 72.948091,193.8528 V 46.943447 H 295.1759 517.4037 l -0.17517,33.581831 -0.17517,33.581832 -8.10534,1.84757 c -9.55966,2.17907 -9.63171,2.18604 -9.91329,0.95845 -0.17176,-0.74877 -3.24717,-0.0948 -14.40274,3.06245 -78.85424,22.31763 -142.60524,43.27415 -195.54141,64.27928 -66.01381,26.19434 -114.09572,51.60715 -148.93568,78.71718 -2.63318,2.04896 -5.23735,3.17662 -11.8203,5.11842 -16.04111,4.73173 -26.7241,11.5005 -31.236702,19.79163 -4.14422,7.6143 -5.882392,19.75616 -5.902094,41.22862 l -0.01069,11.65144 H 82.066602 72.948091 Z M 272.05678,103.84971 c 0.26697,-0.65011 0.48539,-12.22473 0.48539,-25.721367 0,-23.511703 -0.0549,-24.579489 -1.31113,-25.498059 -1.11764,-0.817244 -15.33896,-0.95872 -96.37156,-0.95872 -85.517993,0 -95.166993,0.106548 -96.121858,1.061414 -0.92639,0.92639 -1.061414,4.217294 -1.061414,25.869555 0,18.394626 0.209543,25.017687 0.810534,25.618677 0.622823,0.62282 23.074918,0.81053 96.947598,0.81053 90.9239,0 96.16338,-0.0641 96.62244,-1.18203 z"
       id="path12049"
       transform="scale(0.75)" />
  </g>
  <defs
     id="defs510">
    <clipPath
       id="p337ca35c22">
      <rect
         x="54"
         y="34.56"
         width="334.8"
         height="221.76"
         id="rect507" />
    </clipPath>
  </defs>
</svg>
