<?xml version="1.0" encoding="utf-8" standalone="no"?>
<!DOCTYPE svg PUBLIC "-//W3C//DTD SVG 1.1//EN"
  "http://www.w3.org/Graphics/SVG/1.1/DTD/svg11.dtd">
<svg xmlns:xlink="http://www.w3.org/1999/xlink" width="502.50125pt" height="395.969687pt" viewBox="0 0 502.50125 395.969687" xmlns="http://www.w3.org/2000/svg" version="1.1">
 <metadata>
  <rdf:RDF xmlns:dc="http://purl.org/dc/elements/1.1/" xmlns:cc="http://creativecommons.org/ns#" xmlns:rdf="http://www.w3.org/1999/02/22-rdf-syntax-ns#">
   <cc:Work>
    <dc:type rdf:resource="http://purl.org/dc/dcmitype/StillImage"/>
    <dc:date>2025-03-26T10:19:45.466975</dc:date>
    <dc:format>image/svg+xml</dc:format>
    <dc:creator>
     <cc:Agent>
      <dc:title>Matplotlib v3.10.1, https://matplotlib.org/</dc:title>
     </cc:Agent>
    </dc:creator>
   </cc:Work>
  </rdf:RDF>
 </metadata>
 <defs>
  <style type="text/css">*{stroke-linejoin: round; stroke-linecap: butt}</style>
 </defs>
 <g id="figure_1">
  <g id="patch_1">
   <path d="M 0 395.969687 
L 502.50125 395.969687 
L 502.50125 0 
L 0 0 
z
" style="fill: #ffffff"/>
  </g>
  <g id="axes_1">
   <g id="patch_2">
    <path d="M 48.90125 356.477812 
L 495.30125 356.477812 
L 495.30125 23.837812 
L 48.90125 23.837812 
z
" style="fill: #ffffff"/>
   </g>
   <g id="PathCollection_1">
    <path d="M 138.251986 155.980162 
L 134.068686 164.346762 
L 142.435286 164.346762 
z
" clip-path="url(#p11e802a6d4)" style="fill: #f77189; fill-opacity: 0.4; stroke: #ffffff; stroke-opacity: 0.4; stroke-width: 0.669328"/>
    <path d="M 138.251986 167.211133 
L 134.068686 175.577734 
L 142.435286 175.577734 
z
" clip-path="url(#p11e802a6d4)" style="fill: #f37a32; fill-opacity: 0.4; stroke: #ffffff; stroke-opacity: 0.4; stroke-width: 0.669328"/>
    <path d="M 138.251986 206.024777 
L 134.068686 214.391377 
L 142.435286 214.391377 
z
" clip-path="url(#p11e802a6d4)" style="fill: #ca9232; fill-opacity: 0.4; stroke: #ffffff; stroke-opacity: 0.4; stroke-width: 0.669328"/>
    <path d="M 138.251986 193.052475 
L 134.068686 201.419075 
L 142.435286 201.419075 
z
" clip-path="url(#p11e802a6d4)" style="fill: #ae9d31; fill-opacity: 0.4; stroke: #ffffff; stroke-opacity: 0.4; stroke-width: 0.669328"/>
    <path d="M 138.251986 202.735669 
L 134.068686 211.102269 
L 142.435286 211.102269 
z
" clip-path="url(#p11e802a6d4)" style="fill: #8ea631; fill-opacity: 0.4; stroke: #ffffff; stroke-opacity: 0.4; stroke-width: 0.669328"/>
    <path d="M 138.251986 175.879806 
L 134.068686 184.246406 
L 142.435286 184.246406 
z
" clip-path="url(#p11e802a6d4)" style="fill: #50b131; fill-opacity: 0.4; stroke: #ffffff; stroke-opacity: 0.4; stroke-width: 0.669328"/>
    <path d="M 138.251986 158.988775 
L 134.068686 167.355375 
L 142.435286 167.355375 
z
" clip-path="url(#p11e802a6d4)" style="fill: #33b07a; fill-opacity: 0.4; stroke: #ffffff; stroke-opacity: 0.4; stroke-width: 0.669328"/>
    <path d="M 138.251986 155.712494 
L 134.068686 164.079094 
L 142.435286 164.079094 
z
" clip-path="url(#p11e802a6d4)" style="fill: #35ae99; fill-opacity: 0.4; stroke: #ffffff; stroke-opacity: 0.4; stroke-width: 0.669328"/>
    <path d="M 138.251986 232.464218 
L 134.068686 240.830818 
L 142.435286 240.830818 
z
" clip-path="url(#p11e802a6d4)" style="fill: #36acae; fill-opacity: 0.4; stroke: #ffffff; stroke-opacity: 0.4; stroke-width: 0.669328"/>
    <path d="M 138.251986 206.22967 
L 134.068686 214.59627 
L 142.435286 214.59627 
z
" clip-path="url(#p11e802a6d4)" style="fill: #38a9c5; fill-opacity: 0.4; stroke: #ffffff; stroke-opacity: 0.4; stroke-width: 0.669328"/>
    <path d="M 138.251986 205.945986 
L 134.068686 214.312587 
L 142.435286 214.312587 
z
" clip-path="url(#p11e802a6d4)" style="fill: #3ba3ec; fill-opacity: 0.4; stroke: #ffffff; stroke-opacity: 0.4; stroke-width: 0.669328"/>
    <path d="M 138.251986 195.585869 
L 134.068686 203.952469 
L 142.435286 203.952469 
z
" clip-path="url(#p11e802a6d4)" style="fill: #9591f4; fill-opacity: 0.4; stroke: #ffffff; stroke-opacity: 0.4; stroke-width: 0.669328"/>
    <path d="M 138.251986 203.102659 
L 134.068686 211.469259 
L 142.435286 211.469259 
z
" clip-path="url(#p11e802a6d4)" style="fill: #cc7af4; fill-opacity: 0.4; stroke: #ffffff; stroke-opacity: 0.4; stroke-width: 0.669328"/>
    <path d="M 138.251986 140.23573 
L 134.068686 148.602331 
L 142.435286 148.602331 
z
" clip-path="url(#p11e802a6d4)" style="fill: #f560e4; fill-opacity: 0.4; stroke: #ffffff; stroke-opacity: 0.4; stroke-width: 0.669328"/>
    <path d="M 138.251986 213.865471 
L 134.068686 222.232071 
L 142.435286 222.232071 
z
" clip-path="url(#p11e802a6d4)" style="fill: #f66ab7; fill-opacity: 0.4; stroke: #ffffff; stroke-opacity: 0.4; stroke-width: 0.669328"/>
   </g>
   <g id="PathCollection_2">
    <defs>
     <path id="m89a9b661d9" d="M 0 -5.477226 
L -5.477226 5.477226 
L 5.477226 5.477226 
z
" style="stroke: #de5d5c"/>
    </defs>
    <g clip-path="url(#p11e802a6d4)">
     <use xlink:href="#m89a9b661d9" x="138.251986" y="189.246311" style="fill: #de5d5c; stroke: #de5d5c"/>
    </g>
   </g>
   <g id="PathCollection_3">
    <path d="M 398.858299 96.116769 
L 394.674999 104.483369 
L 403.041599 104.483369 
z
" clip-path="url(#p11e802a6d4)" style="fill: #f77189; fill-opacity: 0.4; stroke: #ffffff; stroke-opacity: 0.4; stroke-width: 0.669328"/>
    <path d="M 398.858299 73.804809 
L 394.674999 82.17141 
L 403.041599 82.17141 
z
" clip-path="url(#p11e802a6d4)" style="fill: #f37a32; fill-opacity: 0.4; stroke: #ffffff; stroke-opacity: 0.4; stroke-width: 0.669328"/>
    <path d="M 398.858299 78.005941 
L 394.674999 86.372541 
L 403.041599 86.372541 
z
" clip-path="url(#p11e802a6d4)" style="fill: #ca9232; fill-opacity: 0.4; stroke: #ffffff; stroke-opacity: 0.4; stroke-width: 0.669328"/>
    <path d="M 398.858299 106.363388 
L 394.674999 114.729988 
L 403.041599 114.729988 
z
" clip-path="url(#p11e802a6d4)" style="fill: #ae9d31; fill-opacity: 0.4; stroke: #ffffff; stroke-opacity: 0.4; stroke-width: 0.669328"/>
    <path d="M 398.858299 101.03613 
L 394.674999 109.40273 
L 403.041599 109.40273 
z
" clip-path="url(#p11e802a6d4)" style="fill: #8ea631; fill-opacity: 0.4; stroke: #ffffff; stroke-opacity: 0.4; stroke-width: 0.669328"/>
    <path d="M 398.858299 69.419667 
L 394.674999 77.786267 
L 403.041599 77.786267 
z
" clip-path="url(#p11e802a6d4)" style="fill: #50b131; fill-opacity: 0.4; stroke: #ffffff; stroke-opacity: 0.4; stroke-width: 0.669328"/>
    <path d="M 398.858299 77.932644 
L 394.674999 86.299244 
L 403.041599 86.299244 
z
" clip-path="url(#p11e802a6d4)" style="fill: #33b07a; fill-opacity: 0.4; stroke: #ffffff; stroke-opacity: 0.4; stroke-width: 0.669328"/>
    <path d="M 398.858299 74.211881 
L 394.674999 82.578481 
L 403.041599 82.578481 
z
" clip-path="url(#p11e802a6d4)" style="fill: #35ae99; fill-opacity: 0.4; stroke: #ffffff; stroke-opacity: 0.4; stroke-width: 0.669328"/>
    <path d="M 398.858299 96.929875 
L 394.674999 105.296475 
L 403.041599 105.296475 
z
" clip-path="url(#p11e802a6d4)" style="fill: #36acae; fill-opacity: 0.4; stroke: #ffffff; stroke-opacity: 0.4; stroke-width: 0.669328"/>
    <path d="M 398.858299 173.343012 
L 394.674999 181.709612 
L 403.041599 181.709612 
z
" clip-path="url(#p11e802a6d4)" style="fill: #38a9c5; fill-opacity: 0.4; stroke: #ffffff; stroke-opacity: 0.4; stroke-width: 0.669328"/>
    <path d="M 398.858299 114.771912 
L 394.674999 123.138512 
L 403.041599 123.138512 
z
" clip-path="url(#p11e802a6d4)" style="fill: #3ba3ec; fill-opacity: 0.4; stroke: #ffffff; stroke-opacity: 0.4; stroke-width: 0.669328"/>
    <path d="M 398.858299 94.635753 
L 394.674999 103.002354 
L 403.041599 103.002354 
z
" clip-path="url(#p11e802a6d4)" style="fill: #9591f4; fill-opacity: 0.4; stroke: #ffffff; stroke-opacity: 0.4; stroke-width: 0.669328"/>
    <path d="M 398.858299 105.558292 
L 394.674999 113.924893 
L 403.041599 113.924893 
z
" clip-path="url(#p11e802a6d4)" style="fill: #cc7af4; fill-opacity: 0.4; stroke: #ffffff; stroke-opacity: 0.4; stroke-width: 0.669328"/>
    <path d="M 398.858299 63.638411 
L 394.674999 72.005012 
L 403.041599 72.005012 
z
" clip-path="url(#p11e802a6d4)" style="fill: #f560e4; fill-opacity: 0.4; stroke: #ffffff; stroke-opacity: 0.4; stroke-width: 0.669328"/>
    <path d="M 398.858299 111.187223 
L 394.674999 119.553824 
L 403.041599 119.553824 
z
" clip-path="url(#p11e802a6d4)" style="fill: #f66ab7; fill-opacity: 0.4; stroke: #ffffff; stroke-opacity: 0.4; stroke-width: 0.669328"/>
   </g>
   <g id="PathCollection_4">
    <defs>
     <path id="mca4ea9513c" d="M 0 -5.477226 
L -5.477226 5.477226 
L 5.477226 5.477226 
z
" style="stroke: #9a3670"/>
    </defs>
    <g clip-path="url(#p11e802a6d4)">
     <use xlink:href="#mca4ea9513c" x="398.858299" y="97.701125" style="fill: #9a3670; stroke: #9a3670"/>
    </g>
   </g>
   <g id="matplotlib.axis_1">
    <g id="xtick_1">
     <g id="line2d_1">
      <defs>
       <path id="m210574aa99" d="M 0 0 
L 0 3.5 
" style="stroke: #000000; stroke-width: 0.8"/>
      </defs>
      <g>
       <use xlink:href="#m210574aa99" x="101.022513" y="356.477812" style="stroke: #000000; stroke-width: 0.8"/>
      </g>
     </g>
     <g id="text_1">
      <!-- 200 -->
      <g transform="translate(91.478763 371.07625) scale(0.1 -0.1)">
       <defs>
        <path id="DejaVuSans-32" d="M 1228 531 
L 3431 531 
L 3431 0 
L 469 0 
L 469 531 
Q 828 903 1448 1529 
Q 2069 2156 2228 2338 
Q 2531 2678 2651 2914 
Q 2772 3150 2772 3378 
Q 2772 3750 2511 3984 
Q 2250 4219 1831 4219 
Q 1534 4219 1204 4116 
Q 875 4013 500 3803 
L 500 4441 
Q 881 4594 1212 4672 
Q 1544 4750 1819 4750 
Q 2544 4750 2975 4387 
Q 3406 4025 3406 3419 
Q 3406 3131 3298 2873 
Q 3191 2616 2906 2266 
Q 2828 2175 2409 1742 
Q 1991 1309 1228 531 
z
" transform="scale(0.015625)"/>
        <path id="DejaVuSans-30" d="M 2034 4250 
Q 1547 4250 1301 3770 
Q 1056 3291 1056 2328 
Q 1056 1369 1301 889 
Q 1547 409 2034 409 
Q 2525 409 2770 889 
Q 3016 1369 3016 2328 
Q 3016 3291 2770 3770 
Q 2525 4250 2034 4250 
z
M 2034 4750 
Q 2819 4750 3233 4129 
Q 3647 3509 3647 2328 
Q 3647 1150 3233 529 
Q 2819 -91 2034 -91 
Q 1250 -91 836 529 
Q 422 1150 422 2328 
Q 422 3509 836 4129 
Q 1250 4750 2034 4750 
z
" transform="scale(0.015625)"/>
       </defs>
       <use xlink:href="#DejaVuSans-32"/>
       <use xlink:href="#DejaVuSans-30" transform="translate(63.623047 0)"/>
       <use xlink:href="#DejaVuSans-30" transform="translate(127.246094 0)"/>
      </g>
     </g>
    </g>
    <g id="xtick_2">
     <g id="line2d_2">
      <g>
       <use xlink:href="#m210574aa99" x="175.481459" y="356.477812" style="stroke: #000000; stroke-width: 0.8"/>
      </g>
     </g>
     <g id="text_2">
      <!-- 400 -->
      <g transform="translate(165.937709 371.07625) scale(0.1 -0.1)">
       <defs>
        <path id="DejaVuSans-34" d="M 2419 4116 
L 825 1625 
L 2419 1625 
L 2419 4116 
z
M 2253 4666 
L 3047 4666 
L 3047 1625 
L 3713 1625 
L 3713 1100 
L 3047 1100 
L 3047 0 
L 2419 0 
L 2419 1100 
L 313 1100 
L 313 1709 
L 2253 4666 
z
" transform="scale(0.015625)"/>
       </defs>
       <use xlink:href="#DejaVuSans-34"/>
       <use xlink:href="#DejaVuSans-30" transform="translate(63.623047 0)"/>
       <use xlink:href="#DejaVuSans-30" transform="translate(127.246094 0)"/>
      </g>
     </g>
    </g>
    <g id="xtick_3">
     <g id="line2d_3">
      <g>
       <use xlink:href="#m210574aa99" x="249.940406" y="356.477812" style="stroke: #000000; stroke-width: 0.8"/>
      </g>
     </g>
     <g id="text_3">
      <!-- 600 -->
      <g transform="translate(240.396656 371.07625) scale(0.1 -0.1)">
       <defs>
        <path id="DejaVuSans-36" d="M 2113 2584 
Q 1688 2584 1439 2293 
Q 1191 2003 1191 1497 
Q 1191 994 1439 701 
Q 1688 409 2113 409 
Q 2538 409 2786 701 
Q 3034 994 3034 1497 
Q 3034 2003 2786 2293 
Q 2538 2584 2113 2584 
z
M 3366 4563 
L 3366 3988 
Q 3128 4100 2886 4159 
Q 2644 4219 2406 4219 
Q 1781 4219 1451 3797 
Q 1122 3375 1075 2522 
Q 1259 2794 1537 2939 
Q 1816 3084 2150 3084 
Q 2853 3084 3261 2657 
Q 3669 2231 3669 1497 
Q 3669 778 3244 343 
Q 2819 -91 2113 -91 
Q 1303 -91 875 529 
Q 447 1150 447 2328 
Q 447 3434 972 4092 
Q 1497 4750 2381 4750 
Q 2619 4750 2861 4703 
Q 3103 4656 3366 4563 
z
" transform="scale(0.015625)"/>
       </defs>
       <use xlink:href="#DejaVuSans-36"/>
       <use xlink:href="#DejaVuSans-30" transform="translate(63.623047 0)"/>
       <use xlink:href="#DejaVuSans-30" transform="translate(127.246094 0)"/>
      </g>
     </g>
    </g>
    <g id="xtick_4">
     <g id="line2d_4">
      <g>
       <use xlink:href="#m210574aa99" x="324.399353" y="356.477812" style="stroke: #000000; stroke-width: 0.8"/>
      </g>
     </g>
     <g id="text_4">
      <!-- 800 -->
      <g transform="translate(314.855603 371.07625) scale(0.1 -0.1)">
       <defs>
        <path id="DejaVuSans-38" d="M 2034 2216 
Q 1584 2216 1326 1975 
Q 1069 1734 1069 1313 
Q 1069 891 1326 650 
Q 1584 409 2034 409 
Q 2484 409 2743 651 
Q 3003 894 3003 1313 
Q 3003 1734 2745 1975 
Q 2488 2216 2034 2216 
z
M 1403 2484 
Q 997 2584 770 2862 
Q 544 3141 544 3541 
Q 544 4100 942 4425 
Q 1341 4750 2034 4750 
Q 2731 4750 3128 4425 
Q 3525 4100 3525 3541 
Q 3525 3141 3298 2862 
Q 3072 2584 2669 2484 
Q 3125 2378 3379 2068 
Q 3634 1759 3634 1313 
Q 3634 634 3220 271 
Q 2806 -91 2034 -91 
Q 1263 -91 848 271 
Q 434 634 434 1313 
Q 434 1759 690 2068 
Q 947 2378 1403 2484 
z
M 1172 3481 
Q 1172 3119 1398 2916 
Q 1625 2713 2034 2713 
Q 2441 2713 2670 2916 
Q 2900 3119 2900 3481 
Q 2900 3844 2670 4047 
Q 2441 4250 2034 4250 
Q 1625 4250 1398 4047 
Q 1172 3844 1172 3481 
z
" transform="scale(0.015625)"/>
       </defs>
       <use xlink:href="#DejaVuSans-38"/>
       <use xlink:href="#DejaVuSans-30" transform="translate(63.623047 0)"/>
       <use xlink:href="#DejaVuSans-30" transform="translate(127.246094 0)"/>
      </g>
     </g>
    </g>
    <g id="xtick_5">
     <g id="line2d_5">
      <g>
       <use xlink:href="#m210574aa99" x="398.858299" y="356.477812" style="stroke: #000000; stroke-width: 0.8"/>
      </g>
     </g>
     <g id="text_5">
      <!-- 1000 -->
      <g transform="translate(386.133299 371.07625) scale(0.1 -0.1)">
       <defs>
        <path id="DejaVuSans-31" d="M 794 531 
L 1825 531 
L 1825 4091 
L 703 3866 
L 703 4441 
L 1819 4666 
L 2450 4666 
L 2450 531 
L 3481 531 
L 3481 0 
L 794 0 
L 794 531 
z
" transform="scale(0.015625)"/>
       </defs>
       <use xlink:href="#DejaVuSans-31"/>
       <use xlink:href="#DejaVuSans-30" transform="translate(63.623047 0)"/>
       <use xlink:href="#DejaVuSans-30" transform="translate(127.246094 0)"/>
       <use xlink:href="#DejaVuSans-30" transform="translate(190.869141 0)"/>
      </g>
     </g>
    </g>
    <g id="xtick_6">
     <g id="line2d_6">
      <g>
       <use xlink:href="#m210574aa99" x="473.317246" y="356.477812" style="stroke: #000000; stroke-width: 0.8"/>
      </g>
     </g>
     <g id="text_6">
      <!-- 1200 -->
      <g transform="translate(460.592246 371.07625) scale(0.1 -0.1)">
       <use xlink:href="#DejaVuSans-31"/>
       <use xlink:href="#DejaVuSans-32" transform="translate(63.623047 0)"/>
       <use xlink:href="#DejaVuSans-30" transform="translate(127.246094 0)"/>
       <use xlink:href="#DejaVuSans-30" transform="translate(190.869141 0)"/>
      </g>
     </g>
    </g>
    <g id="text_7">
     <!-- Number of nodes -->
     <g transform="translate(220.300625 386.274062) scale(0.12 -0.12)">
      <defs>
       <path id="DejaVuSans-4e" d="M 628 4666 
L 1478 4666 
L 3547 763 
L 3547 4666 
L 4159 4666 
L 4159 0 
L 3309 0 
L 1241 3903 
L 1241 0 
L 628 0 
L 628 4666 
z
" transform="scale(0.015625)"/>
       <path id="DejaVuSans-75" d="M 544 1381 
L 544 3500 
L 1119 3500 
L 1119 1403 
Q 1119 906 1312 657 
Q 1506 409 1894 409 
Q 2359 409 2629 706 
Q 2900 1003 2900 1516 
L 2900 3500 
L 3475 3500 
L 3475 0 
L 2900 0 
L 2900 538 
Q 2691 219 2414 64 
Q 2138 -91 1772 -91 
Q 1169 -91 856 284 
Q 544 659 544 1381 
z
M 1991 3584 
L 1991 3584 
z
" transform="scale(0.015625)"/>
       <path id="DejaVuSans-6d" d="M 3328 2828 
Q 3544 3216 3844 3400 
Q 4144 3584 4550 3584 
Q 5097 3584 5394 3201 
Q 5691 2819 5691 2113 
L 5691 0 
L 5113 0 
L 5113 2094 
Q 5113 2597 4934 2840 
Q 4756 3084 4391 3084 
Q 3944 3084 3684 2787 
Q 3425 2491 3425 1978 
L 3425 0 
L 2847 0 
L 2847 2094 
Q 2847 2600 2669 2842 
Q 2491 3084 2119 3084 
Q 1678 3084 1418 2786 
Q 1159 2488 1159 1978 
L 1159 0 
L 581 0 
L 581 3500 
L 1159 3500 
L 1159 2956 
Q 1356 3278 1631 3431 
Q 1906 3584 2284 3584 
Q 2666 3584 2933 3390 
Q 3200 3197 3328 2828 
z
" transform="scale(0.015625)"/>
       <path id="DejaVuSans-62" d="M 3116 1747 
Q 3116 2381 2855 2742 
Q 2594 3103 2138 3103 
Q 1681 3103 1420 2742 
Q 1159 2381 1159 1747 
Q 1159 1113 1420 752 
Q 1681 391 2138 391 
Q 2594 391 2855 752 
Q 3116 1113 3116 1747 
z
M 1159 2969 
Q 1341 3281 1617 3432 
Q 1894 3584 2278 3584 
Q 2916 3584 3314 3078 
Q 3713 2572 3713 1747 
Q 3713 922 3314 415 
Q 2916 -91 2278 -91 
Q 1894 -91 1617 61 
Q 1341 213 1159 525 
L 1159 0 
L 581 0 
L 581 4863 
L 1159 4863 
L 1159 2969 
z
" transform="scale(0.015625)"/>
       <path id="DejaVuSans-65" d="M 3597 1894 
L 3597 1613 
L 953 1613 
Q 991 1019 1311 708 
Q 1631 397 2203 397 
Q 2534 397 2845 478 
Q 3156 559 3463 722 
L 3463 178 
Q 3153 47 2828 -22 
Q 2503 -91 2169 -91 
Q 1331 -91 842 396 
Q 353 884 353 1716 
Q 353 2575 817 3079 
Q 1281 3584 2069 3584 
Q 2775 3584 3186 3129 
Q 3597 2675 3597 1894 
z
M 3022 2063 
Q 3016 2534 2758 2815 
Q 2500 3097 2075 3097 
Q 1594 3097 1305 2825 
Q 1016 2553 972 2059 
L 3022 2063 
z
" transform="scale(0.015625)"/>
       <path id="DejaVuSans-72" d="M 2631 2963 
Q 2534 3019 2420 3045 
Q 2306 3072 2169 3072 
Q 1681 3072 1420 2755 
Q 1159 2438 1159 1844 
L 1159 0 
L 581 0 
L 581 3500 
L 1159 3500 
L 1159 2956 
Q 1341 3275 1631 3429 
Q 1922 3584 2338 3584 
Q 2397 3584 2469 3576 
Q 2541 3569 2628 3553 
L 2631 2963 
z
" transform="scale(0.015625)"/>
       <path id="DejaVuSans-20" transform="scale(0.015625)"/>
       <path id="DejaVuSans-6f" d="M 1959 3097 
Q 1497 3097 1228 2736 
Q 959 2375 959 1747 
Q 959 1119 1226 758 
Q 1494 397 1959 397 
Q 2419 397 2687 759 
Q 2956 1122 2956 1747 
Q 2956 2369 2687 2733 
Q 2419 3097 1959 3097 
z
M 1959 3584 
Q 2709 3584 3137 3096 
Q 3566 2609 3566 1747 
Q 3566 888 3137 398 
Q 2709 -91 1959 -91 
Q 1206 -91 779 398 
Q 353 888 353 1747 
Q 353 2609 779 3096 
Q 1206 3584 1959 3584 
z
" transform="scale(0.015625)"/>
       <path id="DejaVuSans-66" d="M 2375 4863 
L 2375 4384 
L 1825 4384 
Q 1516 4384 1395 4259 
Q 1275 4134 1275 3809 
L 1275 3500 
L 2222 3500 
L 2222 3053 
L 1275 3053 
L 1275 0 
L 697 0 
L 697 3053 
L 147 3053 
L 147 3500 
L 697 3500 
L 697 3744 
Q 697 4328 969 4595 
Q 1241 4863 1831 4863 
L 2375 4863 
z
" transform="scale(0.015625)"/>
       <path id="DejaVuSans-6e" d="M 3513 2113 
L 3513 0 
L 2938 0 
L 2938 2094 
Q 2938 2591 2744 2837 
Q 2550 3084 2163 3084 
Q 1697 3084 1428 2787 
Q 1159 2491 1159 1978 
L 1159 0 
L 581 0 
L 581 3500 
L 1159 3500 
L 1159 2956 
Q 1366 3272 1645 3428 
Q 1925 3584 2291 3584 
Q 2894 3584 3203 3211 
Q 3513 2838 3513 2113 
z
" transform="scale(0.015625)"/>
       <path id="DejaVuSans-64" d="M 2906 2969 
L 2906 4863 
L 3481 4863 
L 3481 0 
L 2906 0 
L 2906 525 
Q 2725 213 2448 61 
Q 2172 -91 1784 -91 
Q 1150 -91 751 415 
Q 353 922 353 1747 
Q 353 2572 751 3078 
Q 1150 3584 1784 3584 
Q 2172 3584 2448 3432 
Q 2725 3281 2906 2969 
z
M 947 1747 
Q 947 1113 1208 752 
Q 1469 391 1925 391 
Q 2381 391 2643 752 
Q 2906 1113 2906 1747 
Q 2906 2381 2643 2742 
Q 2381 3103 1925 3103 
Q 1469 3103 1208 2742 
Q 947 2381 947 1747 
z
" transform="scale(0.015625)"/>
       <path id="DejaVuSans-73" d="M 2834 3397 
L 2834 2853 
Q 2591 2978 2328 3040 
Q 2066 3103 1784 3103 
Q 1356 3103 1142 2972 
Q 928 2841 928 2578 
Q 928 2378 1081 2264 
Q 1234 2150 1697 2047 
L 1894 2003 
Q 2506 1872 2764 1633 
Q 3022 1394 3022 966 
Q 3022 478 2636 193 
Q 2250 -91 1575 -91 
Q 1294 -91 989 -36 
Q 684 19 347 128 
L 347 722 
Q 666 556 975 473 
Q 1284 391 1588 391 
Q 1994 391 2212 530 
Q 2431 669 2431 922 
Q 2431 1156 2273 1281 
Q 2116 1406 1581 1522 
L 1381 1569 
Q 847 1681 609 1914 
Q 372 2147 372 2553 
Q 372 3047 722 3315 
Q 1072 3584 1716 3584 
Q 2034 3584 2315 3537 
Q 2597 3491 2834 3397 
z
" transform="scale(0.015625)"/>
      </defs>
      <use xlink:href="#DejaVuSans-4e"/>
      <use xlink:href="#DejaVuSans-75" transform="translate(74.804688 0)"/>
      <use xlink:href="#DejaVuSans-6d" transform="translate(138.183594 0)"/>
      <use xlink:href="#DejaVuSans-62" transform="translate(235.595703 0)"/>
      <use xlink:href="#DejaVuSans-65" transform="translate(299.072266 0)"/>
      <use xlink:href="#DejaVuSans-72" transform="translate(360.595703 0)"/>
      <use xlink:href="#DejaVuSans-20" transform="translate(401.708984 0)"/>
      <use xlink:href="#DejaVuSans-6f" transform="translate(433.496094 0)"/>
      <use xlink:href="#DejaVuSans-66" transform="translate(494.677734 0)"/>
      <use xlink:href="#DejaVuSans-20" transform="translate(529.882812 0)"/>
      <use xlink:href="#DejaVuSans-6e" transform="translate(561.669922 0)"/>
      <use xlink:href="#DejaVuSans-6f" transform="translate(625.048828 0)"/>
      <use xlink:href="#DejaVuSans-64" transform="translate(686.230469 0)"/>
      <use xlink:href="#DejaVuSans-65" transform="translate(749.707031 0)"/>
      <use xlink:href="#DejaVuSans-73" transform="translate(811.230469 0)"/>
     </g>
    </g>
   </g>
   <g id="matplotlib.axis_2">
    <g id="ytick_1">
     <g id="line2d_7">
      <defs>
       <path id="md26e223a14" d="M 0 0 
L -3.5 0 
" style="stroke: #000000; stroke-width: 0.8"/>
      </defs>
      <g>
       <use xlink:href="#md26e223a14" x="48.90125" y="347.727944" style="stroke: #000000; stroke-width: 0.8"/>
      </g>
     </g>
     <g id="text_8">
      <!-- 16 -->
      <g transform="translate(29.17625 351.527162) scale(0.1 -0.1)">
       <use xlink:href="#DejaVuSans-31"/>
       <use xlink:href="#DejaVuSans-36" transform="translate(63.623047 0)"/>
      </g>
     </g>
    </g>
    <g id="ytick_2">
     <g id="line2d_8">
      <g>
       <use xlink:href="#md26e223a14" x="48.90125" y="253.753881" style="stroke: #000000; stroke-width: 0.8"/>
      </g>
     </g>
     <g id="text_9">
      <!-- 32 -->
      <g transform="translate(29.17625 257.5531) scale(0.1 -0.1)">
       <defs>
        <path id="DejaVuSans-33" d="M 2597 2516 
Q 3050 2419 3304 2112 
Q 3559 1806 3559 1356 
Q 3559 666 3084 287 
Q 2609 -91 1734 -91 
Q 1441 -91 1130 -33 
Q 819 25 488 141 
L 488 750 
Q 750 597 1062 519 
Q 1375 441 1716 441 
Q 2309 441 2620 675 
Q 2931 909 2931 1356 
Q 2931 1769 2642 2001 
Q 2353 2234 1838 2234 
L 1294 2234 
L 1294 2753 
L 1863 2753 
Q 2328 2753 2575 2939 
Q 2822 3125 2822 3475 
Q 2822 3834 2567 4026 
Q 2313 4219 1838 4219 
Q 1578 4219 1281 4162 
Q 984 4106 628 3988 
L 628 4550 
Q 988 4650 1302 4700 
Q 1616 4750 1894 4750 
Q 2613 4750 3031 4423 
Q 3450 4097 3450 3541 
Q 3450 3153 3228 2886 
Q 3006 2619 2597 2516 
z
" transform="scale(0.015625)"/>
       </defs>
       <use xlink:href="#DejaVuSans-33"/>
       <use xlink:href="#DejaVuSans-32" transform="translate(63.623047 0)"/>
      </g>
     </g>
    </g>
    <g id="ytick_3">
     <g id="line2d_9">
      <g>
       <use xlink:href="#md26e223a14" x="48.90125" y="159.779818" style="stroke: #000000; stroke-width: 0.8"/>
      </g>
     </g>
     <g id="text_10">
      <!-- 64 -->
      <g transform="translate(29.17625 163.579037) scale(0.1 -0.1)">
       <use xlink:href="#DejaVuSans-36"/>
       <use xlink:href="#DejaVuSans-34" transform="translate(63.623047 0)"/>
      </g>
     </g>
    </g>
    <g id="ytick_4">
     <g id="line2d_10">
      <g>
       <use xlink:href="#md26e223a14" x="48.90125" y="65.805756" style="stroke: #000000; stroke-width: 0.8"/>
      </g>
     </g>
     <g id="text_11">
      <!-- 128 -->
      <g transform="translate(22.81375 69.604974) scale(0.1 -0.1)">
       <use xlink:href="#DejaVuSans-31"/>
       <use xlink:href="#DejaVuSans-32" transform="translate(63.623047 0)"/>
       <use xlink:href="#DejaVuSans-38" transform="translate(127.246094 0)"/>
      </g>
     </g>
    </g>
    <g id="text_12">
     <!-- K₀ (clique detection threshold) -->
     <g transform="translate(16.318125 281.427187) rotate(-90) scale(0.12 -0.12)">
      <defs>
       <path id="DejaVuSans-4b" d="M 628 4666 
L 1259 4666 
L 1259 2694 
L 3353 4666 
L 4166 4666 
L 1850 2491 
L 4331 0 
L 3500 0 
L 1259 2247 
L 1259 0 
L 628 0 
L 628 4666 
z
" transform="scale(0.015625)"/>
       <path id="DejaVuSans-2080" d="M 1781 2091 
Q 1625 2360 1309 2360 
Q 994 2360 838 2091 
Q 678 1822 678 1285 
Q 678 744 838 476 
Q 994 207 1309 207 
Q 1625 207 1781 476 
Q 1941 744 1941 1285 
Q 1941 1822 1781 2091 
z
M 1309 2638 
Q 1813 2638 2078 2291 
Q 2344 1944 2344 1285 
Q 2344 622 2078 275 
Q 1813 -71 1309 -71 
Q 803 -71 537 275 
Q 272 622 272 1285 
Q 272 1944 537 2291 
Q 803 2638 1309 2638 
z
" transform="scale(0.015625)"/>
       <path id="DejaVuSans-28" d="M 1984 4856 
Q 1566 4138 1362 3434 
Q 1159 2731 1159 2009 
Q 1159 1288 1364 580 
Q 1569 -128 1984 -844 
L 1484 -844 
Q 1016 -109 783 600 
Q 550 1309 550 2009 
Q 550 2706 781 3412 
Q 1013 4119 1484 4856 
L 1984 4856 
z
" transform="scale(0.015625)"/>
       <path id="DejaVuSans-63" d="M 3122 3366 
L 3122 2828 
Q 2878 2963 2633 3030 
Q 2388 3097 2138 3097 
Q 1578 3097 1268 2742 
Q 959 2388 959 1747 
Q 959 1106 1268 751 
Q 1578 397 2138 397 
Q 2388 397 2633 464 
Q 2878 531 3122 666 
L 3122 134 
Q 2881 22 2623 -34 
Q 2366 -91 2075 -91 
Q 1284 -91 818 406 
Q 353 903 353 1747 
Q 353 2603 823 3093 
Q 1294 3584 2113 3584 
Q 2378 3584 2631 3529 
Q 2884 3475 3122 3366 
z
" transform="scale(0.015625)"/>
       <path id="DejaVuSans-6c" d="M 603 4863 
L 1178 4863 
L 1178 0 
L 603 0 
L 603 4863 
z
" transform="scale(0.015625)"/>
       <path id="DejaVuSans-69" d="M 603 3500 
L 1178 3500 
L 1178 0 
L 603 0 
L 603 3500 
z
M 603 4863 
L 1178 4863 
L 1178 4134 
L 603 4134 
L 603 4863 
z
" transform="scale(0.015625)"/>
       <path id="DejaVuSans-71" d="M 947 1747 
Q 947 1113 1208 752 
Q 1469 391 1925 391 
Q 2381 391 2643 752 
Q 2906 1113 2906 1747 
Q 2906 2381 2643 2742 
Q 2381 3103 1925 3103 
Q 1469 3103 1208 2742 
Q 947 2381 947 1747 
z
M 2906 525 
Q 2725 213 2448 61 
Q 2172 -91 1784 -91 
Q 1150 -91 751 415 
Q 353 922 353 1747 
Q 353 2572 751 3078 
Q 1150 3584 1784 3584 
Q 2172 3584 2448 3432 
Q 2725 3281 2906 2969 
L 2906 3500 
L 3481 3500 
L 3481 -1331 
L 2906 -1331 
L 2906 525 
z
" transform="scale(0.015625)"/>
       <path id="DejaVuSans-74" d="M 1172 4494 
L 1172 3500 
L 2356 3500 
L 2356 3053 
L 1172 3053 
L 1172 1153 
Q 1172 725 1289 603 
Q 1406 481 1766 481 
L 2356 481 
L 2356 0 
L 1766 0 
Q 1100 0 847 248 
Q 594 497 594 1153 
L 594 3053 
L 172 3053 
L 172 3500 
L 594 3500 
L 594 4494 
L 1172 4494 
z
" transform="scale(0.015625)"/>
       <path id="DejaVuSans-68" d="M 3513 2113 
L 3513 0 
L 2938 0 
L 2938 2094 
Q 2938 2591 2744 2837 
Q 2550 3084 2163 3084 
Q 1697 3084 1428 2787 
Q 1159 2491 1159 1978 
L 1159 0 
L 581 0 
L 581 4863 
L 1159 4863 
L 1159 2956 
Q 1366 3272 1645 3428 
Q 1925 3584 2291 3584 
Q 2894 3584 3203 3211 
Q 3513 2838 3513 2113 
z
" transform="scale(0.015625)"/>
       <path id="DejaVuSans-29" d="M 513 4856 
L 1013 4856 
Q 1481 4119 1714 3412 
Q 1947 2706 1947 2009 
Q 1947 1309 1714 600 
Q 1481 -109 1013 -844 
L 513 -844 
Q 928 -128 1133 580 
Q 1338 1288 1338 2009 
Q 1338 2731 1133 3434 
Q 928 4138 513 4856 
z
" transform="scale(0.015625)"/>
      </defs>
      <use xlink:href="#DejaVuSans-4b"/>
      <use xlink:href="#DejaVuSans-2080" transform="translate(65.576172 0)"/>
      <use xlink:href="#DejaVuSans-20" transform="translate(105.664062 0)"/>
      <use xlink:href="#DejaVuSans-28" transform="translate(137.451172 0)"/>
      <use xlink:href="#DejaVuSans-63" transform="translate(176.464844 0)"/>
      <use xlink:href="#DejaVuSans-6c" transform="translate(231.445312 0)"/>
      <use xlink:href="#DejaVuSans-69" transform="translate(259.228516 0)"/>
      <use xlink:href="#DejaVuSans-71" transform="translate(287.011719 0)"/>
      <use xlink:href="#DejaVuSans-75" transform="translate(350.488281 0)"/>
      <use xlink:href="#DejaVuSans-65" transform="translate(413.867188 0)"/>
      <use xlink:href="#DejaVuSans-20" transform="translate(475.390625 0)"/>
      <use xlink:href="#DejaVuSans-64" transform="translate(507.177734 0)"/>
      <use xlink:href="#DejaVuSans-65" transform="translate(570.654297 0)"/>
      <use xlink:href="#DejaVuSans-74" transform="translate(632.177734 0)"/>
      <use xlink:href="#DejaVuSans-65" transform="translate(671.386719 0)"/>
      <use xlink:href="#DejaVuSans-63" transform="translate(732.910156 0)"/>
      <use xlink:href="#DejaVuSans-74" transform="translate(787.890625 0)"/>
      <use xlink:href="#DejaVuSans-69" transform="translate(827.099609 0)"/>
      <use xlink:href="#DejaVuSans-6f" transform="translate(854.882812 0)"/>
      <use xlink:href="#DejaVuSans-6e" transform="translate(916.064453 0)"/>
      <use xlink:href="#DejaVuSans-20" transform="translate(979.443359 0)"/>
      <use xlink:href="#DejaVuSans-74" transform="translate(1011.230469 0)"/>
      <use xlink:href="#DejaVuSans-68" transform="translate(1050.439453 0)"/>
      <use xlink:href="#DejaVuSans-72" transform="translate(1113.818359 0)"/>
      <use xlink:href="#DejaVuSans-65" transform="translate(1152.681641 0)"/>
      <use xlink:href="#DejaVuSans-73" transform="translate(1214.205078 0)"/>
      <use xlink:href="#DejaVuSans-68" transform="translate(1266.304688 0)"/>
      <use xlink:href="#DejaVuSans-6f" transform="translate(1329.683594 0)"/>
      <use xlink:href="#DejaVuSans-6c" transform="translate(1390.865234 0)"/>
      <use xlink:href="#DejaVuSans-64" transform="translate(1418.648438 0)"/>
      <use xlink:href="#DejaVuSans-29" transform="translate(1482.125 0)"/>
     </g>
    </g>
   </g>
   <g id="line2d_11">
    <path d="M 48.566185 389.352481 
L 50.799953 386.176302 
L 53.406016 382.900454 
L 56.012079 379.995349 
L 58.990437 377.039299 
L 61.968795 374.398259 
L 65.319448 371.733215 
L 69.042395 369.082331 
L 72.765342 366.698953 
L 76.860584 364.33146 
L 81.328121 361.999988 
L 86.167953 359.718921 
L 91.380079 357.498056 
L 97.336795 355.207297 
L 103.665805 353.012266 
L 110.739405 350.799076 
L 118.557595 348.595839 
L 127.120373 346.423393 
L 136.427742 344.296584 
L 146.851994 342.152739 
L 158.020836 340.085201 
L 170.306563 338.036072 
L 184.081468 335.968862 
L 199.345552 333.911075 
L 216.098815 331.882903 
L 234.713551 329.860203 
L 255.189762 327.864164 
L 277.89974 325.878905 
L 302.843488 323.923936 
L 330.765593 321.963306 
L 361.666055 320.02132 
L 395.917171 318.095486 
L 433.891234 316.186058 
L 472.982181 314.42213 
L 472.982181 314.42213 
" clip-path="url(#p11e802a6d4)" style="fill: none; stroke: #008000; stroke-width: 1.5; stroke-linecap: square"/>
   </g>
   <g id="line2d_12">
    <path d="M 151.862287 396.969687 
L 159.510015 392.953465 
L 167.700499 388.900818 
L 176.263278 384.908054 
L 185.570647 380.819263 
L 195.25031 376.813356 
L 205.674562 372.748634 
L 216.471109 368.780894 
L 228.012246 364.781586 
L 239.925678 360.886753 
L 252.583699 356.97991 
L 265.986309 353.074869 
L 280.133509 349.183236 
L 295.025298 345.314667 
L 311.033972 341.388331 
L 327.787235 337.509243 
L 345.657382 333.602482 
L 364.644413 329.684344 
L 384.748329 325.768648 
L 405.969129 321.866992 
L 428.306813 317.989015 
L 445.060076 315.219514 
L 445.060076 315.219514 
" clip-path="url(#p11e802a6d4)" style="fill: none; stroke-dasharray: 1.5,2.475; stroke-dashoffset: 0; stroke: #ffa500; stroke-width: 1.5"/>
   </g>
   <g id="line2d_13">
    <path d="M 445.43237 315.159236 
L 445.804665 315.099012 
L 446.17696 315.038842 
L 446.549255 314.978725 
L 446.921549 314.918661 
L 447.293844 314.858651 
L 447.666139 314.798693 
L 448.038434 314.738788 
L 448.410728 314.678937 
L 448.783023 314.619138 
L 449.155318 314.559392 
L 449.527613 314.499698 
L 449.899907 314.440057 
L 450.272202 314.380469 
L 450.644497 314.320933 
L 451.016791 314.261449 
L 451.389086 314.202017 
L 451.761381 314.142637 
L 452.133676 314.083309 
L 452.50597 314.024033 
L 452.878265 313.964809 
L 453.25056 313.905637 
L 453.622855 313.846516 
L 453.995149 313.787446 
L 454.367444 313.728428 
L 454.739739 313.669462 
L 455.112034 313.610547 
L 455.484328 313.551682 
L 455.856623 313.492869 
L 456.228918 313.434107 
L 456.601212 313.375396 
L 456.973507 313.316736 
L 457.345802 313.258126 
L 457.718097 313.199567 
L 458.090391 313.141058 
L 458.462686 313.0826 
L 458.834981 313.024193 
L 459.207276 312.965835 
L 459.57957 312.907528 
L 459.951865 312.849271 
L 460.32416 312.791064 
L 460.696455 312.732907 
L 461.068749 312.674799 
L 461.441044 312.616742 
L 461.813339 312.558734 
L 462.185633 312.500776 
L 462.557928 312.442867 
L 462.930223 312.385008 
L 463.302518 312.327198 
L 463.674812 312.269437 
L 464.047107 312.211726 
L 464.419402 312.154063 
L 464.791697 312.09645 
L 465.163991 312.038885 
L 465.536286 311.98137 
L 465.908581 311.923903 
L 466.280876 311.866484 
L 466.65317 311.809115 
L 467.025465 311.751794 
L 467.39776 311.694521 
L 467.770054 311.637297 
L 468.142349 311.580121 
L 468.514644 311.522993 
L 468.886939 311.465913 
L 469.259233 311.408881 
L 469.631528 311.351897 
L 470.003823 311.294961 
L 470.376118 311.238073 
L 470.748412 311.181233 
L 471.120707 311.12444 
L 471.493002 311.067694 
L 471.865297 311.010997 
L 472.237591 310.954346 
L 472.609886 310.897743 
L 472.982181 310.841187 
" clip-path="url(#p11e802a6d4)" style="fill: none; stroke: #ffa500; stroke-width: 1.5; stroke-linecap: square"/>
   </g>
   <g id="patch_3">
    <path d="M 48.90125 356.477813 
L 48.90125 23.837812 
" style="fill: none; stroke: #000000; stroke-width: 0.8; stroke-linejoin: miter; stroke-linecap: square"/>
   </g>
   <g id="patch_4">
    <path d="M 495.30125 356.477813 
L 495.30125 23.837812 
" style="fill: none; stroke: #000000; stroke-width: 0.8; stroke-linejoin: miter; stroke-linecap: square"/>
   </g>
   <g id="patch_5">
    <path d="M 48.90125 356.477812 
L 495.30125 356.477812 
" style="fill: none; stroke: #000000; stroke-width: 0.8; stroke-linejoin: miter; stroke-linecap: square"/>
   </g>
   <g id="patch_6">
    <path d="M 48.90125 23.837812 
L 495.30125 23.837812 
" style="fill: none; stroke: #000000; stroke-width: 0.8; stroke-linejoin: miter; stroke-linecap: square"/>
   </g>
   <g id="text_13">
    <!-- Humans: K₀ as a function of N -->
    <g transform="translate(167.3025 17.837812) scale(0.14 -0.14)">
     <defs>
      <path id="DejaVuSans-48" d="M 628 4666 
L 1259 4666 
L 1259 2753 
L 3553 2753 
L 3553 4666 
L 4184 4666 
L 4184 0 
L 3553 0 
L 3553 2222 
L 1259 2222 
L 1259 0 
L 628 0 
L 628 4666 
z
" transform="scale(0.015625)"/>
      <path id="DejaVuSans-61" d="M 2194 1759 
Q 1497 1759 1228 1600 
Q 959 1441 959 1056 
Q 959 750 1161 570 
Q 1363 391 1709 391 
Q 2188 391 2477 730 
Q 2766 1069 2766 1631 
L 2766 1759 
L 2194 1759 
z
M 3341 1997 
L 3341 0 
L 2766 0 
L 2766 531 
Q 2569 213 2275 61 
Q 1981 -91 1556 -91 
Q 1019 -91 701 211 
Q 384 513 384 1019 
Q 384 1609 779 1909 
Q 1175 2209 1959 2209 
L 2766 2209 
L 2766 2266 
Q 2766 2663 2505 2880 
Q 2244 3097 1772 3097 
Q 1472 3097 1187 3025 
Q 903 2953 641 2809 
L 641 3341 
Q 956 3463 1253 3523 
Q 1550 3584 1831 3584 
Q 2591 3584 2966 3190 
Q 3341 2797 3341 1997 
z
" transform="scale(0.015625)"/>
      <path id="DejaVuSans-3a" d="M 750 794 
L 1409 794 
L 1409 0 
L 750 0 
L 750 794 
z
M 750 3309 
L 1409 3309 
L 1409 2516 
L 750 2516 
L 750 3309 
z
" transform="scale(0.015625)"/>
     </defs>
     <use xlink:href="#DejaVuSans-48"/>
     <use xlink:href="#DejaVuSans-75" transform="translate(75.195312 0)"/>
     <use xlink:href="#DejaVuSans-6d" transform="translate(138.574219 0)"/>
     <use xlink:href="#DejaVuSans-61" transform="translate(235.986328 0)"/>
     <use xlink:href="#DejaVuSans-6e" transform="translate(297.265625 0)"/>
     <use xlink:href="#DejaVuSans-73" transform="translate(360.644531 0)"/>
     <use xlink:href="#DejaVuSans-3a" transform="translate(412.744141 0)"/>
     <use xlink:href="#DejaVuSans-20" transform="translate(446.435547 0)"/>
     <use xlink:href="#DejaVuSans-4b" transform="translate(478.222656 0)"/>
     <use xlink:href="#DejaVuSans-2080" transform="translate(543.798828 0)"/>
     <use xlink:href="#DejaVuSans-20" transform="translate(583.886719 0)"/>
     <use xlink:href="#DejaVuSans-61" transform="translate(615.673828 0)"/>
     <use xlink:href="#DejaVuSans-73" transform="translate(676.953125 0)"/>
     <use xlink:href="#DejaVuSans-20" transform="translate(729.052734 0)"/>
     <use xlink:href="#DejaVuSans-61" transform="translate(760.839844 0)"/>
     <use xlink:href="#DejaVuSans-20" transform="translate(822.119141 0)"/>
     <use xlink:href="#DejaVuSans-66" transform="translate(853.90625 0)"/>
     <use xlink:href="#DejaVuSans-75" transform="translate(889.111328 0)"/>
     <use xlink:href="#DejaVuSans-6e" transform="translate(952.490234 0)"/>
     <use xlink:href="#DejaVuSans-63" transform="translate(1015.869141 0)"/>
     <use xlink:href="#DejaVuSans-74" transform="translate(1070.849609 0)"/>
     <use xlink:href="#DejaVuSans-69" transform="translate(1110.058594 0)"/>
     <use xlink:href="#DejaVuSans-6f" transform="translate(1137.841797 0)"/>
     <use xlink:href="#DejaVuSans-6e" transform="translate(1199.023438 0)"/>
     <use xlink:href="#DejaVuSans-20" transform="translate(1262.402344 0)"/>
     <use xlink:href="#DejaVuSans-6f" transform="translate(1294.189453 0)"/>
     <use xlink:href="#DejaVuSans-66" transform="translate(1355.371094 0)"/>
     <use xlink:href="#DejaVuSans-20" transform="translate(1390.576172 0)"/>
     <use xlink:href="#DejaVuSans-4e" transform="translate(1422.363281 0)"/>
    </g>
   </g>
  </g>
 </g>
 <defs>
  <clipPath id="p11e802a6d4">
   <rect x="48.90125" y="23.837812" width="446.4" height="332.64"/>
  </clipPath>
 </defs>
</svg>
