<?xml version="1.0" encoding="utf-8" standalone="no"?>
<!DOCTYPE svg PUBLIC "-//W3C//DTD SVG 1.1//EN"
  "http://www.w3.org/Graphics/SVG/1.1/DTD/svg11.dtd">
<svg xmlns:xlink="http://www.w3.org/1999/xlink" width="616.879808pt" height="281.634375pt" viewBox="0 0 616.879808 281.634375" xmlns="http://www.w3.org/2000/svg" version="1.1">
 <metadata>
  <rdf:RDF xmlns:dc="http://purl.org/dc/elements/1.1/" xmlns:cc="http://creativecommons.org/ns#" xmlns:rdf="http://www.w3.org/1999/02/22-rdf-syntax-ns#">
   <cc:Work>
    <dc:type rdf:resource="http://purl.org/dc/dcmitype/StillImage"/>
    <dc:date>2025-03-27T19:13:51.644376</dc:date>
    <dc:format>image/svg+xml</dc:format>
    <dc:creator>
     <cc:Agent>
      <dc:title>Matplotlib v3.10.1, https://matplotlib.org/</dc:title>
     </cc:Agent>
    </dc:creator>
   </cc:Work>
  </rdf:RDF>
 </metadata>
 <defs>
  <style type="text/css">*{stroke-linejoin: round; stroke-linecap: butt}</style>
 </defs>
 <g id="figure_1">
  <g id="patch_1">
   <path d="M 0 281.634375 
L 616.879808 281.634375 
L 616.879808 0 
L 0 0 
z
" style="fill: #ffffff"/>
  </g>
  <g id="axes_1">
   <g id="patch_2">
    <path d="M 50.14375 244.078125 
L 264.759135 244.078125 
L 264.759135 22.318125 
L 50.14375 22.318125 
z
" style="fill: #ffffff"/>
   </g>
   <g id="FillBetweenPolyCollection_1">
    <defs>
     <path id="mce2c5bc319" d="M 59.898995 -149.231266 
L 59.898995 -112.464054 
L 63.262872 -126.71048 
L 66.62675 -136.057172 
L 69.990627 -138.115911 
L 73.354505 -144.575125 
L 76.718382 -145.656957 
L 80.08226 -141.087279 
L 83.446137 -141.158791 
L 86.810015 -142.793317 
L 90.173892 -133.076163 
L 93.53777 -157.226437 
L 96.901647 -120.625999 
L 100.265525 -118.613698 
L 106.99328 -101.389208 
L 113.721035 -148.61318 
L 113.721035 -178.757472 
L 113.721035 -178.757472 
L 106.99328 -127.648021 
L 100.265525 -148.916783 
L 96.901647 -159.671642 
L 93.53777 -249.23625 
L 90.173892 -166.683933 
L 86.810015 -183.270409 
L 83.446137 -184.888495 
L 80.08226 -179.785349 
L 76.718382 -188.762394 
L 73.354505 -182.596787 
L 69.990627 -177.946585 
L 66.62675 -175.961322 
L 63.262872 -160.649044 
L 59.898995 -149.231266 
z
" style="stroke: #de5d5c; stroke-opacity: 0.2"/>
    </defs>
    <g clip-path="url(#p2736bc342f)">
     <use xlink:href="#mce2c5bc319" x="0" y="281.634375" style="fill: #de5d5c; fill-opacity: 0.2; stroke: #de5d5c; stroke-opacity: 0.2"/>
    </g>
   </g>
   <g id="FillBetweenPolyCollection_2">
    <defs>
     <path id="m7259070f9b" d="M 75.372831 -181.619806 
L 75.372831 -149.324378 
L 86.810015 -178.725044 
L 98.247198 -152.701709 
L 109.011606 -168.114971 
L 120.44879 -176.663468 
L 131.885973 -170.823164 
L 142.650381 -148.041697 
L 154.087565 -107.693138 
L 165.524748 -84.461199 
L 176.289156 -78.085125 
L 187.72634 -62.0791 
L 199.163523 -50.886048 
L 209.927931 -47.63625 
L 232.802298 -52.820212 
L 255.00389 -142.683074 
L 255.00389 -177.176552 
L 255.00389 -177.176552 
L 232.802298 -107.627416 
L 209.927931 -65.527082 
L 199.163523 -70.325835 
L 187.72634 -97.514086 
L 176.289156 -103.687132 
L 165.524748 -122.23196 
L 154.087565 -130.269412 
L 142.650381 -179.262487 
L 131.885973 -236.336889 
L 120.44879 -220.525064 
L 109.011606 -199.587276 
L 98.247198 -181.679898 
L 86.810015 -226.074345 
L 75.372831 -181.619806 
z
" style="stroke: #9a3670; stroke-opacity: 0.2"/>
    </defs>
    <g clip-path="url(#p2736bc342f)">
     <use xlink:href="#m7259070f9b" x="0" y="281.634375" style="fill: #9a3670; fill-opacity: 0.2; stroke: #9a3670; stroke-opacity: 0.2"/>
    </g>
   </g>
   <g id="matplotlib.axis_1">
    <g id="xtick_1">
     <g id="line2d_1">
      <defs>
       <path id="mbf40d0d6de" d="M 0 0 
L 0 3.5 
" style="stroke: #000000; stroke-width: 0.8"/>
      </defs>
      <g>
       <use xlink:href="#mbf40d0d6de" x="53.17124" y="244.078125" style="stroke: #000000; stroke-width: 0.8"/>
      </g>
     </g>
     <g id="text_1">
      <!-- 0 -->
      <g transform="translate(49.98999 258.676562) scale(0.1 -0.1)">
       <defs>
        <path id="DejaVuSans-30" d="M 2034 4250 
Q 1547 4250 1301 3770 
Q 1056 3291 1056 2328 
Q 1056 1369 1301 889 
Q 1547 409 2034 409 
Q 2525 409 2770 889 
Q 3016 1369 3016 2328 
Q 3016 3291 2770 3770 
Q 2525 4250 2034 4250 
z
M 2034 4750 
Q 2819 4750 3233 4129 
Q 3647 3509 3647 2328 
Q 3647 1150 3233 529 
Q 2819 -91 2034 -91 
Q 1250 -91 836 529 
Q 422 1150 422 2328 
Q 422 3509 836 4129 
Q 1250 4750 2034 4750 
z
" transform="scale(0.015625)"/>
       </defs>
       <use xlink:href="#DejaVuSans-30"/>
      </g>
     </g>
    </g>
    <g id="xtick_2">
     <g id="line2d_2">
      <g>
       <use xlink:href="#mbf40d0d6de" x="86.810015" y="244.078125" style="stroke: #000000; stroke-width: 0.8"/>
      </g>
     </g>
     <g id="text_2">
      <!-- 50 -->
      <g transform="translate(80.447515 258.676562) scale(0.1 -0.1)">
       <defs>
        <path id="DejaVuSans-35" d="M 691 4666 
L 3169 4666 
L 3169 4134 
L 1269 4134 
L 1269 2991 
Q 1406 3038 1543 3061 
Q 1681 3084 1819 3084 
Q 2600 3084 3056 2656 
Q 3513 2228 3513 1497 
Q 3513 744 3044 326 
Q 2575 -91 1722 -91 
Q 1428 -91 1123 -41 
Q 819 9 494 109 
L 494 744 
Q 775 591 1075 516 
Q 1375 441 1709 441 
Q 2250 441 2565 725 
Q 2881 1009 2881 1497 
Q 2881 1984 2565 2268 
Q 2250 2553 1709 2553 
Q 1456 2553 1204 2497 
Q 953 2441 691 2322 
L 691 4666 
z
" transform="scale(0.015625)"/>
       </defs>
       <use xlink:href="#DejaVuSans-35"/>
       <use xlink:href="#DejaVuSans-30" transform="translate(63.623047 0)"/>
      </g>
     </g>
    </g>
    <g id="xtick_3">
     <g id="line2d_3">
      <g>
       <use xlink:href="#mbf40d0d6de" x="120.44879" y="244.078125" style="stroke: #000000; stroke-width: 0.8"/>
      </g>
     </g>
     <g id="text_3">
      <!-- 100 -->
      <g transform="translate(110.90504 258.676562) scale(0.1 -0.1)">
       <defs>
        <path id="DejaVuSans-31" d="M 794 531 
L 1825 531 
L 1825 4091 
L 703 3866 
L 703 4441 
L 1819 4666 
L 2450 4666 
L 2450 531 
L 3481 531 
L 3481 0 
L 794 0 
L 794 531 
z
" transform="scale(0.015625)"/>
       </defs>
       <use xlink:href="#DejaVuSans-31"/>
       <use xlink:href="#DejaVuSans-30" transform="translate(63.623047 0)"/>
       <use xlink:href="#DejaVuSans-30" transform="translate(127.246094 0)"/>
      </g>
     </g>
    </g>
    <g id="xtick_4">
     <g id="line2d_4">
      <g>
       <use xlink:href="#mbf40d0d6de" x="154.087565" y="244.078125" style="stroke: #000000; stroke-width: 0.8"/>
      </g>
     </g>
     <g id="text_4">
      <!-- 150 -->
      <g transform="translate(144.543815 258.676562) scale(0.1 -0.1)">
       <use xlink:href="#DejaVuSans-31"/>
       <use xlink:href="#DejaVuSans-35" transform="translate(63.623047 0)"/>
       <use xlink:href="#DejaVuSans-30" transform="translate(127.246094 0)"/>
      </g>
     </g>
    </g>
    <g id="xtick_5">
     <g id="line2d_5">
      <g>
       <use xlink:href="#mbf40d0d6de" x="187.72634" y="244.078125" style="stroke: #000000; stroke-width: 0.8"/>
      </g>
     </g>
     <g id="text_5">
      <!-- 200 -->
      <g transform="translate(178.18259 258.676562) scale(0.1 -0.1)">
       <defs>
        <path id="DejaVuSans-32" d="M 1228 531 
L 3431 531 
L 3431 0 
L 469 0 
L 469 531 
Q 828 903 1448 1529 
Q 2069 2156 2228 2338 
Q 2531 2678 2651 2914 
Q 2772 3150 2772 3378 
Q 2772 3750 2511 3984 
Q 2250 4219 1831 4219 
Q 1534 4219 1204 4116 
Q 875 4013 500 3803 
L 500 4441 
Q 881 4594 1212 4672 
Q 1544 4750 1819 4750 
Q 2544 4750 2975 4387 
Q 3406 4025 3406 3419 
Q 3406 3131 3298 2873 
Q 3191 2616 2906 2266 
Q 2828 2175 2409 1742 
Q 1991 1309 1228 531 
z
" transform="scale(0.015625)"/>
       </defs>
       <use xlink:href="#DejaVuSans-32"/>
       <use xlink:href="#DejaVuSans-30" transform="translate(63.623047 0)"/>
       <use xlink:href="#DejaVuSans-30" transform="translate(127.246094 0)"/>
      </g>
     </g>
    </g>
    <g id="xtick_6">
     <g id="line2d_6">
      <g>
       <use xlink:href="#mbf40d0d6de" x="221.365115" y="244.078125" style="stroke: #000000; stroke-width: 0.8"/>
      </g>
     </g>
     <g id="text_6">
      <!-- 250 -->
      <g transform="translate(211.821365 258.676562) scale(0.1 -0.1)">
       <use xlink:href="#DejaVuSans-32"/>
       <use xlink:href="#DejaVuSans-35" transform="translate(63.623047 0)"/>
       <use xlink:href="#DejaVuSans-30" transform="translate(127.246094 0)"/>
      </g>
     </g>
    </g>
    <g id="xtick_7">
     <g id="line2d_7">
      <g>
       <use xlink:href="#mbf40d0d6de" x="255.00389" y="244.078125" style="stroke: #000000; stroke-width: 0.8"/>
      </g>
     </g>
     <g id="text_7">
      <!-- 300 -->
      <g transform="translate(245.46014 258.676562) scale(0.1 -0.1)">
       <defs>
        <path id="DejaVuSans-33" d="M 2597 2516 
Q 3050 2419 3304 2112 
Q 3559 1806 3559 1356 
Q 3559 666 3084 287 
Q 2609 -91 1734 -91 
Q 1441 -91 1130 -33 
Q 819 25 488 141 
L 488 750 
Q 750 597 1062 519 
Q 1375 441 1716 441 
Q 2309 441 2620 675 
Q 2931 909 2931 1356 
Q 2931 1769 2642 2001 
Q 2353 2234 1838 2234 
L 1294 2234 
L 1294 2753 
L 1863 2753 
Q 2328 2753 2575 2939 
Q 2822 3125 2822 3475 
Q 2822 3834 2567 4026 
Q 2313 4219 1838 4219 
Q 1578 4219 1281 4162 
Q 984 4106 628 3988 
L 628 4550 
Q 988 4650 1302 4700 
Q 1616 4750 1894 4750 
Q 2613 4750 3031 4423 
Q 3450 4097 3450 3541 
Q 3450 3153 3228 2886 
Q 3006 2619 2597 2516 
z
" transform="scale(0.015625)"/>
       </defs>
       <use xlink:href="#DejaVuSans-33"/>
       <use xlink:href="#DejaVuSans-30" transform="translate(63.623047 0)"/>
       <use xlink:href="#DejaVuSans-30" transform="translate(127.246094 0)"/>
      </g>
     </g>
    </g>
    <g id="text_8">
     <!-- Clique size -->
     <g transform="translate(130.478786 272.354687) scale(0.1 -0.1)">
      <defs>
       <path id="DejaVuSans-43" d="M 4122 4306 
L 4122 3641 
Q 3803 3938 3442 4084 
Q 3081 4231 2675 4231 
Q 1875 4231 1450 3742 
Q 1025 3253 1025 2328 
Q 1025 1406 1450 917 
Q 1875 428 2675 428 
Q 3081 428 3442 575 
Q 3803 722 4122 1019 
L 4122 359 
Q 3791 134 3420 21 
Q 3050 -91 2638 -91 
Q 1578 -91 968 557 
Q 359 1206 359 2328 
Q 359 3453 968 4101 
Q 1578 4750 2638 4750 
Q 3056 4750 3426 4639 
Q 3797 4528 4122 4306 
z
" transform="scale(0.015625)"/>
       <path id="DejaVuSans-6c" d="M 603 4863 
L 1178 4863 
L 1178 0 
L 603 0 
L 603 4863 
z
" transform="scale(0.015625)"/>
       <path id="DejaVuSans-69" d="M 603 3500 
L 1178 3500 
L 1178 0 
L 603 0 
L 603 3500 
z
M 603 4863 
L 1178 4863 
L 1178 4134 
L 603 4134 
L 603 4863 
z
" transform="scale(0.015625)"/>
       <path id="DejaVuSans-71" d="M 947 1747 
Q 947 1113 1208 752 
Q 1469 391 1925 391 
Q 2381 391 2643 752 
Q 2906 1113 2906 1747 
Q 2906 2381 2643 2742 
Q 2381 3103 1925 3103 
Q 1469 3103 1208 2742 
Q 947 2381 947 1747 
z
M 2906 525 
Q 2725 213 2448 61 
Q 2172 -91 1784 -91 
Q 1150 -91 751 415 
Q 353 922 353 1747 
Q 353 2572 751 3078 
Q 1150 3584 1784 3584 
Q 2172 3584 2448 3432 
Q 2725 3281 2906 2969 
L 2906 3500 
L 3481 3500 
L 3481 -1331 
L 2906 -1331 
L 2906 525 
z
" transform="scale(0.015625)"/>
       <path id="DejaVuSans-75" d="M 544 1381 
L 544 3500 
L 1119 3500 
L 1119 1403 
Q 1119 906 1312 657 
Q 1506 409 1894 409 
Q 2359 409 2629 706 
Q 2900 1003 2900 1516 
L 2900 3500 
L 3475 3500 
L 3475 0 
L 2900 0 
L 2900 538 
Q 2691 219 2414 64 
Q 2138 -91 1772 -91 
Q 1169 -91 856 284 
Q 544 659 544 1381 
z
M 1991 3584 
L 1991 3584 
z
" transform="scale(0.015625)"/>
       <path id="DejaVuSans-65" d="M 3597 1894 
L 3597 1613 
L 953 1613 
Q 991 1019 1311 708 
Q 1631 397 2203 397 
Q 2534 397 2845 478 
Q 3156 559 3463 722 
L 3463 178 
Q 3153 47 2828 -22 
Q 2503 -91 2169 -91 
Q 1331 -91 842 396 
Q 353 884 353 1716 
Q 353 2575 817 3079 
Q 1281 3584 2069 3584 
Q 2775 3584 3186 3129 
Q 3597 2675 3597 1894 
z
M 3022 2063 
Q 3016 2534 2758 2815 
Q 2500 3097 2075 3097 
Q 1594 3097 1305 2825 
Q 1016 2553 972 2059 
L 3022 2063 
z
" transform="scale(0.015625)"/>
       <path id="DejaVuSans-20" transform="scale(0.015625)"/>
       <path id="DejaVuSans-73" d="M 2834 3397 
L 2834 2853 
Q 2591 2978 2328 3040 
Q 2066 3103 1784 3103 
Q 1356 3103 1142 2972 
Q 928 2841 928 2578 
Q 928 2378 1081 2264 
Q 1234 2150 1697 2047 
L 1894 2003 
Q 2506 1872 2764 1633 
Q 3022 1394 3022 966 
Q 3022 478 2636 193 
Q 2250 -91 1575 -91 
Q 1294 -91 989 -36 
Q 684 19 347 128 
L 347 722 
Q 666 556 975 473 
Q 1284 391 1588 391 
Q 1994 391 2212 530 
Q 2431 669 2431 922 
Q 2431 1156 2273 1281 
Q 2116 1406 1581 1522 
L 1381 1569 
Q 847 1681 609 1914 
Q 372 2147 372 2553 
Q 372 3047 722 3315 
Q 1072 3584 1716 3584 
Q 2034 3584 2315 3537 
Q 2597 3491 2834 3397 
z
" transform="scale(0.015625)"/>
       <path id="DejaVuSans-7a" d="M 353 3500 
L 3084 3500 
L 3084 2975 
L 922 459 
L 3084 459 
L 3084 0 
L 275 0 
L 275 525 
L 2438 3041 
L 353 3041 
L 353 3500 
z
" transform="scale(0.015625)"/>
      </defs>
      <use xlink:href="#DejaVuSans-43"/>
      <use xlink:href="#DejaVuSans-6c" transform="translate(69.824219 0)"/>
      <use xlink:href="#DejaVuSans-69" transform="translate(97.607422 0)"/>
      <use xlink:href="#DejaVuSans-71" transform="translate(125.390625 0)"/>
      <use xlink:href="#DejaVuSans-75" transform="translate(188.867188 0)"/>
      <use xlink:href="#DejaVuSans-65" transform="translate(252.246094 0)"/>
      <use xlink:href="#DejaVuSans-20" transform="translate(313.769531 0)"/>
      <use xlink:href="#DejaVuSans-73" transform="translate(345.556641 0)"/>
      <use xlink:href="#DejaVuSans-69" transform="translate(397.65625 0)"/>
      <use xlink:href="#DejaVuSans-7a" transform="translate(425.439453 0)"/>
      <use xlink:href="#DejaVuSans-65" transform="translate(477.929688 0)"/>
     </g>
    </g>
   </g>
   <g id="matplotlib.axis_2">
    <g id="ytick_1">
     <g id="line2d_8">
      <defs>
       <path id="mbe1e72653f" d="M 0 0 
L -3.5 0 
" style="stroke: #000000; stroke-width: 0.8"/>
      </defs>
      <g>
       <use xlink:href="#mbe1e72653f" x="50.14375" y="202.564213" style="stroke: #000000; stroke-width: 0.8"/>
      </g>
     </g>
     <g id="text_9">
      <!-- 1.00 -->
      <g transform="translate(20.878125 206.363431) scale(0.1 -0.1)">
       <defs>
        <path id="DejaVuSans-2e" d="M 684 794 
L 1344 794 
L 1344 0 
L 684 0 
L 684 794 
z
" transform="scale(0.015625)"/>
       </defs>
       <use xlink:href="#DejaVuSans-31"/>
       <use xlink:href="#DejaVuSans-2e" transform="translate(63.623047 0)"/>
       <use xlink:href="#DejaVuSans-30" transform="translate(95.410156 0)"/>
       <use xlink:href="#DejaVuSans-30" transform="translate(159.033203 0)"/>
      </g>
     </g>
    </g>
    <g id="ytick_2">
     <g id="line2d_9">
      <g>
       <use xlink:href="#mbe1e72653f" x="50.14375" y="118.386928" style="stroke: #000000; stroke-width: 0.8"/>
      </g>
     </g>
     <g id="text_10">
      <!-- 2.00 -->
      <g transform="translate(20.878125 122.186146) scale(0.1 -0.1)">
       <use xlink:href="#DejaVuSans-32"/>
       <use xlink:href="#DejaVuSans-2e" transform="translate(63.623047 0)"/>
       <use xlink:href="#DejaVuSans-30" transform="translate(95.410156 0)"/>
       <use xlink:href="#DejaVuSans-30" transform="translate(159.033203 0)"/>
      </g>
     </g>
    </g>
    <g id="ytick_3">
     <g id="line2d_10">
      <g>
       <use xlink:href="#mbe1e72653f" x="50.14375" y="34.209643" style="stroke: #000000; stroke-width: 0.8"/>
      </g>
     </g>
     <g id="text_11">
      <!-- 4.00 -->
      <g transform="translate(20.878125 38.008861) scale(0.1 -0.1)">
       <defs>
        <path id="DejaVuSans-34" d="M 2419 4116 
L 825 1625 
L 2419 1625 
L 2419 4116 
z
M 2253 4666 
L 3047 4666 
L 3047 1625 
L 3713 1625 
L 3713 1100 
L 3047 1100 
L 3047 0 
L 2419 0 
L 2419 1100 
L 313 1100 
L 313 1709 
L 2253 4666 
z
" transform="scale(0.015625)"/>
       </defs>
       <use xlink:href="#DejaVuSans-34"/>
       <use xlink:href="#DejaVuSans-2e" transform="translate(63.623047 0)"/>
       <use xlink:href="#DejaVuSans-30" transform="translate(95.410156 0)"/>
       <use xlink:href="#DejaVuSans-30" transform="translate(159.033203 0)"/>
      </g>
     </g>
    </g>
    <g id="text_12">
     <!-- Response time (s, log-scaled) -->
     <g transform="translate(14.798438 206.855156) rotate(-90) scale(0.1 -0.1)">
      <defs>
       <path id="DejaVuSans-52" d="M 2841 2188 
Q 3044 2119 3236 1894 
Q 3428 1669 3622 1275 
L 4263 0 
L 3584 0 
L 2988 1197 
Q 2756 1666 2539 1819 
Q 2322 1972 1947 1972 
L 1259 1972 
L 1259 0 
L 628 0 
L 628 4666 
L 2053 4666 
Q 2853 4666 3247 4331 
Q 3641 3997 3641 3322 
Q 3641 2881 3436 2590 
Q 3231 2300 2841 2188 
z
M 1259 4147 
L 1259 2491 
L 2053 2491 
Q 2509 2491 2742 2702 
Q 2975 2913 2975 3322 
Q 2975 3731 2742 3939 
Q 2509 4147 2053 4147 
L 1259 4147 
z
" transform="scale(0.015625)"/>
       <path id="DejaVuSans-70" d="M 1159 525 
L 1159 -1331 
L 581 -1331 
L 581 3500 
L 1159 3500 
L 1159 2969 
Q 1341 3281 1617 3432 
Q 1894 3584 2278 3584 
Q 2916 3584 3314 3078 
Q 3713 2572 3713 1747 
Q 3713 922 3314 415 
Q 2916 -91 2278 -91 
Q 1894 -91 1617 61 
Q 1341 213 1159 525 
z
M 3116 1747 
Q 3116 2381 2855 2742 
Q 2594 3103 2138 3103 
Q 1681 3103 1420 2742 
Q 1159 2381 1159 1747 
Q 1159 1113 1420 752 
Q 1681 391 2138 391 
Q 2594 391 2855 752 
Q 3116 1113 3116 1747 
z
" transform="scale(0.015625)"/>
       <path id="DejaVuSans-6f" d="M 1959 3097 
Q 1497 3097 1228 2736 
Q 959 2375 959 1747 
Q 959 1119 1226 758 
Q 1494 397 1959 397 
Q 2419 397 2687 759 
Q 2956 1122 2956 1747 
Q 2956 2369 2687 2733 
Q 2419 3097 1959 3097 
z
M 1959 3584 
Q 2709 3584 3137 3096 
Q 3566 2609 3566 1747 
Q 3566 888 3137 398 
Q 2709 -91 1959 -91 
Q 1206 -91 779 398 
Q 353 888 353 1747 
Q 353 2609 779 3096 
Q 1206 3584 1959 3584 
z
" transform="scale(0.015625)"/>
       <path id="DejaVuSans-6e" d="M 3513 2113 
L 3513 0 
L 2938 0 
L 2938 2094 
Q 2938 2591 2744 2837 
Q 2550 3084 2163 3084 
Q 1697 3084 1428 2787 
Q 1159 2491 1159 1978 
L 1159 0 
L 581 0 
L 581 3500 
L 1159 3500 
L 1159 2956 
Q 1366 3272 1645 3428 
Q 1925 3584 2291 3584 
Q 2894 3584 3203 3211 
Q 3513 2838 3513 2113 
z
" transform="scale(0.015625)"/>
       <path id="DejaVuSans-74" d="M 1172 4494 
L 1172 3500 
L 2356 3500 
L 2356 3053 
L 1172 3053 
L 1172 1153 
Q 1172 725 1289 603 
Q 1406 481 1766 481 
L 2356 481 
L 2356 0 
L 1766 0 
Q 1100 0 847 248 
Q 594 497 594 1153 
L 594 3053 
L 172 3053 
L 172 3500 
L 594 3500 
L 594 4494 
L 1172 4494 
z
" transform="scale(0.015625)"/>
       <path id="DejaVuSans-6d" d="M 3328 2828 
Q 3544 3216 3844 3400 
Q 4144 3584 4550 3584 
Q 5097 3584 5394 3201 
Q 5691 2819 5691 2113 
L 5691 0 
L 5113 0 
L 5113 2094 
Q 5113 2597 4934 2840 
Q 4756 3084 4391 3084 
Q 3944 3084 3684 2787 
Q 3425 2491 3425 1978 
L 3425 0 
L 2847 0 
L 2847 2094 
Q 2847 2600 2669 2842 
Q 2491 3084 2119 3084 
Q 1678 3084 1418 2786 
Q 1159 2488 1159 1978 
L 1159 0 
L 581 0 
L 581 3500 
L 1159 3500 
L 1159 2956 
Q 1356 3278 1631 3431 
Q 1906 3584 2284 3584 
Q 2666 3584 2933 3390 
Q 3200 3197 3328 2828 
z
" transform="scale(0.015625)"/>
       <path id="DejaVuSans-28" d="M 1984 4856 
Q 1566 4138 1362 3434 
Q 1159 2731 1159 2009 
Q 1159 1288 1364 580 
Q 1569 -128 1984 -844 
L 1484 -844 
Q 1016 -109 783 600 
Q 550 1309 550 2009 
Q 550 2706 781 3412 
Q 1013 4119 1484 4856 
L 1984 4856 
z
" transform="scale(0.015625)"/>
       <path id="DejaVuSans-2c" d="M 750 794 
L 1409 794 
L 1409 256 
L 897 -744 
L 494 -744 
L 750 256 
L 750 794 
z
" transform="scale(0.015625)"/>
       <path id="DejaVuSans-67" d="M 2906 1791 
Q 2906 2416 2648 2759 
Q 2391 3103 1925 3103 
Q 1463 3103 1205 2759 
Q 947 2416 947 1791 
Q 947 1169 1205 825 
Q 1463 481 1925 481 
Q 2391 481 2648 825 
Q 2906 1169 2906 1791 
z
M 3481 434 
Q 3481 -459 3084 -895 
Q 2688 -1331 1869 -1331 
Q 1566 -1331 1297 -1286 
Q 1028 -1241 775 -1147 
L 775 -588 
Q 1028 -725 1275 -790 
Q 1522 -856 1778 -856 
Q 2344 -856 2625 -561 
Q 2906 -266 2906 331 
L 2906 616 
Q 2728 306 2450 153 
Q 2172 0 1784 0 
Q 1141 0 747 490 
Q 353 981 353 1791 
Q 353 2603 747 3093 
Q 1141 3584 1784 3584 
Q 2172 3584 2450 3431 
Q 2728 3278 2906 2969 
L 2906 3500 
L 3481 3500 
L 3481 434 
z
" transform="scale(0.015625)"/>
       <path id="DejaVuSans-2d" d="M 313 2009 
L 1997 2009 
L 1997 1497 
L 313 1497 
L 313 2009 
z
" transform="scale(0.015625)"/>
       <path id="DejaVuSans-63" d="M 3122 3366 
L 3122 2828 
Q 2878 2963 2633 3030 
Q 2388 3097 2138 3097 
Q 1578 3097 1268 2742 
Q 959 2388 959 1747 
Q 959 1106 1268 751 
Q 1578 397 2138 397 
Q 2388 397 2633 464 
Q 2878 531 3122 666 
L 3122 134 
Q 2881 22 2623 -34 
Q 2366 -91 2075 -91 
Q 1284 -91 818 406 
Q 353 903 353 1747 
Q 353 2603 823 3093 
Q 1294 3584 2113 3584 
Q 2378 3584 2631 3529 
Q 2884 3475 3122 3366 
z
" transform="scale(0.015625)"/>
       <path id="DejaVuSans-61" d="M 2194 1759 
Q 1497 1759 1228 1600 
Q 959 1441 959 1056 
Q 959 750 1161 570 
Q 1363 391 1709 391 
Q 2188 391 2477 730 
Q 2766 1069 2766 1631 
L 2766 1759 
L 2194 1759 
z
M 3341 1997 
L 3341 0 
L 2766 0 
L 2766 531 
Q 2569 213 2275 61 
Q 1981 -91 1556 -91 
Q 1019 -91 701 211 
Q 384 513 384 1019 
Q 384 1609 779 1909 
Q 1175 2209 1959 2209 
L 2766 2209 
L 2766 2266 
Q 2766 2663 2505 2880 
Q 2244 3097 1772 3097 
Q 1472 3097 1187 3025 
Q 903 2953 641 2809 
L 641 3341 
Q 956 3463 1253 3523 
Q 1550 3584 1831 3584 
Q 2591 3584 2966 3190 
Q 3341 2797 3341 1997 
z
" transform="scale(0.015625)"/>
       <path id="DejaVuSans-64" d="M 2906 2969 
L 2906 4863 
L 3481 4863 
L 3481 0 
L 2906 0 
L 2906 525 
Q 2725 213 2448 61 
Q 2172 -91 1784 -91 
Q 1150 -91 751 415 
Q 353 922 353 1747 
Q 353 2572 751 3078 
Q 1150 3584 1784 3584 
Q 2172 3584 2448 3432 
Q 2725 3281 2906 2969 
z
M 947 1747 
Q 947 1113 1208 752 
Q 1469 391 1925 391 
Q 2381 391 2643 752 
Q 2906 1113 2906 1747 
Q 2906 2381 2643 2742 
Q 2381 3103 1925 3103 
Q 1469 3103 1208 2742 
Q 947 2381 947 1747 
z
" transform="scale(0.015625)"/>
       <path id="DejaVuSans-29" d="M 513 4856 
L 1013 4856 
Q 1481 4119 1714 3412 
Q 1947 2706 1947 2009 
Q 1947 1309 1714 600 
Q 1481 -109 1013 -844 
L 513 -844 
Q 928 -128 1133 580 
Q 1338 1288 1338 2009 
Q 1338 2731 1133 3434 
Q 928 4138 513 4856 
z
" transform="scale(0.015625)"/>
      </defs>
      <use xlink:href="#DejaVuSans-52"/>
      <use xlink:href="#DejaVuSans-65" transform="translate(64.982422 0)"/>
      <use xlink:href="#DejaVuSans-73" transform="translate(126.505859 0)"/>
      <use xlink:href="#DejaVuSans-70" transform="translate(178.605469 0)"/>
      <use xlink:href="#DejaVuSans-6f" transform="translate(242.082031 0)"/>
      <use xlink:href="#DejaVuSans-6e" transform="translate(303.263672 0)"/>
      <use xlink:href="#DejaVuSans-73" transform="translate(366.642578 0)"/>
      <use xlink:href="#DejaVuSans-65" transform="translate(418.742188 0)"/>
      <use xlink:href="#DejaVuSans-20" transform="translate(480.265625 0)"/>
      <use xlink:href="#DejaVuSans-74" transform="translate(512.052734 0)"/>
      <use xlink:href="#DejaVuSans-69" transform="translate(551.261719 0)"/>
      <use xlink:href="#DejaVuSans-6d" transform="translate(579.044922 0)"/>
      <use xlink:href="#DejaVuSans-65" transform="translate(676.457031 0)"/>
      <use xlink:href="#DejaVuSans-20" transform="translate(737.980469 0)"/>
      <use xlink:href="#DejaVuSans-28" transform="translate(769.767578 0)"/>
      <use xlink:href="#DejaVuSans-73" transform="translate(808.78125 0)"/>
      <use xlink:href="#DejaVuSans-2c" transform="translate(860.880859 0)"/>
      <use xlink:href="#DejaVuSans-20" transform="translate(892.667969 0)"/>
      <use xlink:href="#DejaVuSans-6c" transform="translate(924.455078 0)"/>
      <use xlink:href="#DejaVuSans-6f" transform="translate(952.238281 0)"/>
      <use xlink:href="#DejaVuSans-67" transform="translate(1013.419922 0)"/>
      <use xlink:href="#DejaVuSans-2d" transform="translate(1076.896484 0)"/>
      <use xlink:href="#DejaVuSans-73" transform="translate(1112.980469 0)"/>
      <use xlink:href="#DejaVuSans-63" transform="translate(1165.080078 0)"/>
      <use xlink:href="#DejaVuSans-61" transform="translate(1220.060547 0)"/>
      <use xlink:href="#DejaVuSans-6c" transform="translate(1281.339844 0)"/>
      <use xlink:href="#DejaVuSans-65" transform="translate(1309.123047 0)"/>
      <use xlink:href="#DejaVuSans-64" transform="translate(1370.646484 0)"/>
      <use xlink:href="#DejaVuSans-29" transform="translate(1434.123047 0)"/>
     </g>
    </g>
   </g>
   <g id="line2d_11">
    <path d="M 59.898995 149.400565 
L 63.262872 136.77288 
L 66.62675 123.993457 
L 69.990627 121.977433 
L 73.354505 116.566458 
L 76.718382 112.522142 
L 80.08226 119.663125 
L 83.446137 116.652965 
L 86.810015 116.923866 
L 90.173892 130.595446 
L 93.53777 69.889976 
L 96.901647 139.92304 
L 100.265525 146.926397 
L 106.99328 166.407413 
L 113.721035 117.016141 
" clip-path="url(#p2736bc342f)" style="fill: none; stroke: #de5d5c; stroke-width: 1.5; stroke-linecap: square"/>
    <defs>
     <path id="mf65821c29b" d="M 0 3 
C 0.795609 3 1.55874 2.683901 2.12132 2.12132 
C 2.683901 1.55874 3 0.795609 3 0 
C 3 -0.795609 2.683901 -1.55874 2.12132 -2.12132 
C 1.55874 -2.683901 0.795609 -3 0 -3 
C -0.795609 -3 -1.55874 -2.683901 -2.12132 -2.12132 
C -2.683901 -1.55874 -3 -0.795609 -3 0 
C -3 0.795609 -2.683901 1.55874 -2.12132 2.12132 
C -1.55874 2.683901 -0.795609 3 0 3 
z
" style="stroke: #ffffff; stroke-width: 0.75"/>
    </defs>
    <g clip-path="url(#p2736bc342f)">
     <use xlink:href="#mf65821c29b" x="59.898995" y="149.400565" style="fill: #de5d5c; stroke: #ffffff; stroke-width: 0.75"/>
     <use xlink:href="#mf65821c29b" x="63.262872" y="136.77288" style="fill: #de5d5c; stroke: #ffffff; stroke-width: 0.75"/>
     <use xlink:href="#mf65821c29b" x="66.62675" y="123.993457" style="fill: #de5d5c; stroke: #ffffff; stroke-width: 0.75"/>
     <use xlink:href="#mf65821c29b" x="69.990627" y="121.977433" style="fill: #de5d5c; stroke: #ffffff; stroke-width: 0.75"/>
     <use xlink:href="#mf65821c29b" x="73.354505" y="116.566458" style="fill: #de5d5c; stroke: #ffffff; stroke-width: 0.75"/>
     <use xlink:href="#mf65821c29b" x="76.718382" y="112.522142" style="fill: #de5d5c; stroke: #ffffff; stroke-width: 0.75"/>
     <use xlink:href="#mf65821c29b" x="80.08226" y="119.663125" style="fill: #de5d5c; stroke: #ffffff; stroke-width: 0.75"/>
     <use xlink:href="#mf65821c29b" x="83.446137" y="116.652965" style="fill: #de5d5c; stroke: #ffffff; stroke-width: 0.75"/>
     <use xlink:href="#mf65821c29b" x="86.810015" y="116.923866" style="fill: #de5d5c; stroke: #ffffff; stroke-width: 0.75"/>
     <use xlink:href="#mf65821c29b" x="90.173892" y="130.595446" style="fill: #de5d5c; stroke: #ffffff; stroke-width: 0.75"/>
     <use xlink:href="#mf65821c29b" x="93.53777" y="69.889976" style="fill: #de5d5c; stroke: #ffffff; stroke-width: 0.75"/>
     <use xlink:href="#mf65821c29b" x="96.901647" y="139.92304" style="fill: #de5d5c; stroke: #ffffff; stroke-width: 0.75"/>
     <use xlink:href="#mf65821c29b" x="100.265525" y="146.926397" style="fill: #de5d5c; stroke: #ffffff; stroke-width: 0.75"/>
     <use xlink:href="#mf65821c29b" x="106.99328" y="166.407413" style="fill: #de5d5c; stroke: #ffffff; stroke-width: 0.75"/>
     <use xlink:href="#mf65821c29b" x="113.721035" y="117.016141" style="fill: #de5d5c; stroke: #ffffff; stroke-width: 0.75"/>
    </g>
   </g>
   <g id="line2d_12">
    <path d="M 75.372831 115.09188 
L 86.810015 76.941512 
L 98.247198 113.581278 
L 109.011606 96.766568 
L 120.44879 81.070578 
L 131.885973 73.689111 
L 142.650381 116.98174 
L 154.087565 162.129233 
L 165.524748 176.82525 
L 176.289156 190.074827 
L 187.72634 200.549916 
L 199.163523 220.639871 
L 209.927931 224.723548 
L 232.802298 198.344617 
L 255.00389 120.483999 
" clip-path="url(#p2736bc342f)" style="fill: none; stroke: #9a3670; stroke-width: 1.5; stroke-linecap: square"/>
    <defs>
     <path id="m0cf5545a6d" d="M 0 3 
C 0.795609 3 1.55874 2.683901 2.12132 2.12132 
C 2.683901 1.55874 3 0.795609 3 0 
C 3 -0.795609 2.683901 -1.55874 2.12132 -2.12132 
C 1.55874 -2.683901 0.795609 -3 0 -3 
C -0.795609 -3 -1.55874 -2.683901 -2.12132 -2.12132 
C -2.683901 -1.55874 -3 -0.795609 -3 0 
C -3 0.795609 -2.683901 1.55874 -2.12132 2.12132 
C -1.55874 2.683901 -0.795609 3 0 3 
z
" style="stroke: #ffffff; stroke-width: 0.75"/>
    </defs>
    <g clip-path="url(#p2736bc342f)">
     <use xlink:href="#m0cf5545a6d" x="75.372831" y="115.09188" style="fill: #9a3670; stroke: #ffffff; stroke-width: 0.75"/>
     <use xlink:href="#m0cf5545a6d" x="86.810015" y="76.941512" style="fill: #9a3670; stroke: #ffffff; stroke-width: 0.75"/>
     <use xlink:href="#m0cf5545a6d" x="98.247198" y="113.581278" style="fill: #9a3670; stroke: #ffffff; stroke-width: 0.75"/>
     <use xlink:href="#m0cf5545a6d" x="109.011606" y="96.766568" style="fill: #9a3670; stroke: #ffffff; stroke-width: 0.75"/>
     <use xlink:href="#m0cf5545a6d" x="120.44879" y="81.070578" style="fill: #9a3670; stroke: #ffffff; stroke-width: 0.75"/>
     <use xlink:href="#m0cf5545a6d" x="131.885973" y="73.689111" style="fill: #9a3670; stroke: #ffffff; stroke-width: 0.75"/>
     <use xlink:href="#m0cf5545a6d" x="142.650381" y="116.98174" style="fill: #9a3670; stroke: #ffffff; stroke-width: 0.75"/>
     <use xlink:href="#m0cf5545a6d" x="154.087565" y="162.129233" style="fill: #9a3670; stroke: #ffffff; stroke-width: 0.75"/>
     <use xlink:href="#m0cf5545a6d" x="165.524748" y="176.82525" style="fill: #9a3670; stroke: #ffffff; stroke-width: 0.75"/>
     <use xlink:href="#m0cf5545a6d" x="176.289156" y="190.074827" style="fill: #9a3670; stroke: #ffffff; stroke-width: 0.75"/>
     <use xlink:href="#m0cf5545a6d" x="187.72634" y="200.549916" style="fill: #9a3670; stroke: #ffffff; stroke-width: 0.75"/>
     <use xlink:href="#m0cf5545a6d" x="199.163523" y="220.639871" style="fill: #9a3670; stroke: #ffffff; stroke-width: 0.75"/>
     <use xlink:href="#m0cf5545a6d" x="209.927931" y="224.723548" style="fill: #9a3670; stroke: #ffffff; stroke-width: 0.75"/>
     <use xlink:href="#m0cf5545a6d" x="232.802298" y="198.344617" style="fill: #9a3670; stroke: #ffffff; stroke-width: 0.75"/>
     <use xlink:href="#m0cf5545a6d" x="255.00389" y="120.483999" style="fill: #9a3670; stroke: #ffffff; stroke-width: 0.75"/>
    </g>
   </g>
   <g id="line2d_13"/>
   <g id="line2d_14"/>
   <g id="line2d_15">
    <path d="M 88.173477 244.078125 
L 88.173477 22.318125 
" clip-path="url(#p2736bc342f)" style="fill: none; stroke-dasharray: 5.55,2.4; stroke-dashoffset: 0; stroke: #de5d5c; stroke-width: 1.5"/>
   </g>
   <g id="line2d_16">
    <path d="M 123.386477 244.078125 
L 123.386477 22.318125 
" clip-path="url(#p2736bc342f)" style="fill: none; stroke-dasharray: 5.55,2.4; stroke-dashoffset: 0; stroke: #9a3670; stroke-width: 1.5"/>
   </g>
   <g id="patch_3">
    <path d="M 50.14375 244.078125 
L 50.14375 22.318125 
" style="fill: none; stroke: #000000; stroke-width: 0.8; stroke-linejoin: miter; stroke-linecap: square"/>
   </g>
   <g id="patch_4">
    <path d="M 264.759135 244.078125 
L 264.759135 22.318125 
" style="fill: none; stroke: #000000; stroke-width: 0.8; stroke-linejoin: miter; stroke-linecap: square"/>
   </g>
   <g id="patch_5">
    <path d="M 50.14375 244.078125 
L 264.759135 244.078125 
" style="fill: none; stroke: #000000; stroke-width: 0.8; stroke-linejoin: miter; stroke-linecap: square"/>
   </g>
   <g id="patch_6">
    <path d="M 50.14375 22.318125 
L 264.759135 22.318125 
" style="fill: none; stroke: #000000; stroke-width: 0.8; stroke-linejoin: miter; stroke-linecap: square"/>
   </g>
   <g id="text_13">
    <!-- K₀ -->
    <g style="fill: #de5d5c" transform="translate(91.537354 51.836467) scale(0.15 -0.15)">
     <defs>
      <path id="DejaVuSans-4b" d="M 628 4666 
L 1259 4666 
L 1259 2694 
L 3353 4666 
L 4166 4666 
L 1850 2491 
L 4331 0 
L 3500 0 
L 1259 2247 
L 1259 0 
L 628 0 
L 628 4666 
z
" transform="scale(0.015625)"/>
      <path id="DejaVuSans-2080" d="M 1781 2091 
Q 1625 2360 1309 2360 
Q 994 2360 838 2091 
Q 678 1822 678 1285 
Q 678 744 838 476 
Q 994 207 1309 207 
Q 1625 207 1781 476 
Q 1941 744 1941 1285 
Q 1941 1822 1781 2091 
z
M 1309 2638 
Q 1813 2638 2078 2291 
Q 2344 1944 2344 1285 
Q 2344 622 2078 275 
Q 1813 -71 1309 -71 
Q 803 -71 537 275 
Q 272 622 272 1285 
Q 272 1944 537 2291 
Q 803 2638 1309 2638 
z
" transform="scale(0.015625)"/>
     </defs>
     <use xlink:href="#DejaVuSans-4b"/>
     <use xlink:href="#DejaVuSans-2080" transform="translate(65.576172 0)"/>
    </g>
   </g>
   <g id="text_14">
    <!-- K₀ -->
    <g style="fill: #9a3670" transform="translate(126.750355 51.836467) scale(0.15 -0.15)">
     <use xlink:href="#DejaVuSans-4b"/>
     <use xlink:href="#DejaVuSans-2080" transform="translate(65.576172 0)"/>
    </g>
   </g>
   <g id="text_15">
    <!-- Response time as a function of K -->
    <g transform="translate(58.931442 16.318125) scale(0.12 -0.12)">
     <defs>
      <path id="DejaVuSans-66" d="M 2375 4863 
L 2375 4384 
L 1825 4384 
Q 1516 4384 1395 4259 
Q 1275 4134 1275 3809 
L 1275 3500 
L 2222 3500 
L 2222 3053 
L 1275 3053 
L 1275 0 
L 697 0 
L 697 3053 
L 147 3053 
L 147 3500 
L 697 3500 
L 697 3744 
Q 697 4328 969 4595 
Q 1241 4863 1831 4863 
L 2375 4863 
z
" transform="scale(0.015625)"/>
     </defs>
     <use xlink:href="#DejaVuSans-52"/>
     <use xlink:href="#DejaVuSans-65" transform="translate(64.982422 0)"/>
     <use xlink:href="#DejaVuSans-73" transform="translate(126.505859 0)"/>
     <use xlink:href="#DejaVuSans-70" transform="translate(178.605469 0)"/>
     <use xlink:href="#DejaVuSans-6f" transform="translate(242.082031 0)"/>
     <use xlink:href="#DejaVuSans-6e" transform="translate(303.263672 0)"/>
     <use xlink:href="#DejaVuSans-73" transform="translate(366.642578 0)"/>
     <use xlink:href="#DejaVuSans-65" transform="translate(418.742188 0)"/>
     <use xlink:href="#DejaVuSans-20" transform="translate(480.265625 0)"/>
     <use xlink:href="#DejaVuSans-74" transform="translate(512.052734 0)"/>
     <use xlink:href="#DejaVuSans-69" transform="translate(551.261719 0)"/>
     <use xlink:href="#DejaVuSans-6d" transform="translate(579.044922 0)"/>
     <use xlink:href="#DejaVuSans-65" transform="translate(676.457031 0)"/>
     <use xlink:href="#DejaVuSans-20" transform="translate(737.980469 0)"/>
     <use xlink:href="#DejaVuSans-61" transform="translate(769.767578 0)"/>
     <use xlink:href="#DejaVuSans-73" transform="translate(831.046875 0)"/>
     <use xlink:href="#DejaVuSans-20" transform="translate(883.146484 0)"/>
     <use xlink:href="#DejaVuSans-61" transform="translate(914.933594 0)"/>
     <use xlink:href="#DejaVuSans-20" transform="translate(976.212891 0)"/>
     <use xlink:href="#DejaVuSans-66" transform="translate(1008 0)"/>
     <use xlink:href="#DejaVuSans-75" transform="translate(1043.205078 0)"/>
     <use xlink:href="#DejaVuSans-6e" transform="translate(1106.583984 0)"/>
     <use xlink:href="#DejaVuSans-63" transform="translate(1169.962891 0)"/>
     <use xlink:href="#DejaVuSans-74" transform="translate(1224.943359 0)"/>
     <use xlink:href="#DejaVuSans-69" transform="translate(1264.152344 0)"/>
     <use xlink:href="#DejaVuSans-6f" transform="translate(1291.935547 0)"/>
     <use xlink:href="#DejaVuSans-6e" transform="translate(1353.117188 0)"/>
     <use xlink:href="#DejaVuSans-20" transform="translate(1416.496094 0)"/>
     <use xlink:href="#DejaVuSans-6f" transform="translate(1448.283203 0)"/>
     <use xlink:href="#DejaVuSans-66" transform="translate(1509.464844 0)"/>
     <use xlink:href="#DejaVuSans-20" transform="translate(1544.669922 0)"/>
     <use xlink:href="#DejaVuSans-4b" transform="translate(1576.457031 0)"/>
    </g>
   </g>
   <g id="legend_1">
    <g id="patch_7">
     <path d="M 200.309135 74.3525 
L 257.759135 74.3525 
Q 259.759135 74.3525 259.759135 72.3525 
L 259.759135 29.318125 
Q 259.759135 27.318125 257.759135 27.318125 
L 200.309135 27.318125 
Q 198.309135 27.318125 198.309135 29.318125 
L 198.309135 72.3525 
Q 198.309135 74.3525 200.309135 74.3525 
z
" style="fill: #ffffff; opacity: 0.8; stroke: #cccccc; stroke-linejoin: miter"/>
    </g>
    <g id="text_16">
     <!-- N -->
     <g transform="translate(225.29351 38.916562) scale(0.1 -0.1)">
      <defs>
       <path id="DejaVuSans-4e" d="M 628 4666 
L 1478 4666 
L 3547 763 
L 3547 4666 
L 4159 4666 
L 4159 0 
L 3309 0 
L 1241 3903 
L 1241 0 
L 628 0 
L 628 4666 
z
" transform="scale(0.015625)"/>
      </defs>
      <use xlink:href="#DejaVuSans-4e"/>
     </g>
    </g>
    <g id="line2d_17">
     <path d="M 202.309135 50.094687 
L 212.309135 50.094687 
L 222.309135 50.094687 
" style="fill: none; stroke: #de5d5c; stroke-width: 1.5; stroke-linecap: square"/>
     <g>
      <use xlink:href="#mf65821c29b" x="212.309135" y="50.094687" style="fill: #de5d5c; stroke: #ffffff; stroke-width: 0.75"/>
     </g>
    </g>
    <g id="text_17">
     <!-- 300 -->
     <g transform="translate(230.309135 53.594687) scale(0.1 -0.1)">
      <use xlink:href="#DejaVuSans-33"/>
      <use xlink:href="#DejaVuSans-30" transform="translate(63.623047 0)"/>
      <use xlink:href="#DejaVuSans-30" transform="translate(127.246094 0)"/>
     </g>
    </g>
    <g id="line2d_18">
     <path d="M 202.309135 64.772812 
L 212.309135 64.772812 
L 222.309135 64.772812 
" style="fill: none; stroke: #9a3670; stroke-width: 1.5; stroke-linecap: square"/>
     <g>
      <use xlink:href="#m0cf5545a6d" x="212.309135" y="64.772812" style="fill: #9a3670; stroke: #ffffff; stroke-width: 0.75"/>
     </g>
    </g>
    <g id="text_18">
     <!-- 1000 -->
     <g transform="translate(230.309135 68.272812) scale(0.1 -0.1)">
      <use xlink:href="#DejaVuSans-31"/>
      <use xlink:href="#DejaVuSans-30" transform="translate(63.623047 0)"/>
      <use xlink:href="#DejaVuSans-30" transform="translate(127.246094 0)"/>
      <use xlink:href="#DejaVuSans-30" transform="translate(190.869141 0)"/>
     </g>
    </g>
   </g>
  </g>
  <g id="axes_2">
   <g id="patch_8">
    <path d="M 393.528365 244.078125 
L 608.14375 244.078125 
L 608.14375 22.318125 
L 393.528365 22.318125 
z
" style="fill: #ffffff"/>
   </g>
   <g id="FillBetweenPolyCollection_3">
    <defs>
     <path id="m11923e4c2e" d="M 403.527187 -149.231266 
L 403.527187 -112.464054 
L 415.706019 -126.71048 
L 427.884852 -136.057172 
L 440.063684 -138.115911 
L 452.242516 -144.575125 
L 464.421349 -145.656957 
L 476.600181 -141.087279 
L 488.779014 -141.158791 
L 500.957846 -142.793317 
L 513.136678 -133.076163 
L 525.315511 -157.226437 
L 537.494343 -120.625999 
L 549.673176 -118.613698 
L 574.03084 -101.389208 
L 598.388505 -148.61318 
L 598.388505 -178.757472 
L 598.388505 -178.757472 
L 574.03084 -127.648021 
L 549.673176 -148.916783 
L 537.494343 -159.671642 
L 525.315511 -249.23625 
L 513.136678 -166.683933 
L 500.957846 -183.270409 
L 488.779014 -184.888495 
L 476.600181 -179.785349 
L 464.421349 -188.762394 
L 452.242516 -182.596787 
L 440.063684 -177.946585 
L 427.884852 -175.961322 
L 415.706019 -160.649044 
L 403.527187 -149.231266 
z
" style="stroke: #de5d5c; stroke-opacity: 0.2"/>
    </defs>
    <g clip-path="url(#pe41b2b55c5)">
     <use xlink:href="#m11923e4c2e" x="0" y="281.634375" style="fill: #de5d5c; fill-opacity: 0.2; stroke: #de5d5c; stroke-opacity: 0.2"/>
    </g>
   </g>
   <g id="FillBetweenPolyCollection_4">
    <defs>
     <path id="mb00c857c60" d="M 403.28361 -181.619806 
L 403.28361 -149.324378 
L 415.706019 -178.725044 
L 428.128428 -152.701709 
L 439.820107 -168.114971 
L 452.242516 -176.663468 
L 464.664925 -170.823164 
L 476.356605 -148.041697 
L 488.779014 -107.693138 
L 501.201423 -84.461199 
L 512.893102 -78.085125 
L 525.315511 -62.0791 
L 537.73792 -50.886048 
L 549.429599 -47.63625 
L 574.274417 -52.820212 
L 598.388505 -142.683074 
L 598.388505 -177.176552 
L 598.388505 -177.176552 
L 574.274417 -107.627416 
L 549.429599 -65.527082 
L 537.73792 -70.325835 
L 525.315511 -97.514086 
L 512.893102 -103.687132 
L 501.201423 -122.23196 
L 488.779014 -130.269412 
L 476.356605 -179.262487 
L 464.664925 -236.336889 
L 452.242516 -220.525064 
L 439.820107 -199.587276 
L 428.128428 -181.679898 
L 415.706019 -226.074345 
L 403.28361 -181.619806 
z
" style="stroke: #9a3670; stroke-opacity: 0.2"/>
    </defs>
    <g clip-path="url(#pe41b2b55c5)">
     <use xlink:href="#mb00c857c60" x="0" y="281.634375" style="fill: #9a3670; fill-opacity: 0.2; stroke: #9a3670; stroke-opacity: 0.2"/>
    </g>
   </g>
   <g id="matplotlib.axis_3">
    <g id="xtick_8">
     <g id="line2d_19">
      <g>
       <use xlink:href="#mbf40d0d6de" x="415.706019" y="244.078125" style="stroke: #000000; stroke-width: 0.8"/>
      </g>
     </g>
     <g id="text_19">
      <!-- 0.05 -->
      <g transform="translate(404.573207 258.676562) scale(0.1 -0.1)">
       <use xlink:href="#DejaVuSans-30"/>
       <use xlink:href="#DejaVuSans-2e" transform="translate(63.623047 0)"/>
       <use xlink:href="#DejaVuSans-30" transform="translate(95.410156 0)"/>
       <use xlink:href="#DejaVuSans-35" transform="translate(159.033203 0)"/>
      </g>
     </g>
    </g>
    <g id="xtick_9">
     <g id="line2d_20">
      <g>
       <use xlink:href="#mbf40d0d6de" x="452.242516" y="244.078125" style="stroke: #000000; stroke-width: 0.8"/>
      </g>
     </g>
     <g id="text_20">
      <!-- 0.10 -->
      <g transform="translate(441.109704 258.676562) scale(0.1 -0.1)">
       <use xlink:href="#DejaVuSans-30"/>
       <use xlink:href="#DejaVuSans-2e" transform="translate(63.623047 0)"/>
       <use xlink:href="#DejaVuSans-31" transform="translate(95.410156 0)"/>
       <use xlink:href="#DejaVuSans-30" transform="translate(159.033203 0)"/>
      </g>
     </g>
    </g>
    <g id="xtick_10">
     <g id="line2d_21">
      <g>
       <use xlink:href="#mbf40d0d6de" x="488.779014" y="244.078125" style="stroke: #000000; stroke-width: 0.8"/>
      </g>
     </g>
     <g id="text_21">
      <!-- 0.15 -->
      <g transform="translate(477.646201 258.676562) scale(0.1 -0.1)">
       <use xlink:href="#DejaVuSans-30"/>
       <use xlink:href="#DejaVuSans-2e" transform="translate(63.623047 0)"/>
       <use xlink:href="#DejaVuSans-31" transform="translate(95.410156 0)"/>
       <use xlink:href="#DejaVuSans-35" transform="translate(159.033203 0)"/>
      </g>
     </g>
    </g>
    <g id="xtick_11">
     <g id="line2d_22">
      <g>
       <use xlink:href="#mbf40d0d6de" x="525.315511" y="244.078125" style="stroke: #000000; stroke-width: 0.8"/>
      </g>
     </g>
     <g id="text_22">
      <!-- 0.20 -->
      <g transform="translate(514.182698 258.676562) scale(0.1 -0.1)">
       <use xlink:href="#DejaVuSans-30"/>
       <use xlink:href="#DejaVuSans-2e" transform="translate(63.623047 0)"/>
       <use xlink:href="#DejaVuSans-32" transform="translate(95.410156 0)"/>
       <use xlink:href="#DejaVuSans-30" transform="translate(159.033203 0)"/>
      </g>
     </g>
    </g>
    <g id="xtick_12">
     <g id="line2d_23">
      <g>
       <use xlink:href="#mbf40d0d6de" x="561.852008" y="244.078125" style="stroke: #000000; stroke-width: 0.8"/>
      </g>
     </g>
     <g id="text_23">
      <!-- 0.25 -->
      <g transform="translate(550.719196 258.676562) scale(0.1 -0.1)">
       <use xlink:href="#DejaVuSans-30"/>
       <use xlink:href="#DejaVuSans-2e" transform="translate(63.623047 0)"/>
       <use xlink:href="#DejaVuSans-32" transform="translate(95.410156 0)"/>
       <use xlink:href="#DejaVuSans-35" transform="translate(159.033203 0)"/>
      </g>
     </g>
    </g>
    <g id="xtick_13">
     <g id="line2d_24">
      <g>
       <use xlink:href="#mbf40d0d6de" x="598.388505" y="244.078125" style="stroke: #000000; stroke-width: 0.8"/>
      </g>
     </g>
     <g id="text_24">
      <!-- 0.30 -->
      <g transform="translate(587.255693 258.676562) scale(0.1 -0.1)">
       <use xlink:href="#DejaVuSans-30"/>
       <use xlink:href="#DejaVuSans-2e" transform="translate(63.623047 0)"/>
       <use xlink:href="#DejaVuSans-33" transform="translate(95.410156 0)"/>
       <use xlink:href="#DejaVuSans-30" transform="translate(159.033203 0)"/>
      </g>
     </g>
    </g>
    <g id="text_25">
     <!-- Clique size / N -->
     <g transform="translate(465.260276 272.354687) scale(0.1 -0.1)">
      <defs>
       <path id="DejaVuSans-2f" d="M 1625 4666 
L 2156 4666 
L 531 -594 
L 0 -594 
L 1625 4666 
z
" transform="scale(0.015625)"/>
      </defs>
      <use xlink:href="#DejaVuSans-43"/>
      <use xlink:href="#DejaVuSans-6c" transform="translate(69.824219 0)"/>
      <use xlink:href="#DejaVuSans-69" transform="translate(97.607422 0)"/>
      <use xlink:href="#DejaVuSans-71" transform="translate(125.390625 0)"/>
      <use xlink:href="#DejaVuSans-75" transform="translate(188.867188 0)"/>
      <use xlink:href="#DejaVuSans-65" transform="translate(252.246094 0)"/>
      <use xlink:href="#DejaVuSans-20" transform="translate(313.769531 0)"/>
      <use xlink:href="#DejaVuSans-73" transform="translate(345.556641 0)"/>
      <use xlink:href="#DejaVuSans-69" transform="translate(397.65625 0)"/>
      <use xlink:href="#DejaVuSans-7a" transform="translate(425.439453 0)"/>
      <use xlink:href="#DejaVuSans-65" transform="translate(477.929688 0)"/>
      <use xlink:href="#DejaVuSans-20" transform="translate(539.453125 0)"/>
      <use xlink:href="#DejaVuSans-2f" transform="translate(571.240234 0)"/>
      <use xlink:href="#DejaVuSans-20" transform="translate(604.931641 0)"/>
      <use xlink:href="#DejaVuSans-4e" transform="translate(636.71875 0)"/>
     </g>
    </g>
   </g>
   <g id="matplotlib.axis_4">
    <g id="ytick_4">
     <g id="line2d_25">
      <g>
       <use xlink:href="#mbe1e72653f" x="393.528365" y="202.564213" style="stroke: #000000; stroke-width: 0.8"/>
      </g>
     </g>
     <g id="text_26">
      <!-- 1.00 -->
      <g transform="translate(364.26274 206.363431) scale(0.1 -0.1)">
       <use xlink:href="#DejaVuSans-31"/>
       <use xlink:href="#DejaVuSans-2e" transform="translate(63.623047 0)"/>
       <use xlink:href="#DejaVuSans-30" transform="translate(95.410156 0)"/>
       <use xlink:href="#DejaVuSans-30" transform="translate(159.033203 0)"/>
      </g>
     </g>
    </g>
    <g id="ytick_5">
     <g id="line2d_26">
      <g>
       <use xlink:href="#mbe1e72653f" x="393.528365" y="118.386928" style="stroke: #000000; stroke-width: 0.8"/>
      </g>
     </g>
     <g id="text_27">
      <!-- 2.00 -->
      <g transform="translate(364.26274 122.186146) scale(0.1 -0.1)">
       <use xlink:href="#DejaVuSans-32"/>
       <use xlink:href="#DejaVuSans-2e" transform="translate(63.623047 0)"/>
       <use xlink:href="#DejaVuSans-30" transform="translate(95.410156 0)"/>
       <use xlink:href="#DejaVuSans-30" transform="translate(159.033203 0)"/>
      </g>
     </g>
    </g>
    <g id="ytick_6">
     <g id="line2d_27">
      <g>
       <use xlink:href="#mbe1e72653f" x="393.528365" y="34.209643" style="stroke: #000000; stroke-width: 0.8"/>
      </g>
     </g>
     <g id="text_28">
      <!-- 4.00 -->
      <g transform="translate(364.26274 38.008861) scale(0.1 -0.1)">
       <use xlink:href="#DejaVuSans-34"/>
       <use xlink:href="#DejaVuSans-2e" transform="translate(63.623047 0)"/>
       <use xlink:href="#DejaVuSans-30" transform="translate(95.410156 0)"/>
       <use xlink:href="#DejaVuSans-30" transform="translate(159.033203 0)"/>
      </g>
     </g>
    </g>
    <g id="text_29">
     <!-- Response time (s, log-scaled) -->
     <g transform="translate(358.183053 206.855156) rotate(-90) scale(0.1 -0.1)">
      <use xlink:href="#DejaVuSans-52"/>
      <use xlink:href="#DejaVuSans-65" transform="translate(64.982422 0)"/>
      <use xlink:href="#DejaVuSans-73" transform="translate(126.505859 0)"/>
      <use xlink:href="#DejaVuSans-70" transform="translate(178.605469 0)"/>
      <use xlink:href="#DejaVuSans-6f" transform="translate(242.082031 0)"/>
      <use xlink:href="#DejaVuSans-6e" transform="translate(303.263672 0)"/>
      <use xlink:href="#DejaVuSans-73" transform="translate(366.642578 0)"/>
      <use xlink:href="#DejaVuSans-65" transform="translate(418.742188 0)"/>
      <use xlink:href="#DejaVuSans-20" transform="translate(480.265625 0)"/>
      <use xlink:href="#DejaVuSans-74" transform="translate(512.052734 0)"/>
      <use xlink:href="#DejaVuSans-69" transform="translate(551.261719 0)"/>
      <use xlink:href="#DejaVuSans-6d" transform="translate(579.044922 0)"/>
      <use xlink:href="#DejaVuSans-65" transform="translate(676.457031 0)"/>
      <use xlink:href="#DejaVuSans-20" transform="translate(737.980469 0)"/>
      <use xlink:href="#DejaVuSans-28" transform="translate(769.767578 0)"/>
      <use xlink:href="#DejaVuSans-73" transform="translate(808.78125 0)"/>
      <use xlink:href="#DejaVuSans-2c" transform="translate(860.880859 0)"/>
      <use xlink:href="#DejaVuSans-20" transform="translate(892.667969 0)"/>
      <use xlink:href="#DejaVuSans-6c" transform="translate(924.455078 0)"/>
      <use xlink:href="#DejaVuSans-6f" transform="translate(952.238281 0)"/>
      <use xlink:href="#DejaVuSans-67" transform="translate(1013.419922 0)"/>
      <use xlink:href="#DejaVuSans-2d" transform="translate(1076.896484 0)"/>
      <use xlink:href="#DejaVuSans-73" transform="translate(1112.980469 0)"/>
      <use xlink:href="#DejaVuSans-63" transform="translate(1165.080078 0)"/>
      <use xlink:href="#DejaVuSans-61" transform="translate(1220.060547 0)"/>
      <use xlink:href="#DejaVuSans-6c" transform="translate(1281.339844 0)"/>
      <use xlink:href="#DejaVuSans-65" transform="translate(1309.123047 0)"/>
      <use xlink:href="#DejaVuSans-64" transform="translate(1370.646484 0)"/>
      <use xlink:href="#DejaVuSans-29" transform="translate(1434.123047 0)"/>
     </g>
    </g>
   </g>
   <g id="line2d_28">
    <path d="M 403.527187 149.400565 
L 415.706019 136.77288 
L 427.884852 123.993457 
L 440.063684 121.977433 
L 452.242516 116.566458 
L 464.421349 112.522142 
L 476.600181 119.663125 
L 488.779014 116.652965 
L 500.957846 116.923866 
L 513.136678 130.595446 
L 525.315511 69.889976 
L 537.494343 139.92304 
L 549.673176 146.926397 
L 574.03084 166.407413 
L 598.388505 117.016141 
" clip-path="url(#pe41b2b55c5)" style="fill: none; stroke: #de5d5c; stroke-width: 1.5; stroke-linecap: square"/>
    <g clip-path="url(#pe41b2b55c5)">
     <use xlink:href="#mf65821c29b" x="403.527187" y="149.400565" style="fill: #de5d5c; stroke: #ffffff; stroke-width: 0.75"/>
     <use xlink:href="#mf65821c29b" x="415.706019" y="136.77288" style="fill: #de5d5c; stroke: #ffffff; stroke-width: 0.75"/>
     <use xlink:href="#mf65821c29b" x="427.884852" y="123.993457" style="fill: #de5d5c; stroke: #ffffff; stroke-width: 0.75"/>
     <use xlink:href="#mf65821c29b" x="440.063684" y="121.977433" style="fill: #de5d5c; stroke: #ffffff; stroke-width: 0.75"/>
     <use xlink:href="#mf65821c29b" x="452.242516" y="116.566458" style="fill: #de5d5c; stroke: #ffffff; stroke-width: 0.75"/>
     <use xlink:href="#mf65821c29b" x="464.421349" y="112.522142" style="fill: #de5d5c; stroke: #ffffff; stroke-width: 0.75"/>
     <use xlink:href="#mf65821c29b" x="476.600181" y="119.663125" style="fill: #de5d5c; stroke: #ffffff; stroke-width: 0.75"/>
     <use xlink:href="#mf65821c29b" x="488.779014" y="116.652965" style="fill: #de5d5c; stroke: #ffffff; stroke-width: 0.75"/>
     <use xlink:href="#mf65821c29b" x="500.957846" y="116.923866" style="fill: #de5d5c; stroke: #ffffff; stroke-width: 0.75"/>
     <use xlink:href="#mf65821c29b" x="513.136678" y="130.595446" style="fill: #de5d5c; stroke: #ffffff; stroke-width: 0.75"/>
     <use xlink:href="#mf65821c29b" x="525.315511" y="69.889976" style="fill: #de5d5c; stroke: #ffffff; stroke-width: 0.75"/>
     <use xlink:href="#mf65821c29b" x="537.494343" y="139.92304" style="fill: #de5d5c; stroke: #ffffff; stroke-width: 0.75"/>
     <use xlink:href="#mf65821c29b" x="549.673176" y="146.926397" style="fill: #de5d5c; stroke: #ffffff; stroke-width: 0.75"/>
     <use xlink:href="#mf65821c29b" x="574.03084" y="166.407413" style="fill: #de5d5c; stroke: #ffffff; stroke-width: 0.75"/>
     <use xlink:href="#mf65821c29b" x="598.388505" y="117.016141" style="fill: #de5d5c; stroke: #ffffff; stroke-width: 0.75"/>
    </g>
   </g>
   <g id="line2d_29">
    <path d="M 403.28361 115.09188 
L 415.706019 76.941512 
L 428.128428 113.581278 
L 439.820107 96.766568 
L 452.242516 81.070578 
L 464.664925 73.689111 
L 476.356605 116.98174 
L 488.779014 162.129233 
L 501.201423 176.82525 
L 512.893102 190.074827 
L 525.315511 200.549916 
L 537.73792 220.639871 
L 549.429599 224.723548 
L 574.274417 198.344617 
L 598.388505 120.483999 
" clip-path="url(#pe41b2b55c5)" style="fill: none; stroke: #9a3670; stroke-width: 1.5; stroke-linecap: square"/>
    <g clip-path="url(#pe41b2b55c5)">
     <use xlink:href="#m0cf5545a6d" x="403.28361" y="115.09188" style="fill: #9a3670; stroke: #ffffff; stroke-width: 0.75"/>
     <use xlink:href="#m0cf5545a6d" x="415.706019" y="76.941512" style="fill: #9a3670; stroke: #ffffff; stroke-width: 0.75"/>
     <use xlink:href="#m0cf5545a6d" x="428.128428" y="113.581278" style="fill: #9a3670; stroke: #ffffff; stroke-width: 0.75"/>
     <use xlink:href="#m0cf5545a6d" x="439.820107" y="96.766568" style="fill: #9a3670; stroke: #ffffff; stroke-width: 0.75"/>
     <use xlink:href="#m0cf5545a6d" x="452.242516" y="81.070578" style="fill: #9a3670; stroke: #ffffff; stroke-width: 0.75"/>
     <use xlink:href="#m0cf5545a6d" x="464.664925" y="73.689111" style="fill: #9a3670; stroke: #ffffff; stroke-width: 0.75"/>
     <use xlink:href="#m0cf5545a6d" x="476.356605" y="116.98174" style="fill: #9a3670; stroke: #ffffff; stroke-width: 0.75"/>
     <use xlink:href="#m0cf5545a6d" x="488.779014" y="162.129233" style="fill: #9a3670; stroke: #ffffff; stroke-width: 0.75"/>
     <use xlink:href="#m0cf5545a6d" x="501.201423" y="176.82525" style="fill: #9a3670; stroke: #ffffff; stroke-width: 0.75"/>
     <use xlink:href="#m0cf5545a6d" x="512.893102" y="190.074827" style="fill: #9a3670; stroke: #ffffff; stroke-width: 0.75"/>
     <use xlink:href="#m0cf5545a6d" x="525.315511" y="200.549916" style="fill: #9a3670; stroke: #ffffff; stroke-width: 0.75"/>
     <use xlink:href="#m0cf5545a6d" x="537.73792" y="220.639871" style="fill: #9a3670; stroke: #ffffff; stroke-width: 0.75"/>
     <use xlink:href="#m0cf5545a6d" x="549.429599" y="224.723548" style="fill: #9a3670; stroke: #ffffff; stroke-width: 0.75"/>
     <use xlink:href="#m0cf5545a6d" x="574.274417" y="198.344617" style="fill: #9a3670; stroke: #ffffff; stroke-width: 0.75"/>
     <use xlink:href="#m0cf5545a6d" x="598.388505" y="120.483999" style="fill: #9a3670; stroke: #ffffff; stroke-width: 0.75"/>
    </g>
   </g>
   <g id="line2d_30"/>
   <g id="line2d_31"/>
   <g id="line2d_32">
    <path d="M 505.894225 244.078125 
L 505.894225 22.318125 
" clip-path="url(#pe41b2b55c5)" style="fill: none; stroke-dasharray: 5.55,2.4; stroke-dashoffset: 0; stroke: #de5d5c; stroke-width: 1.5"/>
   </g>
   <g id="line2d_33">
    <path d="M 455.433263 244.078125 
L 455.433263 22.318125 
" clip-path="url(#pe41b2b55c5)" style="fill: none; stroke-dasharray: 5.55,2.4; stroke-dashoffset: 0; stroke: #9a3670; stroke-width: 1.5"/>
   </g>
   <g id="patch_9">
    <path d="M 393.528365 244.078125 
L 393.528365 22.318125 
" style="fill: none; stroke: #000000; stroke-width: 0.8; stroke-linejoin: miter; stroke-linecap: square"/>
   </g>
   <g id="patch_10">
    <path d="M 608.14375 244.078125 
L 608.14375 22.318125 
" style="fill: none; stroke: #000000; stroke-width: 0.8; stroke-linejoin: miter; stroke-linecap: square"/>
   </g>
   <g id="patch_11">
    <path d="M 393.528365 244.078125 
L 608.14375 244.078125 
" style="fill: none; stroke: #000000; stroke-width: 0.8; stroke-linejoin: miter; stroke-linecap: square"/>
   </g>
   <g id="patch_12">
    <path d="M 393.528365 22.318125 
L 608.14375 22.318125 
" style="fill: none; stroke: #000000; stroke-width: 0.8; stroke-linejoin: miter; stroke-linecap: square"/>
   </g>
   <g id="text_30">
    <!-- K₀ -->
    <g style="fill: #de5d5c" transform="translate(509.547875 51.836467) scale(0.15 -0.15)">
     <use xlink:href="#DejaVuSans-4b"/>
     <use xlink:href="#DejaVuSans-2080" transform="translate(65.576172 0)"/>
    </g>
   </g>
   <g id="text_31">
    <!-- K₀ -->
    <g style="fill: #9a3670" transform="translate(459.086913 51.836467) scale(0.15 -0.15)">
     <use xlink:href="#DejaVuSans-4b"/>
     <use xlink:href="#DejaVuSans-2080" transform="translate(65.576172 0)"/>
    </g>
   </g>
   <g id="text_32">
    <!-- Response time as a function of K / N -->
    <g transform="translate(391.992308 16.318125) scale(0.12 -0.12)">
     <use xlink:href="#DejaVuSans-52"/>
     <use xlink:href="#DejaVuSans-65" transform="translate(64.982422 0)"/>
     <use xlink:href="#DejaVuSans-73" transform="translate(126.505859 0)"/>
     <use xlink:href="#DejaVuSans-70" transform="translate(178.605469 0)"/>
     <use xlink:href="#DejaVuSans-6f" transform="translate(242.082031 0)"/>
     <use xlink:href="#DejaVuSans-6e" transform="translate(303.263672 0)"/>
     <use xlink:href="#DejaVuSans-73" transform="translate(366.642578 0)"/>
     <use xlink:href="#DejaVuSans-65" transform="translate(418.742188 0)"/>
     <use xlink:href="#DejaVuSans-20" transform="translate(480.265625 0)"/>
     <use xlink:href="#DejaVuSans-74" transform="translate(512.052734 0)"/>
     <use xlink:href="#DejaVuSans-69" transform="translate(551.261719 0)"/>
     <use xlink:href="#DejaVuSans-6d" transform="translate(579.044922 0)"/>
     <use xlink:href="#DejaVuSans-65" transform="translate(676.457031 0)"/>
     <use xlink:href="#DejaVuSans-20" transform="translate(737.980469 0)"/>
     <use xlink:href="#DejaVuSans-61" transform="translate(769.767578 0)"/>
     <use xlink:href="#DejaVuSans-73" transform="translate(831.046875 0)"/>
     <use xlink:href="#DejaVuSans-20" transform="translate(883.146484 0)"/>
     <use xlink:href="#DejaVuSans-61" transform="translate(914.933594 0)"/>
     <use xlink:href="#DejaVuSans-20" transform="translate(976.212891 0)"/>
     <use xlink:href="#DejaVuSans-66" transform="translate(1008 0)"/>
     <use xlink:href="#DejaVuSans-75" transform="translate(1043.205078 0)"/>
     <use xlink:href="#DejaVuSans-6e" transform="translate(1106.583984 0)"/>
     <use xlink:href="#DejaVuSans-63" transform="translate(1169.962891 0)"/>
     <use xlink:href="#DejaVuSans-74" transform="translate(1224.943359 0)"/>
     <use xlink:href="#DejaVuSans-69" transform="translate(1264.152344 0)"/>
     <use xlink:href="#DejaVuSans-6f" transform="translate(1291.935547 0)"/>
     <use xlink:href="#DejaVuSans-6e" transform="translate(1353.117188 0)"/>
     <use xlink:href="#DejaVuSans-20" transform="translate(1416.496094 0)"/>
     <use xlink:href="#DejaVuSans-6f" transform="translate(1448.283203 0)"/>
     <use xlink:href="#DejaVuSans-66" transform="translate(1509.464844 0)"/>
     <use xlink:href="#DejaVuSans-20" transform="translate(1544.669922 0)"/>
     <use xlink:href="#DejaVuSans-4b" transform="translate(1576.457031 0)"/>
     <use xlink:href="#DejaVuSans-20" transform="translate(1642.033203 0)"/>
     <use xlink:href="#DejaVuSans-2f" transform="translate(1673.820312 0)"/>
     <use xlink:href="#DejaVuSans-20" transform="translate(1707.511719 0)"/>
     <use xlink:href="#DejaVuSans-4e" transform="translate(1739.298828 0)"/>
    </g>
   </g>
   <g id="legend_2">
    <g id="patch_13">
     <path d="M 543.69375 74.3525 
L 601.14375 74.3525 
Q 603.14375 74.3525 603.14375 72.3525 
L 603.14375 29.318125 
Q 603.14375 27.318125 601.14375 27.318125 
L 543.69375 27.318125 
Q 541.69375 27.318125 541.69375 29.318125 
L 541.69375 72.3525 
Q 541.69375 74.3525 543.69375 74.3525 
z
" style="fill: #ffffff; opacity: 0.8; stroke: #cccccc; stroke-linejoin: miter"/>
    </g>
    <g id="text_33">
     <!-- N -->
     <g transform="translate(568.678125 38.916562) scale(0.1 -0.1)">
      <use xlink:href="#DejaVuSans-4e"/>
     </g>
    </g>
    <g id="line2d_34">
     <path d="M 545.69375 50.094687 
L 555.69375 50.094687 
L 565.69375 50.094687 
" style="fill: none; stroke: #de5d5c; stroke-width: 1.5; stroke-linecap: square"/>
     <g>
      <use xlink:href="#mf65821c29b" x="555.69375" y="50.094687" style="fill: #de5d5c; stroke: #ffffff; stroke-width: 0.75"/>
     </g>
    </g>
    <g id="text_34">
     <!-- 300 -->
     <g transform="translate(573.69375 53.594687) scale(0.1 -0.1)">
      <use xlink:href="#DejaVuSans-33"/>
      <use xlink:href="#DejaVuSans-30" transform="translate(63.623047 0)"/>
      <use xlink:href="#DejaVuSans-30" transform="translate(127.246094 0)"/>
     </g>
    </g>
    <g id="line2d_35">
     <path d="M 545.69375 64.772812 
L 555.69375 64.772812 
L 565.69375 64.772812 
" style="fill: none; stroke: #9a3670; stroke-width: 1.5; stroke-linecap: square"/>
     <g>
      <use xlink:href="#m0cf5545a6d" x="555.69375" y="64.772812" style="fill: #9a3670; stroke: #ffffff; stroke-width: 0.75"/>
     </g>
    </g>
    <g id="text_35">
     <!-- 1000 -->
     <g transform="translate(573.69375 68.272812) scale(0.1 -0.1)">
      <use xlink:href="#DejaVuSans-31"/>
      <use xlink:href="#DejaVuSans-30" transform="translate(63.623047 0)"/>
      <use xlink:href="#DejaVuSans-30" transform="translate(127.246094 0)"/>
      <use xlink:href="#DejaVuSans-30" transform="translate(190.869141 0)"/>
     </g>
    </g>
   </g>
  </g>
 </g>
 <defs>
  <clipPath id="p2736bc342f">
   <rect x="50.14375" y="22.318125" width="214.615385" height="221.76"/>
  </clipPath>
  <clipPath id="pe41b2b55c5">
   <rect x="393.528365" y="22.318125" width="214.615385" height="221.76"/>
  </clipPath>
 </defs>
</svg>
