<?xml version="1.0" encoding="utf-8" standalone="no"?>
<!DOCTYPE svg PUBLIC "-//W3C//DTD SVG 1.1//EN"
  "http://www.w3.org/Graphics/SVG/1.1/DTD/svg11.dtd">
<svg xmlns:xlink="http://www.w3.org/1999/xlink" width="640.66875pt" height="279.034375pt" viewBox="0 0 640.66875 279.034375" xmlns="http://www.w3.org/2000/svg" version="1.1">
 <metadata>
  <rdf:RDF xmlns:dc="http://purl.org/dc/elements/1.1/" xmlns:cc="http://creativecommons.org/ns#" xmlns:rdf="http://www.w3.org/1999/02/22-rdf-syntax-ns#">
   <cc:Work>
    <dc:type rdf:resource="http://purl.org/dc/dcmitype/StillImage"/>
    <dc:date>2025-03-19T19:48:46.384804</dc:date>
    <dc:format>image/svg+xml</dc:format>
    <dc:creator>
     <cc:Agent>
      <dc:title>Matplotlib v3.10.1, https://matplotlib.org/</dc:title>
     </cc:Agent>
    </dc:creator>
   </cc:Work>
  </rdf:RDF>
 </metadata>
 <defs>
  <style type="text/css">*{stroke-linejoin: round; stroke-linecap: butt}</style>
 </defs>
 <g id="figure_1">
  <g id="patch_1">
   <path d="M 0 279.034375 
L 640.66875 279.034375 
L 640.66875 0 
L 0 0 
z
" style="fill: #ffffff"/>
  </g>
  <g id="axes_1">
   <g id="patch_2">
    <path d="M 52.160938 241.478125 
L 280.230937 241.478125 
L 280.230937 22.318125 
L 52.160938 22.318125 
z
" style="fill: #ffffff"/>
   </g>
   <g id="FillBetweenPolyCollection_1">
    <defs>
     <path id="m17eec330f4" d="M 62.352047 -215.402313 
L 62.352047 -162.746236 
L 65.866223 -156.993476 
L 69.380398 -157.936598 
L 72.894574 -159.32748 
L 76.40875 -160.225919 
L 79.922925 -163.213524 
L 83.437101 -167.852506 
L 86.951276 -156.41163 
L 90.465452 -136.543623 
L 93.979628 -131.702808 
L 97.493803 -116.959638 
L 101.007979 -105.811987 
L 104.522155 -98.466884 
L 111.550506 -78.022832 
L 118.578857 -75.420313 
L 118.578857 -88.979595 
L 118.578857 -88.979595 
L 111.550506 -96.658656 
L 104.522155 -127.081369 
L 101.007979 -140.299427 
L 97.493803 -155.126294 
L 93.979628 -179.886038 
L 90.465452 -181.538852 
L 86.951276 -210.914203 
L 83.437101 -221.118759 
L 79.922925 -214.393889 
L 76.40875 -212.511272 
L 72.894574 -219.362206 
L 69.380398 -209.389235 
L 65.866223 -211.414629 
L 62.352047 -215.402313 
z
" style="stroke: #de5d5c; stroke-opacity: 0.2"/>
    </defs>
    <g clip-path="url(#pb9ba459efc)">
     <use xlink:href="#m17eec330f4" x="0" y="279.034375" style="fill: #de5d5c; fill-opacity: 0.2; stroke: #de5d5c; stroke-opacity: 0.2"/>
    </g>
   </g>
   <g id="FillBetweenPolyCollection_2">
    <defs>
     <path id="mcc8f6bb5df" d="M 78.517255 -156.801098 
L 78.517255 -117.449377 
L 90.465452 -123.908692 
L 102.413649 -125.361956 
L 113.659011 -118.567645 
L 125.607209 -108.566702 
L 137.555406 -92.011163 
L 148.800768 -77.647985 
L 160.748965 -70.211827 
L 172.697162 -64.738677 
L 183.942525 -62.727366 
L 195.890722 -62.152557 
L 207.838919 -62.152557 
L 219.084281 -61.907361 
L 242.980676 -62.079775 
L 266.174235 -63.034027 
L 266.174235 -65.109781 
L 266.174235 -65.109781 
L 242.980676 -62.817219 
L 219.084281 -61.907361 
L 207.838919 -63.826708 
L 195.890722 -63.826708 
L 183.942525 -66.498715 
L 172.697162 -70.439897 
L 160.748965 -81.741957 
L 148.800768 -90.539873 
L 137.555406 -111.891658 
L 125.607209 -140.25039 
L 113.659011 -156.223966 
L 102.413649 -167.287136 
L 90.465452 -156.294277 
L 78.517255 -156.801098 
z
" style="stroke: #9a3670; stroke-opacity: 0.2"/>
    </defs>
    <g clip-path="url(#pb9ba459efc)">
     <use xlink:href="#mcc8f6bb5df" x="0" y="279.034375" style="fill: #9a3670; fill-opacity: 0.2; stroke: #9a3670; stroke-opacity: 0.2"/>
    </g>
   </g>
   <g id="matplotlib.axis_1">
    <g id="xtick_1">
     <g id="line2d_1">
      <defs>
       <path id="m30f6829737" d="M 0 0 
L 0 3.5 
" style="stroke: #000000; stroke-width: 0.8"/>
      </defs>
      <g>
       <use xlink:href="#m30f6829737" x="55.323696" y="241.478125" style="stroke: #000000; stroke-width: 0.8"/>
      </g>
     </g>
     <g id="text_1">
      <!-- 0 -->
      <g transform="translate(52.142446 256.076563) scale(0.1 -0.1)">
       <defs>
        <path id="DejaVuSans-30" d="M 2034 4250 
Q 1547 4250 1301 3770 
Q 1056 3291 1056 2328 
Q 1056 1369 1301 889 
Q 1547 409 2034 409 
Q 2525 409 2770 889 
Q 3016 1369 3016 2328 
Q 3016 3291 2770 3770 
Q 2525 4250 2034 4250 
z
M 2034 4750 
Q 2819 4750 3233 4129 
Q 3647 3509 3647 2328 
Q 3647 1150 3233 529 
Q 2819 -91 2034 -91 
Q 1250 -91 836 529 
Q 422 1150 422 2328 
Q 422 3509 836 4129 
Q 1250 4750 2034 4750 
z
" transform="scale(0.015625)"/>
       </defs>
       <use xlink:href="#DejaVuSans-30"/>
      </g>
     </g>
    </g>
    <g id="xtick_2">
     <g id="line2d_2">
      <g>
       <use xlink:href="#m30f6829737" x="90.465452" y="241.478125" style="stroke: #000000; stroke-width: 0.8"/>
      </g>
     </g>
     <g id="text_2">
      <!-- 50 -->
      <g transform="translate(84.102952 256.076563) scale(0.1 -0.1)">
       <defs>
        <path id="DejaVuSans-35" d="M 691 4666 
L 3169 4666 
L 3169 4134 
L 1269 4134 
L 1269 2991 
Q 1406 3038 1543 3061 
Q 1681 3084 1819 3084 
Q 2600 3084 3056 2656 
Q 3513 2228 3513 1497 
Q 3513 744 3044 326 
Q 2575 -91 1722 -91 
Q 1428 -91 1123 -41 
Q 819 9 494 109 
L 494 744 
Q 775 591 1075 516 
Q 1375 441 1709 441 
Q 2250 441 2565 725 
Q 2881 1009 2881 1497 
Q 2881 1984 2565 2268 
Q 2250 2553 1709 2553 
Q 1456 2553 1204 2497 
Q 953 2441 691 2322 
L 691 4666 
z
" transform="scale(0.015625)"/>
       </defs>
       <use xlink:href="#DejaVuSans-35"/>
       <use xlink:href="#DejaVuSans-30" transform="translate(63.623047 0)"/>
      </g>
     </g>
    </g>
    <g id="xtick_3">
     <g id="line2d_3">
      <g>
       <use xlink:href="#m30f6829737" x="125.607209" y="241.478125" style="stroke: #000000; stroke-width: 0.8"/>
      </g>
     </g>
     <g id="text_3">
      <!-- 100 -->
      <g transform="translate(116.063459 256.076563) scale(0.1 -0.1)">
       <defs>
        <path id="DejaVuSans-31" d="M 794 531 
L 1825 531 
L 1825 4091 
L 703 3866 
L 703 4441 
L 1819 4666 
L 2450 4666 
L 2450 531 
L 3481 531 
L 3481 0 
L 794 0 
L 794 531 
z
" transform="scale(0.015625)"/>
       </defs>
       <use xlink:href="#DejaVuSans-31"/>
       <use xlink:href="#DejaVuSans-30" transform="translate(63.623047 0)"/>
       <use xlink:href="#DejaVuSans-30" transform="translate(127.246094 0)"/>
      </g>
     </g>
    </g>
    <g id="xtick_4">
     <g id="line2d_4">
      <g>
       <use xlink:href="#m30f6829737" x="160.748965" y="241.478125" style="stroke: #000000; stroke-width: 0.8"/>
      </g>
     </g>
     <g id="text_4">
      <!-- 150 -->
      <g transform="translate(151.205215 256.076563) scale(0.1 -0.1)">
       <use xlink:href="#DejaVuSans-31"/>
       <use xlink:href="#DejaVuSans-35" transform="translate(63.623047 0)"/>
       <use xlink:href="#DejaVuSans-30" transform="translate(127.246094 0)"/>
      </g>
     </g>
    </g>
    <g id="xtick_5">
     <g id="line2d_5">
      <g>
       <use xlink:href="#m30f6829737" x="195.890722" y="241.478125" style="stroke: #000000; stroke-width: 0.8"/>
      </g>
     </g>
     <g id="text_5">
      <!-- 200 -->
      <g transform="translate(186.346972 256.076563) scale(0.1 -0.1)">
       <defs>
        <path id="DejaVuSans-32" d="M 1228 531 
L 3431 531 
L 3431 0 
L 469 0 
L 469 531 
Q 828 903 1448 1529 
Q 2069 2156 2228 2338 
Q 2531 2678 2651 2914 
Q 2772 3150 2772 3378 
Q 2772 3750 2511 3984 
Q 2250 4219 1831 4219 
Q 1534 4219 1204 4116 
Q 875 4013 500 3803 
L 500 4441 
Q 881 4594 1212 4672 
Q 1544 4750 1819 4750 
Q 2544 4750 2975 4387 
Q 3406 4025 3406 3419 
Q 3406 3131 3298 2873 
Q 3191 2616 2906 2266 
Q 2828 2175 2409 1742 
Q 1991 1309 1228 531 
z
" transform="scale(0.015625)"/>
       </defs>
       <use xlink:href="#DejaVuSans-32"/>
       <use xlink:href="#DejaVuSans-30" transform="translate(63.623047 0)"/>
       <use xlink:href="#DejaVuSans-30" transform="translate(127.246094 0)"/>
      </g>
     </g>
    </g>
    <g id="xtick_6">
     <g id="line2d_6">
      <g>
       <use xlink:href="#m30f6829737" x="231.032478" y="241.478125" style="stroke: #000000; stroke-width: 0.8"/>
      </g>
     </g>
     <g id="text_6">
      <!-- 250 -->
      <g transform="translate(221.488728 256.076563) scale(0.1 -0.1)">
       <use xlink:href="#DejaVuSans-32"/>
       <use xlink:href="#DejaVuSans-35" transform="translate(63.623047 0)"/>
       <use xlink:href="#DejaVuSans-30" transform="translate(127.246094 0)"/>
      </g>
     </g>
    </g>
    <g id="xtick_7">
     <g id="line2d_7">
      <g>
       <use xlink:href="#m30f6829737" x="266.174235" y="241.478125" style="stroke: #000000; stroke-width: 0.8"/>
      </g>
     </g>
     <g id="text_7">
      <!-- 300 -->
      <g transform="translate(256.630485 256.076563) scale(0.1 -0.1)">
       <defs>
        <path id="DejaVuSans-33" d="M 2597 2516 
Q 3050 2419 3304 2112 
Q 3559 1806 3559 1356 
Q 3559 666 3084 287 
Q 2609 -91 1734 -91 
Q 1441 -91 1130 -33 
Q 819 25 488 141 
L 488 750 
Q 750 597 1062 519 
Q 1375 441 1716 441 
Q 2309 441 2620 675 
Q 2931 909 2931 1356 
Q 2931 1769 2642 2001 
Q 2353 2234 1838 2234 
L 1294 2234 
L 1294 2753 
L 1863 2753 
Q 2328 2753 2575 2939 
Q 2822 3125 2822 3475 
Q 2822 3834 2567 4026 
Q 2313 4219 1838 4219 
Q 1578 4219 1281 4162 
Q 984 4106 628 3988 
L 628 4550 
Q 988 4650 1302 4700 
Q 1616 4750 1894 4750 
Q 2613 4750 3031 4423 
Q 3450 4097 3450 3541 
Q 3450 3153 3228 2886 
Q 3006 2619 2597 2516 
z
" transform="scale(0.015625)"/>
       </defs>
       <use xlink:href="#DejaVuSans-33"/>
       <use xlink:href="#DejaVuSans-30" transform="translate(63.623047 0)"/>
       <use xlink:href="#DejaVuSans-30" transform="translate(127.246094 0)"/>
      </g>
     </g>
    </g>
    <g id="text_8">
     <!-- Clique size -->
     <g transform="translate(139.223281 269.754687) scale(0.1 -0.1)">
      <defs>
       <path id="DejaVuSans-43" d="M 4122 4306 
L 4122 3641 
Q 3803 3938 3442 4084 
Q 3081 4231 2675 4231 
Q 1875 4231 1450 3742 
Q 1025 3253 1025 2328 
Q 1025 1406 1450 917 
Q 1875 428 2675 428 
Q 3081 428 3442 575 
Q 3803 722 4122 1019 
L 4122 359 
Q 3791 134 3420 21 
Q 3050 -91 2638 -91 
Q 1578 -91 968 557 
Q 359 1206 359 2328 
Q 359 3453 968 4101 
Q 1578 4750 2638 4750 
Q 3056 4750 3426 4639 
Q 3797 4528 4122 4306 
z
" transform="scale(0.015625)"/>
       <path id="DejaVuSans-6c" d="M 603 4863 
L 1178 4863 
L 1178 0 
L 603 0 
L 603 4863 
z
" transform="scale(0.015625)"/>
       <path id="DejaVuSans-69" d="M 603 3500 
L 1178 3500 
L 1178 0 
L 603 0 
L 603 3500 
z
M 603 4863 
L 1178 4863 
L 1178 4134 
L 603 4134 
L 603 4863 
z
" transform="scale(0.015625)"/>
       <path id="DejaVuSans-71" d="M 947 1747 
Q 947 1113 1208 752 
Q 1469 391 1925 391 
Q 2381 391 2643 752 
Q 2906 1113 2906 1747 
Q 2906 2381 2643 2742 
Q 2381 3103 1925 3103 
Q 1469 3103 1208 2742 
Q 947 2381 947 1747 
z
M 2906 525 
Q 2725 213 2448 61 
Q 2172 -91 1784 -91 
Q 1150 -91 751 415 
Q 353 922 353 1747 
Q 353 2572 751 3078 
Q 1150 3584 1784 3584 
Q 2172 3584 2448 3432 
Q 2725 3281 2906 2969 
L 2906 3500 
L 3481 3500 
L 3481 -1331 
L 2906 -1331 
L 2906 525 
z
" transform="scale(0.015625)"/>
       <path id="DejaVuSans-75" d="M 544 1381 
L 544 3500 
L 1119 3500 
L 1119 1403 
Q 1119 906 1312 657 
Q 1506 409 1894 409 
Q 2359 409 2629 706 
Q 2900 1003 2900 1516 
L 2900 3500 
L 3475 3500 
L 3475 0 
L 2900 0 
L 2900 538 
Q 2691 219 2414 64 
Q 2138 -91 1772 -91 
Q 1169 -91 856 284 
Q 544 659 544 1381 
z
M 1991 3584 
L 1991 3584 
z
" transform="scale(0.015625)"/>
       <path id="DejaVuSans-65" d="M 3597 1894 
L 3597 1613 
L 953 1613 
Q 991 1019 1311 708 
Q 1631 397 2203 397 
Q 2534 397 2845 478 
Q 3156 559 3463 722 
L 3463 178 
Q 3153 47 2828 -22 
Q 2503 -91 2169 -91 
Q 1331 -91 842 396 
Q 353 884 353 1716 
Q 353 2575 817 3079 
Q 1281 3584 2069 3584 
Q 2775 3584 3186 3129 
Q 3597 2675 3597 1894 
z
M 3022 2063 
Q 3016 2534 2758 2815 
Q 2500 3097 2075 3097 
Q 1594 3097 1305 2825 
Q 1016 2553 972 2059 
L 3022 2063 
z
" transform="scale(0.015625)"/>
       <path id="DejaVuSans-20" transform="scale(0.015625)"/>
       <path id="DejaVuSans-73" d="M 2834 3397 
L 2834 2853 
Q 2591 2978 2328 3040 
Q 2066 3103 1784 3103 
Q 1356 3103 1142 2972 
Q 928 2841 928 2578 
Q 928 2378 1081 2264 
Q 1234 2150 1697 2047 
L 1894 2003 
Q 2506 1872 2764 1633 
Q 3022 1394 3022 966 
Q 3022 478 2636 193 
Q 2250 -91 1575 -91 
Q 1294 -91 989 -36 
Q 684 19 347 128 
L 347 722 
Q 666 556 975 473 
Q 1284 391 1588 391 
Q 1994 391 2212 530 
Q 2431 669 2431 922 
Q 2431 1156 2273 1281 
Q 2116 1406 1581 1522 
L 1381 1569 
Q 847 1681 609 1914 
Q 372 2147 372 2553 
Q 372 3047 722 3315 
Q 1072 3584 1716 3584 
Q 2034 3584 2315 3537 
Q 2597 3491 2834 3397 
z
" transform="scale(0.015625)"/>
       <path id="DejaVuSans-7a" d="M 353 3500 
L 3084 3500 
L 3084 2975 
L 922 459 
L 3084 459 
L 3084 0 
L 275 0 
L 275 525 
L 2438 3041 
L 353 3041 
L 353 3500 
z
" transform="scale(0.015625)"/>
      </defs>
      <use xlink:href="#DejaVuSans-43"/>
      <use xlink:href="#DejaVuSans-6c" transform="translate(69.824219 0)"/>
      <use xlink:href="#DejaVuSans-69" transform="translate(97.607422 0)"/>
      <use xlink:href="#DejaVuSans-71" transform="translate(125.390625 0)"/>
      <use xlink:href="#DejaVuSans-75" transform="translate(188.867188 0)"/>
      <use xlink:href="#DejaVuSans-65" transform="translate(252.246094 0)"/>
      <use xlink:href="#DejaVuSans-20" transform="translate(313.769531 0)"/>
      <use xlink:href="#DejaVuSans-73" transform="translate(345.556641 0)"/>
      <use xlink:href="#DejaVuSans-69" transform="translate(397.65625 0)"/>
      <use xlink:href="#DejaVuSans-7a" transform="translate(425.439453 0)"/>
      <use xlink:href="#DejaVuSans-65" transform="translate(477.929688 0)"/>
     </g>
    </g>
   </g>
   <g id="matplotlib.axis_2">
    <g id="ytick_1">
     <g id="line2d_8">
      <defs>
       <path id="m4c618d5ce0" d="M 0 0 
L -3.5 0 
" style="stroke: #000000; stroke-width: 0.8"/>
      </defs>
      <g>
       <use xlink:href="#m4c618d5ce0" x="52.160938" y="241.478125" style="stroke: #000000; stroke-width: 0.8"/>
      </g>
     </g>
     <g id="text_9">
      <!-- −0.5 -->
      <g transform="translate(20.878125 245.277344) scale(0.1 -0.1)">
       <defs>
        <path id="DejaVuSans-2212" d="M 678 2272 
L 4684 2272 
L 4684 1741 
L 678 1741 
L 678 2272 
z
" transform="scale(0.015625)"/>
        <path id="DejaVuSans-2e" d="M 684 794 
L 1344 794 
L 1344 0 
L 684 0 
L 684 794 
z
" transform="scale(0.015625)"/>
       </defs>
       <use xlink:href="#DejaVuSans-2212"/>
       <use xlink:href="#DejaVuSans-30" transform="translate(83.789062 0)"/>
       <use xlink:href="#DejaVuSans-2e" transform="translate(147.412109 0)"/>
       <use xlink:href="#DejaVuSans-35" transform="translate(179.199219 0)"/>
      </g>
     </g>
    </g>
    <g id="ytick_2">
     <g id="line2d_9">
      <g>
       <use xlink:href="#m4c618d5ce0" x="52.160938" y="217.127014" style="stroke: #000000; stroke-width: 0.8"/>
      </g>
     </g>
     <g id="text_10">
      <!-- 0.0 -->
      <g transform="translate(29.257813 220.926233) scale(0.1 -0.1)">
       <use xlink:href="#DejaVuSans-30"/>
       <use xlink:href="#DejaVuSans-2e" transform="translate(63.623047 0)"/>
       <use xlink:href="#DejaVuSans-30" transform="translate(95.410156 0)"/>
      </g>
     </g>
    </g>
    <g id="ytick_3">
     <g id="line2d_10">
      <g>
       <use xlink:href="#m4c618d5ce0" x="52.160938" y="192.775903" style="stroke: #000000; stroke-width: 0.8"/>
      </g>
     </g>
     <g id="text_11">
      <!-- 0.5 -->
      <g transform="translate(29.257813 196.575122) scale(0.1 -0.1)">
       <use xlink:href="#DejaVuSans-30"/>
       <use xlink:href="#DejaVuSans-2e" transform="translate(63.623047 0)"/>
       <use xlink:href="#DejaVuSans-35" transform="translate(95.410156 0)"/>
      </g>
     </g>
    </g>
    <g id="ytick_4">
     <g id="line2d_11">
      <g>
       <use xlink:href="#m4c618d5ce0" x="52.160938" y="168.424792" style="stroke: #000000; stroke-width: 0.8"/>
      </g>
     </g>
     <g id="text_12">
      <!-- 1.0 -->
      <g transform="translate(29.257813 172.22401) scale(0.1 -0.1)">
       <use xlink:href="#DejaVuSans-31"/>
       <use xlink:href="#DejaVuSans-2e" transform="translate(63.623047 0)"/>
       <use xlink:href="#DejaVuSans-30" transform="translate(95.410156 0)"/>
      </g>
     </g>
    </g>
    <g id="ytick_5">
     <g id="line2d_12">
      <g>
       <use xlink:href="#m4c618d5ce0" x="52.160938" y="144.073681" style="stroke: #000000; stroke-width: 0.8"/>
      </g>
     </g>
     <g id="text_13">
      <!-- 1.5 -->
      <g transform="translate(29.257813 147.872899) scale(0.1 -0.1)">
       <use xlink:href="#DejaVuSans-31"/>
       <use xlink:href="#DejaVuSans-2e" transform="translate(63.623047 0)"/>
       <use xlink:href="#DejaVuSans-35" transform="translate(95.410156 0)"/>
      </g>
     </g>
    </g>
    <g id="ytick_6">
     <g id="line2d_13">
      <g>
       <use xlink:href="#m4c618d5ce0" x="52.160938" y="119.722569" style="stroke: #000000; stroke-width: 0.8"/>
      </g>
     </g>
     <g id="text_14">
      <!-- 2.0 -->
      <g transform="translate(29.257813 123.521788) scale(0.1 -0.1)">
       <use xlink:href="#DejaVuSans-32"/>
       <use xlink:href="#DejaVuSans-2e" transform="translate(63.623047 0)"/>
       <use xlink:href="#DejaVuSans-30" transform="translate(95.410156 0)"/>
      </g>
     </g>
    </g>
    <g id="ytick_7">
     <g id="line2d_14">
      <g>
       <use xlink:href="#m4c618d5ce0" x="52.160938" y="95.371458" style="stroke: #000000; stroke-width: 0.8"/>
      </g>
     </g>
     <g id="text_15">
      <!-- 2.5 -->
      <g transform="translate(29.257813 99.170677) scale(0.1 -0.1)">
       <use xlink:href="#DejaVuSans-32"/>
       <use xlink:href="#DejaVuSans-2e" transform="translate(63.623047 0)"/>
       <use xlink:href="#DejaVuSans-35" transform="translate(95.410156 0)"/>
      </g>
     </g>
    </g>
    <g id="ytick_8">
     <g id="line2d_15">
      <g>
       <use xlink:href="#m4c618d5ce0" x="52.160938" y="71.020347" style="stroke: #000000; stroke-width: 0.8"/>
      </g>
     </g>
     <g id="text_16">
      <!-- 3.0 -->
      <g transform="translate(29.257813 74.819566) scale(0.1 -0.1)">
       <use xlink:href="#DejaVuSans-33"/>
       <use xlink:href="#DejaVuSans-2e" transform="translate(63.623047 0)"/>
       <use xlink:href="#DejaVuSans-30" transform="translate(95.410156 0)"/>
      </g>
     </g>
    </g>
    <g id="ytick_9">
     <g id="line2d_16">
      <g>
       <use xlink:href="#m4c618d5ce0" x="52.160938" y="46.669236" style="stroke: #000000; stroke-width: 0.8"/>
      </g>
     </g>
     <g id="text_17">
      <!-- 3.5 -->
      <g transform="translate(29.257813 50.468455) scale(0.1 -0.1)">
       <use xlink:href="#DejaVuSans-33"/>
       <use xlink:href="#DejaVuSans-2e" transform="translate(63.623047 0)"/>
       <use xlink:href="#DejaVuSans-35" transform="translate(95.410156 0)"/>
      </g>
     </g>
    </g>
    <g id="ytick_10">
     <g id="line2d_17">
      <g>
       <use xlink:href="#m4c618d5ce0" x="52.160938" y="22.318125" style="stroke: #000000; stroke-width: 0.8"/>
      </g>
     </g>
     <g id="text_18">
      <!-- 4.0 -->
      <g transform="translate(29.257813 26.117344) scale(0.1 -0.1)">
       <defs>
        <path id="DejaVuSans-34" d="M 2419 4116 
L 825 1625 
L 2419 1625 
L 2419 4116 
z
M 2253 4666 
L 3047 4666 
L 3047 1625 
L 3713 1625 
L 3713 1100 
L 3047 1100 
L 3047 0 
L 2419 0 
L 2419 1100 
L 313 1100 
L 313 1709 
L 2253 4666 
z
" transform="scale(0.015625)"/>
       </defs>
       <use xlink:href="#DejaVuSans-34"/>
       <use xlink:href="#DejaVuSans-2e" transform="translate(63.623047 0)"/>
       <use xlink:href="#DejaVuSans-30" transform="translate(95.410156 0)"/>
      </g>
     </g>
    </g>
    <g id="text_19">
     <!-- Number of shuffles -->
     <g transform="translate(14.798438 179.514531) rotate(-90) scale(0.1 -0.1)">
      <defs>
       <path id="DejaVuSans-4e" d="M 628 4666 
L 1478 4666 
L 3547 763 
L 3547 4666 
L 4159 4666 
L 4159 0 
L 3309 0 
L 1241 3903 
L 1241 0 
L 628 0 
L 628 4666 
z
" transform="scale(0.015625)"/>
       <path id="DejaVuSans-6d" d="M 3328 2828 
Q 3544 3216 3844 3400 
Q 4144 3584 4550 3584 
Q 5097 3584 5394 3201 
Q 5691 2819 5691 2113 
L 5691 0 
L 5113 0 
L 5113 2094 
Q 5113 2597 4934 2840 
Q 4756 3084 4391 3084 
Q 3944 3084 3684 2787 
Q 3425 2491 3425 1978 
L 3425 0 
L 2847 0 
L 2847 2094 
Q 2847 2600 2669 2842 
Q 2491 3084 2119 3084 
Q 1678 3084 1418 2786 
Q 1159 2488 1159 1978 
L 1159 0 
L 581 0 
L 581 3500 
L 1159 3500 
L 1159 2956 
Q 1356 3278 1631 3431 
Q 1906 3584 2284 3584 
Q 2666 3584 2933 3390 
Q 3200 3197 3328 2828 
z
" transform="scale(0.015625)"/>
       <path id="DejaVuSans-62" d="M 3116 1747 
Q 3116 2381 2855 2742 
Q 2594 3103 2138 3103 
Q 1681 3103 1420 2742 
Q 1159 2381 1159 1747 
Q 1159 1113 1420 752 
Q 1681 391 2138 391 
Q 2594 391 2855 752 
Q 3116 1113 3116 1747 
z
M 1159 2969 
Q 1341 3281 1617 3432 
Q 1894 3584 2278 3584 
Q 2916 3584 3314 3078 
Q 3713 2572 3713 1747 
Q 3713 922 3314 415 
Q 2916 -91 2278 -91 
Q 1894 -91 1617 61 
Q 1341 213 1159 525 
L 1159 0 
L 581 0 
L 581 4863 
L 1159 4863 
L 1159 2969 
z
" transform="scale(0.015625)"/>
       <path id="DejaVuSans-72" d="M 2631 2963 
Q 2534 3019 2420 3045 
Q 2306 3072 2169 3072 
Q 1681 3072 1420 2755 
Q 1159 2438 1159 1844 
L 1159 0 
L 581 0 
L 581 3500 
L 1159 3500 
L 1159 2956 
Q 1341 3275 1631 3429 
Q 1922 3584 2338 3584 
Q 2397 3584 2469 3576 
Q 2541 3569 2628 3553 
L 2631 2963 
z
" transform="scale(0.015625)"/>
       <path id="DejaVuSans-6f" d="M 1959 3097 
Q 1497 3097 1228 2736 
Q 959 2375 959 1747 
Q 959 1119 1226 758 
Q 1494 397 1959 397 
Q 2419 397 2687 759 
Q 2956 1122 2956 1747 
Q 2956 2369 2687 2733 
Q 2419 3097 1959 3097 
z
M 1959 3584 
Q 2709 3584 3137 3096 
Q 3566 2609 3566 1747 
Q 3566 888 3137 398 
Q 2709 -91 1959 -91 
Q 1206 -91 779 398 
Q 353 888 353 1747 
Q 353 2609 779 3096 
Q 1206 3584 1959 3584 
z
" transform="scale(0.015625)"/>
       <path id="DejaVuSans-66" d="M 2375 4863 
L 2375 4384 
L 1825 4384 
Q 1516 4384 1395 4259 
Q 1275 4134 1275 3809 
L 1275 3500 
L 2222 3500 
L 2222 3053 
L 1275 3053 
L 1275 0 
L 697 0 
L 697 3053 
L 147 3053 
L 147 3500 
L 697 3500 
L 697 3744 
Q 697 4328 969 4595 
Q 1241 4863 1831 4863 
L 2375 4863 
z
" transform="scale(0.015625)"/>
       <path id="DejaVuSans-68" d="M 3513 2113 
L 3513 0 
L 2938 0 
L 2938 2094 
Q 2938 2591 2744 2837 
Q 2550 3084 2163 3084 
Q 1697 3084 1428 2787 
Q 1159 2491 1159 1978 
L 1159 0 
L 581 0 
L 581 4863 
L 1159 4863 
L 1159 2956 
Q 1366 3272 1645 3428 
Q 1925 3584 2291 3584 
Q 2894 3584 3203 3211 
Q 3513 2838 3513 2113 
z
" transform="scale(0.015625)"/>
      </defs>
      <use xlink:href="#DejaVuSans-4e"/>
      <use xlink:href="#DejaVuSans-75" transform="translate(74.804688 0)"/>
      <use xlink:href="#DejaVuSans-6d" transform="translate(138.183594 0)"/>
      <use xlink:href="#DejaVuSans-62" transform="translate(235.595703 0)"/>
      <use xlink:href="#DejaVuSans-65" transform="translate(299.072266 0)"/>
      <use xlink:href="#DejaVuSans-72" transform="translate(360.595703 0)"/>
      <use xlink:href="#DejaVuSans-20" transform="translate(401.708984 0)"/>
      <use xlink:href="#DejaVuSans-6f" transform="translate(433.496094 0)"/>
      <use xlink:href="#DejaVuSans-66" transform="translate(494.677734 0)"/>
      <use xlink:href="#DejaVuSans-20" transform="translate(529.882812 0)"/>
      <use xlink:href="#DejaVuSans-73" transform="translate(561.669922 0)"/>
      <use xlink:href="#DejaVuSans-68" transform="translate(613.769531 0)"/>
      <use xlink:href="#DejaVuSans-75" transform="translate(677.148438 0)"/>
      <use xlink:href="#DejaVuSans-66" transform="translate(740.527344 0)"/>
      <use xlink:href="#DejaVuSans-66" transform="translate(775.732422 0)"/>
      <use xlink:href="#DejaVuSans-6c" transform="translate(810.9375 0)"/>
      <use xlink:href="#DejaVuSans-65" transform="translate(838.720703 0)"/>
      <use xlink:href="#DejaVuSans-73" transform="translate(900.244141 0)"/>
     </g>
    </g>
   </g>
   <g id="line2d_18">
    <path d="M 62.352047 89.9601 
L 65.866223 94.830323 
L 69.380398 95.371458 
L 72.894574 89.689532 
L 76.40875 92.665779 
L 79.922925 90.230668 
L 83.437101 84.548742 
L 86.951276 95.371458 
L 90.465452 119.993137 
L 93.979628 123.239952 
L 97.493803 142.991409 
L 101.007979 155.978668 
L 104.522155 166.260248 
L 111.550506 191.693631 
L 118.578857 196.834421 
" clip-path="url(#pb9ba459efc)" style="fill: none; stroke: #de5d5c; stroke-width: 1.5; stroke-linecap: square"/>
    <defs>
     <path id="md01a117752" d="M 0 3 
C 0.795609 3 1.55874 2.683901 2.12132 2.12132 
C 2.683901 1.55874 3 0.795609 3 0 
C 3 -0.795609 2.683901 -1.55874 2.12132 -2.12132 
C 1.55874 -2.683901 0.795609 -3 0 -3 
C -0.795609 -3 -1.55874 -2.683901 -2.12132 -2.12132 
C -2.683901 -1.55874 -3 -0.795609 -3 0 
C -3 0.795609 -2.683901 1.55874 -2.12132 2.12132 
C -1.55874 2.683901 -0.795609 3 0 3 
z
" style="stroke: #ffffff; stroke-width: 0.75"/>
    </defs>
    <g clip-path="url(#pb9ba459efc)">
     <use xlink:href="#md01a117752" x="62.352047" y="89.9601" style="fill: #de5d5c; stroke: #ffffff; stroke-width: 0.75"/>
     <use xlink:href="#md01a117752" x="65.866223" y="94.830323" style="fill: #de5d5c; stroke: #ffffff; stroke-width: 0.75"/>
     <use xlink:href="#md01a117752" x="69.380398" y="95.371458" style="fill: #de5d5c; stroke: #ffffff; stroke-width: 0.75"/>
     <use xlink:href="#md01a117752" x="72.894574" y="89.689532" style="fill: #de5d5c; stroke: #ffffff; stroke-width: 0.75"/>
     <use xlink:href="#md01a117752" x="76.40875" y="92.665779" style="fill: #de5d5c; stroke: #ffffff; stroke-width: 0.75"/>
     <use xlink:href="#md01a117752" x="79.922925" y="90.230668" style="fill: #de5d5c; stroke: #ffffff; stroke-width: 0.75"/>
     <use xlink:href="#md01a117752" x="83.437101" y="84.548742" style="fill: #de5d5c; stroke: #ffffff; stroke-width: 0.75"/>
     <use xlink:href="#md01a117752" x="86.951276" y="95.371458" style="fill: #de5d5c; stroke: #ffffff; stroke-width: 0.75"/>
     <use xlink:href="#md01a117752" x="90.465452" y="119.993137" style="fill: #de5d5c; stroke: #ffffff; stroke-width: 0.75"/>
     <use xlink:href="#md01a117752" x="93.979628" y="123.239952" style="fill: #de5d5c; stroke: #ffffff; stroke-width: 0.75"/>
     <use xlink:href="#md01a117752" x="97.493803" y="142.991409" style="fill: #de5d5c; stroke: #ffffff; stroke-width: 0.75"/>
     <use xlink:href="#md01a117752" x="101.007979" y="155.978668" style="fill: #de5d5c; stroke: #ffffff; stroke-width: 0.75"/>
     <use xlink:href="#md01a117752" x="104.522155" y="166.260248" style="fill: #de5d5c; stroke: #ffffff; stroke-width: 0.75"/>
     <use xlink:href="#md01a117752" x="111.550506" y="191.693631" style="fill: #de5d5c; stroke: #ffffff; stroke-width: 0.75"/>
     <use xlink:href="#md01a117752" x="118.578857" y="196.834421" style="fill: #de5d5c; stroke: #ffffff; stroke-width: 0.75"/>
    </g>
   </g>
   <g id="line2d_19">
    <path d="M 78.517255 141.909137 
L 90.465452 138.93289 
L 102.413649 132.709829 
L 113.659011 141.638569 
L 125.607209 154.625829 
L 137.555406 177.082965 
L 148.800768 194.940446 
L 160.748965 203.057483 
L 172.697162 211.445088 
L 183.942525 214.421335 
L 195.890722 216.044742 
L 207.838919 216.044742 
L 219.084281 217.127014 
L 242.980676 216.585878 
L 266.174235 214.962471 
" clip-path="url(#pb9ba459efc)" style="fill: none; stroke: #9a3670; stroke-width: 1.5; stroke-linecap: square"/>
    <defs>
     <path id="m1df28d1e9c" d="M 0 3 
C 0.795609 3 1.55874 2.683901 2.12132 2.12132 
C 2.683901 1.55874 3 0.795609 3 0 
C 3 -0.795609 2.683901 -1.55874 2.12132 -2.12132 
C 1.55874 -2.683901 0.795609 -3 0 -3 
C -0.795609 -3 -1.55874 -2.683901 -2.12132 -2.12132 
C -2.683901 -1.55874 -3 -0.795609 -3 0 
C -3 0.795609 -2.683901 1.55874 -2.12132 2.12132 
C -1.55874 2.683901 -0.795609 3 0 3 
z
" style="stroke: #ffffff; stroke-width: 0.75"/>
    </defs>
    <g clip-path="url(#pb9ba459efc)">
     <use xlink:href="#m1df28d1e9c" x="78.517255" y="141.909137" style="fill: #9a3670; stroke: #ffffff; stroke-width: 0.75"/>
     <use xlink:href="#m1df28d1e9c" x="90.465452" y="138.93289" style="fill: #9a3670; stroke: #ffffff; stroke-width: 0.75"/>
     <use xlink:href="#m1df28d1e9c" x="102.413649" y="132.709829" style="fill: #9a3670; stroke: #ffffff; stroke-width: 0.75"/>
     <use xlink:href="#m1df28d1e9c" x="113.659011" y="141.638569" style="fill: #9a3670; stroke: #ffffff; stroke-width: 0.75"/>
     <use xlink:href="#m1df28d1e9c" x="125.607209" y="154.625829" style="fill: #9a3670; stroke: #ffffff; stroke-width: 0.75"/>
     <use xlink:href="#m1df28d1e9c" x="137.555406" y="177.082965" style="fill: #9a3670; stroke: #ffffff; stroke-width: 0.75"/>
     <use xlink:href="#m1df28d1e9c" x="148.800768" y="194.940446" style="fill: #9a3670; stroke: #ffffff; stroke-width: 0.75"/>
     <use xlink:href="#m1df28d1e9c" x="160.748965" y="203.057483" style="fill: #9a3670; stroke: #ffffff; stroke-width: 0.75"/>
     <use xlink:href="#m1df28d1e9c" x="172.697162" y="211.445088" style="fill: #9a3670; stroke: #ffffff; stroke-width: 0.75"/>
     <use xlink:href="#m1df28d1e9c" x="183.942525" y="214.421335" style="fill: #9a3670; stroke: #ffffff; stroke-width: 0.75"/>
     <use xlink:href="#m1df28d1e9c" x="195.890722" y="216.044742" style="fill: #9a3670; stroke: #ffffff; stroke-width: 0.75"/>
     <use xlink:href="#m1df28d1e9c" x="207.838919" y="216.044742" style="fill: #9a3670; stroke: #ffffff; stroke-width: 0.75"/>
     <use xlink:href="#m1df28d1e9c" x="219.084281" y="217.127014" style="fill: #9a3670; stroke: #ffffff; stroke-width: 0.75"/>
     <use xlink:href="#m1df28d1e9c" x="242.980676" y="216.585878" style="fill: #9a3670; stroke: #ffffff; stroke-width: 0.75"/>
     <use xlink:href="#m1df28d1e9c" x="266.174235" y="214.962471" style="fill: #9a3670; stroke: #ffffff; stroke-width: 0.75"/>
    </g>
   </g>
   <g id="line2d_20"/>
   <g id="line2d_21"/>
   <g id="line2d_22">
    <path d="M 91.889834 241.478125 
L 91.889834 22.318125 
" clip-path="url(#pb9ba459efc)" style="fill: none; stroke-dasharray: 5.55,2.4; stroke-dashoffset: 0; stroke: #de5d5c; stroke-width: 1.5"/>
   </g>
   <g id="line2d_23">
    <path d="M 128.676152 241.478125 
L 128.676152 22.318125 
" clip-path="url(#pb9ba459efc)" style="fill: none; stroke-dasharray: 5.55,2.4; stroke-dashoffset: 0; stroke: #9a3670; stroke-width: 1.5"/>
   </g>
   <g id="patch_3">
    <path d="M 52.160938 241.478125 
L 52.160938 22.318125 
" style="fill: none; stroke: #000000; stroke-width: 0.8; stroke-linejoin: miter; stroke-linecap: square"/>
   </g>
   <g id="patch_4">
    <path d="M 280.230937 241.478125 
L 280.230937 22.318125 
" style="fill: none; stroke: #000000; stroke-width: 0.8; stroke-linejoin: miter; stroke-linecap: square"/>
   </g>
   <g id="patch_5">
    <path d="M 52.160938 241.478125 
L 280.230937 241.478125 
" style="fill: none; stroke: #000000; stroke-width: 0.8; stroke-linejoin: miter; stroke-linecap: square"/>
   </g>
   <g id="patch_6">
    <path d="M 52.160938 22.318125 
L 280.230937 22.318125 
" style="fill: none; stroke: #000000; stroke-width: 0.8; stroke-linejoin: miter; stroke-linecap: square"/>
   </g>
   <g id="text_20">
    <!-- K₀ -->
    <g style="fill: #de5d5c" transform="translate(92.241251 82.418003) scale(0.15 -0.15)">
     <defs>
      <path id="DejaVuSans-4b" d="M 628 4666 
L 1259 4666 
L 1259 2694 
L 3353 4666 
L 4166 4666 
L 1850 2491 
L 4331 0 
L 3500 0 
L 1259 2247 
L 1259 0 
L 628 0 
L 628 4666 
z
" transform="scale(0.015625)"/>
      <path id="DejaVuSans-2080" d="M 1781 2091 
Q 1625 2360 1309 2360 
Q 994 2360 838 2091 
Q 678 1822 678 1285 
Q 678 744 838 476 
Q 994 207 1309 207 
Q 1625 207 1781 476 
Q 1941 744 1941 1285 
Q 1941 1822 1781 2091 
z
M 1309 2638 
Q 1813 2638 2078 2291 
Q 2344 1944 2344 1285 
Q 2344 622 2078 275 
Q 1813 -71 1309 -71 
Q 803 -71 537 275 
Q 272 622 272 1285 
Q 272 1944 537 2291 
Q 803 2638 1309 2638 
z
" transform="scale(0.015625)"/>
     </defs>
     <use xlink:href="#DejaVuSans-4b"/>
     <use xlink:href="#DejaVuSans-2080" transform="translate(65.576172 0)"/>
    </g>
   </g>
   <g id="text_21">
    <!-- K₀ -->
    <g style="fill: #9a3670" transform="translate(129.02757 82.418003) scale(0.15 -0.15)">
     <use xlink:href="#DejaVuSans-4b"/>
     <use xlink:href="#DejaVuSans-2080" transform="translate(65.576172 0)"/>
    </g>
   </g>
   <g id="text_22">
    <!-- Number of shuffles as a function of K -->
    <g transform="translate(54.815312 16.318125) scale(0.12 -0.12)">
     <defs>
      <path id="DejaVuSans-61" d="M 2194 1759 
Q 1497 1759 1228 1600 
Q 959 1441 959 1056 
Q 959 750 1161 570 
Q 1363 391 1709 391 
Q 2188 391 2477 730 
Q 2766 1069 2766 1631 
L 2766 1759 
L 2194 1759 
z
M 3341 1997 
L 3341 0 
L 2766 0 
L 2766 531 
Q 2569 213 2275 61 
Q 1981 -91 1556 -91 
Q 1019 -91 701 211 
Q 384 513 384 1019 
Q 384 1609 779 1909 
Q 1175 2209 1959 2209 
L 2766 2209 
L 2766 2266 
Q 2766 2663 2505 2880 
Q 2244 3097 1772 3097 
Q 1472 3097 1187 3025 
Q 903 2953 641 2809 
L 641 3341 
Q 956 3463 1253 3523 
Q 1550 3584 1831 3584 
Q 2591 3584 2966 3190 
Q 3341 2797 3341 1997 
z
" transform="scale(0.015625)"/>
      <path id="DejaVuSans-6e" d="M 3513 2113 
L 3513 0 
L 2938 0 
L 2938 2094 
Q 2938 2591 2744 2837 
Q 2550 3084 2163 3084 
Q 1697 3084 1428 2787 
Q 1159 2491 1159 1978 
L 1159 0 
L 581 0 
L 581 3500 
L 1159 3500 
L 1159 2956 
Q 1366 3272 1645 3428 
Q 1925 3584 2291 3584 
Q 2894 3584 3203 3211 
Q 3513 2838 3513 2113 
z
" transform="scale(0.015625)"/>
      <path id="DejaVuSans-63" d="M 3122 3366 
L 3122 2828 
Q 2878 2963 2633 3030 
Q 2388 3097 2138 3097 
Q 1578 3097 1268 2742 
Q 959 2388 959 1747 
Q 959 1106 1268 751 
Q 1578 397 2138 397 
Q 2388 397 2633 464 
Q 2878 531 3122 666 
L 3122 134 
Q 2881 22 2623 -34 
Q 2366 -91 2075 -91 
Q 1284 -91 818 406 
Q 353 903 353 1747 
Q 353 2603 823 3093 
Q 1294 3584 2113 3584 
Q 2378 3584 2631 3529 
Q 2884 3475 3122 3366 
z
" transform="scale(0.015625)"/>
      <path id="DejaVuSans-74" d="M 1172 4494 
L 1172 3500 
L 2356 3500 
L 2356 3053 
L 1172 3053 
L 1172 1153 
Q 1172 725 1289 603 
Q 1406 481 1766 481 
L 2356 481 
L 2356 0 
L 1766 0 
Q 1100 0 847 248 
Q 594 497 594 1153 
L 594 3053 
L 172 3053 
L 172 3500 
L 594 3500 
L 594 4494 
L 1172 4494 
z
" transform="scale(0.015625)"/>
     </defs>
     <use xlink:href="#DejaVuSans-4e"/>
     <use xlink:href="#DejaVuSans-75" transform="translate(74.804688 0)"/>
     <use xlink:href="#DejaVuSans-6d" transform="translate(138.183594 0)"/>
     <use xlink:href="#DejaVuSans-62" transform="translate(235.595703 0)"/>
     <use xlink:href="#DejaVuSans-65" transform="translate(299.072266 0)"/>
     <use xlink:href="#DejaVuSans-72" transform="translate(360.595703 0)"/>
     <use xlink:href="#DejaVuSans-20" transform="translate(401.708984 0)"/>
     <use xlink:href="#DejaVuSans-6f" transform="translate(433.496094 0)"/>
     <use xlink:href="#DejaVuSans-66" transform="translate(494.677734 0)"/>
     <use xlink:href="#DejaVuSans-20" transform="translate(529.882812 0)"/>
     <use xlink:href="#DejaVuSans-73" transform="translate(561.669922 0)"/>
     <use xlink:href="#DejaVuSans-68" transform="translate(613.769531 0)"/>
     <use xlink:href="#DejaVuSans-75" transform="translate(677.148438 0)"/>
     <use xlink:href="#DejaVuSans-66" transform="translate(740.527344 0)"/>
     <use xlink:href="#DejaVuSans-66" transform="translate(775.732422 0)"/>
     <use xlink:href="#DejaVuSans-6c" transform="translate(810.9375 0)"/>
     <use xlink:href="#DejaVuSans-65" transform="translate(838.720703 0)"/>
     <use xlink:href="#DejaVuSans-73" transform="translate(900.244141 0)"/>
     <use xlink:href="#DejaVuSans-20" transform="translate(952.34375 0)"/>
     <use xlink:href="#DejaVuSans-61" transform="translate(984.130859 0)"/>
     <use xlink:href="#DejaVuSans-73" transform="translate(1045.410156 0)"/>
     <use xlink:href="#DejaVuSans-20" transform="translate(1097.509766 0)"/>
     <use xlink:href="#DejaVuSans-61" transform="translate(1129.296875 0)"/>
     <use xlink:href="#DejaVuSans-20" transform="translate(1190.576172 0)"/>
     <use xlink:href="#DejaVuSans-66" transform="translate(1222.363281 0)"/>
     <use xlink:href="#DejaVuSans-75" transform="translate(1257.568359 0)"/>
     <use xlink:href="#DejaVuSans-6e" transform="translate(1320.947266 0)"/>
     <use xlink:href="#DejaVuSans-63" transform="translate(1384.326172 0)"/>
     <use xlink:href="#DejaVuSans-74" transform="translate(1439.306641 0)"/>
     <use xlink:href="#DejaVuSans-69" transform="translate(1478.515625 0)"/>
     <use xlink:href="#DejaVuSans-6f" transform="translate(1506.298828 0)"/>
     <use xlink:href="#DejaVuSans-6e" transform="translate(1567.480469 0)"/>
     <use xlink:href="#DejaVuSans-20" transform="translate(1630.859375 0)"/>
     <use xlink:href="#DejaVuSans-6f" transform="translate(1662.646484 0)"/>
     <use xlink:href="#DejaVuSans-66" transform="translate(1723.828125 0)"/>
     <use xlink:href="#DejaVuSans-20" transform="translate(1759.033203 0)"/>
     <use xlink:href="#DejaVuSans-4b" transform="translate(1790.820312 0)"/>
    </g>
   </g>
   <g id="legend_1">
    <g id="patch_7">
     <path d="M 215.780937 74.3525 
L 273.230937 74.3525 
Q 275.230937 74.3525 275.230937 72.3525 
L 275.230937 29.318125 
Q 275.230937 27.318125 273.230937 27.318125 
L 215.780937 27.318125 
Q 213.780937 27.318125 213.780937 29.318125 
L 213.780937 72.3525 
Q 213.780937 74.3525 215.780937 74.3525 
z
" style="fill: #ffffff; opacity: 0.8; stroke: #cccccc; stroke-linejoin: miter"/>
    </g>
    <g id="text_23">
     <!-- N -->
     <g transform="translate(240.765312 38.916563) scale(0.1 -0.1)">
      <use xlink:href="#DejaVuSans-4e"/>
     </g>
    </g>
    <g id="line2d_24">
     <path d="M 217.780937 50.094688 
L 227.780937 50.094688 
L 237.780937 50.094688 
" style="fill: none; stroke: #de5d5c; stroke-width: 1.5; stroke-linecap: square"/>
     <g>
      <use xlink:href="#md01a117752" x="227.780937" y="50.094688" style="fill: #de5d5c; stroke: #ffffff; stroke-width: 0.75"/>
     </g>
    </g>
    <g id="text_24">
     <!-- 300 -->
     <g transform="translate(245.780937 53.594688) scale(0.1 -0.1)">
      <use xlink:href="#DejaVuSans-33"/>
      <use xlink:href="#DejaVuSans-30" transform="translate(63.623047 0)"/>
      <use xlink:href="#DejaVuSans-30" transform="translate(127.246094 0)"/>
     </g>
    </g>
    <g id="line2d_25">
     <path d="M 217.780937 64.772813 
L 227.780937 64.772813 
L 237.780937 64.772813 
" style="fill: none; stroke: #9a3670; stroke-width: 1.5; stroke-linecap: square"/>
     <g>
      <use xlink:href="#m1df28d1e9c" x="227.780937" y="64.772813" style="fill: #9a3670; stroke: #ffffff; stroke-width: 0.75"/>
     </g>
    </g>
    <g id="text_25">
     <!-- 1000 -->
     <g transform="translate(245.780937 68.272813) scale(0.1 -0.1)">
      <use xlink:href="#DejaVuSans-31"/>
      <use xlink:href="#DejaVuSans-30" transform="translate(63.623047 0)"/>
      <use xlink:href="#DejaVuSans-30" transform="translate(127.246094 0)"/>
      <use xlink:href="#DejaVuSans-30" transform="translate(190.869141 0)"/>
     </g>
    </g>
   </g>
  </g>
  <g id="axes_2">
   <g id="patch_8">
    <path d="M 394.265937 241.478125 
L 622.335938 241.478125 
L 622.335938 22.318125 
L 394.265937 22.318125 
z
" style="fill: #ffffff"/>
   </g>
   <g id="FillBetweenPolyCollection_3">
    <defs>
     <path id="md0bb8b72a0" d="M 405.397587 -215.402313 
L 405.397587 -162.746236 
L 418.956234 -156.993476 
L 432.51488 -157.936598 
L 446.073527 -159.32748 
L 459.632174 -160.225919 
L 473.190821 -163.213524 
L 486.749468 -167.852506 
L 500.308115 -156.41163 
L 513.866762 -136.543623 
L 527.425409 -131.702808 
L 540.984056 -116.959638 
L 554.542703 -105.811987 
L 568.10135 -98.466884 
L 595.218644 -78.022832 
L 622.335938 -75.420313 
L 622.335938 -88.979595 
L 622.335938 -88.979595 
L 595.218644 -96.658656 
L 568.10135 -127.081369 
L 554.542703 -140.299427 
L 540.984056 -155.126294 
L 527.425409 -179.886038 
L 513.866762 -181.538852 
L 500.308115 -210.914203 
L 486.749468 -221.118759 
L 473.190821 -214.393889 
L 459.632174 -212.511272 
L 446.073527 -219.362206 
L 432.51488 -209.389235 
L 418.956234 -211.414629 
L 405.397587 -215.402313 
z
" style="stroke: #de5d5c; stroke-opacity: 0.2"/>
    </defs>
    <g clip-path="url(#p8249f0e77a)">
     <use xlink:href="#md0bb8b72a0" x="0" y="279.034375" style="fill: #de5d5c; fill-opacity: 0.2; stroke: #de5d5c; stroke-opacity: 0.2"/>
    </g>
   </g>
   <g id="FillBetweenPolyCollection_4">
    <defs>
     <path id="meedf6cb577" d="M 405.126414 -156.801098 
L 405.126414 -117.449377 
L 418.956234 -123.908692 
L 432.786053 -125.361956 
L 445.802354 -118.567645 
L 459.632174 -108.566702 
L 473.461994 -92.011163 
L 486.478295 -77.647985 
L 500.308115 -70.211827 
L 514.137935 -64.738677 
L 527.154236 -62.727366 
L 540.984056 -62.152557 
L 554.813876 -62.152557 
L 567.830177 -61.907361 
L 595.489817 -62.079775 
L 622.335938 -63.034027 
L 622.335938 -65.109781 
L 622.335938 -65.109781 
L 595.489817 -62.817219 
L 567.830177 -61.907361 
L 554.813876 -63.826708 
L 540.984056 -63.826708 
L 527.154236 -66.498715 
L 514.137935 -70.439897 
L 500.308115 -81.741957 
L 486.478295 -90.539873 
L 473.461994 -111.891658 
L 459.632174 -140.25039 
L 445.802354 -156.223966 
L 432.786053 -167.287136 
L 418.956234 -156.294277 
L 405.126414 -156.801098 
z
" style="stroke: #9a3670; stroke-opacity: 0.2"/>
    </defs>
    <g clip-path="url(#p8249f0e77a)">
     <use xlink:href="#meedf6cb577" x="0" y="279.034375" style="fill: #9a3670; fill-opacity: 0.2; stroke: #9a3670; stroke-opacity: 0.2"/>
    </g>
   </g>
   <g id="matplotlib.axis_3">
    <g id="xtick_8">
     <g id="line2d_26">
      <g>
       <use xlink:href="#m30f6829737" x="418.956234" y="241.478125" style="stroke: #000000; stroke-width: 0.8"/>
      </g>
     </g>
     <g id="text_26">
      <!-- 0.05 -->
      <g transform="translate(407.823421 256.076563) scale(0.1 -0.1)">
       <use xlink:href="#DejaVuSans-30"/>
       <use xlink:href="#DejaVuSans-2e" transform="translate(63.623047 0)"/>
       <use xlink:href="#DejaVuSans-30" transform="translate(95.410156 0)"/>
       <use xlink:href="#DejaVuSans-35" transform="translate(159.033203 0)"/>
      </g>
     </g>
    </g>
    <g id="xtick_9">
     <g id="line2d_27">
      <g>
       <use xlink:href="#m30f6829737" x="459.632174" y="241.478125" style="stroke: #000000; stroke-width: 0.8"/>
      </g>
     </g>
     <g id="text_27">
      <!-- 0.10 -->
      <g transform="translate(448.499362 256.076563) scale(0.1 -0.1)">
       <use xlink:href="#DejaVuSans-30"/>
       <use xlink:href="#DejaVuSans-2e" transform="translate(63.623047 0)"/>
       <use xlink:href="#DejaVuSans-31" transform="translate(95.410156 0)"/>
       <use xlink:href="#DejaVuSans-30" transform="translate(159.033203 0)"/>
      </g>
     </g>
    </g>
    <g id="xtick_10">
     <g id="line2d_28">
      <g>
       <use xlink:href="#m30f6829737" x="500.308115" y="241.478125" style="stroke: #000000; stroke-width: 0.8"/>
      </g>
     </g>
     <g id="text_28">
      <!-- 0.15 -->
      <g transform="translate(489.175303 256.076563) scale(0.1 -0.1)">
       <use xlink:href="#DejaVuSans-30"/>
       <use xlink:href="#DejaVuSans-2e" transform="translate(63.623047 0)"/>
       <use xlink:href="#DejaVuSans-31" transform="translate(95.410156 0)"/>
       <use xlink:href="#DejaVuSans-35" transform="translate(159.033203 0)"/>
      </g>
     </g>
    </g>
    <g id="xtick_11">
     <g id="line2d_29">
      <g>
       <use xlink:href="#m30f6829737" x="540.984056" y="241.478125" style="stroke: #000000; stroke-width: 0.8"/>
      </g>
     </g>
     <g id="text_29">
      <!-- 0.20 -->
      <g transform="translate(529.851243 256.076563) scale(0.1 -0.1)">
       <use xlink:href="#DejaVuSans-30"/>
       <use xlink:href="#DejaVuSans-2e" transform="translate(63.623047 0)"/>
       <use xlink:href="#DejaVuSans-32" transform="translate(95.410156 0)"/>
       <use xlink:href="#DejaVuSans-30" transform="translate(159.033203 0)"/>
      </g>
     </g>
    </g>
    <g id="xtick_12">
     <g id="line2d_30">
      <g>
       <use xlink:href="#m30f6829737" x="581.659997" y="241.478125" style="stroke: #000000; stroke-width: 0.8"/>
      </g>
     </g>
     <g id="text_30">
      <!-- 0.25 -->
      <g transform="translate(570.527184 256.076563) scale(0.1 -0.1)">
       <use xlink:href="#DejaVuSans-30"/>
       <use xlink:href="#DejaVuSans-2e" transform="translate(63.623047 0)"/>
       <use xlink:href="#DejaVuSans-32" transform="translate(95.410156 0)"/>
       <use xlink:href="#DejaVuSans-35" transform="translate(159.033203 0)"/>
      </g>
     </g>
    </g>
    <g id="xtick_13">
     <g id="line2d_31">
      <g>
       <use xlink:href="#m30f6829737" x="622.335938" y="241.478125" style="stroke: #000000; stroke-width: 0.8"/>
      </g>
     </g>
     <g id="text_31">
      <!-- 0.30 -->
      <g transform="translate(611.203125 256.076563) scale(0.1 -0.1)">
       <use xlink:href="#DejaVuSans-30"/>
       <use xlink:href="#DejaVuSans-2e" transform="translate(63.623047 0)"/>
       <use xlink:href="#DejaVuSans-33" transform="translate(95.410156 0)"/>
       <use xlink:href="#DejaVuSans-30" transform="translate(159.033203 0)"/>
      </g>
     </g>
    </g>
    <g id="text_32">
     <!-- Clique size / N -->
     <g transform="translate(472.725156 269.754687) scale(0.1 -0.1)">
      <defs>
       <path id="DejaVuSans-2f" d="M 1625 4666 
L 2156 4666 
L 531 -594 
L 0 -594 
L 1625 4666 
z
" transform="scale(0.015625)"/>
      </defs>
      <use xlink:href="#DejaVuSans-43"/>
      <use xlink:href="#DejaVuSans-6c" transform="translate(69.824219 0)"/>
      <use xlink:href="#DejaVuSans-69" transform="translate(97.607422 0)"/>
      <use xlink:href="#DejaVuSans-71" transform="translate(125.390625 0)"/>
      <use xlink:href="#DejaVuSans-75" transform="translate(188.867188 0)"/>
      <use xlink:href="#DejaVuSans-65" transform="translate(252.246094 0)"/>
      <use xlink:href="#DejaVuSans-20" transform="translate(313.769531 0)"/>
      <use xlink:href="#DejaVuSans-73" transform="translate(345.556641 0)"/>
      <use xlink:href="#DejaVuSans-69" transform="translate(397.65625 0)"/>
      <use xlink:href="#DejaVuSans-7a" transform="translate(425.439453 0)"/>
      <use xlink:href="#DejaVuSans-65" transform="translate(477.929688 0)"/>
      <use xlink:href="#DejaVuSans-20" transform="translate(539.453125 0)"/>
      <use xlink:href="#DejaVuSans-2f" transform="translate(571.240234 0)"/>
      <use xlink:href="#DejaVuSans-20" transform="translate(604.931641 0)"/>
      <use xlink:href="#DejaVuSans-4e" transform="translate(636.71875 0)"/>
     </g>
    </g>
   </g>
   <g id="matplotlib.axis_4">
    <g id="ytick_11">
     <g id="line2d_32">
      <g>
       <use xlink:href="#m4c618d5ce0" x="394.265937" y="241.478125" style="stroke: #000000; stroke-width: 0.8"/>
      </g>
     </g>
     <g id="text_33">
      <!-- −0.5 -->
      <g transform="translate(362.983125 245.277344) scale(0.1 -0.1)">
       <use xlink:href="#DejaVuSans-2212"/>
       <use xlink:href="#DejaVuSans-30" transform="translate(83.789062 0)"/>
       <use xlink:href="#DejaVuSans-2e" transform="translate(147.412109 0)"/>
       <use xlink:href="#DejaVuSans-35" transform="translate(179.199219 0)"/>
      </g>
     </g>
    </g>
    <g id="ytick_12">
     <g id="line2d_33">
      <g>
       <use xlink:href="#m4c618d5ce0" x="394.265937" y="217.127014" style="stroke: #000000; stroke-width: 0.8"/>
      </g>
     </g>
     <g id="text_34">
      <!-- 0.0 -->
      <g transform="translate(371.362812 220.926233) scale(0.1 -0.1)">
       <use xlink:href="#DejaVuSans-30"/>
       <use xlink:href="#DejaVuSans-2e" transform="translate(63.623047 0)"/>
       <use xlink:href="#DejaVuSans-30" transform="translate(95.410156 0)"/>
      </g>
     </g>
    </g>
    <g id="ytick_13">
     <g id="line2d_34">
      <g>
       <use xlink:href="#m4c618d5ce0" x="394.265937" y="192.775903" style="stroke: #000000; stroke-width: 0.8"/>
      </g>
     </g>
     <g id="text_35">
      <!-- 0.5 -->
      <g transform="translate(371.362812 196.575122) scale(0.1 -0.1)">
       <use xlink:href="#DejaVuSans-30"/>
       <use xlink:href="#DejaVuSans-2e" transform="translate(63.623047 0)"/>
       <use xlink:href="#DejaVuSans-35" transform="translate(95.410156 0)"/>
      </g>
     </g>
    </g>
    <g id="ytick_14">
     <g id="line2d_35">
      <g>
       <use xlink:href="#m4c618d5ce0" x="394.265937" y="168.424792" style="stroke: #000000; stroke-width: 0.8"/>
      </g>
     </g>
     <g id="text_36">
      <!-- 1.0 -->
      <g transform="translate(371.362812 172.22401) scale(0.1 -0.1)">
       <use xlink:href="#DejaVuSans-31"/>
       <use xlink:href="#DejaVuSans-2e" transform="translate(63.623047 0)"/>
       <use xlink:href="#DejaVuSans-30" transform="translate(95.410156 0)"/>
      </g>
     </g>
    </g>
    <g id="ytick_15">
     <g id="line2d_36">
      <g>
       <use xlink:href="#m4c618d5ce0" x="394.265937" y="144.073681" style="stroke: #000000; stroke-width: 0.8"/>
      </g>
     </g>
     <g id="text_37">
      <!-- 1.5 -->
      <g transform="translate(371.362812 147.872899) scale(0.1 -0.1)">
       <use xlink:href="#DejaVuSans-31"/>
       <use xlink:href="#DejaVuSans-2e" transform="translate(63.623047 0)"/>
       <use xlink:href="#DejaVuSans-35" transform="translate(95.410156 0)"/>
      </g>
     </g>
    </g>
    <g id="ytick_16">
     <g id="line2d_37">
      <g>
       <use xlink:href="#m4c618d5ce0" x="394.265937" y="119.722569" style="stroke: #000000; stroke-width: 0.8"/>
      </g>
     </g>
     <g id="text_38">
      <!-- 2.0 -->
      <g transform="translate(371.362812 123.521788) scale(0.1 -0.1)">
       <use xlink:href="#DejaVuSans-32"/>
       <use xlink:href="#DejaVuSans-2e" transform="translate(63.623047 0)"/>
       <use xlink:href="#DejaVuSans-30" transform="translate(95.410156 0)"/>
      </g>
     </g>
    </g>
    <g id="ytick_17">
     <g id="line2d_38">
      <g>
       <use xlink:href="#m4c618d5ce0" x="394.265937" y="95.371458" style="stroke: #000000; stroke-width: 0.8"/>
      </g>
     </g>
     <g id="text_39">
      <!-- 2.5 -->
      <g transform="translate(371.362812 99.170677) scale(0.1 -0.1)">
       <use xlink:href="#DejaVuSans-32"/>
       <use xlink:href="#DejaVuSans-2e" transform="translate(63.623047 0)"/>
       <use xlink:href="#DejaVuSans-35" transform="translate(95.410156 0)"/>
      </g>
     </g>
    </g>
    <g id="ytick_18">
     <g id="line2d_39">
      <g>
       <use xlink:href="#m4c618d5ce0" x="394.265937" y="71.020347" style="stroke: #000000; stroke-width: 0.8"/>
      </g>
     </g>
     <g id="text_40">
      <!-- 3.0 -->
      <g transform="translate(371.362812 74.819566) scale(0.1 -0.1)">
       <use xlink:href="#DejaVuSans-33"/>
       <use xlink:href="#DejaVuSans-2e" transform="translate(63.623047 0)"/>
       <use xlink:href="#DejaVuSans-30" transform="translate(95.410156 0)"/>
      </g>
     </g>
    </g>
    <g id="ytick_19">
     <g id="line2d_40">
      <g>
       <use xlink:href="#m4c618d5ce0" x="394.265937" y="46.669236" style="stroke: #000000; stroke-width: 0.8"/>
      </g>
     </g>
     <g id="text_41">
      <!-- 3.5 -->
      <g transform="translate(371.362812 50.468455) scale(0.1 -0.1)">
       <use xlink:href="#DejaVuSans-33"/>
       <use xlink:href="#DejaVuSans-2e" transform="translate(63.623047 0)"/>
       <use xlink:href="#DejaVuSans-35" transform="translate(95.410156 0)"/>
      </g>
     </g>
    </g>
    <g id="ytick_20">
     <g id="line2d_41">
      <g>
       <use xlink:href="#m4c618d5ce0" x="394.265937" y="22.318125" style="stroke: #000000; stroke-width: 0.8"/>
      </g>
     </g>
     <g id="text_42">
      <!-- 4.0 -->
      <g transform="translate(371.362812 26.117344) scale(0.1 -0.1)">
       <use xlink:href="#DejaVuSans-34"/>
       <use xlink:href="#DejaVuSans-2e" transform="translate(63.623047 0)"/>
       <use xlink:href="#DejaVuSans-30" transform="translate(95.410156 0)"/>
      </g>
     </g>
    </g>
    <g id="text_43">
     <!-- Number of shuffles -->
     <g transform="translate(356.903437 179.514531) rotate(-90) scale(0.1 -0.1)">
      <use xlink:href="#DejaVuSans-4e"/>
      <use xlink:href="#DejaVuSans-75" transform="translate(74.804688 0)"/>
      <use xlink:href="#DejaVuSans-6d" transform="translate(138.183594 0)"/>
      <use xlink:href="#DejaVuSans-62" transform="translate(235.595703 0)"/>
      <use xlink:href="#DejaVuSans-65" transform="translate(299.072266 0)"/>
      <use xlink:href="#DejaVuSans-72" transform="translate(360.595703 0)"/>
      <use xlink:href="#DejaVuSans-20" transform="translate(401.708984 0)"/>
      <use xlink:href="#DejaVuSans-6f" transform="translate(433.496094 0)"/>
      <use xlink:href="#DejaVuSans-66" transform="translate(494.677734 0)"/>
      <use xlink:href="#DejaVuSans-20" transform="translate(529.882812 0)"/>
      <use xlink:href="#DejaVuSans-73" transform="translate(561.669922 0)"/>
      <use xlink:href="#DejaVuSans-68" transform="translate(613.769531 0)"/>
      <use xlink:href="#DejaVuSans-75" transform="translate(677.148438 0)"/>
      <use xlink:href="#DejaVuSans-66" transform="translate(740.527344 0)"/>
      <use xlink:href="#DejaVuSans-66" transform="translate(775.732422 0)"/>
      <use xlink:href="#DejaVuSans-6c" transform="translate(810.9375 0)"/>
      <use xlink:href="#DejaVuSans-65" transform="translate(838.720703 0)"/>
      <use xlink:href="#DejaVuSans-73" transform="translate(900.244141 0)"/>
     </g>
    </g>
   </g>
   <g id="line2d_42">
    <path d="M 405.397587 89.9601 
L 418.956234 94.830323 
L 432.51488 95.371458 
L 446.073527 89.689532 
L 459.632174 92.665779 
L 473.190821 90.230668 
L 486.749468 84.548742 
L 500.308115 95.371458 
L 513.866762 119.993137 
L 527.425409 123.239952 
L 540.984056 142.991409 
L 554.542703 155.978668 
L 568.10135 166.260248 
L 595.218644 191.693631 
L 622.335938 196.834421 
" clip-path="url(#p8249f0e77a)" style="fill: none; stroke: #de5d5c; stroke-width: 1.5; stroke-linecap: square"/>
    <g clip-path="url(#p8249f0e77a)">
     <use xlink:href="#md01a117752" x="405.397587" y="89.9601" style="fill: #de5d5c; stroke: #ffffff; stroke-width: 0.75"/>
     <use xlink:href="#md01a117752" x="418.956234" y="94.830323" style="fill: #de5d5c; stroke: #ffffff; stroke-width: 0.75"/>
     <use xlink:href="#md01a117752" x="432.51488" y="95.371458" style="fill: #de5d5c; stroke: #ffffff; stroke-width: 0.75"/>
     <use xlink:href="#md01a117752" x="446.073527" y="89.689532" style="fill: #de5d5c; stroke: #ffffff; stroke-width: 0.75"/>
     <use xlink:href="#md01a117752" x="459.632174" y="92.665779" style="fill: #de5d5c; stroke: #ffffff; stroke-width: 0.75"/>
     <use xlink:href="#md01a117752" x="473.190821" y="90.230668" style="fill: #de5d5c; stroke: #ffffff; stroke-width: 0.75"/>
     <use xlink:href="#md01a117752" x="486.749468" y="84.548742" style="fill: #de5d5c; stroke: #ffffff; stroke-width: 0.75"/>
     <use xlink:href="#md01a117752" x="500.308115" y="95.371458" style="fill: #de5d5c; stroke: #ffffff; stroke-width: 0.75"/>
     <use xlink:href="#md01a117752" x="513.866762" y="119.993137" style="fill: #de5d5c; stroke: #ffffff; stroke-width: 0.75"/>
     <use xlink:href="#md01a117752" x="527.425409" y="123.239952" style="fill: #de5d5c; stroke: #ffffff; stroke-width: 0.75"/>
     <use xlink:href="#md01a117752" x="540.984056" y="142.991409" style="fill: #de5d5c; stroke: #ffffff; stroke-width: 0.75"/>
     <use xlink:href="#md01a117752" x="554.542703" y="155.978668" style="fill: #de5d5c; stroke: #ffffff; stroke-width: 0.75"/>
     <use xlink:href="#md01a117752" x="568.10135" y="166.260248" style="fill: #de5d5c; stroke: #ffffff; stroke-width: 0.75"/>
     <use xlink:href="#md01a117752" x="595.218644" y="191.693631" style="fill: #de5d5c; stroke: #ffffff; stroke-width: 0.75"/>
     <use xlink:href="#md01a117752" x="622.335938" y="196.834421" style="fill: #de5d5c; stroke: #ffffff; stroke-width: 0.75"/>
    </g>
   </g>
   <g id="line2d_43">
    <path d="M 405.126414 141.909137 
L 418.956234 138.93289 
L 432.786053 132.709829 
L 445.802354 141.638569 
L 459.632174 154.625829 
L 473.461994 177.082965 
L 486.478295 194.940446 
L 500.308115 203.057483 
L 514.137935 211.445088 
L 527.154236 214.421335 
L 540.984056 216.044742 
L 554.813876 216.044742 
L 567.830177 217.127014 
L 595.489817 216.585878 
L 622.335938 214.962471 
" clip-path="url(#p8249f0e77a)" style="fill: none; stroke: #9a3670; stroke-width: 1.5; stroke-linecap: square"/>
    <g clip-path="url(#p8249f0e77a)">
     <use xlink:href="#m1df28d1e9c" x="405.126414" y="141.909137" style="fill: #9a3670; stroke: #ffffff; stroke-width: 0.75"/>
     <use xlink:href="#m1df28d1e9c" x="418.956234" y="138.93289" style="fill: #9a3670; stroke: #ffffff; stroke-width: 0.75"/>
     <use xlink:href="#m1df28d1e9c" x="432.786053" y="132.709829" style="fill: #9a3670; stroke: #ffffff; stroke-width: 0.75"/>
     <use xlink:href="#m1df28d1e9c" x="445.802354" y="141.638569" style="fill: #9a3670; stroke: #ffffff; stroke-width: 0.75"/>
     <use xlink:href="#m1df28d1e9c" x="459.632174" y="154.625829" style="fill: #9a3670; stroke: #ffffff; stroke-width: 0.75"/>
     <use xlink:href="#m1df28d1e9c" x="473.461994" y="177.082965" style="fill: #9a3670; stroke: #ffffff; stroke-width: 0.75"/>
     <use xlink:href="#m1df28d1e9c" x="486.478295" y="194.940446" style="fill: #9a3670; stroke: #ffffff; stroke-width: 0.75"/>
     <use xlink:href="#m1df28d1e9c" x="500.308115" y="203.057483" style="fill: #9a3670; stroke: #ffffff; stroke-width: 0.75"/>
     <use xlink:href="#m1df28d1e9c" x="514.137935" y="211.445088" style="fill: #9a3670; stroke: #ffffff; stroke-width: 0.75"/>
     <use xlink:href="#m1df28d1e9c" x="527.154236" y="214.421335" style="fill: #9a3670; stroke: #ffffff; stroke-width: 0.75"/>
     <use xlink:href="#m1df28d1e9c" x="540.984056" y="216.044742" style="fill: #9a3670; stroke: #ffffff; stroke-width: 0.75"/>
     <use xlink:href="#m1df28d1e9c" x="554.813876" y="216.044742" style="fill: #9a3670; stroke: #ffffff; stroke-width: 0.75"/>
     <use xlink:href="#m1df28d1e9c" x="567.830177" y="217.127014" style="fill: #9a3670; stroke: #ffffff; stroke-width: 0.75"/>
     <use xlink:href="#m1df28d1e9c" x="595.489817" y="216.585878" style="fill: #9a3670; stroke: #ffffff; stroke-width: 0.75"/>
     <use xlink:href="#m1df28d1e9c" x="622.335938" y="214.962471" style="fill: #9a3670; stroke: #ffffff; stroke-width: 0.75"/>
    </g>
   </g>
   <g id="line2d_44"/>
   <g id="line2d_45"/>
   <g id="line2d_46">
    <path d="M 519.362414 241.478125 
L 519.362414 22.318125 
" clip-path="url(#p8249f0e77a)" style="fill: none; stroke-dasharray: 5.55,2.4; stroke-dashoffset: 0; stroke: #de5d5c; stroke-width: 1.5"/>
   </g>
   <g id="line2d_47">
    <path d="M 463.18442 241.478125 
L 463.18442 22.318125 
" clip-path="url(#p8249f0e77a)" style="fill: none; stroke-dasharray: 5.55,2.4; stroke-dashoffset: 0; stroke: #9a3670; stroke-width: 1.5"/>
   </g>
   <g id="patch_9">
    <path d="M 394.265937 241.478125 
L 394.265937 22.318125 
" style="fill: none; stroke: #000000; stroke-width: 0.8; stroke-linejoin: miter; stroke-linecap: square"/>
   </g>
   <g id="patch_10">
    <path d="M 622.335938 241.478125 
L 622.335938 22.318125 
" style="fill: none; stroke: #000000; stroke-width: 0.8; stroke-linejoin: miter; stroke-linecap: square"/>
   </g>
   <g id="patch_11">
    <path d="M 394.265937 241.478125 
L 622.335938 241.478125 
" style="fill: none; stroke: #000000; stroke-width: 0.8; stroke-linejoin: miter; stroke-linecap: square"/>
   </g>
   <g id="patch_12">
    <path d="M 394.265937 22.318125 
L 622.335938 22.318125 
" style="fill: none; stroke: #000000; stroke-width: 0.8; stroke-linejoin: miter; stroke-linecap: square"/>
   </g>
   <g id="text_44">
    <!-- K₀ -->
    <g style="fill: #de5d5c" transform="translate(523.430008 82.418003) scale(0.15 -0.15)">
     <use xlink:href="#DejaVuSans-4b"/>
     <use xlink:href="#DejaVuSans-2080" transform="translate(65.576172 0)"/>
    </g>
   </g>
   <g id="text_45">
    <!-- K₀ -->
    <g style="fill: #9a3670" transform="translate(467.252014 82.418003) scale(0.15 -0.15)">
     <use xlink:href="#DejaVuSans-4b"/>
     <use xlink:href="#DejaVuSans-2080" transform="translate(65.576172 0)"/>
    </g>
   </g>
   <g id="text_46">
    <!-- Number of shuffles as a function of K / N -->
    <g transform="translate(386.596563 16.318125) scale(0.12 -0.12)">
     <use xlink:href="#DejaVuSans-4e"/>
     <use xlink:href="#DejaVuSans-75" transform="translate(74.804688 0)"/>
     <use xlink:href="#DejaVuSans-6d" transform="translate(138.183594 0)"/>
     <use xlink:href="#DejaVuSans-62" transform="translate(235.595703 0)"/>
     <use xlink:href="#DejaVuSans-65" transform="translate(299.072266 0)"/>
     <use xlink:href="#DejaVuSans-72" transform="translate(360.595703 0)"/>
     <use xlink:href="#DejaVuSans-20" transform="translate(401.708984 0)"/>
     <use xlink:href="#DejaVuSans-6f" transform="translate(433.496094 0)"/>
     <use xlink:href="#DejaVuSans-66" transform="translate(494.677734 0)"/>
     <use xlink:href="#DejaVuSans-20" transform="translate(529.882812 0)"/>
     <use xlink:href="#DejaVuSans-73" transform="translate(561.669922 0)"/>
     <use xlink:href="#DejaVuSans-68" transform="translate(613.769531 0)"/>
     <use xlink:href="#DejaVuSans-75" transform="translate(677.148438 0)"/>
     <use xlink:href="#DejaVuSans-66" transform="translate(740.527344 0)"/>
     <use xlink:href="#DejaVuSans-66" transform="translate(775.732422 0)"/>
     <use xlink:href="#DejaVuSans-6c" transform="translate(810.9375 0)"/>
     <use xlink:href="#DejaVuSans-65" transform="translate(838.720703 0)"/>
     <use xlink:href="#DejaVuSans-73" transform="translate(900.244141 0)"/>
     <use xlink:href="#DejaVuSans-20" transform="translate(952.34375 0)"/>
     <use xlink:href="#DejaVuSans-61" transform="translate(984.130859 0)"/>
     <use xlink:href="#DejaVuSans-73" transform="translate(1045.410156 0)"/>
     <use xlink:href="#DejaVuSans-20" transform="translate(1097.509766 0)"/>
     <use xlink:href="#DejaVuSans-61" transform="translate(1129.296875 0)"/>
     <use xlink:href="#DejaVuSans-20" transform="translate(1190.576172 0)"/>
     <use xlink:href="#DejaVuSans-66" transform="translate(1222.363281 0)"/>
     <use xlink:href="#DejaVuSans-75" transform="translate(1257.568359 0)"/>
     <use xlink:href="#DejaVuSans-6e" transform="translate(1320.947266 0)"/>
     <use xlink:href="#DejaVuSans-63" transform="translate(1384.326172 0)"/>
     <use xlink:href="#DejaVuSans-74" transform="translate(1439.306641 0)"/>
     <use xlink:href="#DejaVuSans-69" transform="translate(1478.515625 0)"/>
     <use xlink:href="#DejaVuSans-6f" transform="translate(1506.298828 0)"/>
     <use xlink:href="#DejaVuSans-6e" transform="translate(1567.480469 0)"/>
     <use xlink:href="#DejaVuSans-20" transform="translate(1630.859375 0)"/>
     <use xlink:href="#DejaVuSans-6f" transform="translate(1662.646484 0)"/>
     <use xlink:href="#DejaVuSans-66" transform="translate(1723.828125 0)"/>
     <use xlink:href="#DejaVuSans-20" transform="translate(1759.033203 0)"/>
     <use xlink:href="#DejaVuSans-4b" transform="translate(1790.820312 0)"/>
     <use xlink:href="#DejaVuSans-20" transform="translate(1856.396484 0)"/>
     <use xlink:href="#DejaVuSans-2f" transform="translate(1888.183594 0)"/>
     <use xlink:href="#DejaVuSans-20" transform="translate(1921.875 0)"/>
     <use xlink:href="#DejaVuSans-4e" transform="translate(1953.662109 0)"/>
    </g>
   </g>
   <g id="legend_2">
    <g id="patch_13">
     <path d="M 557.885937 74.3525 
L 615.335938 74.3525 
Q 617.335938 74.3525 617.335938 72.3525 
L 617.335938 29.318125 
Q 617.335938 27.318125 615.335938 27.318125 
L 557.885937 27.318125 
Q 555.885937 27.318125 555.885937 29.318125 
L 555.885937 72.3525 
Q 555.885937 74.3525 557.885937 74.3525 
z
" style="fill: #ffffff; opacity: 0.8; stroke: #cccccc; stroke-linejoin: miter"/>
    </g>
    <g id="text_47">
     <!-- N -->
     <g transform="translate(582.870312 38.916563) scale(0.1 -0.1)">
      <use xlink:href="#DejaVuSans-4e"/>
     </g>
    </g>
    <g id="line2d_48">
     <path d="M 559.885937 50.094688 
L 569.885937 50.094688 
L 579.885937 50.094688 
" style="fill: none; stroke: #de5d5c; stroke-width: 1.5; stroke-linecap: square"/>
     <g>
      <use xlink:href="#md01a117752" x="569.885937" y="50.094688" style="fill: #de5d5c; stroke: #ffffff; stroke-width: 0.75"/>
     </g>
    </g>
    <g id="text_48">
     <!-- 300 -->
     <g transform="translate(587.885937 53.594688) scale(0.1 -0.1)">
      <use xlink:href="#DejaVuSans-33"/>
      <use xlink:href="#DejaVuSans-30" transform="translate(63.623047 0)"/>
      <use xlink:href="#DejaVuSans-30" transform="translate(127.246094 0)"/>
     </g>
    </g>
    <g id="line2d_49">
     <path d="M 559.885937 64.772813 
L 569.885937 64.772813 
L 579.885937 64.772813 
" style="fill: none; stroke: #9a3670; stroke-width: 1.5; stroke-linecap: square"/>
     <g>
      <use xlink:href="#m1df28d1e9c" x="569.885937" y="64.772813" style="fill: #9a3670; stroke: #ffffff; stroke-width: 0.75"/>
     </g>
    </g>
    <g id="text_49">
     <!-- 1000 -->
     <g transform="translate(587.885937 68.272813) scale(0.1 -0.1)">
      <use xlink:href="#DejaVuSans-31"/>
      <use xlink:href="#DejaVuSans-30" transform="translate(63.623047 0)"/>
      <use xlink:href="#DejaVuSans-30" transform="translate(127.246094 0)"/>
      <use xlink:href="#DejaVuSans-30" transform="translate(190.869141 0)"/>
     </g>
    </g>
   </g>
  </g>
 </g>
 <defs>
  <clipPath id="pb9ba459efc">
   <rect x="52.160938" y="22.318125" width="228.07" height="219.16"/>
  </clipPath>
  <clipPath id="p8249f0e77a">
   <rect x="394.265937" y="22.318125" width="228.07" height="219.16"/>
  </clipPath>
 </defs>
</svg>
