<?xml version="1.0" encoding="utf-8" standalone="no"?>
<!DOCTYPE svg PUBLIC "-//W3C//DTD SVG 1.1//EN"
  "http://www.w3.org/Graphics/SVG/1.1/DTD/svg11.dtd">
<svg xmlns:xlink="http://www.w3.org/1999/xlink" width="611.166875pt" height="395.969687pt" viewBox="0 0 611.166875 395.969687" xmlns="http://www.w3.org/2000/svg" version="1.1">
 <metadata>
  <rdf:RDF xmlns:dc="http://purl.org/dc/elements/1.1/" xmlns:cc="http://creativecommons.org/ns#" xmlns:rdf="http://www.w3.org/1999/02/22-rdf-syntax-ns#">
   <cc:Work>
    <dc:type rdf:resource="http://purl.org/dc/dcmitype/StillImage"/>
    <dc:date>2025-03-06T18:45:27.916718</dc:date>
    <dc:format>image/svg+xml</dc:format>
    <dc:creator>
     <cc:Agent>
      <dc:title>Matplotlib v3.8.4, https://matplotlib.org/</dc:title>
     </cc:Agent>
    </dc:creator>
   </cc:Work>
  </rdf:RDF>
 </metadata>
 <defs>
  <style type="text/css">*{stroke-linejoin: round; stroke-linecap: butt}</style>
 </defs>
 <g id="figure_1">
  <g id="patch_1">
   <path d="M 0 395.969687 
L 611.166875 395.969687 
L 611.166875 0 
L 0 0 
z
" style="fill: #ffffff"/>
  </g>
  <g id="axes_1">
   <g id="patch_2">
    <path d="M 48.90125 356.477812 
L 495.30125 356.477812 
L 495.30125 23.837812 
L 48.90125 23.837812 
z
" style="fill: #ffffff"/>
   </g>
   <g id="PathCollection_1">
    <defs>
     <path id="C0_0_bcaf8c5e1a" d="M 0 3.535534 
C 0.937635 3.535534 1.836992 3.163008 2.5 2.5 
C 3.163008 1.836992 3.535534 0.937635 3.535534 -0 
C 3.535534 -0.937635 3.163008 -1.836992 2.5 -2.5 
C 1.836992 -3.163008 0.937635 -3.535534 0 -3.535534 
C -0.937635 -3.535534 -1.836992 -3.163008 -2.5 -2.5 
C -3.163008 -1.836992 -3.535534 -0.937635 -3.535534 0 
C -3.535534 0.937635 -3.163008 1.836992 -2.5 2.5 
C -1.836992 3.163008 -0.937635 3.535534 0 3.535534 
z
"/>
    </defs>
    <g clip-path="url(#p5025b653f0)">
     <use xlink:href="#C0_0_bcaf8c5e1a" x="62.289518" y="336.212054" style="fill: #97ff00; stroke: #ffffff; stroke-width: 0.565685"/>
    </g>
    <g clip-path="url(#p5025b653f0)">
     <use xlink:href="#C0_0_bcaf8c5e1a" x="61.306902" y="319.003127" style="fill: #d60000; stroke: #ffffff; stroke-width: 0.565685"/>
    </g>
    <g clip-path="url(#p5025b653f0)">
     <use xlink:href="#C0_0_bcaf8c5e1a" x="67.386076" y="324.938513" style="fill: #018700; stroke: #ffffff; stroke-width: 0.565685"/>
    </g>
    <g clip-path="url(#p5025b653f0)">
     <use xlink:href="#C0_0_bcaf8c5e1a" x="65.082951" y="304.356865" style="fill: #8c3bff; stroke: #ffffff; stroke-width: 0.565685"/>
    </g>
   </g>
   <g id="PathCollection_2">
    <defs>
     <path id="C1_0_a1f79b63bd" d="M 0 3.535534 
C 0.937635 3.535534 1.836992 3.163008 2.5 2.5 
C 3.163008 1.836992 3.535534 0.937635 3.535534 -0 
C 3.535534 -0.937635 3.163008 -1.836992 2.5 -2.5 
C 1.836992 -3.163008 0.937635 -3.535534 0 -3.535534 
C -0.937635 -3.535534 -1.836992 -3.163008 -2.5 -2.5 
C -3.163008 -1.836992 -3.535534 -0.937635 -3.535534 0 
C -3.535534 0.937635 -3.163008 1.836992 -2.5 2.5 
C -1.836992 3.163008 -0.937635 3.535534 0 3.535534 
z
"/>
    </defs>
    <g clip-path="url(#p5025b653f0)">
     <use xlink:href="#C1_0_a1f79b63bd" x="471.846787" y="120.196385" style="fill: #97ff00; stroke: #ffffff; stroke-width: 0.565685"/>
    </g>
    <g clip-path="url(#p5025b653f0)">
     <use xlink:href="#C1_0_a1f79b63bd" x="471.96232" y="59.994254" style="fill: #d60000; stroke: #ffffff; stroke-width: 0.565685"/>
    </g>
    <g clip-path="url(#p5025b653f0)">
     <use xlink:href="#C1_0_a1f79b63bd" x="471.239452" y="103.09396" style="fill: #018700; stroke: #ffffff; stroke-width: 0.565685"/>
    </g>
    <g clip-path="url(#p5025b653f0)">
     <use xlink:href="#C1_0_a1f79b63bd" x="472.984281" y="108.050425" style="fill: #8c3bff; stroke: #ffffff; stroke-width: 0.565685"/>
    </g>
   </g>
   <g id="PathCollection_3">
    <defs>
     <path id="C2_0_a8432ee317" d="M 0 3.535534 
C 0.937635 3.535534 1.836992 3.163008 2.5 2.5 
C 3.163008 1.836992 3.535534 0.937635 3.535534 -0 
C 3.535534 -0.937635 3.163008 -1.836992 2.5 -2.5 
C 1.836992 -3.163008 0.937635 -3.535534 0 -3.535534 
C -0.937635 -3.535534 -1.836992 -3.163008 -2.5 -2.5 
C -3.163008 -1.836992 -3.535534 -0.937635 -3.535534 0 
C -3.535534 0.937635 -3.163008 1.836992 -2.5 2.5 
C -1.836992 3.163008 -0.937635 3.535534 0 3.535534 
z
"/>
    </defs>
    <g clip-path="url(#p5025b653f0)">
     <use xlink:href="#C2_0_a8432ee317" x="85.18614" y="309.248302" style="fill: #97ff00; stroke: #ffffff; stroke-width: 0.565685"/>
    </g>
    <g clip-path="url(#p5025b653f0)">
     <use xlink:href="#C2_0_a8432ee317" x="82.273839" y="277.113483" style="fill: #d60000; stroke: #ffffff; stroke-width: 0.565685"/>
    </g>
    <g clip-path="url(#p5025b653f0)">
     <use xlink:href="#C2_0_a8432ee317" x="79.459746" y="299.603249" style="fill: #018700; stroke: #ffffff; stroke-width: 0.565685"/>
    </g>
    <g clip-path="url(#p5025b653f0)">
     <use xlink:href="#C2_0_a8432ee317" x="84.762495" y="284.576342" style="fill: #8c3bff; stroke: #ffffff; stroke-width: 0.565685"/>
    </g>
   </g>
   <g id="PathCollection_4">
    <defs>
     <path id="C3_0_870d7f0f45" d="M 0 3.535534 
C 0.937635 3.535534 1.836992 3.163008 2.5 2.5 
C 3.163008 1.836992 3.535534 0.937635 3.535534 -0 
C 3.535534 -0.937635 3.163008 -1.836992 2.5 -2.5 
C 1.836992 -3.163008 0.937635 -3.535534 0 -3.535534 
C -0.937635 -3.535534 -1.836992 -3.163008 -2.5 -2.5 
C -3.163008 -1.836992 -3.535534 -0.937635 -3.535534 0 
C -3.535534 0.937635 -3.163008 1.836992 -2.5 2.5 
C -1.836992 3.163008 -0.937635 3.535534 0 3.535534 
z
"/>
    </defs>
    <g clip-path="url(#p5025b653f0)">
     <use xlink:href="#C3_0_870d7f0f45" x="99.577705" y="254.360386" style="fill: #d60000; stroke: #ffffff; stroke-width: 0.565685"/>
    </g>
    <g clip-path="url(#p5025b653f0)">
     <use xlink:href="#C3_0_870d7f0f45" x="104.450754" y="276.149836" style="fill: #018700; stroke: #ffffff; stroke-width: 0.565685"/>
    </g>
    <g clip-path="url(#p5025b653f0)">
     <use xlink:href="#C3_0_870d7f0f45" x="99.694104" y="265.353369" style="fill: #8c3bff; stroke: #ffffff; stroke-width: 0.565685"/>
    </g>
   </g>
   <g id="PathCollection_5">
    <defs>
     <path id="C4_0_fe47eaa9ee" d="M 0 3.535534 
C 0.937635 3.535534 1.836992 3.163008 2.5 2.5 
C 3.163008 1.836992 3.535534 0.937635 3.535534 -0 
C 3.535534 -0.937635 3.163008 -1.836992 2.5 -2.5 
C 1.836992 -3.163008 0.937635 -3.535534 0 -3.535534 
C -0.937635 -3.535534 -1.836992 -3.163008 -2.5 -2.5 
C -3.163008 -1.836992 -3.535534 -0.937635 -3.535534 0 
C -3.535534 0.937635 -3.163008 1.836992 -2.5 2.5 
C -1.836992 3.163008 -0.937635 3.535534 0 3.535534 
z
"/>
    </defs>
    <g clip-path="url(#p5025b653f0)">
     <use xlink:href="#C4_0_fe47eaa9ee" x="141.248197" y="212.700442" style="fill: #d60000; stroke: #ffffff; stroke-width: 0.565685"/>
    </g>
    <g clip-path="url(#p5025b653f0)">
     <use xlink:href="#C4_0_fe47eaa9ee" x="140.529184" y="247.763884" style="fill: #018700; stroke: #ffffff; stroke-width: 0.565685"/>
    </g>
    <g clip-path="url(#p5025b653f0)">
     <use xlink:href="#C4_0_fe47eaa9ee" x="138.250945" y="238.637846" style="fill: #8c3bff; stroke: #ffffff; stroke-width: 0.565685"/>
    </g>
   </g>
   <g id="PathCollection_6">
    <defs>
     <path id="C5_0_91c748b843" d="M 0 3.535534 
C 0.937635 3.535534 1.836992 3.163008 2.5 2.5 
C 3.163008 1.836992 3.535534 0.937635 3.535534 -0 
C 3.535534 -0.937635 3.163008 -1.836992 2.5 -2.5 
C 1.836992 -3.163008 0.937635 -3.535534 0 -3.535534 
C -0.937635 -3.535534 -1.836992 -3.163008 -2.5 -2.5 
C -3.163008 -1.836992 -3.535534 -0.937635 -3.535534 0 
C -3.535534 0.937635 -3.163008 1.836992 -2.5 2.5 
C -1.836992 3.163008 -0.937635 3.535534 0 3.535534 
z
"/>
    </defs>
    <g clip-path="url(#p5025b653f0)">
     <use xlink:href="#C5_0_91c748b843" x="178.285879" y="187.536053" style="fill: #d60000; stroke: #ffffff; stroke-width: 0.565685"/>
    </g>
    <g clip-path="url(#p5025b653f0)">
     <use xlink:href="#C5_0_91c748b843" x="172.524852" y="221.632641" style="fill: #018700; stroke: #ffffff; stroke-width: 0.565685"/>
    </g>
    <g clip-path="url(#p5025b653f0)">
     <use xlink:href="#C5_0_91c748b843" x="178.635131" y="216.571767" style="fill: #8c3bff; stroke: #ffffff; stroke-width: 0.565685"/>
    </g>
   </g>
   <g id="PathCollection_7">
    <defs>
     <path id="C6_0_7584f9d012" d="M 0 3.535534 
C 0.937635 3.535534 1.836992 3.163008 2.5 2.5 
C 3.163008 1.836992 3.535534 0.937635 3.535534 -0 
C 3.535534 -0.937635 3.163008 -1.836992 2.5 -2.5 
C 1.836992 -3.163008 0.937635 -3.535534 0 -3.535534 
C -0.937635 -3.535534 -1.836992 -3.163008 -2.5 -2.5 
C -3.163008 -1.836992 -3.535534 -0.937635 -3.535534 0 
C -3.535534 0.937635 -3.163008 1.836992 -2.5 2.5 
C -1.836992 3.163008 -0.937635 3.535534 0 3.535534 
z
"/>
    </defs>
    <g clip-path="url(#p5025b653f0)">
     <use xlink:href="#C6_0_7584f9d012" x="203.303139" y="223.241026" style="fill: #97ff00; stroke: #ffffff; stroke-width: 0.565685"/>
    </g>
    <g clip-path="url(#p5025b653f0)">
     <use xlink:href="#C6_0_7584f9d012" x="208.659082" y="167.734184" style="fill: #d60000; stroke: #ffffff; stroke-width: 0.565685"/>
    </g>
    <g clip-path="url(#p5025b653f0)">
     <use xlink:href="#C6_0_7584f9d012" x="201.876293" y="202.347851" style="fill: #018700; stroke: #ffffff; stroke-width: 0.565685"/>
    </g>
    <g clip-path="url(#p5025b653f0)">
     <use xlink:href="#C6_0_7584f9d012" x="204.607121" y="203.829522" style="fill: #8c3bff; stroke: #ffffff; stroke-width: 0.565685"/>
    </g>
   </g>
   <g id="PathCollection_8">
    <defs>
     <path id="C7_0_6afa56898d" d="M 0 3.535534 
C 0.937635 3.535534 1.836992 3.163008 2.5 2.5 
C 3.163008 1.836992 3.535534 0.937635 3.535534 -0 
C 3.535534 -0.937635 3.163008 -1.836992 2.5 -2.5 
C 1.836992 -3.163008 0.937635 -3.535534 0 -3.535534 
C -0.937635 -3.535534 -1.836992 -3.163008 -2.5 -2.5 
C -3.163008 -1.836992 -3.535534 -0.937635 -3.535534 0 
C -3.535534 0.937635 -3.163008 1.836992 -2.5 2.5 
C -1.836992 3.163008 -0.937635 3.535534 0 3.535534 
z
"/>
    </defs>
    <g clip-path="url(#p5025b653f0)">
     <use xlink:href="#C7_0_6afa56898d" x="246.468792" y="205.781436" style="fill: #97ff00; stroke: #ffffff; stroke-width: 0.565685"/>
    </g>
    <g clip-path="url(#p5025b653f0)">
     <use xlink:href="#C7_0_6afa56898d" x="248.221535" y="147.974106" style="fill: #d60000; stroke: #ffffff; stroke-width: 0.565685"/>
    </g>
    <g clip-path="url(#p5025b653f0)">
     <use xlink:href="#C7_0_6afa56898d" x="252.575377" y="191.764757" style="fill: #018700; stroke: #ffffff; stroke-width: 0.565685"/>
    </g>
    <g clip-path="url(#p5025b653f0)">
     <use xlink:href="#C7_0_6afa56898d" x="250.5009" y="188.863725" style="fill: #8c3bff; stroke: #ffffff; stroke-width: 0.565685"/>
    </g>
   </g>
   <g id="PathCollection_9">
    <defs>
     <path id="C8_0_cfced11e8b" d="M 0 3.535534 
C 0.937635 3.535534 1.836992 3.163008 2.5 2.5 
C 3.163008 1.836992 3.535534 0.937635 3.535534 -0 
C 3.535534 -0.937635 3.163008 -1.836992 2.5 -2.5 
C 1.836992 -3.163008 0.937635 -3.535534 0 -3.535534 
C -0.937635 -3.535534 -1.836992 -3.163008 -2.5 -2.5 
C -3.163008 -1.836992 -3.535534 -0.937635 -3.535534 0 
C -3.535534 0.937635 -3.163008 1.836992 -2.5 2.5 
C -1.836992 3.163008 -0.937635 3.535534 0 3.535534 
z
"/>
    </defs>
    <g clip-path="url(#p5025b653f0)">
     <use xlink:href="#C8_0_cfced11e8b" x="323.698044" y="205.909547" style="fill: #97ff00; stroke: #ffffff; stroke-width: 0.565685"/>
    </g>
    <g clip-path="url(#p5025b653f0)">
     <use xlink:href="#C8_0_cfced11e8b" x="320.887881" y="116.880273" style="fill: #d60000; stroke: #ffffff; stroke-width: 0.565685"/>
    </g>
    <g clip-path="url(#p5025b653f0)">
     <use xlink:href="#C8_0_cfced11e8b" x="326.01074" y="149.623309" style="fill: #018700; stroke: #ffffff; stroke-width: 0.565685"/>
    </g>
    <g clip-path="url(#p5025b653f0)">
     <use xlink:href="#C8_0_cfced11e8b" x="325.663036" y="154.299914" style="fill: #8c3bff; stroke: #ffffff; stroke-width: 0.565685"/>
    </g>
   </g>
   <g id="matplotlib.axis_1">
    <g id="xtick_1">
     <g id="line2d_1">
      <defs>
       <path id="m1ff01b0778" d="M 0 0 
L 0 3.5 
" style="stroke: #000000; stroke-width: 0.8"/>
      </defs>
      <g>
       <use xlink:href="#m1ff01b0778" x="100.919414" y="356.477812" style="stroke: #000000; stroke-width: 0.8"/>
      </g>
     </g>
     <g id="text_1">
      <!-- 200 -->
      <g transform="translate(91.375664 371.07625) scale(0.1 -0.1)">
       <defs>
        <path id="DejaVuSans-32" d="M 1228 531 
L 3431 531 
L 3431 0 
L 469 0 
L 469 531 
Q 828 903 1448 1529 
Q 2069 2156 2228 2338 
Q 2531 2678 2651 2914 
Q 2772 3150 2772 3378 
Q 2772 3750 2511 3984 
Q 2250 4219 1831 4219 
Q 1534 4219 1204 4116 
Q 875 4013 500 3803 
L 500 4441 
Q 881 4594 1212 4672 
Q 1544 4750 1819 4750 
Q 2544 4750 2975 4387 
Q 3406 4025 3406 3419 
Q 3406 3131 3298 2873 
Q 3191 2616 2906 2266 
Q 2828 2175 2409 1742 
Q 1991 1309 1228 531 
z
" transform="scale(0.015625)"/>
        <path id="DejaVuSans-30" d="M 2034 4250 
Q 1547 4250 1301 3770 
Q 1056 3291 1056 2328 
Q 1056 1369 1301 889 
Q 1547 409 2034 409 
Q 2525 409 2770 889 
Q 3016 1369 3016 2328 
Q 3016 3291 2770 3770 
Q 2525 4250 2034 4250 
z
M 2034 4750 
Q 2819 4750 3233 4129 
Q 3647 3509 3647 2328 
Q 3647 1150 3233 529 
Q 2819 -91 2034 -91 
Q 1250 -91 836 529 
Q 422 1150 422 2328 
Q 422 3509 836 4129 
Q 1250 4750 2034 4750 
z
" transform="scale(0.015625)"/>
       </defs>
       <use xlink:href="#DejaVuSans-32"/>
       <use xlink:href="#DejaVuSans-30" x="63.623047"/>
       <use xlink:href="#DejaVuSans-30" x="127.246094"/>
      </g>
     </g>
    </g>
    <g id="xtick_2">
     <g id="line2d_2">
      <g>
       <use xlink:href="#m1ff01b0778" x="175.231077" y="356.477812" style="stroke: #000000; stroke-width: 0.8"/>
      </g>
     </g>
     <g id="text_2">
      <!-- 400 -->
      <g transform="translate(165.687327 371.07625) scale(0.1 -0.1)">
       <defs>
        <path id="DejaVuSans-34" d="M 2419 4116 
L 825 1625 
L 2419 1625 
L 2419 4116 
z
M 2253 4666 
L 3047 4666 
L 3047 1625 
L 3713 1625 
L 3713 1100 
L 3047 1100 
L 3047 0 
L 2419 0 
L 2419 1100 
L 313 1100 
L 313 1709 
L 2253 4666 
z
" transform="scale(0.015625)"/>
       </defs>
       <use xlink:href="#DejaVuSans-34"/>
       <use xlink:href="#DejaVuSans-30" x="63.623047"/>
       <use xlink:href="#DejaVuSans-30" x="127.246094"/>
      </g>
     </g>
    </g>
    <g id="xtick_3">
     <g id="line2d_3">
      <g>
       <use xlink:href="#m1ff01b0778" x="249.542739" y="356.477812" style="stroke: #000000; stroke-width: 0.8"/>
      </g>
     </g>
     <g id="text_3">
      <!-- 600 -->
      <g transform="translate(239.998989 371.07625) scale(0.1 -0.1)">
       <defs>
        <path id="DejaVuSans-36" d="M 2113 2584 
Q 1688 2584 1439 2293 
Q 1191 2003 1191 1497 
Q 1191 994 1439 701 
Q 1688 409 2113 409 
Q 2538 409 2786 701 
Q 3034 994 3034 1497 
Q 3034 2003 2786 2293 
Q 2538 2584 2113 2584 
z
M 3366 4563 
L 3366 3988 
Q 3128 4100 2886 4159 
Q 2644 4219 2406 4219 
Q 1781 4219 1451 3797 
Q 1122 3375 1075 2522 
Q 1259 2794 1537 2939 
Q 1816 3084 2150 3084 
Q 2853 3084 3261 2657 
Q 3669 2231 3669 1497 
Q 3669 778 3244 343 
Q 2819 -91 2113 -91 
Q 1303 -91 875 529 
Q 447 1150 447 2328 
Q 447 3434 972 4092 
Q 1497 4750 2381 4750 
Q 2619 4750 2861 4703 
Q 3103 4656 3366 4563 
z
" transform="scale(0.015625)"/>
       </defs>
       <use xlink:href="#DejaVuSans-36"/>
       <use xlink:href="#DejaVuSans-30" x="63.623047"/>
       <use xlink:href="#DejaVuSans-30" x="127.246094"/>
      </g>
     </g>
    </g>
    <g id="xtick_4">
     <g id="line2d_4">
      <g>
       <use xlink:href="#m1ff01b0778" x="323.854402" y="356.477812" style="stroke: #000000; stroke-width: 0.8"/>
      </g>
     </g>
     <g id="text_4">
      <!-- 800 -->
      <g transform="translate(314.310652 371.07625) scale(0.1 -0.1)">
       <defs>
        <path id="DejaVuSans-38" d="M 2034 2216 
Q 1584 2216 1326 1975 
Q 1069 1734 1069 1313 
Q 1069 891 1326 650 
Q 1584 409 2034 409 
Q 2484 409 2743 651 
Q 3003 894 3003 1313 
Q 3003 1734 2745 1975 
Q 2488 2216 2034 2216 
z
M 1403 2484 
Q 997 2584 770 2862 
Q 544 3141 544 3541 
Q 544 4100 942 4425 
Q 1341 4750 2034 4750 
Q 2731 4750 3128 4425 
Q 3525 4100 3525 3541 
Q 3525 3141 3298 2862 
Q 3072 2584 2669 2484 
Q 3125 2378 3379 2068 
Q 3634 1759 3634 1313 
Q 3634 634 3220 271 
Q 2806 -91 2034 -91 
Q 1263 -91 848 271 
Q 434 634 434 1313 
Q 434 1759 690 2068 
Q 947 2378 1403 2484 
z
M 1172 3481 
Q 1172 3119 1398 2916 
Q 1625 2713 2034 2713 
Q 2441 2713 2670 2916 
Q 2900 3119 2900 3481 
Q 2900 3844 2670 4047 
Q 2441 4250 2034 4250 
Q 1625 4250 1398 4047 
Q 1172 3844 1172 3481 
z
" transform="scale(0.015625)"/>
       </defs>
       <use xlink:href="#DejaVuSans-38"/>
       <use xlink:href="#DejaVuSans-30" x="63.623047"/>
       <use xlink:href="#DejaVuSans-30" x="127.246094"/>
      </g>
     </g>
    </g>
    <g id="xtick_5">
     <g id="line2d_5">
      <g>
       <use xlink:href="#m1ff01b0778" x="398.166065" y="356.477812" style="stroke: #000000; stroke-width: 0.8"/>
      </g>
     </g>
     <g id="text_5">
      <!-- 1000 -->
      <g transform="translate(385.441065 371.07625) scale(0.1 -0.1)">
       <defs>
        <path id="DejaVuSans-31" d="M 794 531 
L 1825 531 
L 1825 4091 
L 703 3866 
L 703 4441 
L 1819 4666 
L 2450 4666 
L 2450 531 
L 3481 531 
L 3481 0 
L 794 0 
L 794 531 
z
" transform="scale(0.015625)"/>
       </defs>
       <use xlink:href="#DejaVuSans-31"/>
       <use xlink:href="#DejaVuSans-30" x="63.623047"/>
       <use xlink:href="#DejaVuSans-30" x="127.246094"/>
       <use xlink:href="#DejaVuSans-30" x="190.869141"/>
      </g>
     </g>
    </g>
    <g id="xtick_6">
     <g id="line2d_6">
      <g>
       <use xlink:href="#m1ff01b0778" x="472.477728" y="356.477812" style="stroke: #000000; stroke-width: 0.8"/>
      </g>
     </g>
     <g id="text_6">
      <!-- 1200 -->
      <g transform="translate(459.752728 371.07625) scale(0.1 -0.1)">
       <use xlink:href="#DejaVuSans-31"/>
       <use xlink:href="#DejaVuSans-32" x="63.623047"/>
       <use xlink:href="#DejaVuSans-30" x="127.246094"/>
       <use xlink:href="#DejaVuSans-30" x="190.869141"/>
      </g>
     </g>
    </g>
    <g id="text_7">
     <!-- Number of nodes -->
     <g transform="translate(220.300625 386.274062) scale(0.12 -0.12)">
      <defs>
       <path id="DejaVuSans-4e" d="M 628 4666 
L 1478 4666 
L 3547 763 
L 3547 4666 
L 4159 4666 
L 4159 0 
L 3309 0 
L 1241 3903 
L 1241 0 
L 628 0 
L 628 4666 
z
" transform="scale(0.015625)"/>
       <path id="DejaVuSans-75" d="M 544 1381 
L 544 3500 
L 1119 3500 
L 1119 1403 
Q 1119 906 1312 657 
Q 1506 409 1894 409 
Q 2359 409 2629 706 
Q 2900 1003 2900 1516 
L 2900 3500 
L 3475 3500 
L 3475 0 
L 2900 0 
L 2900 538 
Q 2691 219 2414 64 
Q 2138 -91 1772 -91 
Q 1169 -91 856 284 
Q 544 659 544 1381 
z
M 1991 3584 
L 1991 3584 
z
" transform="scale(0.015625)"/>
       <path id="DejaVuSans-6d" d="M 3328 2828 
Q 3544 3216 3844 3400 
Q 4144 3584 4550 3584 
Q 5097 3584 5394 3201 
Q 5691 2819 5691 2113 
L 5691 0 
L 5113 0 
L 5113 2094 
Q 5113 2597 4934 2840 
Q 4756 3084 4391 3084 
Q 3944 3084 3684 2787 
Q 3425 2491 3425 1978 
L 3425 0 
L 2847 0 
L 2847 2094 
Q 2847 2600 2669 2842 
Q 2491 3084 2119 3084 
Q 1678 3084 1418 2786 
Q 1159 2488 1159 1978 
L 1159 0 
L 581 0 
L 581 3500 
L 1159 3500 
L 1159 2956 
Q 1356 3278 1631 3431 
Q 1906 3584 2284 3584 
Q 2666 3584 2933 3390 
Q 3200 3197 3328 2828 
z
" transform="scale(0.015625)"/>
       <path id="DejaVuSans-62" d="M 3116 1747 
Q 3116 2381 2855 2742 
Q 2594 3103 2138 3103 
Q 1681 3103 1420 2742 
Q 1159 2381 1159 1747 
Q 1159 1113 1420 752 
Q 1681 391 2138 391 
Q 2594 391 2855 752 
Q 3116 1113 3116 1747 
z
M 1159 2969 
Q 1341 3281 1617 3432 
Q 1894 3584 2278 3584 
Q 2916 3584 3314 3078 
Q 3713 2572 3713 1747 
Q 3713 922 3314 415 
Q 2916 -91 2278 -91 
Q 1894 -91 1617 61 
Q 1341 213 1159 525 
L 1159 0 
L 581 0 
L 581 4863 
L 1159 4863 
L 1159 2969 
z
" transform="scale(0.015625)"/>
       <path id="DejaVuSans-65" d="M 3597 1894 
L 3597 1613 
L 953 1613 
Q 991 1019 1311 708 
Q 1631 397 2203 397 
Q 2534 397 2845 478 
Q 3156 559 3463 722 
L 3463 178 
Q 3153 47 2828 -22 
Q 2503 -91 2169 -91 
Q 1331 -91 842 396 
Q 353 884 353 1716 
Q 353 2575 817 3079 
Q 1281 3584 2069 3584 
Q 2775 3584 3186 3129 
Q 3597 2675 3597 1894 
z
M 3022 2063 
Q 3016 2534 2758 2815 
Q 2500 3097 2075 3097 
Q 1594 3097 1305 2825 
Q 1016 2553 972 2059 
L 3022 2063 
z
" transform="scale(0.015625)"/>
       <path id="DejaVuSans-72" d="M 2631 2963 
Q 2534 3019 2420 3045 
Q 2306 3072 2169 3072 
Q 1681 3072 1420 2755 
Q 1159 2438 1159 1844 
L 1159 0 
L 581 0 
L 581 3500 
L 1159 3500 
L 1159 2956 
Q 1341 3275 1631 3429 
Q 1922 3584 2338 3584 
Q 2397 3584 2469 3576 
Q 2541 3569 2628 3553 
L 2631 2963 
z
" transform="scale(0.015625)"/>
       <path id="DejaVuSans-20" transform="scale(0.015625)"/>
       <path id="DejaVuSans-6f" d="M 1959 3097 
Q 1497 3097 1228 2736 
Q 959 2375 959 1747 
Q 959 1119 1226 758 
Q 1494 397 1959 397 
Q 2419 397 2687 759 
Q 2956 1122 2956 1747 
Q 2956 2369 2687 2733 
Q 2419 3097 1959 3097 
z
M 1959 3584 
Q 2709 3584 3137 3096 
Q 3566 2609 3566 1747 
Q 3566 888 3137 398 
Q 2709 -91 1959 -91 
Q 1206 -91 779 398 
Q 353 888 353 1747 
Q 353 2609 779 3096 
Q 1206 3584 1959 3584 
z
" transform="scale(0.015625)"/>
       <path id="DejaVuSans-66" d="M 2375 4863 
L 2375 4384 
L 1825 4384 
Q 1516 4384 1395 4259 
Q 1275 4134 1275 3809 
L 1275 3500 
L 2222 3500 
L 2222 3053 
L 1275 3053 
L 1275 0 
L 697 0 
L 697 3053 
L 147 3053 
L 147 3500 
L 697 3500 
L 697 3744 
Q 697 4328 969 4595 
Q 1241 4863 1831 4863 
L 2375 4863 
z
" transform="scale(0.015625)"/>
       <path id="DejaVuSans-6e" d="M 3513 2113 
L 3513 0 
L 2938 0 
L 2938 2094 
Q 2938 2591 2744 2837 
Q 2550 3084 2163 3084 
Q 1697 3084 1428 2787 
Q 1159 2491 1159 1978 
L 1159 0 
L 581 0 
L 581 3500 
L 1159 3500 
L 1159 2956 
Q 1366 3272 1645 3428 
Q 1925 3584 2291 3584 
Q 2894 3584 3203 3211 
Q 3513 2838 3513 2113 
z
" transform="scale(0.015625)"/>
       <path id="DejaVuSans-64" d="M 2906 2969 
L 2906 4863 
L 3481 4863 
L 3481 0 
L 2906 0 
L 2906 525 
Q 2725 213 2448 61 
Q 2172 -91 1784 -91 
Q 1150 -91 751 415 
Q 353 922 353 1747 
Q 353 2572 751 3078 
Q 1150 3584 1784 3584 
Q 2172 3584 2448 3432 
Q 2725 3281 2906 2969 
z
M 947 1747 
Q 947 1113 1208 752 
Q 1469 391 1925 391 
Q 2381 391 2643 752 
Q 2906 1113 2906 1747 
Q 2906 2381 2643 2742 
Q 2381 3103 1925 3103 
Q 1469 3103 1208 2742 
Q 947 2381 947 1747 
z
" transform="scale(0.015625)"/>
       <path id="DejaVuSans-73" d="M 2834 3397 
L 2834 2853 
Q 2591 2978 2328 3040 
Q 2066 3103 1784 3103 
Q 1356 3103 1142 2972 
Q 928 2841 928 2578 
Q 928 2378 1081 2264 
Q 1234 2150 1697 2047 
L 1894 2003 
Q 2506 1872 2764 1633 
Q 3022 1394 3022 966 
Q 3022 478 2636 193 
Q 2250 -91 1575 -91 
Q 1294 -91 989 -36 
Q 684 19 347 128 
L 347 722 
Q 666 556 975 473 
Q 1284 391 1588 391 
Q 1994 391 2212 530 
Q 2431 669 2431 922 
Q 2431 1156 2273 1281 
Q 2116 1406 1581 1522 
L 1381 1569 
Q 847 1681 609 1914 
Q 372 2147 372 2553 
Q 372 3047 722 3315 
Q 1072 3584 1716 3584 
Q 2034 3584 2315 3537 
Q 2597 3491 2834 3397 
z
" transform="scale(0.015625)"/>
      </defs>
      <use xlink:href="#DejaVuSans-4e"/>
      <use xlink:href="#DejaVuSans-75" x="74.804688"/>
      <use xlink:href="#DejaVuSans-6d" x="138.183594"/>
      <use xlink:href="#DejaVuSans-62" x="235.595703"/>
      <use xlink:href="#DejaVuSans-65" x="299.072266"/>
      <use xlink:href="#DejaVuSans-72" x="360.595703"/>
      <use xlink:href="#DejaVuSans-20" x="401.708984"/>
      <use xlink:href="#DejaVuSans-6f" x="433.496094"/>
      <use xlink:href="#DejaVuSans-66" x="494.677734"/>
      <use xlink:href="#DejaVuSans-20" x="529.882812"/>
      <use xlink:href="#DejaVuSans-6e" x="561.669922"/>
      <use xlink:href="#DejaVuSans-6f" x="625.048828"/>
      <use xlink:href="#DejaVuSans-64" x="686.230469"/>
      <use xlink:href="#DejaVuSans-65" x="749.707031"/>
      <use xlink:href="#DejaVuSans-73" x="811.230469"/>
     </g>
    </g>
   </g>
   <g id="matplotlib.axis_2">
    <g id="ytick_1">
     <g id="line2d_7">
      <defs>
       <path id="mb85049c98e" d="M 0 0 
L -3.5 0 
" style="stroke: #000000; stroke-width: 0.8"/>
      </defs>
      <g>
       <use xlink:href="#mb85049c98e" x="48.90125" y="350.161481" style="stroke: #000000; stroke-width: 0.8"/>
      </g>
     </g>
     <g id="text_8">
      <!-- 16 -->
      <g transform="translate(29.17625 353.9607) scale(0.1 -0.1)">
       <use xlink:href="#DejaVuSans-31"/>
       <use xlink:href="#DejaVuSans-36" x="63.623047"/>
      </g>
     </g>
    </g>
    <g id="ytick_2">
     <g id="line2d_8">
      <g>
       <use xlink:href="#mb85049c98e" x="48.90125" y="282.323741" style="stroke: #000000; stroke-width: 0.8"/>
      </g>
     </g>
     <g id="text_9">
      <!-- 32 -->
      <g transform="translate(29.17625 286.122959) scale(0.1 -0.1)">
       <defs>
        <path id="DejaVuSans-33" d="M 2597 2516 
Q 3050 2419 3304 2112 
Q 3559 1806 3559 1356 
Q 3559 666 3084 287 
Q 2609 -91 1734 -91 
Q 1441 -91 1130 -33 
Q 819 25 488 141 
L 488 750 
Q 750 597 1062 519 
Q 1375 441 1716 441 
Q 2309 441 2620 675 
Q 2931 909 2931 1356 
Q 2931 1769 2642 2001 
Q 2353 2234 1838 2234 
L 1294 2234 
L 1294 2753 
L 1863 2753 
Q 2328 2753 2575 2939 
Q 2822 3125 2822 3475 
Q 2822 3834 2567 4026 
Q 2313 4219 1838 4219 
Q 1578 4219 1281 4162 
Q 984 4106 628 3988 
L 628 4550 
Q 988 4650 1302 4700 
Q 1616 4750 1894 4750 
Q 2613 4750 3031 4423 
Q 3450 4097 3450 3541 
Q 3450 3153 3228 2886 
Q 3006 2619 2597 2516 
z
" transform="scale(0.015625)"/>
       </defs>
       <use xlink:href="#DejaVuSans-33"/>
       <use xlink:href="#DejaVuSans-32" x="63.623047"/>
      </g>
     </g>
    </g>
    <g id="ytick_3">
     <g id="line2d_9">
      <g>
       <use xlink:href="#mb85049c98e" x="48.90125" y="214.486" style="stroke: #000000; stroke-width: 0.8"/>
      </g>
     </g>
     <g id="text_10">
      <!-- 64 -->
      <g transform="translate(29.17625 218.285219) scale(0.1 -0.1)">
       <use xlink:href="#DejaVuSans-36"/>
       <use xlink:href="#DejaVuSans-34" x="63.623047"/>
      </g>
     </g>
    </g>
    <g id="ytick_4">
     <g id="line2d_10">
      <g>
       <use xlink:href="#mb85049c98e" x="48.90125" y="146.64826" style="stroke: #000000; stroke-width: 0.8"/>
      </g>
     </g>
     <g id="text_11">
      <!-- 128 -->
      <g transform="translate(22.81375 150.447479) scale(0.1 -0.1)">
       <use xlink:href="#DejaVuSans-31"/>
       <use xlink:href="#DejaVuSans-32" x="63.623047"/>
       <use xlink:href="#DejaVuSans-38" x="127.246094"/>
      </g>
     </g>
    </g>
    <g id="ytick_5">
     <g id="line2d_11">
      <g>
       <use xlink:href="#mb85049c98e" x="48.90125" y="78.81052" style="stroke: #000000; stroke-width: 0.8"/>
      </g>
     </g>
     <g id="text_12">
      <!-- 256 -->
      <g transform="translate(22.81375 82.609739) scale(0.1 -0.1)">
       <defs>
        <path id="DejaVuSans-35" d="M 691 4666 
L 3169 4666 
L 3169 4134 
L 1269 4134 
L 1269 2991 
Q 1406 3038 1543 3061 
Q 1681 3084 1819 3084 
Q 2600 3084 3056 2656 
Q 3513 2228 3513 1497 
Q 3513 744 3044 326 
Q 2575 -91 1722 -91 
Q 1428 -91 1123 -41 
Q 819 9 494 109 
L 494 744 
Q 775 591 1075 516 
Q 1375 441 1709 441 
Q 2250 441 2565 725 
Q 2881 1009 2881 1497 
Q 2881 1984 2565 2268 
Q 2250 2553 1709 2553 
Q 1456 2553 1204 2497 
Q 953 2441 691 2322 
L 691 4666 
z
" transform="scale(0.015625)"/>
       </defs>
       <use xlink:href="#DejaVuSans-32"/>
       <use xlink:href="#DejaVuSans-35" x="63.623047"/>
       <use xlink:href="#DejaVuSans-36" x="127.246094"/>
      </g>
     </g>
    </g>
    <g id="text_13">
     <!-- K₀ (clique detection threshold) -->
     <g transform="translate(16.318125 281.427187) rotate(-90) scale(0.12 -0.12)">
      <defs>
       <path id="DejaVuSans-4b" d="M 628 4666 
L 1259 4666 
L 1259 2694 
L 3353 4666 
L 4166 4666 
L 1850 2491 
L 4331 0 
L 3500 0 
L 1259 2247 
L 1259 0 
L 628 0 
L 628 4666 
z
" transform="scale(0.015625)"/>
       <path id="DejaVuSans-2080" d="M 1781 2091 
Q 1625 2360 1309 2360 
Q 994 2360 838 2091 
Q 678 1822 678 1285 
Q 678 744 838 476 
Q 994 207 1309 207 
Q 1625 207 1781 476 
Q 1941 744 1941 1285 
Q 1941 1822 1781 2091 
z
M 1309 2638 
Q 1813 2638 2078 2291 
Q 2344 1944 2344 1285 
Q 2344 622 2078 275 
Q 1813 -71 1309 -71 
Q 803 -71 537 275 
Q 272 622 272 1285 
Q 272 1944 537 2291 
Q 803 2638 1309 2638 
z
" transform="scale(0.015625)"/>
       <path id="DejaVuSans-28" d="M 1984 4856 
Q 1566 4138 1362 3434 
Q 1159 2731 1159 2009 
Q 1159 1288 1364 580 
Q 1569 -128 1984 -844 
L 1484 -844 
Q 1016 -109 783 600 
Q 550 1309 550 2009 
Q 550 2706 781 3412 
Q 1013 4119 1484 4856 
L 1984 4856 
z
" transform="scale(0.015625)"/>
       <path id="DejaVuSans-63" d="M 3122 3366 
L 3122 2828 
Q 2878 2963 2633 3030 
Q 2388 3097 2138 3097 
Q 1578 3097 1268 2742 
Q 959 2388 959 1747 
Q 959 1106 1268 751 
Q 1578 397 2138 397 
Q 2388 397 2633 464 
Q 2878 531 3122 666 
L 3122 134 
Q 2881 22 2623 -34 
Q 2366 -91 2075 -91 
Q 1284 -91 818 406 
Q 353 903 353 1747 
Q 353 2603 823 3093 
Q 1294 3584 2113 3584 
Q 2378 3584 2631 3529 
Q 2884 3475 3122 3366 
z
" transform="scale(0.015625)"/>
       <path id="DejaVuSans-6c" d="M 603 4863 
L 1178 4863 
L 1178 0 
L 603 0 
L 603 4863 
z
" transform="scale(0.015625)"/>
       <path id="DejaVuSans-69" d="M 603 3500 
L 1178 3500 
L 1178 0 
L 603 0 
L 603 3500 
z
M 603 4863 
L 1178 4863 
L 1178 4134 
L 603 4134 
L 603 4863 
z
" transform="scale(0.015625)"/>
       <path id="DejaVuSans-71" d="M 947 1747 
Q 947 1113 1208 752 
Q 1469 391 1925 391 
Q 2381 391 2643 752 
Q 2906 1113 2906 1747 
Q 2906 2381 2643 2742 
Q 2381 3103 1925 3103 
Q 1469 3103 1208 2742 
Q 947 2381 947 1747 
z
M 2906 525 
Q 2725 213 2448 61 
Q 2172 -91 1784 -91 
Q 1150 -91 751 415 
Q 353 922 353 1747 
Q 353 2572 751 3078 
Q 1150 3584 1784 3584 
Q 2172 3584 2448 3432 
Q 2725 3281 2906 2969 
L 2906 3500 
L 3481 3500 
L 3481 -1331 
L 2906 -1331 
L 2906 525 
z
" transform="scale(0.015625)"/>
       <path id="DejaVuSans-74" d="M 1172 4494 
L 1172 3500 
L 2356 3500 
L 2356 3053 
L 1172 3053 
L 1172 1153 
Q 1172 725 1289 603 
Q 1406 481 1766 481 
L 2356 481 
L 2356 0 
L 1766 0 
Q 1100 0 847 248 
Q 594 497 594 1153 
L 594 3053 
L 172 3053 
L 172 3500 
L 594 3500 
L 594 4494 
L 1172 4494 
z
" transform="scale(0.015625)"/>
       <path id="DejaVuSans-68" d="M 3513 2113 
L 3513 0 
L 2938 0 
L 2938 2094 
Q 2938 2591 2744 2837 
Q 2550 3084 2163 3084 
Q 1697 3084 1428 2787 
Q 1159 2491 1159 1978 
L 1159 0 
L 581 0 
L 581 4863 
L 1159 4863 
L 1159 2956 
Q 1366 3272 1645 3428 
Q 1925 3584 2291 3584 
Q 2894 3584 3203 3211 
Q 3513 2838 3513 2113 
z
" transform="scale(0.015625)"/>
       <path id="DejaVuSans-29" d="M 513 4856 
L 1013 4856 
Q 1481 4119 1714 3412 
Q 1947 2706 1947 2009 
Q 1947 1309 1714 600 
Q 1481 -109 1013 -844 
L 513 -844 
Q 928 -128 1133 580 
Q 1338 1288 1338 2009 
Q 1338 2731 1133 3434 
Q 928 4138 513 4856 
z
" transform="scale(0.015625)"/>
      </defs>
      <use xlink:href="#DejaVuSans-4b"/>
      <use xlink:href="#DejaVuSans-2080" x="65.576172"/>
      <use xlink:href="#DejaVuSans-20" x="105.664062"/>
      <use xlink:href="#DejaVuSans-28" x="137.451172"/>
      <use xlink:href="#DejaVuSans-63" x="176.464844"/>
      <use xlink:href="#DejaVuSans-6c" x="231.445312"/>
      <use xlink:href="#DejaVuSans-69" x="259.228516"/>
      <use xlink:href="#DejaVuSans-71" x="287.011719"/>
      <use xlink:href="#DejaVuSans-75" x="350.488281"/>
      <use xlink:href="#DejaVuSans-65" x="413.867188"/>
      <use xlink:href="#DejaVuSans-20" x="475.390625"/>
      <use xlink:href="#DejaVuSans-64" x="507.177734"/>
      <use xlink:href="#DejaVuSans-65" x="570.654297"/>
      <use xlink:href="#DejaVuSans-74" x="632.177734"/>
      <use xlink:href="#DejaVuSans-65" x="671.386719"/>
      <use xlink:href="#DejaVuSans-63" x="732.910156"/>
      <use xlink:href="#DejaVuSans-74" x="787.890625"/>
      <use xlink:href="#DejaVuSans-69" x="827.099609"/>
      <use xlink:href="#DejaVuSans-6f" x="854.882812"/>
      <use xlink:href="#DejaVuSans-6e" x="916.064453"/>
      <use xlink:href="#DejaVuSans-20" x="979.443359"/>
      <use xlink:href="#DejaVuSans-74" x="1011.230469"/>
      <use xlink:href="#DejaVuSans-68" x="1050.439453"/>
      <use xlink:href="#DejaVuSans-72" x="1113.818359"/>
      <use xlink:href="#DejaVuSans-65" x="1152.681641"/>
      <use xlink:href="#DejaVuSans-73" x="1214.205078"/>
      <use xlink:href="#DejaVuSans-68" x="1266.304688"/>
      <use xlink:href="#DejaVuSans-6f" x="1329.683594"/>
      <use xlink:href="#DejaVuSans-6c" x="1390.865234"/>
      <use xlink:href="#DejaVuSans-64" x="1418.648438"/>
      <use xlink:href="#DejaVuSans-29" x="1482.125"/>
     </g>
    </g>
   </g>
   <g id="line2d_12"/>
   <g id="line2d_13"/>
   <g id="line2d_14"/>
   <g id="line2d_15"/>
   <g id="line2d_16"/>
   <g id="line2d_17"/>
   <g id="line2d_18"/>
   <g id="line2d_19">
    <path d="M 48.566848 380.209289 
L 51.167756 377.559856 
L 53.768664 375.237108 
L 56.74113 372.897048 
L 60.085155 370.581567 
L 63.42918 368.532904 
L 67.144763 366.506928 
L 71.231905 364.523587 
L 75.690604 362.596182 
L 80.892421 360.597994 
L 86.465796 358.697509 
L 92.782287 356.784379 
L 99.841895 354.888551 
L 107.644619 353.030997 
L 116.190461 351.225604 
L 125.850977 349.415192 
L 136.626168 347.626263 
L 148.887592 345.825701 
L 162.263692 344.088429 
L 177.497582 342.338783 
L 194.589265 340.605848 
L 213.910297 338.878411 
L 235.460679 337.180413 
L 259.61197 335.503454 
L 287.107285 333.823103 
L 317.946625 332.1661 
L 352.873106 330.517365 
L 392.258288 328.885392 
L 436.845285 327.264943 
L 472.143325 326.118771 
L 472.143325 326.118771 
" clip-path="url(#p5025b653f0)" style="fill: none; stroke: #008000; stroke-width: 1.5; stroke-linecap: square"/>
   </g>
   <g id="line2d_20">
    <path d="M 125.951184 396.969687 
L 132.910585 393.656305 
L 140.713309 390.190169 
L 148.887592 386.804471 
L 157.804992 383.359983 
L 167.09395 380.012495 
L 177.126024 376.63722 
L 187.901215 373.253835 
L 199.419523 369.878449 
L 211.680947 366.524061 
L 224.685488 363.201003 
L 238.433146 359.917357 
L 253.295478 356.599049 
L 269.272486 353.266243 
L 286.364168 349.935582 
L 304.570526 346.620613 
L 323.891558 343.332206 
L 344.698824 340.021758 
L 366.620764 336.760456 
L 390.028938 333.502461 
L 415.294903 330.213454 
L 442.047102 326.956277 
L 444.276452 326.694384 
L 444.276452 326.694384 
" clip-path="url(#p5025b653f0)" style="fill: none; stroke-dasharray: 1.5,2.475; stroke-dashoffset: 0; stroke: #ffa500; stroke-width: 1.5"/>
   </g>
   <g id="line2d_21">
    <path d="M 444.64801 326.650871 
L 445.019568 326.607397 
L 445.391127 326.563961 
L 445.762685 326.520564 
L 446.134243 326.477206 
L 446.505801 326.433885 
L 446.87736 326.390603 
L 447.248918 326.34736 
L 447.620476 326.304154 
L 447.992035 326.260987 
L 448.363593 326.217857 
L 448.735151 326.174766 
L 449.10671 326.131712 
L 449.478268 326.088697 
L 449.849826 326.045719 
L 450.221385 326.002779 
L 450.592943 325.959876 
L 450.964501 325.917011 
L 451.33606 325.874184 
L 451.707618 325.831394 
L 452.079176 325.788641 
L 452.450734 325.745926 
L 452.822293 325.703248 
L 453.193851 325.660607 
L 453.565409 325.618004 
L 453.936968 325.575437 
L 454.308526 325.532907 
L 454.680084 325.490415 
L 455.051643 325.447959 
L 455.423201 325.40554 
L 455.794759 325.363158 
L 456.166318 325.320812 
L 456.537876 325.278503 
L 456.909434 325.236231 
L 457.280993 325.193995 
L 457.652551 325.151795 
L 458.024109 325.109632 
L 458.395668 325.067505 
L 458.767226 325.025414 
L 459.138784 324.98336 
L 459.510342 324.941341 
L 459.881901 324.899359 
L 460.253459 324.857413 
L 460.625017 324.815502 
L 460.996576 324.773628 
L 461.368134 324.731789 
L 461.739692 324.689986 
L 462.111251 324.648219 
L 462.482809 324.606487 
L 462.854367 324.564791 
L 463.225926 324.52313 
L 463.597484 324.481505 
L 463.969042 324.439915 
L 464.340601 324.398361 
L 464.712159 324.356842 
L 465.083717 324.315357 
L 465.455275 324.273909 
L 465.826834 324.232495 
L 466.198392 324.191116 
L 466.56995 324.149772 
L 466.941509 324.108463 
L 467.313067 324.067189 
L 467.684625 324.02595 
L 468.056184 323.984745 
L 468.427742 323.943575 
L 468.7993 323.90244 
L 469.170859 323.861339 
L 469.542417 323.820273 
L 469.913975 323.779241 
L 470.285534 323.738243 
L 470.657092 323.69728 
L 471.02865 323.656351 
L 471.400208 323.615457 
L 471.771767 323.574596 
L 472.143325 323.53377 
" clip-path="url(#p5025b653f0)" style="fill: none; stroke: #ffa500; stroke-width: 1.5; stroke-linecap: square"/>
   </g>
   <g id="patch_3">
    <path d="M 48.90125 356.477812 
L 48.90125 23.837812 
" style="fill: none; stroke: #000000; stroke-width: 0.8; stroke-linejoin: miter; stroke-linecap: square"/>
   </g>
   <g id="patch_4">
    <path d="M 495.30125 356.477812 
L 495.30125 23.837812 
" style="fill: none; stroke: #000000; stroke-width: 0.8; stroke-linejoin: miter; stroke-linecap: square"/>
   </g>
   <g id="patch_5">
    <path d="M 48.90125 356.477812 
L 495.30125 356.477812 
" style="fill: none; stroke: #000000; stroke-width: 0.8; stroke-linejoin: miter; stroke-linecap: square"/>
   </g>
   <g id="patch_6">
    <path d="M 48.90125 23.837812 
L 495.30125 23.837812 
" style="fill: none; stroke: #000000; stroke-width: 0.8; stroke-linejoin: miter; stroke-linecap: square"/>
   </g>
   <g id="text_14">
    <!-- Machines: K₀ as a function of N -->
    <g transform="translate(163.244687 17.837812) scale(0.14 -0.14)">
     <defs>
      <path id="DejaVuSans-4d" d="M 628 4666 
L 1569 4666 
L 2759 1491 
L 3956 4666 
L 4897 4666 
L 4897 0 
L 4281 0 
L 4281 4097 
L 3078 897 
L 2444 897 
L 1241 4097 
L 1241 0 
L 628 0 
L 628 4666 
z
" transform="scale(0.015625)"/>
      <path id="DejaVuSans-61" d="M 2194 1759 
Q 1497 1759 1228 1600 
Q 959 1441 959 1056 
Q 959 750 1161 570 
Q 1363 391 1709 391 
Q 2188 391 2477 730 
Q 2766 1069 2766 1631 
L 2766 1759 
L 2194 1759 
z
M 3341 1997 
L 3341 0 
L 2766 0 
L 2766 531 
Q 2569 213 2275 61 
Q 1981 -91 1556 -91 
Q 1019 -91 701 211 
Q 384 513 384 1019 
Q 384 1609 779 1909 
Q 1175 2209 1959 2209 
L 2766 2209 
L 2766 2266 
Q 2766 2663 2505 2880 
Q 2244 3097 1772 3097 
Q 1472 3097 1187 3025 
Q 903 2953 641 2809 
L 641 3341 
Q 956 3463 1253 3523 
Q 1550 3584 1831 3584 
Q 2591 3584 2966 3190 
Q 3341 2797 3341 1997 
z
" transform="scale(0.015625)"/>
      <path id="DejaVuSans-3a" d="M 750 794 
L 1409 794 
L 1409 0 
L 750 0 
L 750 794 
z
M 750 3309 
L 1409 3309 
L 1409 2516 
L 750 2516 
L 750 3309 
z
" transform="scale(0.015625)"/>
     </defs>
     <use xlink:href="#DejaVuSans-4d"/>
     <use xlink:href="#DejaVuSans-61" x="86.279297"/>
     <use xlink:href="#DejaVuSans-63" x="147.558594"/>
     <use xlink:href="#DejaVuSans-68" x="202.539062"/>
     <use xlink:href="#DejaVuSans-69" x="265.917969"/>
     <use xlink:href="#DejaVuSans-6e" x="293.701172"/>
     <use xlink:href="#DejaVuSans-65" x="357.080078"/>
     <use xlink:href="#DejaVuSans-73" x="418.603516"/>
     <use xlink:href="#DejaVuSans-3a" x="470.703125"/>
     <use xlink:href="#DejaVuSans-20" x="504.394531"/>
     <use xlink:href="#DejaVuSans-4b" x="536.181641"/>
     <use xlink:href="#DejaVuSans-2080" x="601.757812"/>
     <use xlink:href="#DejaVuSans-20" x="641.845703"/>
     <use xlink:href="#DejaVuSans-61" x="673.632812"/>
     <use xlink:href="#DejaVuSans-73" x="734.912109"/>
     <use xlink:href="#DejaVuSans-20" x="787.011719"/>
     <use xlink:href="#DejaVuSans-61" x="818.798828"/>
     <use xlink:href="#DejaVuSans-20" x="880.078125"/>
     <use xlink:href="#DejaVuSans-66" x="911.865234"/>
     <use xlink:href="#DejaVuSans-75" x="947.070312"/>
     <use xlink:href="#DejaVuSans-6e" x="1010.449219"/>
     <use xlink:href="#DejaVuSans-63" x="1073.828125"/>
     <use xlink:href="#DejaVuSans-74" x="1128.808594"/>
     <use xlink:href="#DejaVuSans-69" x="1168.017578"/>
     <use xlink:href="#DejaVuSans-6f" x="1195.800781"/>
     <use xlink:href="#DejaVuSans-6e" x="1256.982422"/>
     <use xlink:href="#DejaVuSans-20" x="1320.361328"/>
     <use xlink:href="#DejaVuSans-6f" x="1352.148438"/>
     <use xlink:href="#DejaVuSans-66" x="1413.330078"/>
     <use xlink:href="#DejaVuSans-20" x="1448.535156"/>
     <use xlink:href="#DejaVuSans-4e" x="1480.322266"/>
    </g>
   </g>
   <g id="legend_1">
    <g id="patch_7">
     <path d="M 502.30125 243.03125 
L 601.966875 243.03125 
Q 603.966875 243.03125 603.966875 241.03125 
L 603.966875 139.284375 
Q 603.966875 137.284375 601.966875 137.284375 
L 502.30125 137.284375 
Q 500.30125 137.284375 500.30125 139.284375 
L 500.30125 241.03125 
Q 500.30125 243.03125 502.30125 243.03125 
z
" style="fill: #ffffff; opacity: 0.8; stroke: #cccccc; stroke-linejoin: miter"/>
    </g>
    <g id="text_15">
     <!-- Legend: -->
     <g transform="translate(532.080938 148.882812) scale(0.1 -0.1)">
      <defs>
       <path id="DejaVuSans-4c" d="M 628 4666 
L 1259 4666 
L 1259 531 
L 3531 531 
L 3531 0 
L 628 0 
L 628 4666 
z
" transform="scale(0.015625)"/>
       <path id="DejaVuSans-67" d="M 2906 1791 
Q 2906 2416 2648 2759 
Q 2391 3103 1925 3103 
Q 1463 3103 1205 2759 
Q 947 2416 947 1791 
Q 947 1169 1205 825 
Q 1463 481 1925 481 
Q 2391 481 2648 825 
Q 2906 1169 2906 1791 
z
M 3481 434 
Q 3481 -459 3084 -895 
Q 2688 -1331 1869 -1331 
Q 1566 -1331 1297 -1286 
Q 1028 -1241 775 -1147 
L 775 -588 
Q 1028 -725 1275 -790 
Q 1522 -856 1778 -856 
Q 2344 -856 2625 -561 
Q 2906 -266 2906 331 
L 2906 616 
Q 2728 306 2450 153 
Q 2172 0 1784 0 
Q 1141 0 747 490 
Q 353 981 353 1791 
Q 353 2603 747 3093 
Q 1141 3584 1784 3584 
Q 2172 3584 2450 3431 
Q 2728 3278 2906 2969 
L 2906 3500 
L 3481 3500 
L 3481 434 
z
" transform="scale(0.015625)"/>
      </defs>
      <use xlink:href="#DejaVuSans-4c"/>
      <use xlink:href="#DejaVuSans-65" x="53.962891"/>
      <use xlink:href="#DejaVuSans-67" x="115.486328"/>
      <use xlink:href="#DejaVuSans-65" x="178.962891"/>
      <use xlink:href="#DejaVuSans-6e" x="240.486328"/>
      <use xlink:href="#DejaVuSans-64" x="303.865234"/>
      <use xlink:href="#DejaVuSans-3a" x="367.341797"/>
     </g>
    </g>
    <g id="line2d_22">
     <defs>
      <path id="m012f6d5000" d="M 0 3.535534 
C 0.937635 3.535534 1.836992 3.163008 2.5 2.5 
C 3.163008 1.836992 3.535534 0.937635 3.535534 0 
C 3.535534 -0.937635 3.163008 -1.836992 2.5 -2.5 
C 1.836992 -3.163008 0.937635 -3.535534 0 -3.535534 
C -0.937635 -3.535534 -1.836992 -3.163008 -2.5 -2.5 
C -3.163008 -1.836992 -3.535534 -0.937635 -3.535534 0 
C -3.535534 0.937635 -3.163008 1.836992 -2.5 2.5 
C -1.836992 3.163008 -0.937635 3.535534 0 3.535534 
z
" style="stroke: #ffffff; stroke-width: 0.565685"/>
     </defs>
     <g>
      <use xlink:href="#m012f6d5000" x="514.30125" y="160.060937" style="fill: #d60000; stroke: #ffffff; stroke-width: 0.565685"/>
     </g>
    </g>
    <g id="text_16">
     <!-- MLP -->
     <g transform="translate(532.30125 163.560937) scale(0.1 -0.1)">
      <defs>
       <path id="DejaVuSans-50" d="M 1259 4147 
L 1259 2394 
L 2053 2394 
Q 2494 2394 2734 2622 
Q 2975 2850 2975 3272 
Q 2975 3691 2734 3919 
Q 2494 4147 2053 4147 
L 1259 4147 
z
M 628 4666 
L 2053 4666 
Q 2838 4666 3239 4311 
Q 3641 3956 3641 3272 
Q 3641 2581 3239 2228 
Q 2838 1875 2053 1875 
L 1259 1875 
L 1259 0 
L 628 0 
L 628 4666 
z
" transform="scale(0.015625)"/>
      </defs>
      <use xlink:href="#DejaVuSans-4d"/>
      <use xlink:href="#DejaVuSans-4c" x="86.279297"/>
      <use xlink:href="#DejaVuSans-50" x="141.992188"/>
     </g>
    </g>
    <g id="line2d_23">
     <defs>
      <path id="mfbe6fa3686" d="M 0 3.535534 
C 0.937635 3.535534 1.836992 3.163008 2.5 2.5 
C 3.163008 1.836992 3.535534 0.937635 3.535534 0 
C 3.535534 -0.937635 3.163008 -1.836992 2.5 -2.5 
C 1.836992 -3.163008 0.937635 -3.535534 0 -3.535534 
C -0.937635 -3.535534 -1.836992 -3.163008 -2.5 -2.5 
C -3.163008 -1.836992 -3.535534 -0.937635 -3.535534 0 
C -3.535534 0.937635 -3.163008 1.836992 -2.5 2.5 
C -1.836992 3.163008 -0.937635 3.535534 0 3.535534 
z
" style="stroke: #ffffff; stroke-width: 0.565685"/>
     </defs>
     <g>
      <use xlink:href="#mfbe6fa3686" x="514.30125" y="174.739062" style="fill: #018700; stroke: #ffffff; stroke-width: 0.565685"/>
     </g>
    </g>
    <g id="text_17">
     <!-- ViTpretrained -->
     <g transform="translate(532.30125 178.239062) scale(0.1 -0.1)">
      <defs>
       <path id="DejaVuSans-56" d="M 1831 0 
L 50 4666 
L 709 4666 
L 2188 738 
L 3669 4666 
L 4325 4666 
L 2547 0 
L 1831 0 
z
" transform="scale(0.015625)"/>
       <path id="DejaVuSans-54" d="M -19 4666 
L 3928 4666 
L 3928 4134 
L 2272 4134 
L 2272 0 
L 1638 0 
L 1638 4134 
L -19 4134 
L -19 4666 
z
" transform="scale(0.015625)"/>
       <path id="DejaVuSans-70" d="M 1159 525 
L 1159 -1331 
L 581 -1331 
L 581 3500 
L 1159 3500 
L 1159 2969 
Q 1341 3281 1617 3432 
Q 1894 3584 2278 3584 
Q 2916 3584 3314 3078 
Q 3713 2572 3713 1747 
Q 3713 922 3314 415 
Q 2916 -91 2278 -91 
Q 1894 -91 1617 61 
Q 1341 213 1159 525 
z
M 3116 1747 
Q 3116 2381 2855 2742 
Q 2594 3103 2138 3103 
Q 1681 3103 1420 2742 
Q 1159 2381 1159 1747 
Q 1159 1113 1420 752 
Q 1681 391 2138 391 
Q 2594 391 2855 752 
Q 3116 1113 3116 1747 
z
" transform="scale(0.015625)"/>
      </defs>
      <use xlink:href="#DejaVuSans-56"/>
      <use xlink:href="#DejaVuSans-69" x="66.158203"/>
      <use xlink:href="#DejaVuSans-54" x="93.941406"/>
      <use xlink:href="#DejaVuSans-70" x="155.025391"/>
      <use xlink:href="#DejaVuSans-72" x="218.501953"/>
      <use xlink:href="#DejaVuSans-65" x="257.365234"/>
      <use xlink:href="#DejaVuSans-74" x="318.888672"/>
      <use xlink:href="#DejaVuSans-72" x="358.097656"/>
      <use xlink:href="#DejaVuSans-61" x="399.210938"/>
      <use xlink:href="#DejaVuSans-69" x="460.490234"/>
      <use xlink:href="#DejaVuSans-6e" x="488.273438"/>
      <use xlink:href="#DejaVuSans-65" x="551.652344"/>
      <use xlink:href="#DejaVuSans-64" x="613.175781"/>
     </g>
    </g>
    <g id="line2d_24">
     <defs>
      <path id="maf7c3b2060" d="M 0 3.535534 
C 0.937635 3.535534 1.836992 3.163008 2.5 2.5 
C 3.163008 1.836992 3.535534 0.937635 3.535534 0 
C 3.535534 -0.937635 3.163008 -1.836992 2.5 -2.5 
C 1.836992 -3.163008 0.937635 -3.535534 0 -3.535534 
C -0.937635 -3.535534 -1.836992 -3.163008 -2.5 -2.5 
C -3.163008 -1.836992 -3.535534 -0.937635 -3.535534 0 
C -3.535534 0.937635 -3.163008 1.836992 -2.5 2.5 
C -1.836992 3.163008 -0.937635 3.535534 0 3.535534 
z
" style="stroke: #ffffff; stroke-width: 0.565685"/>
     </defs>
     <g>
      <use xlink:href="#maf7c3b2060" x="514.30125" y="189.417187" style="fill: #8c3bff; stroke: #ffffff; stroke-width: 0.565685"/>
     </g>
    </g>
    <g id="text_18">
     <!-- ViTscratch -->
     <g transform="translate(532.30125 192.917187) scale(0.1 -0.1)">
      <use xlink:href="#DejaVuSans-56"/>
      <use xlink:href="#DejaVuSans-69" x="66.158203"/>
      <use xlink:href="#DejaVuSans-54" x="93.941406"/>
      <use xlink:href="#DejaVuSans-73" x="138.525391"/>
      <use xlink:href="#DejaVuSans-63" x="190.625"/>
      <use xlink:href="#DejaVuSans-72" x="245.605469"/>
      <use xlink:href="#DejaVuSans-61" x="286.71875"/>
      <use xlink:href="#DejaVuSans-74" x="347.998047"/>
      <use xlink:href="#DejaVuSans-63" x="387.207031"/>
      <use xlink:href="#DejaVuSans-68" x="442.1875"/>
     </g>
    </g>
    <g id="line2d_25">
     <defs>
      <path id="ma49f9ddfed" d="M 0 3.535534 
C 0.937635 3.535534 1.836992 3.163008 2.5 2.5 
C 3.163008 1.836992 3.535534 0.937635 3.535534 0 
C 3.535534 -0.937635 3.163008 -1.836992 2.5 -2.5 
C 1.836992 -3.163008 0.937635 -3.535534 0 -3.535534 
C -0.937635 -3.535534 -1.836992 -3.163008 -2.5 -2.5 
C -3.163008 -1.836992 -3.535534 -0.937635 -3.535534 0 
C -3.535534 0.937635 -3.163008 1.836992 -2.5 2.5 
C -1.836992 3.163008 -0.937635 3.535534 0 3.535534 
z
" style="stroke: #ffffff; stroke-width: 0.565685"/>
     </defs>
     <g>
      <use xlink:href="#ma49f9ddfed" x="514.30125" y="204.095312" style="fill: #97ff00; stroke: #ffffff; stroke-width: 0.565685"/>
     </g>
    </g>
    <g id="text_19">
     <!-- CNN -->
     <g transform="translate(532.30125 207.595312) scale(0.1 -0.1)">
      <defs>
       <path id="DejaVuSans-43" d="M 4122 4306 
L 4122 3641 
Q 3803 3938 3442 4084 
Q 3081 4231 2675 4231 
Q 1875 4231 1450 3742 
Q 1025 3253 1025 2328 
Q 1025 1406 1450 917 
Q 1875 428 2675 428 
Q 3081 428 3442 575 
Q 3803 722 4122 1019 
L 4122 359 
Q 3791 134 3420 21 
Q 3050 -91 2638 -91 
Q 1578 -91 968 557 
Q 359 1206 359 2328 
Q 359 3453 968 4101 
Q 1578 4750 2638 4750 
Q 3056 4750 3426 4639 
Q 3797 4528 4122 4306 
z
" transform="scale(0.015625)"/>
      </defs>
      <use xlink:href="#DejaVuSans-43"/>
      <use xlink:href="#DejaVuSans-4e" x="69.824219"/>
      <use xlink:href="#DejaVuSans-4e" x="144.628906"/>
     </g>
    </g>
    <g id="line2d_26">
     <path d="M 504.30125 218.773437 
L 514.30125 218.773437 
L 524.30125 218.773437 
" style="fill: none; stroke: #008000; stroke-width: 1.5; stroke-linecap: square"/>
    </g>
    <g id="text_20">
     <!-- STAT limit -->
     <g transform="translate(532.30125 222.273437) scale(0.1 -0.1)">
      <defs>
       <path id="DejaVuSans-53" d="M 3425 4513 
L 3425 3897 
Q 3066 4069 2747 4153 
Q 2428 4238 2131 4238 
Q 1616 4238 1336 4038 
Q 1056 3838 1056 3469 
Q 1056 3159 1242 3001 
Q 1428 2844 1947 2747 
L 2328 2669 
Q 3034 2534 3370 2195 
Q 3706 1856 3706 1288 
Q 3706 609 3251 259 
Q 2797 -91 1919 -91 
Q 1588 -91 1214 -16 
Q 841 59 441 206 
L 441 856 
Q 825 641 1194 531 
Q 1563 422 1919 422 
Q 2459 422 2753 634 
Q 3047 847 3047 1241 
Q 3047 1584 2836 1778 
Q 2625 1972 2144 2069 
L 1759 2144 
Q 1053 2284 737 2584 
Q 422 2884 422 3419 
Q 422 4038 858 4394 
Q 1294 4750 2059 4750 
Q 2388 4750 2728 4690 
Q 3069 4631 3425 4513 
z
" transform="scale(0.015625)"/>
       <path id="DejaVuSans-41" d="M 2188 4044 
L 1331 1722 
L 3047 1722 
L 2188 4044 
z
M 1831 4666 
L 2547 4666 
L 4325 0 
L 3669 0 
L 3244 1197 
L 1141 1197 
L 716 0 
L 50 0 
L 1831 4666 
z
" transform="scale(0.015625)"/>
      </defs>
      <use xlink:href="#DejaVuSans-53"/>
      <use xlink:href="#DejaVuSans-54" x="63.476562"/>
      <use xlink:href="#DejaVuSans-41" x="116.810547"/>
      <use xlink:href="#DejaVuSans-54" x="177.46875"/>
      <use xlink:href="#DejaVuSans-20" x="238.552734"/>
      <use xlink:href="#DejaVuSans-6c" x="270.339844"/>
      <use xlink:href="#DejaVuSans-69" x="298.123047"/>
      <use xlink:href="#DejaVuSans-6d" x="325.90625"/>
      <use xlink:href="#DejaVuSans-69" x="423.318359"/>
      <use xlink:href="#DejaVuSans-74" x="451.101562"/>
     </g>
    </g>
    <g id="line2d_27">
     <path d="M 504.30125 233.451562 
L 514.30125 233.451562 
L 524.30125 233.451562 
" style="fill: none; stroke-dasharray: 1.5,2.475; stroke-dashoffset: 0; stroke: #ffa500; stroke-width: 1.5"/>
    </g>
    <g id="text_21">
     <!-- COMP limit -->
     <g transform="translate(532.30125 236.951562) scale(0.1 -0.1)">
      <defs>
       <path id="DejaVuSans-4f" d="M 2522 4238 
Q 1834 4238 1429 3725 
Q 1025 3213 1025 2328 
Q 1025 1447 1429 934 
Q 1834 422 2522 422 
Q 3209 422 3611 934 
Q 4013 1447 4013 2328 
Q 4013 3213 3611 3725 
Q 3209 4238 2522 4238 
z
M 2522 4750 
Q 3503 4750 4090 4092 
Q 4678 3434 4678 2328 
Q 4678 1225 4090 567 
Q 3503 -91 2522 -91 
Q 1538 -91 948 565 
Q 359 1222 359 2328 
Q 359 3434 948 4092 
Q 1538 4750 2522 4750 
z
" transform="scale(0.015625)"/>
      </defs>
      <use xlink:href="#DejaVuSans-43"/>
      <use xlink:href="#DejaVuSans-4f" x="69.824219"/>
      <use xlink:href="#DejaVuSans-4d" x="148.535156"/>
      <use xlink:href="#DejaVuSans-50" x="234.814453"/>
      <use xlink:href="#DejaVuSans-20" x="295.117188"/>
      <use xlink:href="#DejaVuSans-6c" x="326.904297"/>
      <use xlink:href="#DejaVuSans-69" x="354.6875"/>
      <use xlink:href="#DejaVuSans-6d" x="382.470703"/>
      <use xlink:href="#DejaVuSans-69" x="479.882812"/>
      <use xlink:href="#DejaVuSans-74" x="507.666016"/>
     </g>
    </g>
   </g>
  </g>
 </g>
 <defs>
  <clipPath id="p5025b653f0">
   <rect x="48.90125" y="23.837812" width="446.4" height="332.64"/>
  </clipPath>
 </defs>
</svg>
