<?xml version="1.0" encoding="utf-8" standalone="no"?>
<!DOCTYPE svg PUBLIC "-//W3C//DTD SVG 1.1//EN"
  "http://www.w3.org/Graphics/SVG/1.1/DTD/svg11.dtd">
<svg xmlns:xlink="http://www.w3.org/1999/xlink" width="678.72625pt" height="395.969687pt" viewBox="0 0 678.72625 395.969687" xmlns="http://www.w3.org/2000/svg" version="1.1">
 <metadata>
  <rdf:RDF xmlns:dc="http://purl.org/dc/elements/1.1/" xmlns:cc="http://creativecommons.org/ns#" xmlns:rdf="http://www.w3.org/1999/02/22-rdf-syntax-ns#">
   <cc:Work>
    <dc:type rdf:resource="http://purl.org/dc/dcmitype/StillImage"/>
    <dc:date>2025-04-01T14:29:38.566748</dc:date>
    <dc:format>image/svg+xml</dc:format>
    <dc:creator>
     <cc:Agent>
      <dc:title>Matplotlib v3.10.1, https://matplotlib.org/</dc:title>
     </cc:Agent>
    </dc:creator>
   </cc:Work>
  </rdf:RDF>
 </metadata>
 <defs>
  <style type="text/css">*{stroke-linejoin: round; stroke-linecap: butt}</style>
 </defs>
 <g id="figure_1">
  <g id="patch_1">
   <path d="M 0 395.969687 
L 678.72625 395.969687 
L 678.72625 0 
L 0 0 
z
" style="fill: #ffffff"/>
  </g>
  <g id="axes_1">
   <g id="patch_2">
    <path d="M 48.90125 356.477812 
L 495.30125 356.477812 
L 495.30125 23.837812 
L 48.90125 23.837812 
z
" style="fill: #ffffff"/>
   </g>
   <g id="PathCollection_1">
    <defs>
     <path id="C0_0_8399ba1075" d="M 0 3.535534 
C 0.937635 3.535534 1.836992 3.163008 2.5 2.5 
C 3.163008 1.836992 3.535534 0.937635 3.535534 -0 
C 3.535534 -0.937635 3.163008 -1.836992 2.5 -2.5 
C 1.836992 -3.163008 0.937635 -3.535534 0 -3.535534 
C -0.937635 -3.535534 -1.836992 -3.163008 -2.5 -2.5 
C -3.163008 -1.836992 -3.535534 -0.937635 -3.535534 0 
C -3.535534 0.937635 -3.163008 1.836992 -2.5 2.5 
C -1.836992 3.163008 -0.937635 3.535534 0 3.535534 
z
"/>
    </defs>
    <g clip-path="url(#pf7e7d6ad06)">
     <use xlink:href="#C0_0_8399ba1075" x="99.710049" y="317.412069" style="fill: #97ff00; stroke: #ffffff; stroke-width: 0.565685"/>
    </g>
    <g clip-path="url(#pf7e7d6ad06)">
     <use xlink:href="#C0_0_8399ba1075" x="99.921345" y="314.027423" style="fill: #d60000; stroke: #ffffff; stroke-width: 0.565685"/>
    </g>
    <g clip-path="url(#pf7e7d6ad06)">
     <use xlink:href="#C0_0_8399ba1075" x="105.438649" y="310.505279" style="fill: #ff7ed1; stroke: #ffffff; stroke-width: 0.565685"/>
    </g>
    <g clip-path="url(#pf7e7d6ad06)">
     <use xlink:href="#C0_0_8399ba1075" x="103.674698" y="318.499288" style="fill: #ffa52f; stroke: #ffffff; stroke-width: 0.565685"/>
    </g>
    <g clip-path="url(#pf7e7d6ad06)">
     <use xlink:href="#C0_0_8399ba1075" x="103.167146" y="315.262599" style="fill: #018700; stroke: #ffffff; stroke-width: 0.565685"/>
    </g>
    <g clip-path="url(#pf7e7d6ad06)">
     <use xlink:href="#C0_0_8399ba1075" x="104.629631" y="289.995743" style="fill: #6b004f; stroke: #ffffff; stroke-width: 0.565685"/>
    </g>
    <g clip-path="url(#pf7e7d6ad06)">
     <use xlink:href="#C0_0_8399ba1075" x="102.175703" y="310.638897" style="fill: #8c3bff; stroke: #ffffff; stroke-width: 0.565685"/>
    </g>
   </g>
   <g id="PathCollection_2">
    <defs>
     <path id="C1_0_01e60b5553" d="M 0 3.535534 
C 0.937635 3.535534 1.836992 3.163008 2.5 2.5 
C 3.163008 1.836992 3.535534 0.937635 3.535534 -0 
C 3.535534 -0.937635 3.163008 -1.836992 2.5 -2.5 
C 1.836992 -3.163008 0.937635 -3.535534 0 -3.535534 
C -0.937635 -3.535534 -1.836992 -3.163008 -2.5 -2.5 
C -3.163008 -1.836992 -3.535534 -0.937635 -3.535534 0 
C -3.535534 0.937635 -3.163008 1.836992 -2.5 2.5 
C -1.836992 3.163008 -0.937635 3.535534 0 3.535534 
z
"/>
    </defs>
    <g clip-path="url(#pf7e7d6ad06)">
     <use xlink:href="#C1_0_01e60b5553" x="118.393695" y="311.82741" style="fill: #97ff00; stroke: #ffffff; stroke-width: 0.565685"/>
    </g>
    <g clip-path="url(#pf7e7d6ad06)">
     <use xlink:href="#C1_0_01e60b5553" x="119.728088" y="302.813908" style="fill: #d60000; stroke: #ffffff; stroke-width: 0.565685"/>
    </g>
    <g clip-path="url(#pf7e7d6ad06)">
     <use xlink:href="#C1_0_01e60b5553" x="121.8143" y="298.192233" style="fill: #ff7ed1; stroke: #ffffff; stroke-width: 0.565685"/>
    </g>
    <g clip-path="url(#pf7e7d6ad06)">
     <use xlink:href="#C1_0_01e60b5553" x="122.161888" y="313.499168" style="fill: #ffa52f; stroke: #ffffff; stroke-width: 0.565685"/>
    </g>
    <g clip-path="url(#pf7e7d6ad06)">
     <use xlink:href="#C1_0_01e60b5553" x="119.690546" y="309.425539" style="fill: #018700; stroke: #ffffff; stroke-width: 0.565685"/>
    </g>
    <g clip-path="url(#pf7e7d6ad06)">
     <use xlink:href="#C1_0_01e60b5553" x="119.795095" y="286.33365" style="fill: #6b004f; stroke: #ffffff; stroke-width: 0.565685"/>
    </g>
    <g clip-path="url(#pf7e7d6ad06)">
     <use xlink:href="#C1_0_01e60b5553" x="122.220431" y="305.178302" style="fill: #8c3bff; stroke: #ffffff; stroke-width: 0.565685"/>
    </g>
   </g>
   <g id="PathCollection_3">
    <defs>
     <path id="C2_0_76418cc048" d="M 0 3.535534 
C 0.937635 3.535534 1.836992 3.163008 2.5 2.5 
C 3.163008 1.836992 3.535534 0.937635 3.535534 -0 
C 3.535534 -0.937635 3.163008 -1.836992 2.5 -2.5 
C 1.836992 -3.163008 0.937635 -3.535534 0 -3.535534 
C -0.937635 -3.535534 -1.836992 -3.163008 -2.5 -2.5 
C -3.163008 -1.836992 -3.535534 -0.937635 -3.535534 0 
C -3.535534 0.937635 -3.163008 1.836992 -2.5 2.5 
C -1.836992 3.163008 -0.937635 3.535534 0 3.535534 
z
"/>
    </defs>
    <g clip-path="url(#pf7e7d6ad06)">
     <use xlink:href="#C2_0_76418cc048" x="138.86227" y="294.385039" style="fill: #d60000; stroke: #ffffff; stroke-width: 0.565685"/>
    </g>
    <g clip-path="url(#pf7e7d6ad06)">
     <use xlink:href="#C2_0_76418cc048" x="135.217194" y="284.66731" style="fill: #ff7ed1; stroke: #ffffff; stroke-width: 0.565685"/>
    </g>
    <g clip-path="url(#pf7e7d6ad06)">
     <use xlink:href="#C2_0_76418cc048" x="134.126868" y="308.576155" style="fill: #ffa52f; stroke: #ffffff; stroke-width: 0.565685"/>
    </g>
    <g clip-path="url(#pf7e7d6ad06)">
     <use xlink:href="#C2_0_76418cc048" x="138.740225" y="302.495249" style="fill: #018700; stroke: #ffffff; stroke-width: 0.565685"/>
    </g>
    <g clip-path="url(#pf7e7d6ad06)">
     <use xlink:href="#C2_0_76418cc048" x="136.299776" y="269.667617" style="fill: #6b004f; stroke: #ffffff; stroke-width: 0.565685"/>
    </g>
    <g clip-path="url(#pf7e7d6ad06)">
     <use xlink:href="#C2_0_76418cc048" x="136.926605" y="298.702095" style="fill: #8c3bff; stroke: #ffffff; stroke-width: 0.565685"/>
    </g>
   </g>
   <g id="PathCollection_4">
    <defs>
     <path id="C3_0_33563c9184" d="M 0 3.535534 
C 0.937635 3.535534 1.836992 3.163008 2.5 2.5 
C 3.163008 1.836992 3.535534 0.937635 3.535534 -0 
C 3.535534 -0.937635 3.163008 -1.836992 2.5 -2.5 
C 1.836992 -3.163008 0.937635 -3.535534 0 -3.535534 
C -0.937635 -3.535534 -1.836992 -3.163008 -2.5 -2.5 
C -3.163008 -1.836992 -3.535534 -0.937635 -3.535534 0 
C -3.535534 0.937635 -3.163008 1.836992 -2.5 2.5 
C -1.836992 3.163008 -0.937635 3.535534 0 3.535534 
z
"/>
    </defs>
    <g clip-path="url(#pf7e7d6ad06)">
     <use xlink:href="#C3_0_33563c9184" x="170.862685" y="272.824472" style="fill: #d60000; stroke: #ffffff; stroke-width: 0.565685"/>
    </g>
    <g clip-path="url(#pf7e7d6ad06)">
     <use xlink:href="#C3_0_33563c9184" x="172.63342" y="260.575893" style="fill: #ff7ed1; stroke: #ffffff; stroke-width: 0.565685"/>
    </g>
    <g clip-path="url(#pf7e7d6ad06)">
     <use xlink:href="#C3_0_33563c9184" x="170.530218" y="265.312256" style="fill: #ffa52f; stroke: #ffffff; stroke-width: 0.565685"/>
    </g>
    <g clip-path="url(#pf7e7d6ad06)">
     <use xlink:href="#C3_0_33563c9184" x="167.59464" y="291.551909" style="fill: #018700; stroke: #ffffff; stroke-width: 0.565685"/>
    </g>
    <g clip-path="url(#pf7e7d6ad06)">
     <use xlink:href="#C3_0_33563c9184" x="167.127121" y="257.446884" style="fill: #6b004f; stroke: #ffffff; stroke-width: 0.565685"/>
    </g>
    <g clip-path="url(#pf7e7d6ad06)">
     <use xlink:href="#C3_0_33563c9184" x="168.361761" y="287.30381" style="fill: #8c3bff; stroke: #ffffff; stroke-width: 0.565685"/>
    </g>
   </g>
   <g id="PathCollection_5">
    <defs>
     <path id="C4_0_470df53935" d="M 0 3.535534 
C 0.937635 3.535534 1.836992 3.163008 2.5 2.5 
C 3.163008 1.836992 3.535534 0.937635 3.535534 -0 
C 3.535534 -0.937635 3.163008 -1.836992 2.5 -2.5 
C 1.836992 -3.163008 0.937635 -3.535534 0 -3.535534 
C -0.937635 -3.535534 -1.836992 -3.163008 -2.5 -2.5 
C -3.163008 -1.836992 -3.535534 -0.937635 -3.535534 0 
C -3.535534 0.937635 -3.163008 1.836992 -2.5 2.5 
C -1.836992 3.163008 -0.937635 3.535534 0 3.535534 
z
"/>
    </defs>
    <g clip-path="url(#pf7e7d6ad06)">
     <use xlink:href="#C4_0_470df53935" x="204.16391" y="254.589035" style="fill: #d60000; stroke: #ffffff; stroke-width: 0.565685"/>
    </g>
    <g clip-path="url(#pf7e7d6ad06)">
     <use xlink:href="#C4_0_470df53935" x="200.73331" y="225.874907" style="fill: #ff7ed1; stroke: #ffffff; stroke-width: 0.565685"/>
    </g>
    <g clip-path="url(#pf7e7d6ad06)">
     <use xlink:href="#C4_0_470df53935" x="205.542234" y="264.920498" style="fill: #ffa52f; stroke: #ffffff; stroke-width: 0.565685"/>
    </g>
    <g clip-path="url(#pf7e7d6ad06)">
     <use xlink:href="#C4_0_470df53935" x="203.514316" y="278.249368" style="fill: #018700; stroke: #ffffff; stroke-width: 0.565685"/>
    </g>
    <g clip-path="url(#pf7e7d6ad06)">
     <use xlink:href="#C4_0_470df53935" x="201.980675" y="231.044164" style="fill: #6b004f; stroke: #ffffff; stroke-width: 0.565685"/>
    </g>
    <g clip-path="url(#pf7e7d6ad06)">
     <use xlink:href="#C4_0_470df53935" x="205.693741" y="275.236593" style="fill: #8c3bff; stroke: #ffffff; stroke-width: 0.565685"/>
    </g>
   </g>
   <g id="PathCollection_6">
    <defs>
     <path id="C5_0_16199350a0" d="M 0 3.535534 
C 0.937635 3.535534 1.836992 3.163008 2.5 2.5 
C 3.163008 1.836992 3.535534 0.937635 3.535534 -0 
C 3.535534 -0.937635 3.163008 -1.836992 2.5 -2.5 
C 1.836992 -3.163008 0.937635 -3.535534 0 -3.535534 
C -0.937635 -3.535534 -1.836992 -3.163008 -2.5 -2.5 
C -3.163008 -1.836992 -3.535534 -0.937635 -3.535534 0 
C -3.535534 0.937635 -3.163008 1.836992 -2.5 2.5 
C -1.836992 3.163008 -0.937635 3.535534 0 3.535534 
z
"/>
    </defs>
    <g clip-path="url(#pf7e7d6ad06)">
     <use xlink:href="#C5_0_16199350a0" x="232.461381" y="279.174684" style="fill: #97ff00; stroke: #ffffff; stroke-width: 0.565685"/>
    </g>
    <g clip-path="url(#pf7e7d6ad06)">
     <use xlink:href="#C5_0_16199350a0" x="233.143594" y="236.55264" style="fill: #d60000; stroke: #ffffff; stroke-width: 0.565685"/>
    </g>
    <g clip-path="url(#pf7e7d6ad06)">
     <use xlink:href="#C5_0_16199350a0" x="230.518348" y="213.012828" style="fill: #ff7ed1; stroke: #ffffff; stroke-width: 0.565685"/>
    </g>
    <g clip-path="url(#pf7e7d6ad06)">
     <use xlink:href="#C5_0_16199350a0" x="227.030623" y="265.885071" style="fill: #018700; stroke: #ffffff; stroke-width: 0.565685"/>
    </g>
    <g clip-path="url(#pf7e7d6ad06)">
     <use xlink:href="#C5_0_16199350a0" x="227.277951" y="266.923816" style="fill: #8c3bff; stroke: #ffffff; stroke-width: 0.565685"/>
    </g>
   </g>
   <g id="PathCollection_7">
    <defs>
     <path id="C6_0_3689f82517" d="M 0 3.535534 
C 0.937635 3.535534 1.836992 3.163008 2.5 2.5 
C 3.163008 1.836992 3.535534 0.937635 3.535534 -0 
C 3.535534 -0.937635 3.163008 -1.836992 2.5 -2.5 
C 1.836992 -3.163008 0.937635 -3.535534 0 -3.535534 
C -0.937635 -3.535534 -1.836992 -3.163008 -2.5 -2.5 
C -3.163008 -1.836992 -3.535534 -0.937635 -3.535534 0 
C -3.535534 0.937635 -3.163008 1.836992 -2.5 2.5 
C -1.836992 3.163008 -0.937635 3.535534 0 3.535534 
z
"/>
    </defs>
    <g clip-path="url(#pf7e7d6ad06)">
     <use xlink:href="#C6_0_3689f82517" x="269.345773" y="268.268444" style="fill: #97ff00; stroke: #ffffff; stroke-width: 0.565685"/>
    </g>
    <g clip-path="url(#pf7e7d6ad06)">
     <use xlink:href="#C6_0_3689f82517" x="268.334935" y="214.523014" style="fill: #d60000; stroke: #ffffff; stroke-width: 0.565685"/>
    </g>
    <g clip-path="url(#pf7e7d6ad06)">
     <use xlink:href="#C6_0_3689f82517" x="271.866362" y="185.418685" style="fill: #ff7ed1; stroke: #ffffff; stroke-width: 0.565685"/>
    </g>
    <g clip-path="url(#pf7e7d6ad06)">
     <use xlink:href="#C6_0_3689f82517" x="272.516728" y="257.990188" style="fill: #018700; stroke: #ffffff; stroke-width: 0.565685"/>
    </g>
    <g clip-path="url(#pf7e7d6ad06)">
     <use xlink:href="#C6_0_3689f82517" x="268.067219" y="255.672751" style="fill: #8c3bff; stroke: #ffffff; stroke-width: 0.565685"/>
    </g>
   </g>
   <g id="PathCollection_8">
    <defs>
     <path id="C7_0_ce5e2beba4" d="M 0 3.535534 
C 0.937635 3.535534 1.836992 3.163008 2.5 2.5 
C 3.163008 1.836992 3.535534 0.937635 3.535534 -0 
C 3.535534 -0.937635 3.163008 -1.836992 2.5 -2.5 
C 1.836992 -3.163008 0.937635 -3.535534 0 -3.535534 
C -0.937635 -3.535534 -1.836992 -3.163008 -2.5 -2.5 
C -3.163008 -1.836992 -3.535534 -0.937635 -3.535534 0 
C -3.535534 0.937635 -3.163008 1.836992 -2.5 2.5 
C -1.836992 3.163008 -0.937635 3.535534 0 3.535534 
z
"/>
    </defs>
    <g clip-path="url(#pf7e7d6ad06)">
     <use xlink:href="#C7_0_ce5e2beba4" x="334.387998" y="268.355763" style="fill: #97ff00; stroke: #ffffff; stroke-width: 0.565685"/>
    </g>
    <g clip-path="url(#pf7e7d6ad06)">
     <use xlink:href="#C7_0_ce5e2beba4" x="339.599729" y="169.460806" style="fill: #d60000; stroke: #ffffff; stroke-width: 0.565685"/>
    </g>
    <g clip-path="url(#pf7e7d6ad06)">
     <use xlink:href="#C7_0_ce5e2beba4" x="337.509467" y="130.637802" style="fill: #ff7ed1; stroke: #ffffff; stroke-width: 0.565685"/>
    </g>
    <g clip-path="url(#pf7e7d6ad06)">
     <use xlink:href="#C7_0_ce5e2beba4" x="336.854648" y="216.536477" style="fill: #018700; stroke: #ffffff; stroke-width: 0.565685"/>
    </g>
    <g clip-path="url(#pf7e7d6ad06)">
     <use xlink:href="#C7_0_ce5e2beba4" x="340.785993" y="222.064899" style="fill: #8c3bff; stroke: #ffffff; stroke-width: 0.565685"/>
    </g>
   </g>
   <g id="PathCollection_9">
    <defs>
     <path id="C8_0_a7a4bbfa83" d="M 0 3.535534 
C 0.937635 3.535534 1.836992 3.163008 2.5 2.5 
C 3.163008 1.836992 3.535534 0.937635 3.535534 -0 
C 3.535534 -0.937635 3.163008 -1.836992 2.5 -2.5 
C 1.836992 -3.163008 0.937635 -3.535534 0 -3.535534 
C -0.937635 -3.535534 -1.836992 -3.163008 -2.5 -2.5 
C -3.163008 -1.836992 -3.535534 -0.937635 -3.535534 0 
C -3.535534 0.937635 -3.163008 1.836992 -2.5 2.5 
C -1.836992 3.163008 -0.937635 3.535534 0 3.535534 
z
"/>
    </defs>
    <g clip-path="url(#pf7e7d6ad06)">
     <use xlink:href="#C8_0_a7a4bbfa83" x="470.391774" y="174.976434" style="fill: #97ff00; stroke: #ffffff; stroke-width: 0.565685"/>
    </g>
    <g clip-path="url(#pf7e7d6ad06)">
     <use xlink:href="#C8_0_a7a4bbfa83" x="472.973381" y="82.388505" style="fill: #d60000; stroke: #ffffff; stroke-width: 0.565685"/>
    </g>
    <g clip-path="url(#pf7e7d6ad06)">
     <use xlink:href="#C8_0_a7a4bbfa83" x="475.010341" y="38.957812" style="fill: #ff7ed1; stroke: #ffffff; stroke-width: 0.565685"/>
    </g>
    <g clip-path="url(#pf7e7d6ad06)">
     <use xlink:href="#C8_0_a7a4bbfa83" x="469.463206" y="144.417124" style="fill: #018700; stroke: #ffffff; stroke-width: 0.565685"/>
    </g>
    <g clip-path="url(#pf7e7d6ad06)">
     <use xlink:href="#C8_0_a7a4bbfa83" x="474.379064" y="153.829531" style="fill: #8c3bff; stroke: #ffffff; stroke-width: 0.565685"/>
    </g>
   </g>
   <g id="matplotlib.axis_1">
    <g id="xtick_1">
     <g id="line2d_1">
      <path d="M 69.158616 356.477812 
L 69.158616 23.837812 
" clip-path="url(#pf7e7d6ad06)" style="fill: none; stroke: #b0b0b0; stroke-width: 0.8; stroke-linecap: square"/>
     </g>
     <g id="line2d_2">
      <defs>
       <path id="m7ae2227c39" d="M 0 0 
L 0 3.5 
" style="stroke: #000000; stroke-width: 0.8"/>
      </defs>
      <g>
       <use xlink:href="#m7ae2227c39" x="69.158616" y="356.477812" style="stroke: #000000; stroke-width: 0.8"/>
      </g>
     </g>
     <g id="text_1">
      <!-- 0 -->
      <g transform="translate(65.977366 371.07625) scale(0.1 -0.1)">
       <defs>
        <path id="DejaVuSans-30" d="M 2034 4250 
Q 1547 4250 1301 3770 
Q 1056 3291 1056 2328 
Q 1056 1369 1301 889 
Q 1547 409 2034 409 
Q 2525 409 2770 889 
Q 3016 1369 3016 2328 
Q 3016 3291 2770 3770 
Q 2525 4250 2034 4250 
z
M 2034 4750 
Q 2819 4750 3233 4129 
Q 3647 3509 3647 2328 
Q 3647 1150 3233 529 
Q 2819 -91 2034 -91 
Q 1250 -91 836 529 
Q 422 1150 422 2328 
Q 422 3509 836 4129 
Q 1250 4750 2034 4750 
z
" transform="scale(0.015625)"/>
       </defs>
       <use xlink:href="#DejaVuSans-30"/>
      </g>
     </g>
    </g>
    <g id="xtick_2">
     <g id="line2d_3">
      <path d="M 136.245163 356.477812 
L 136.245163 23.837812 
" clip-path="url(#pf7e7d6ad06)" style="fill: none; stroke: #b0b0b0; stroke-width: 0.8; stroke-linecap: square"/>
     </g>
     <g id="line2d_4">
      <g>
       <use xlink:href="#m7ae2227c39" x="136.245163" y="356.477812" style="stroke: #000000; stroke-width: 0.8"/>
      </g>
     </g>
     <g id="text_2">
      <!-- 200 -->
      <g transform="translate(126.701413 371.07625) scale(0.1 -0.1)">
       <defs>
        <path id="DejaVuSans-32" d="M 1228 531 
L 3431 531 
L 3431 0 
L 469 0 
L 469 531 
Q 828 903 1448 1529 
Q 2069 2156 2228 2338 
Q 2531 2678 2651 2914 
Q 2772 3150 2772 3378 
Q 2772 3750 2511 3984 
Q 2250 4219 1831 4219 
Q 1534 4219 1204 4116 
Q 875 4013 500 3803 
L 500 4441 
Q 881 4594 1212 4672 
Q 1544 4750 1819 4750 
Q 2544 4750 2975 4387 
Q 3406 4025 3406 3419 
Q 3406 3131 3298 2873 
Q 3191 2616 2906 2266 
Q 2828 2175 2409 1742 
Q 1991 1309 1228 531 
z
" transform="scale(0.015625)"/>
       </defs>
       <use xlink:href="#DejaVuSans-32"/>
       <use xlink:href="#DejaVuSans-30" transform="translate(63.623047 0)"/>
       <use xlink:href="#DejaVuSans-30" transform="translate(127.246094 0)"/>
      </g>
     </g>
    </g>
    <g id="xtick_3">
     <g id="line2d_5">
      <path d="M 203.33171 356.477812 
L 203.33171 23.837812 
" clip-path="url(#pf7e7d6ad06)" style="fill: none; stroke: #b0b0b0; stroke-width: 0.8; stroke-linecap: square"/>
     </g>
     <g id="line2d_6">
      <g>
       <use xlink:href="#m7ae2227c39" x="203.33171" y="356.477812" style="stroke: #000000; stroke-width: 0.8"/>
      </g>
     </g>
     <g id="text_3">
      <!-- 400 -->
      <g transform="translate(193.78796 371.07625) scale(0.1 -0.1)">
       <defs>
        <path id="DejaVuSans-34" d="M 2419 4116 
L 825 1625 
L 2419 1625 
L 2419 4116 
z
M 2253 4666 
L 3047 4666 
L 3047 1625 
L 3713 1625 
L 3713 1100 
L 3047 1100 
L 3047 0 
L 2419 0 
L 2419 1100 
L 313 1100 
L 313 1709 
L 2253 4666 
z
" transform="scale(0.015625)"/>
       </defs>
       <use xlink:href="#DejaVuSans-34"/>
       <use xlink:href="#DejaVuSans-30" transform="translate(63.623047 0)"/>
       <use xlink:href="#DejaVuSans-30" transform="translate(127.246094 0)"/>
      </g>
     </g>
    </g>
    <g id="xtick_4">
     <g id="line2d_7">
      <path d="M 270.418257 356.477812 
L 270.418257 23.837812 
" clip-path="url(#pf7e7d6ad06)" style="fill: none; stroke: #b0b0b0; stroke-width: 0.8; stroke-linecap: square"/>
     </g>
     <g id="line2d_8">
      <g>
       <use xlink:href="#m7ae2227c39" x="270.418257" y="356.477812" style="stroke: #000000; stroke-width: 0.8"/>
      </g>
     </g>
     <g id="text_4">
      <!-- 600 -->
      <g transform="translate(260.874507 371.07625) scale(0.1 -0.1)">
       <defs>
        <path id="DejaVuSans-36" d="M 2113 2584 
Q 1688 2584 1439 2293 
Q 1191 2003 1191 1497 
Q 1191 994 1439 701 
Q 1688 409 2113 409 
Q 2538 409 2786 701 
Q 3034 994 3034 1497 
Q 3034 2003 2786 2293 
Q 2538 2584 2113 2584 
z
M 3366 4563 
L 3366 3988 
Q 3128 4100 2886 4159 
Q 2644 4219 2406 4219 
Q 1781 4219 1451 3797 
Q 1122 3375 1075 2522 
Q 1259 2794 1537 2939 
Q 1816 3084 2150 3084 
Q 2853 3084 3261 2657 
Q 3669 2231 3669 1497 
Q 3669 778 3244 343 
Q 2819 -91 2113 -91 
Q 1303 -91 875 529 
Q 447 1150 447 2328 
Q 447 3434 972 4092 
Q 1497 4750 2381 4750 
Q 2619 4750 2861 4703 
Q 3103 4656 3366 4563 
z
" transform="scale(0.015625)"/>
       </defs>
       <use xlink:href="#DejaVuSans-36"/>
       <use xlink:href="#DejaVuSans-30" transform="translate(63.623047 0)"/>
       <use xlink:href="#DejaVuSans-30" transform="translate(127.246094 0)"/>
      </g>
     </g>
    </g>
    <g id="xtick_5">
     <g id="line2d_9">
      <path d="M 337.504804 356.477812 
L 337.504804 23.837812 
" clip-path="url(#pf7e7d6ad06)" style="fill: none; stroke: #b0b0b0; stroke-width: 0.8; stroke-linecap: square"/>
     </g>
     <g id="line2d_10">
      <g>
       <use xlink:href="#m7ae2227c39" x="337.504804" y="356.477812" style="stroke: #000000; stroke-width: 0.8"/>
      </g>
     </g>
     <g id="text_5">
      <!-- 800 -->
      <g transform="translate(327.961054 371.07625) scale(0.1 -0.1)">
       <defs>
        <path id="DejaVuSans-38" d="M 2034 2216 
Q 1584 2216 1326 1975 
Q 1069 1734 1069 1313 
Q 1069 891 1326 650 
Q 1584 409 2034 409 
Q 2484 409 2743 651 
Q 3003 894 3003 1313 
Q 3003 1734 2745 1975 
Q 2488 2216 2034 2216 
z
M 1403 2484 
Q 997 2584 770 2862 
Q 544 3141 544 3541 
Q 544 4100 942 4425 
Q 1341 4750 2034 4750 
Q 2731 4750 3128 4425 
Q 3525 4100 3525 3541 
Q 3525 3141 3298 2862 
Q 3072 2584 2669 2484 
Q 3125 2378 3379 2068 
Q 3634 1759 3634 1313 
Q 3634 634 3220 271 
Q 2806 -91 2034 -91 
Q 1263 -91 848 271 
Q 434 634 434 1313 
Q 434 1759 690 2068 
Q 947 2378 1403 2484 
z
M 1172 3481 
Q 1172 3119 1398 2916 
Q 1625 2713 2034 2713 
Q 2441 2713 2670 2916 
Q 2900 3119 2900 3481 
Q 2900 3844 2670 4047 
Q 2441 4250 2034 4250 
Q 1625 4250 1398 4047 
Q 1172 3844 1172 3481 
z
" transform="scale(0.015625)"/>
       </defs>
       <use xlink:href="#DejaVuSans-38"/>
       <use xlink:href="#DejaVuSans-30" transform="translate(63.623047 0)"/>
       <use xlink:href="#DejaVuSans-30" transform="translate(127.246094 0)"/>
      </g>
     </g>
    </g>
    <g id="xtick_6">
     <g id="line2d_11">
      <path d="M 404.591351 356.477812 
L 404.591351 23.837812 
" clip-path="url(#pf7e7d6ad06)" style="fill: none; stroke: #b0b0b0; stroke-width: 0.8; stroke-linecap: square"/>
     </g>
     <g id="line2d_12">
      <g>
       <use xlink:href="#m7ae2227c39" x="404.591351" y="356.477812" style="stroke: #000000; stroke-width: 0.8"/>
      </g>
     </g>
     <g id="text_6">
      <!-- 1000 -->
      <g transform="translate(391.866351 371.07625) scale(0.1 -0.1)">
       <defs>
        <path id="DejaVuSans-31" d="M 794 531 
L 1825 531 
L 1825 4091 
L 703 3866 
L 703 4441 
L 1819 4666 
L 2450 4666 
L 2450 531 
L 3481 531 
L 3481 0 
L 794 0 
L 794 531 
z
" transform="scale(0.015625)"/>
       </defs>
       <use xlink:href="#DejaVuSans-31"/>
       <use xlink:href="#DejaVuSans-30" transform="translate(63.623047 0)"/>
       <use xlink:href="#DejaVuSans-30" transform="translate(127.246094 0)"/>
       <use xlink:href="#DejaVuSans-30" transform="translate(190.869141 0)"/>
      </g>
     </g>
    </g>
    <g id="xtick_7">
     <g id="line2d_13">
      <path d="M 471.677898 356.477812 
L 471.677898 23.837812 
" clip-path="url(#pf7e7d6ad06)" style="fill: none; stroke: #b0b0b0; stroke-width: 0.8; stroke-linecap: square"/>
     </g>
     <g id="line2d_14">
      <g>
       <use xlink:href="#m7ae2227c39" x="471.677898" y="356.477812" style="stroke: #000000; stroke-width: 0.8"/>
      </g>
     </g>
     <g id="text_7">
      <!-- 1200 -->
      <g transform="translate(458.952898 371.07625) scale(0.1 -0.1)">
       <use xlink:href="#DejaVuSans-31"/>
       <use xlink:href="#DejaVuSans-32" transform="translate(63.623047 0)"/>
       <use xlink:href="#DejaVuSans-30" transform="translate(127.246094 0)"/>
       <use xlink:href="#DejaVuSans-30" transform="translate(190.869141 0)"/>
      </g>
     </g>
    </g>
    <g id="text_8">
     <!-- Number of nodes -->
     <g transform="translate(220.300625 386.274062) scale(0.12 -0.12)">
      <defs>
       <path id="DejaVuSans-4e" d="M 628 4666 
L 1478 4666 
L 3547 763 
L 3547 4666 
L 4159 4666 
L 4159 0 
L 3309 0 
L 1241 3903 
L 1241 0 
L 628 0 
L 628 4666 
z
" transform="scale(0.015625)"/>
       <path id="DejaVuSans-75" d="M 544 1381 
L 544 3500 
L 1119 3500 
L 1119 1403 
Q 1119 906 1312 657 
Q 1506 409 1894 409 
Q 2359 409 2629 706 
Q 2900 1003 2900 1516 
L 2900 3500 
L 3475 3500 
L 3475 0 
L 2900 0 
L 2900 538 
Q 2691 219 2414 64 
Q 2138 -91 1772 -91 
Q 1169 -91 856 284 
Q 544 659 544 1381 
z
M 1991 3584 
L 1991 3584 
z
" transform="scale(0.015625)"/>
       <path id="DejaVuSans-6d" d="M 3328 2828 
Q 3544 3216 3844 3400 
Q 4144 3584 4550 3584 
Q 5097 3584 5394 3201 
Q 5691 2819 5691 2113 
L 5691 0 
L 5113 0 
L 5113 2094 
Q 5113 2597 4934 2840 
Q 4756 3084 4391 3084 
Q 3944 3084 3684 2787 
Q 3425 2491 3425 1978 
L 3425 0 
L 2847 0 
L 2847 2094 
Q 2847 2600 2669 2842 
Q 2491 3084 2119 3084 
Q 1678 3084 1418 2786 
Q 1159 2488 1159 1978 
L 1159 0 
L 581 0 
L 581 3500 
L 1159 3500 
L 1159 2956 
Q 1356 3278 1631 3431 
Q 1906 3584 2284 3584 
Q 2666 3584 2933 3390 
Q 3200 3197 3328 2828 
z
" transform="scale(0.015625)"/>
       <path id="DejaVuSans-62" d="M 3116 1747 
Q 3116 2381 2855 2742 
Q 2594 3103 2138 3103 
Q 1681 3103 1420 2742 
Q 1159 2381 1159 1747 
Q 1159 1113 1420 752 
Q 1681 391 2138 391 
Q 2594 391 2855 752 
Q 3116 1113 3116 1747 
z
M 1159 2969 
Q 1341 3281 1617 3432 
Q 1894 3584 2278 3584 
Q 2916 3584 3314 3078 
Q 3713 2572 3713 1747 
Q 3713 922 3314 415 
Q 2916 -91 2278 -91 
Q 1894 -91 1617 61 
Q 1341 213 1159 525 
L 1159 0 
L 581 0 
L 581 4863 
L 1159 4863 
L 1159 2969 
z
" transform="scale(0.015625)"/>
       <path id="DejaVuSans-65" d="M 3597 1894 
L 3597 1613 
L 953 1613 
Q 991 1019 1311 708 
Q 1631 397 2203 397 
Q 2534 397 2845 478 
Q 3156 559 3463 722 
L 3463 178 
Q 3153 47 2828 -22 
Q 2503 -91 2169 -91 
Q 1331 -91 842 396 
Q 353 884 353 1716 
Q 353 2575 817 3079 
Q 1281 3584 2069 3584 
Q 2775 3584 3186 3129 
Q 3597 2675 3597 1894 
z
M 3022 2063 
Q 3016 2534 2758 2815 
Q 2500 3097 2075 3097 
Q 1594 3097 1305 2825 
Q 1016 2553 972 2059 
L 3022 2063 
z
" transform="scale(0.015625)"/>
       <path id="DejaVuSans-72" d="M 2631 2963 
Q 2534 3019 2420 3045 
Q 2306 3072 2169 3072 
Q 1681 3072 1420 2755 
Q 1159 2438 1159 1844 
L 1159 0 
L 581 0 
L 581 3500 
L 1159 3500 
L 1159 2956 
Q 1341 3275 1631 3429 
Q 1922 3584 2338 3584 
Q 2397 3584 2469 3576 
Q 2541 3569 2628 3553 
L 2631 2963 
z
" transform="scale(0.015625)"/>
       <path id="DejaVuSans-20" transform="scale(0.015625)"/>
       <path id="DejaVuSans-6f" d="M 1959 3097 
Q 1497 3097 1228 2736 
Q 959 2375 959 1747 
Q 959 1119 1226 758 
Q 1494 397 1959 397 
Q 2419 397 2687 759 
Q 2956 1122 2956 1747 
Q 2956 2369 2687 2733 
Q 2419 3097 1959 3097 
z
M 1959 3584 
Q 2709 3584 3137 3096 
Q 3566 2609 3566 1747 
Q 3566 888 3137 398 
Q 2709 -91 1959 -91 
Q 1206 -91 779 398 
Q 353 888 353 1747 
Q 353 2609 779 3096 
Q 1206 3584 1959 3584 
z
" transform="scale(0.015625)"/>
       <path id="DejaVuSans-66" d="M 2375 4863 
L 2375 4384 
L 1825 4384 
Q 1516 4384 1395 4259 
Q 1275 4134 1275 3809 
L 1275 3500 
L 2222 3500 
L 2222 3053 
L 1275 3053 
L 1275 0 
L 697 0 
L 697 3053 
L 147 3053 
L 147 3500 
L 697 3500 
L 697 3744 
Q 697 4328 969 4595 
Q 1241 4863 1831 4863 
L 2375 4863 
z
" transform="scale(0.015625)"/>
       <path id="DejaVuSans-6e" d="M 3513 2113 
L 3513 0 
L 2938 0 
L 2938 2094 
Q 2938 2591 2744 2837 
Q 2550 3084 2163 3084 
Q 1697 3084 1428 2787 
Q 1159 2491 1159 1978 
L 1159 0 
L 581 0 
L 581 3500 
L 1159 3500 
L 1159 2956 
Q 1366 3272 1645 3428 
Q 1925 3584 2291 3584 
Q 2894 3584 3203 3211 
Q 3513 2838 3513 2113 
z
" transform="scale(0.015625)"/>
       <path id="DejaVuSans-64" d="M 2906 2969 
L 2906 4863 
L 3481 4863 
L 3481 0 
L 2906 0 
L 2906 525 
Q 2725 213 2448 61 
Q 2172 -91 1784 -91 
Q 1150 -91 751 415 
Q 353 922 353 1747 
Q 353 2572 751 3078 
Q 1150 3584 1784 3584 
Q 2172 3584 2448 3432 
Q 2725 3281 2906 2969 
z
M 947 1747 
Q 947 1113 1208 752 
Q 1469 391 1925 391 
Q 2381 391 2643 752 
Q 2906 1113 2906 1747 
Q 2906 2381 2643 2742 
Q 2381 3103 1925 3103 
Q 1469 3103 1208 2742 
Q 947 2381 947 1747 
z
" transform="scale(0.015625)"/>
       <path id="DejaVuSans-73" d="M 2834 3397 
L 2834 2853 
Q 2591 2978 2328 3040 
Q 2066 3103 1784 3103 
Q 1356 3103 1142 2972 
Q 928 2841 928 2578 
Q 928 2378 1081 2264 
Q 1234 2150 1697 2047 
L 1894 2003 
Q 2506 1872 2764 1633 
Q 3022 1394 3022 966 
Q 3022 478 2636 193 
Q 2250 -91 1575 -91 
Q 1294 -91 989 -36 
Q 684 19 347 128 
L 347 722 
Q 666 556 975 473 
Q 1284 391 1588 391 
Q 1994 391 2212 530 
Q 2431 669 2431 922 
Q 2431 1156 2273 1281 
Q 2116 1406 1581 1522 
L 1381 1569 
Q 847 1681 609 1914 
Q 372 2147 372 2553 
Q 372 3047 722 3315 
Q 1072 3584 1716 3584 
Q 2034 3584 2315 3537 
Q 2597 3491 2834 3397 
z
" transform="scale(0.015625)"/>
      </defs>
      <use xlink:href="#DejaVuSans-4e"/>
      <use xlink:href="#DejaVuSans-75" transform="translate(74.804688 0)"/>
      <use xlink:href="#DejaVuSans-6d" transform="translate(138.183594 0)"/>
      <use xlink:href="#DejaVuSans-62" transform="translate(235.595703 0)"/>
      <use xlink:href="#DejaVuSans-65" transform="translate(299.072266 0)"/>
      <use xlink:href="#DejaVuSans-72" transform="translate(360.595703 0)"/>
      <use xlink:href="#DejaVuSans-20" transform="translate(401.708984 0)"/>
      <use xlink:href="#DejaVuSans-6f" transform="translate(433.496094 0)"/>
      <use xlink:href="#DejaVuSans-66" transform="translate(494.677734 0)"/>
      <use xlink:href="#DejaVuSans-20" transform="translate(529.882812 0)"/>
      <use xlink:href="#DejaVuSans-6e" transform="translate(561.669922 0)"/>
      <use xlink:href="#DejaVuSans-6f" transform="translate(625.048828 0)"/>
      <use xlink:href="#DejaVuSans-64" transform="translate(686.230469 0)"/>
      <use xlink:href="#DejaVuSans-65" transform="translate(749.707031 0)"/>
      <use xlink:href="#DejaVuSans-73" transform="translate(811.230469 0)"/>
     </g>
    </g>
   </g>
   <g id="matplotlib.axis_2">
    <g id="ytick_1">
     <g id="line2d_15">
      <path d="M 48.90125 335.018191 
L 495.30125 335.018191 
" clip-path="url(#pf7e7d6ad06)" style="fill: none; stroke: #b0b0b0; stroke-width: 0.8; stroke-linecap: square"/>
     </g>
     <g id="line2d_16">
      <defs>
       <path id="ma0e99789ac" d="M 0 0 
L -3.5 0 
" style="stroke: #000000; stroke-width: 0.8"/>
      </defs>
      <g>
       <use xlink:href="#ma0e99789ac" x="48.90125" y="335.018191" style="stroke: #000000; stroke-width: 0.8"/>
      </g>
     </g>
     <g id="text_9">
      <!-- 0 -->
      <g transform="translate(35.53875 338.817409) scale(0.1 -0.1)">
       <use xlink:href="#DejaVuSans-30"/>
      </g>
     </g>
    </g>
    <g id="ytick_2">
     <g id="line2d_17">
      <path d="M 48.90125 287.307781 
L 495.30125 287.307781 
" clip-path="url(#pf7e7d6ad06)" style="fill: none; stroke: #b0b0b0; stroke-width: 0.8; stroke-linecap: square"/>
     </g>
     <g id="line2d_18">
      <g>
       <use xlink:href="#ma0e99789ac" x="48.90125" y="287.307781" style="stroke: #000000; stroke-width: 0.8"/>
      </g>
     </g>
     <g id="text_10">
      <!-- 50 -->
      <g transform="translate(29.17625 291.107) scale(0.1 -0.1)">
       <defs>
        <path id="DejaVuSans-35" d="M 691 4666 
L 3169 4666 
L 3169 4134 
L 1269 4134 
L 1269 2991 
Q 1406 3038 1543 3061 
Q 1681 3084 1819 3084 
Q 2600 3084 3056 2656 
Q 3513 2228 3513 1497 
Q 3513 744 3044 326 
Q 2575 -91 1722 -91 
Q 1428 -91 1123 -41 
Q 819 9 494 109 
L 494 744 
Q 775 591 1075 516 
Q 1375 441 1709 441 
Q 2250 441 2565 725 
Q 2881 1009 2881 1497 
Q 2881 1984 2565 2268 
Q 2250 2553 1709 2553 
Q 1456 2553 1204 2497 
Q 953 2441 691 2322 
L 691 4666 
z
" transform="scale(0.015625)"/>
       </defs>
       <use xlink:href="#DejaVuSans-35"/>
       <use xlink:href="#DejaVuSans-30" transform="translate(63.623047 0)"/>
      </g>
     </g>
    </g>
    <g id="ytick_3">
     <g id="line2d_19">
      <path d="M 48.90125 239.597372 
L 495.30125 239.597372 
" clip-path="url(#pf7e7d6ad06)" style="fill: none; stroke: #b0b0b0; stroke-width: 0.8; stroke-linecap: square"/>
     </g>
     <g id="line2d_20">
      <g>
       <use xlink:href="#ma0e99789ac" x="48.90125" y="239.597372" style="stroke: #000000; stroke-width: 0.8"/>
      </g>
     </g>
     <g id="text_11">
      <!-- 100 -->
      <g transform="translate(22.81375 243.396591) scale(0.1 -0.1)">
       <use xlink:href="#DejaVuSans-31"/>
       <use xlink:href="#DejaVuSans-30" transform="translate(63.623047 0)"/>
       <use xlink:href="#DejaVuSans-30" transform="translate(127.246094 0)"/>
      </g>
     </g>
    </g>
    <g id="ytick_4">
     <g id="line2d_21">
      <path d="M 48.90125 191.886963 
L 495.30125 191.886963 
" clip-path="url(#pf7e7d6ad06)" style="fill: none; stroke: #b0b0b0; stroke-width: 0.8; stroke-linecap: square"/>
     </g>
     <g id="line2d_22">
      <g>
       <use xlink:href="#ma0e99789ac" x="48.90125" y="191.886963" style="stroke: #000000; stroke-width: 0.8"/>
      </g>
     </g>
     <g id="text_12">
      <!-- 150 -->
      <g transform="translate(22.81375 195.686182) scale(0.1 -0.1)">
       <use xlink:href="#DejaVuSans-31"/>
       <use xlink:href="#DejaVuSans-35" transform="translate(63.623047 0)"/>
       <use xlink:href="#DejaVuSans-30" transform="translate(127.246094 0)"/>
      </g>
     </g>
    </g>
    <g id="ytick_5">
     <g id="line2d_23">
      <path d="M 48.90125 144.176554 
L 495.30125 144.176554 
" clip-path="url(#pf7e7d6ad06)" style="fill: none; stroke: #b0b0b0; stroke-width: 0.8; stroke-linecap: square"/>
     </g>
     <g id="line2d_24">
      <g>
       <use xlink:href="#ma0e99789ac" x="48.90125" y="144.176554" style="stroke: #000000; stroke-width: 0.8"/>
      </g>
     </g>
     <g id="text_13">
      <!-- 200 -->
      <g transform="translate(22.81375 147.975773) scale(0.1 -0.1)">
       <use xlink:href="#DejaVuSans-32"/>
       <use xlink:href="#DejaVuSans-30" transform="translate(63.623047 0)"/>
       <use xlink:href="#DejaVuSans-30" transform="translate(127.246094 0)"/>
      </g>
     </g>
    </g>
    <g id="ytick_6">
     <g id="line2d_25">
      <path d="M 48.90125 96.466145 
L 495.30125 96.466145 
" clip-path="url(#pf7e7d6ad06)" style="fill: none; stroke: #b0b0b0; stroke-width: 0.8; stroke-linecap: square"/>
     </g>
     <g id="line2d_26">
      <g>
       <use xlink:href="#ma0e99789ac" x="48.90125" y="96.466145" style="stroke: #000000; stroke-width: 0.8"/>
      </g>
     </g>
     <g id="text_14">
      <!-- 250 -->
      <g transform="translate(22.81375 100.265364) scale(0.1 -0.1)">
       <use xlink:href="#DejaVuSans-32"/>
       <use xlink:href="#DejaVuSans-35" transform="translate(63.623047 0)"/>
       <use xlink:href="#DejaVuSans-30" transform="translate(127.246094 0)"/>
      </g>
     </g>
    </g>
    <g id="ytick_7">
     <g id="line2d_27">
      <path d="M 48.90125 48.755736 
L 495.30125 48.755736 
" clip-path="url(#pf7e7d6ad06)" style="fill: none; stroke: #b0b0b0; stroke-width: 0.8; stroke-linecap: square"/>
     </g>
     <g id="line2d_28">
      <g>
       <use xlink:href="#ma0e99789ac" x="48.90125" y="48.755736" style="stroke: #000000; stroke-width: 0.8"/>
      </g>
     </g>
     <g id="text_15">
      <!-- 300 -->
      <g transform="translate(22.81375 52.554955) scale(0.1 -0.1)">
       <defs>
        <path id="DejaVuSans-33" d="M 2597 2516 
Q 3050 2419 3304 2112 
Q 3559 1806 3559 1356 
Q 3559 666 3084 287 
Q 2609 -91 1734 -91 
Q 1441 -91 1130 -33 
Q 819 25 488 141 
L 488 750 
Q 750 597 1062 519 
Q 1375 441 1716 441 
Q 2309 441 2620 675 
Q 2931 909 2931 1356 
Q 2931 1769 2642 2001 
Q 2353 2234 1838 2234 
L 1294 2234 
L 1294 2753 
L 1863 2753 
Q 2328 2753 2575 2939 
Q 2822 3125 2822 3475 
Q 2822 3834 2567 4026 
Q 2313 4219 1838 4219 
Q 1578 4219 1281 4162 
Q 984 4106 628 3988 
L 628 4550 
Q 988 4650 1302 4700 
Q 1616 4750 1894 4750 
Q 2613 4750 3031 4423 
Q 3450 4097 3450 3541 
Q 3450 3153 3228 2886 
Q 3006 2619 2597 2516 
z
" transform="scale(0.015625)"/>
       </defs>
       <use xlink:href="#DejaVuSans-33"/>
       <use xlink:href="#DejaVuSans-30" transform="translate(63.623047 0)"/>
       <use xlink:href="#DejaVuSans-30" transform="translate(127.246094 0)"/>
      </g>
     </g>
    </g>
    <g id="text_16">
     <!-- K₀ (clique detection threshold) -->
     <g transform="translate(16.318125 281.427187) rotate(-90) scale(0.12 -0.12)">
      <defs>
       <path id="DejaVuSans-4b" d="M 628 4666 
L 1259 4666 
L 1259 2694 
L 3353 4666 
L 4166 4666 
L 1850 2491 
L 4331 0 
L 3500 0 
L 1259 2247 
L 1259 0 
L 628 0 
L 628 4666 
z
" transform="scale(0.015625)"/>
       <path id="DejaVuSans-2080" d="M 1781 2091 
Q 1625 2360 1309 2360 
Q 994 2360 838 2091 
Q 678 1822 678 1285 
Q 678 744 838 476 
Q 994 207 1309 207 
Q 1625 207 1781 476 
Q 1941 744 1941 1285 
Q 1941 1822 1781 2091 
z
M 1309 2638 
Q 1813 2638 2078 2291 
Q 2344 1944 2344 1285 
Q 2344 622 2078 275 
Q 1813 -71 1309 -71 
Q 803 -71 537 275 
Q 272 622 272 1285 
Q 272 1944 537 2291 
Q 803 2638 1309 2638 
z
" transform="scale(0.015625)"/>
       <path id="DejaVuSans-28" d="M 1984 4856 
Q 1566 4138 1362 3434 
Q 1159 2731 1159 2009 
Q 1159 1288 1364 580 
Q 1569 -128 1984 -844 
L 1484 -844 
Q 1016 -109 783 600 
Q 550 1309 550 2009 
Q 550 2706 781 3412 
Q 1013 4119 1484 4856 
L 1984 4856 
z
" transform="scale(0.015625)"/>
       <path id="DejaVuSans-63" d="M 3122 3366 
L 3122 2828 
Q 2878 2963 2633 3030 
Q 2388 3097 2138 3097 
Q 1578 3097 1268 2742 
Q 959 2388 959 1747 
Q 959 1106 1268 751 
Q 1578 397 2138 397 
Q 2388 397 2633 464 
Q 2878 531 3122 666 
L 3122 134 
Q 2881 22 2623 -34 
Q 2366 -91 2075 -91 
Q 1284 -91 818 406 
Q 353 903 353 1747 
Q 353 2603 823 3093 
Q 1294 3584 2113 3584 
Q 2378 3584 2631 3529 
Q 2884 3475 3122 3366 
z
" transform="scale(0.015625)"/>
       <path id="DejaVuSans-6c" d="M 603 4863 
L 1178 4863 
L 1178 0 
L 603 0 
L 603 4863 
z
" transform="scale(0.015625)"/>
       <path id="DejaVuSans-69" d="M 603 3500 
L 1178 3500 
L 1178 0 
L 603 0 
L 603 3500 
z
M 603 4863 
L 1178 4863 
L 1178 4134 
L 603 4134 
L 603 4863 
z
" transform="scale(0.015625)"/>
       <path id="DejaVuSans-71" d="M 947 1747 
Q 947 1113 1208 752 
Q 1469 391 1925 391 
Q 2381 391 2643 752 
Q 2906 1113 2906 1747 
Q 2906 2381 2643 2742 
Q 2381 3103 1925 3103 
Q 1469 3103 1208 2742 
Q 947 2381 947 1747 
z
M 2906 525 
Q 2725 213 2448 61 
Q 2172 -91 1784 -91 
Q 1150 -91 751 415 
Q 353 922 353 1747 
Q 353 2572 751 3078 
Q 1150 3584 1784 3584 
Q 2172 3584 2448 3432 
Q 2725 3281 2906 2969 
L 2906 3500 
L 3481 3500 
L 3481 -1331 
L 2906 -1331 
L 2906 525 
z
" transform="scale(0.015625)"/>
       <path id="DejaVuSans-74" d="M 1172 4494 
L 1172 3500 
L 2356 3500 
L 2356 3053 
L 1172 3053 
L 1172 1153 
Q 1172 725 1289 603 
Q 1406 481 1766 481 
L 2356 481 
L 2356 0 
L 1766 0 
Q 1100 0 847 248 
Q 594 497 594 1153 
L 594 3053 
L 172 3053 
L 172 3500 
L 594 3500 
L 594 4494 
L 1172 4494 
z
" transform="scale(0.015625)"/>
       <path id="DejaVuSans-68" d="M 3513 2113 
L 3513 0 
L 2938 0 
L 2938 2094 
Q 2938 2591 2744 2837 
Q 2550 3084 2163 3084 
Q 1697 3084 1428 2787 
Q 1159 2491 1159 1978 
L 1159 0 
L 581 0 
L 581 4863 
L 1159 4863 
L 1159 2956 
Q 1366 3272 1645 3428 
Q 1925 3584 2291 3584 
Q 2894 3584 3203 3211 
Q 3513 2838 3513 2113 
z
" transform="scale(0.015625)"/>
       <path id="DejaVuSans-29" d="M 513 4856 
L 1013 4856 
Q 1481 4119 1714 3412 
Q 1947 2706 1947 2009 
Q 1947 1309 1714 600 
Q 1481 -109 1013 -844 
L 513 -844 
Q 928 -128 1133 580 
Q 1338 1288 1338 2009 
Q 1338 2731 1133 3434 
Q 928 4138 513 4856 
z
" transform="scale(0.015625)"/>
      </defs>
      <use xlink:href="#DejaVuSans-4b"/>
      <use xlink:href="#DejaVuSans-2080" transform="translate(65.576172 0)"/>
      <use xlink:href="#DejaVuSans-20" transform="translate(105.664062 0)"/>
      <use xlink:href="#DejaVuSans-28" transform="translate(137.451172 0)"/>
      <use xlink:href="#DejaVuSans-63" transform="translate(176.464844 0)"/>
      <use xlink:href="#DejaVuSans-6c" transform="translate(231.445312 0)"/>
      <use xlink:href="#DejaVuSans-69" transform="translate(259.228516 0)"/>
      <use xlink:href="#DejaVuSans-71" transform="translate(287.011719 0)"/>
      <use xlink:href="#DejaVuSans-75" transform="translate(350.488281 0)"/>
      <use xlink:href="#DejaVuSans-65" transform="translate(413.867188 0)"/>
      <use xlink:href="#DejaVuSans-20" transform="translate(475.390625 0)"/>
      <use xlink:href="#DejaVuSans-64" transform="translate(507.177734 0)"/>
      <use xlink:href="#DejaVuSans-65" transform="translate(570.654297 0)"/>
      <use xlink:href="#DejaVuSans-74" transform="translate(632.177734 0)"/>
      <use xlink:href="#DejaVuSans-65" transform="translate(671.386719 0)"/>
      <use xlink:href="#DejaVuSans-63" transform="translate(732.910156 0)"/>
      <use xlink:href="#DejaVuSans-74" transform="translate(787.890625 0)"/>
      <use xlink:href="#DejaVuSans-69" transform="translate(827.099609 0)"/>
      <use xlink:href="#DejaVuSans-6f" transform="translate(854.882812 0)"/>
      <use xlink:href="#DejaVuSans-6e" transform="translate(916.064453 0)"/>
      <use xlink:href="#DejaVuSans-20" transform="translate(979.443359 0)"/>
      <use xlink:href="#DejaVuSans-74" transform="translate(1011.230469 0)"/>
      <use xlink:href="#DejaVuSans-68" transform="translate(1050.439453 0)"/>
      <use xlink:href="#DejaVuSans-72" transform="translate(1113.818359 0)"/>
      <use xlink:href="#DejaVuSans-65" transform="translate(1152.681641 0)"/>
      <use xlink:href="#DejaVuSans-73" transform="translate(1214.205078 0)"/>
      <use xlink:href="#DejaVuSans-68" transform="translate(1266.304688 0)"/>
      <use xlink:href="#DejaVuSans-6f" transform="translate(1329.683594 0)"/>
      <use xlink:href="#DejaVuSans-6c" transform="translate(1390.865234 0)"/>
      <use xlink:href="#DejaVuSans-64" transform="translate(1418.648438 0)"/>
      <use xlink:href="#DejaVuSans-29" transform="translate(1482.125 0)"/>
     </g>
    </g>
   </g>
   <g id="line2d_29"/>
   <g id="line2d_30"/>
   <g id="line2d_31"/>
   <g id="line2d_32"/>
   <g id="line2d_33"/>
   <g id="line2d_34"/>
   <g id="line2d_35"/>
   <g id="line2d_36"/>
   <g id="line2d_37"/>
   <g id="line2d_38"/>
   <g id="line2d_39"/>
   <g id="line2d_40">
    <path d="M 69.192159 341.357812 
L 69.527592 334.755777 
L 69.863025 332.975442 
L 70.53389 331.133373 
L 71.204756 330.039496 
L 72.211054 328.938231 
L 73.552785 327.935113 
L 75.229948 327.044984 
L 77.242545 326.256725 
L 79.926007 325.467518 
L 83.280334 324.720856 
L 87.64096 323.979948 
L 93.343316 323.239583 
L 101.058269 322.477274 
L 111.121251 321.722372 
L 124.203128 320.97524 
L 141.310197 320.230132 
L 163.78419 319.483561 
L 193.302271 318.736019 
L 232.212468 317.985366 
L 283.198244 317.236256 
L 349.949358 316.488887 
L 437.497302 315.741671 
L 471.376009 315.499411 
L 471.376009 315.499411 
" clip-path="url(#pf7e7d6ad06)" style="fill: none; stroke: #008000; stroke-width: 1.5; stroke-linecap: square"/>
   </g>
   <g id="line2d_41">
    <path d="M 69.192159 334.835172 
L 69.527592 334.411186 
L 70.53389 333.846298 
L 72.211054 333.272302 
L 74.894516 332.624908 
L 78.919708 331.896122 
L 84.957498 331.046217 
L 93.343316 330.103869 
L 104.748029 329.056717 
L 119.842502 327.903957 
L 139.297601 326.649203 
L 164.119623 325.280279 
L 194.979435 323.809125 
L 232.883334 322.231731 
L 278.837619 320.54812 
L 334.18402 318.750087 
L 399.928836 316.843946 
L 446.218553 315.613873 
L 446.218553 315.613873 
" clip-path="url(#pf7e7d6ad06)" style="fill: none; stroke-dasharray: 1.5,2.475; stroke-dashoffset: 0; stroke: #ffa500; stroke-width: 1.5"/>
   </g>
   <g id="line2d_42">
    <path d="M 446.553986 315.605244 
L 446.889419 315.596619 
L 447.224852 315.587997 
L 447.560284 315.57938 
L 447.895717 315.570766 
L 448.23115 315.562156 
L 448.566583 315.55355 
L 448.902015 315.544947 
L 449.237448 315.536349 
L 449.572881 315.527754 
L 449.908314 315.519163 
L 450.243746 315.510576 
L 450.579179 315.501992 
L 450.914612 315.493412 
L 451.250045 315.484837 
L 451.585477 315.476264 
L 451.92091 315.467696 
L 452.256343 315.459131 
L 452.591775 315.45057 
L 452.927208 315.442013 
L 453.262641 315.43346 
L 453.598074 315.42491 
L 453.933506 315.416364 
L 454.268939 315.407822 
L 454.604372 315.399284 
L 454.939805 315.390749 
L 455.275237 315.382218 
L 455.61067 315.37369 
L 455.946103 315.365167 
L 456.281536 315.356647 
L 456.616968 315.34813 
L 456.952401 315.339618 
L 457.287834 315.331109 
L 457.623266 315.322604 
L 457.958699 315.314102 
L 458.294132 315.305604 
L 458.629565 315.29711 
L 458.964997 315.288619 
L 459.30043 315.280132 
L 459.635863 315.271649 
L 459.971296 315.26317 
L 460.306728 315.254694 
L 460.642161 315.246221 
L 460.977594 315.237752 
L 461.313027 315.229287 
L 461.648459 315.220826 
L 461.983892 315.212368 
L 462.319325 315.203914 
L 462.654758 315.195463 
L 462.99019 315.187016 
L 463.325623 315.178572 
L 463.661056 315.170133 
L 463.996488 315.161696 
L 464.331921 315.153264 
L 464.667354 315.144834 
L 465.002787 315.136409 
L 465.338219 315.127987 
L 465.673652 315.119568 
L 466.009085 315.111154 
L 466.344518 315.102742 
L 466.67995 315.094335 
L 467.015383 315.08593 
L 467.350816 315.07753 
L 467.686249 315.069133 
L 468.021681 315.060739 
L 468.357114 315.052349 
L 468.692547 315.043962 
L 469.027979 315.035579 
L 469.363412 315.0272 
L 469.698845 315.018824 
L 470.034278 315.010451 
L 470.36971 315.002082 
L 470.705143 314.993717 
L 471.040576 314.985355 
L 471.376009 314.976996 
" clip-path="url(#pf7e7d6ad06)" style="fill: none; stroke: #ffa500; stroke-width: 1.5; stroke-linecap: square"/>
   </g>
   <g id="patch_3">
    <path d="M 48.90125 356.477812 
L 48.90125 23.837812 
" style="fill: none; stroke: #000000; stroke-width: 0.8; stroke-linejoin: miter; stroke-linecap: square"/>
   </g>
   <g id="patch_4">
    <path d="M 495.30125 356.477812 
L 495.30125 23.837812 
" style="fill: none; stroke: #000000; stroke-width: 0.8; stroke-linejoin: miter; stroke-linecap: square"/>
   </g>
   <g id="patch_5">
    <path d="M 48.90125 356.477812 
L 495.30125 356.477812 
" style="fill: none; stroke: #000000; stroke-width: 0.8; stroke-linejoin: miter; stroke-linecap: square"/>
   </g>
   <g id="patch_6">
    <path d="M 48.90125 23.837812 
L 495.30125 23.837812 
" style="fill: none; stroke: #000000; stroke-width: 0.8; stroke-linejoin: miter; stroke-linecap: square"/>
   </g>
   <g id="text_17">
    <!-- Machines: K₀ as a function of N -->
    <g transform="translate(163.244687 17.837812) scale(0.14 -0.14)">
     <defs>
      <path id="DejaVuSans-4d" d="M 628 4666 
L 1569 4666 
L 2759 1491 
L 3956 4666 
L 4897 4666 
L 4897 0 
L 4281 0 
L 4281 4097 
L 3078 897 
L 2444 897 
L 1241 4097 
L 1241 0 
L 628 0 
L 628 4666 
z
" transform="scale(0.015625)"/>
      <path id="DejaVuSans-61" d="M 2194 1759 
Q 1497 1759 1228 1600 
Q 959 1441 959 1056 
Q 959 750 1161 570 
Q 1363 391 1709 391 
Q 2188 391 2477 730 
Q 2766 1069 2766 1631 
L 2766 1759 
L 2194 1759 
z
M 3341 1997 
L 3341 0 
L 2766 0 
L 2766 531 
Q 2569 213 2275 61 
Q 1981 -91 1556 -91 
Q 1019 -91 701 211 
Q 384 513 384 1019 
Q 384 1609 779 1909 
Q 1175 2209 1959 2209 
L 2766 2209 
L 2766 2266 
Q 2766 2663 2505 2880 
Q 2244 3097 1772 3097 
Q 1472 3097 1187 3025 
Q 903 2953 641 2809 
L 641 3341 
Q 956 3463 1253 3523 
Q 1550 3584 1831 3584 
Q 2591 3584 2966 3190 
Q 3341 2797 3341 1997 
z
" transform="scale(0.015625)"/>
      <path id="DejaVuSans-3a" d="M 750 794 
L 1409 794 
L 1409 0 
L 750 0 
L 750 794 
z
M 750 3309 
L 1409 3309 
L 1409 2516 
L 750 2516 
L 750 3309 
z
" transform="scale(0.015625)"/>
     </defs>
     <use xlink:href="#DejaVuSans-4d"/>
     <use xlink:href="#DejaVuSans-61" transform="translate(86.279297 0)"/>
     <use xlink:href="#DejaVuSans-63" transform="translate(147.558594 0)"/>
     <use xlink:href="#DejaVuSans-68" transform="translate(202.539062 0)"/>
     <use xlink:href="#DejaVuSans-69" transform="translate(265.917969 0)"/>
     <use xlink:href="#DejaVuSans-6e" transform="translate(293.701172 0)"/>
     <use xlink:href="#DejaVuSans-65" transform="translate(357.080078 0)"/>
     <use xlink:href="#DejaVuSans-73" transform="translate(418.603516 0)"/>
     <use xlink:href="#DejaVuSans-3a" transform="translate(470.703125 0)"/>
     <use xlink:href="#DejaVuSans-20" transform="translate(504.394531 0)"/>
     <use xlink:href="#DejaVuSans-4b" transform="translate(536.181641 0)"/>
     <use xlink:href="#DejaVuSans-2080" transform="translate(601.757812 0)"/>
     <use xlink:href="#DejaVuSans-20" transform="translate(641.845703 0)"/>
     <use xlink:href="#DejaVuSans-61" transform="translate(673.632812 0)"/>
     <use xlink:href="#DejaVuSans-73" transform="translate(734.912109 0)"/>
     <use xlink:href="#DejaVuSans-20" transform="translate(787.011719 0)"/>
     <use xlink:href="#DejaVuSans-61" transform="translate(818.798828 0)"/>
     <use xlink:href="#DejaVuSans-20" transform="translate(880.078125 0)"/>
     <use xlink:href="#DejaVuSans-66" transform="translate(911.865234 0)"/>
     <use xlink:href="#DejaVuSans-75" transform="translate(947.070312 0)"/>
     <use xlink:href="#DejaVuSans-6e" transform="translate(1010.449219 0)"/>
     <use xlink:href="#DejaVuSans-63" transform="translate(1073.828125 0)"/>
     <use xlink:href="#DejaVuSans-74" transform="translate(1128.808594 0)"/>
     <use xlink:href="#DejaVuSans-69" transform="translate(1168.017578 0)"/>
     <use xlink:href="#DejaVuSans-6f" transform="translate(1195.800781 0)"/>
     <use xlink:href="#DejaVuSans-6e" transform="translate(1256.982422 0)"/>
     <use xlink:href="#DejaVuSans-20" transform="translate(1320.361328 0)"/>
     <use xlink:href="#DejaVuSans-6f" transform="translate(1352.148438 0)"/>
     <use xlink:href="#DejaVuSans-66" transform="translate(1413.330078 0)"/>
     <use xlink:href="#DejaVuSans-20" transform="translate(1448.535156 0)"/>
     <use xlink:href="#DejaVuSans-4e" transform="translate(1480.322266 0)"/>
    </g>
   </g>
   <g id="legend_1">
    <g id="patch_7">
     <path d="M 502.30125 265.1875 
L 669.52625 265.1875 
Q 671.52625 265.1875 671.52625 263.1875 
L 671.52625 117.128125 
Q 671.52625 115.128125 669.52625 115.128125 
L 502.30125 115.128125 
Q 500.30125 115.128125 500.30125 117.128125 
L 500.30125 263.1875 
Q 500.30125 265.1875 502.30125 265.1875 
z
" style="fill: #ffffff; opacity: 0.8; stroke: #cccccc; stroke-linejoin: miter"/>
    </g>
    <g id="text_18">
     <!-- Legend: -->
     <g transform="translate(565.860625 126.726562) scale(0.1 -0.1)">
      <defs>
       <path id="DejaVuSans-4c" d="M 628 4666 
L 1259 4666 
L 1259 531 
L 3531 531 
L 3531 0 
L 628 0 
L 628 4666 
z
" transform="scale(0.015625)"/>
       <path id="DejaVuSans-67" d="M 2906 1791 
Q 2906 2416 2648 2759 
Q 2391 3103 1925 3103 
Q 1463 3103 1205 2759 
Q 947 2416 947 1791 
Q 947 1169 1205 825 
Q 1463 481 1925 481 
Q 2391 481 2648 825 
Q 2906 1169 2906 1791 
z
M 3481 434 
Q 3481 -459 3084 -895 
Q 2688 -1331 1869 -1331 
Q 1566 -1331 1297 -1286 
Q 1028 -1241 775 -1147 
L 775 -588 
Q 1028 -725 1275 -790 
Q 1522 -856 1778 -856 
Q 2344 -856 2625 -561 
Q 2906 -266 2906 331 
L 2906 616 
Q 2728 306 2450 153 
Q 2172 0 1784 0 
Q 1141 0 747 490 
Q 353 981 353 1791 
Q 353 2603 747 3093 
Q 1141 3584 1784 3584 
Q 2172 3584 2450 3431 
Q 2728 3278 2906 2969 
L 2906 3500 
L 3481 3500 
L 3481 434 
z
" transform="scale(0.015625)"/>
      </defs>
      <use xlink:href="#DejaVuSans-4c"/>
      <use xlink:href="#DejaVuSans-65" transform="translate(53.962891 0)"/>
      <use xlink:href="#DejaVuSans-67" transform="translate(115.486328 0)"/>
      <use xlink:href="#DejaVuSans-65" transform="translate(178.962891 0)"/>
      <use xlink:href="#DejaVuSans-6e" transform="translate(240.486328 0)"/>
      <use xlink:href="#DejaVuSans-64" transform="translate(303.865234 0)"/>
      <use xlink:href="#DejaVuSans-3a" transform="translate(367.341797 0)"/>
     </g>
    </g>
    <g id="line2d_43">
     <defs>
      <path id="m029874284f" d="M 0 3.535534 
C 0.937635 3.535534 1.836992 3.163008 2.5 2.5 
C 3.163008 1.836992 3.535534 0.937635 3.535534 0 
C 3.535534 -0.937635 3.163008 -1.836992 2.5 -2.5 
C 1.836992 -3.163008 0.937635 -3.535534 0 -3.535534 
C -0.937635 -3.535534 -1.836992 -3.163008 -2.5 -2.5 
C -3.163008 -1.836992 -3.535534 -0.937635 -3.535534 0 
C -3.535534 0.937635 -3.163008 1.836992 -2.5 2.5 
C -1.836992 3.163008 -0.937635 3.535534 0 3.535534 
z
" style="stroke: #ffffff; stroke-width: 0.565685"/>
     </defs>
     <g>
      <use xlink:href="#m029874284f" x="514.30125" y="137.904687" style="fill: #d60000; stroke: #ffffff; stroke-width: 0.565685"/>
     </g>
    </g>
    <g id="text_19">
     <!-- MLP-new-pipeline -->
     <g transform="translate(532.30125 141.404687) scale(0.1 -0.1)">
      <defs>
       <path id="DejaVuSans-50" d="M 1259 4147 
L 1259 2394 
L 2053 2394 
Q 2494 2394 2734 2622 
Q 2975 2850 2975 3272 
Q 2975 3691 2734 3919 
Q 2494 4147 2053 4147 
L 1259 4147 
z
M 628 4666 
L 2053 4666 
Q 2838 4666 3239 4311 
Q 3641 3956 3641 3272 
Q 3641 2581 3239 2228 
Q 2838 1875 2053 1875 
L 1259 1875 
L 1259 0 
L 628 0 
L 628 4666 
z
" transform="scale(0.015625)"/>
       <path id="DejaVuSans-2d" d="M 313 2009 
L 1997 2009 
L 1997 1497 
L 313 1497 
L 313 2009 
z
" transform="scale(0.015625)"/>
       <path id="DejaVuSans-77" d="M 269 3500 
L 844 3500 
L 1563 769 
L 2278 3500 
L 2956 3500 
L 3675 769 
L 4391 3500 
L 4966 3500 
L 4050 0 
L 3372 0 
L 2619 2869 
L 1863 0 
L 1184 0 
L 269 3500 
z
" transform="scale(0.015625)"/>
       <path id="DejaVuSans-70" d="M 1159 525 
L 1159 -1331 
L 581 -1331 
L 581 3500 
L 1159 3500 
L 1159 2969 
Q 1341 3281 1617 3432 
Q 1894 3584 2278 3584 
Q 2916 3584 3314 3078 
Q 3713 2572 3713 1747 
Q 3713 922 3314 415 
Q 2916 -91 2278 -91 
Q 1894 -91 1617 61 
Q 1341 213 1159 525 
z
M 3116 1747 
Q 3116 2381 2855 2742 
Q 2594 3103 2138 3103 
Q 1681 3103 1420 2742 
Q 1159 2381 1159 1747 
Q 1159 1113 1420 752 
Q 1681 391 2138 391 
Q 2594 391 2855 752 
Q 3116 1113 3116 1747 
z
" transform="scale(0.015625)"/>
      </defs>
      <use xlink:href="#DejaVuSans-4d"/>
      <use xlink:href="#DejaVuSans-4c" transform="translate(86.279297 0)"/>
      <use xlink:href="#DejaVuSans-50" transform="translate(141.992188 0)"/>
      <use xlink:href="#DejaVuSans-2d" transform="translate(200.044922 0)"/>
      <use xlink:href="#DejaVuSans-6e" transform="translate(236.128906 0)"/>
      <use xlink:href="#DejaVuSans-65" transform="translate(299.507812 0)"/>
      <use xlink:href="#DejaVuSans-77" transform="translate(361.03125 0)"/>
      <use xlink:href="#DejaVuSans-2d" transform="translate(442.818359 0)"/>
      <use xlink:href="#DejaVuSans-70" transform="translate(478.902344 0)"/>
      <use xlink:href="#DejaVuSans-69" transform="translate(542.378906 0)"/>
      <use xlink:href="#DejaVuSans-70" transform="translate(570.162109 0)"/>
      <use xlink:href="#DejaVuSans-65" transform="translate(633.638672 0)"/>
      <use xlink:href="#DejaVuSans-6c" transform="translate(695.162109 0)"/>
      <use xlink:href="#DejaVuSans-69" transform="translate(722.945312 0)"/>
      <use xlink:href="#DejaVuSans-6e" transform="translate(750.728516 0)"/>
      <use xlink:href="#DejaVuSans-65" transform="translate(814.107422 0)"/>
     </g>
    </g>
    <g id="line2d_44">
     <defs>
      <path id="m153a0445fa" d="M 0 3.535534 
C 0.937635 3.535534 1.836992 3.163008 2.5 2.5 
C 3.163008 1.836992 3.535534 0.937635 3.535534 0 
C 3.535534 -0.937635 3.163008 -1.836992 2.5 -2.5 
C 1.836992 -3.163008 0.937635 -3.535534 0 -3.535534 
C -0.937635 -3.535534 -1.836992 -3.163008 -2.5 -2.5 
C -3.163008 -1.836992 -3.535534 -0.937635 -3.535534 0 
C -3.535534 0.937635 -3.163008 1.836992 -2.5 2.5 
C -1.836992 3.163008 -0.937635 3.535534 0 3.535534 
z
" style="stroke: #ffffff; stroke-width: 0.565685"/>
     </defs>
     <g>
      <use xlink:href="#m153a0445fa" x="514.30125" y="152.582812" style="fill: #ff7ed1; stroke: #ffffff; stroke-width: 0.565685"/>
     </g>
    </g>
    <g id="text_20">
     <!-- MLP-old-pipeline -->
     <g transform="translate(532.30125 156.082812) scale(0.1 -0.1)">
      <use xlink:href="#DejaVuSans-4d"/>
      <use xlink:href="#DejaVuSans-4c" transform="translate(86.279297 0)"/>
      <use xlink:href="#DejaVuSans-50" transform="translate(141.992188 0)"/>
      <use xlink:href="#DejaVuSans-2d" transform="translate(200.044922 0)"/>
      <use xlink:href="#DejaVuSans-6f" transform="translate(238.003906 0)"/>
      <use xlink:href="#DejaVuSans-6c" transform="translate(299.185547 0)"/>
      <use xlink:href="#DejaVuSans-64" transform="translate(326.96875 0)"/>
      <use xlink:href="#DejaVuSans-2d" transform="translate(390.445312 0)"/>
      <use xlink:href="#DejaVuSans-70" transform="translate(426.529297 0)"/>
      <use xlink:href="#DejaVuSans-69" transform="translate(490.005859 0)"/>
      <use xlink:href="#DejaVuSans-70" transform="translate(517.789062 0)"/>
      <use xlink:href="#DejaVuSans-65" transform="translate(581.265625 0)"/>
      <use xlink:href="#DejaVuSans-6c" transform="translate(642.789062 0)"/>
      <use xlink:href="#DejaVuSans-69" transform="translate(670.572266 0)"/>
      <use xlink:href="#DejaVuSans-6e" transform="translate(698.355469 0)"/>
      <use xlink:href="#DejaVuSans-65" transform="translate(761.734375 0)"/>
     </g>
    </g>
    <g id="line2d_45">
     <defs>
      <path id="mc2e46863c7" d="M 0 3.535534 
C 0.937635 3.535534 1.836992 3.163008 2.5 2.5 
C 3.163008 1.836992 3.535534 0.937635 3.535534 0 
C 3.535534 -0.937635 3.163008 -1.836992 2.5 -2.5 
C 1.836992 -3.163008 0.937635 -3.535534 0 -3.535534 
C -0.937635 -3.535534 -1.836992 -3.163008 -2.5 -2.5 
C -3.163008 -1.836992 -3.535534 -0.937635 -3.535534 0 
C -3.535534 0.937635 -3.163008 1.836992 -2.5 2.5 
C -1.836992 3.163008 -0.937635 3.535534 0 3.535534 
z
" style="stroke: #ffffff; stroke-width: 0.565685"/>
     </defs>
     <g>
      <use xlink:href="#mc2e46863c7" x="514.30125" y="167.260937" style="fill: #ffa52f; stroke: #ffffff; stroke-width: 0.565685"/>
     </g>
    </g>
    <g id="text_21">
     <!-- ViTpretrained-new-pipeline -->
     <g transform="translate(532.30125 170.760937) scale(0.1 -0.1)">
      <defs>
       <path id="DejaVuSans-56" d="M 1831 0 
L 50 4666 
L 709 4666 
L 2188 738 
L 3669 4666 
L 4325 4666 
L 2547 0 
L 1831 0 
z
" transform="scale(0.015625)"/>
       <path id="DejaVuSans-54" d="M -19 4666 
L 3928 4666 
L 3928 4134 
L 2272 4134 
L 2272 0 
L 1638 0 
L 1638 4134 
L -19 4134 
L -19 4666 
z
" transform="scale(0.015625)"/>
      </defs>
      <use xlink:href="#DejaVuSans-56"/>
      <use xlink:href="#DejaVuSans-69" transform="translate(66.158203 0)"/>
      <use xlink:href="#DejaVuSans-54" transform="translate(93.941406 0)"/>
      <use xlink:href="#DejaVuSans-70" transform="translate(155.025391 0)"/>
      <use xlink:href="#DejaVuSans-72" transform="translate(218.501953 0)"/>
      <use xlink:href="#DejaVuSans-65" transform="translate(257.365234 0)"/>
      <use xlink:href="#DejaVuSans-74" transform="translate(318.888672 0)"/>
      <use xlink:href="#DejaVuSans-72" transform="translate(358.097656 0)"/>
      <use xlink:href="#DejaVuSans-61" transform="translate(399.210938 0)"/>
      <use xlink:href="#DejaVuSans-69" transform="translate(460.490234 0)"/>
      <use xlink:href="#DejaVuSans-6e" transform="translate(488.273438 0)"/>
      <use xlink:href="#DejaVuSans-65" transform="translate(551.652344 0)"/>
      <use xlink:href="#DejaVuSans-64" transform="translate(613.175781 0)"/>
      <use xlink:href="#DejaVuSans-2d" transform="translate(676.652344 0)"/>
      <use xlink:href="#DejaVuSans-6e" transform="translate(712.736328 0)"/>
      <use xlink:href="#DejaVuSans-65" transform="translate(776.115234 0)"/>
      <use xlink:href="#DejaVuSans-77" transform="translate(837.638672 0)"/>
      <use xlink:href="#DejaVuSans-2d" transform="translate(919.425781 0)"/>
      <use xlink:href="#DejaVuSans-70" transform="translate(955.509766 0)"/>
      <use xlink:href="#DejaVuSans-69" transform="translate(1018.986328 0)"/>
      <use xlink:href="#DejaVuSans-70" transform="translate(1046.769531 0)"/>
      <use xlink:href="#DejaVuSans-65" transform="translate(1110.246094 0)"/>
      <use xlink:href="#DejaVuSans-6c" transform="translate(1171.769531 0)"/>
      <use xlink:href="#DejaVuSans-69" transform="translate(1199.552734 0)"/>
      <use xlink:href="#DejaVuSans-6e" transform="translate(1227.335938 0)"/>
      <use xlink:href="#DejaVuSans-65" transform="translate(1290.714844 0)"/>
     </g>
    </g>
    <g id="line2d_46">
     <defs>
      <path id="m8edc6615e8" d="M 0 3.535534 
C 0.937635 3.535534 1.836992 3.163008 2.5 2.5 
C 3.163008 1.836992 3.535534 0.937635 3.535534 0 
C 3.535534 -0.937635 3.163008 -1.836992 2.5 -2.5 
C 1.836992 -3.163008 0.937635 -3.535534 0 -3.535534 
C -0.937635 -3.535534 -1.836992 -3.163008 -2.5 -2.5 
C -3.163008 -1.836992 -3.535534 -0.937635 -3.535534 0 
C -3.535534 0.937635 -3.163008 1.836992 -2.5 2.5 
C -1.836992 3.163008 -0.937635 3.535534 0 3.535534 
z
" style="stroke: #ffffff; stroke-width: 0.565685"/>
     </defs>
     <g>
      <use xlink:href="#m8edc6615e8" x="514.30125" y="181.939062" style="fill: #018700; stroke: #ffffff; stroke-width: 0.565685"/>
     </g>
    </g>
    <g id="text_22">
     <!-- ViTpretrained-old-pipeline -->
     <g transform="translate(532.30125 185.439062) scale(0.1 -0.1)">
      <use xlink:href="#DejaVuSans-56"/>
      <use xlink:href="#DejaVuSans-69" transform="translate(66.158203 0)"/>
      <use xlink:href="#DejaVuSans-54" transform="translate(93.941406 0)"/>
      <use xlink:href="#DejaVuSans-70" transform="translate(155.025391 0)"/>
      <use xlink:href="#DejaVuSans-72" transform="translate(218.501953 0)"/>
      <use xlink:href="#DejaVuSans-65" transform="translate(257.365234 0)"/>
      <use xlink:href="#DejaVuSans-74" transform="translate(318.888672 0)"/>
      <use xlink:href="#DejaVuSans-72" transform="translate(358.097656 0)"/>
      <use xlink:href="#DejaVuSans-61" transform="translate(399.210938 0)"/>
      <use xlink:href="#DejaVuSans-69" transform="translate(460.490234 0)"/>
      <use xlink:href="#DejaVuSans-6e" transform="translate(488.273438 0)"/>
      <use xlink:href="#DejaVuSans-65" transform="translate(551.652344 0)"/>
      <use xlink:href="#DejaVuSans-64" transform="translate(613.175781 0)"/>
      <use xlink:href="#DejaVuSans-2d" transform="translate(676.652344 0)"/>
      <use xlink:href="#DejaVuSans-6f" transform="translate(714.611328 0)"/>
      <use xlink:href="#DejaVuSans-6c" transform="translate(775.792969 0)"/>
      <use xlink:href="#DejaVuSans-64" transform="translate(803.576172 0)"/>
      <use xlink:href="#DejaVuSans-2d" transform="translate(867.052734 0)"/>
      <use xlink:href="#DejaVuSans-70" transform="translate(903.136719 0)"/>
      <use xlink:href="#DejaVuSans-69" transform="translate(966.613281 0)"/>
      <use xlink:href="#DejaVuSans-70" transform="translate(994.396484 0)"/>
      <use xlink:href="#DejaVuSans-65" transform="translate(1057.873047 0)"/>
      <use xlink:href="#DejaVuSans-6c" transform="translate(1119.396484 0)"/>
      <use xlink:href="#DejaVuSans-69" transform="translate(1147.179688 0)"/>
      <use xlink:href="#DejaVuSans-6e" transform="translate(1174.962891 0)"/>
      <use xlink:href="#DejaVuSans-65" transform="translate(1238.341797 0)"/>
     </g>
    </g>
    <g id="line2d_47">
     <defs>
      <path id="m9ae35cb4a5" d="M 0 3.535534 
C 0.937635 3.535534 1.836992 3.163008 2.5 2.5 
C 3.163008 1.836992 3.535534 0.937635 3.535534 0 
C 3.535534 -0.937635 3.163008 -1.836992 2.5 -2.5 
C 1.836992 -3.163008 0.937635 -3.535534 0 -3.535534 
C -0.937635 -3.535534 -1.836992 -3.163008 -2.5 -2.5 
C -3.163008 -1.836992 -3.535534 -0.937635 -3.535534 0 
C -3.535534 0.937635 -3.163008 1.836992 -2.5 2.5 
C -1.836992 3.163008 -0.937635 3.535534 0 3.535534 
z
" style="stroke: #ffffff; stroke-width: 0.565685"/>
     </defs>
     <g>
      <use xlink:href="#m9ae35cb4a5" x="514.30125" y="196.617187" style="fill: #6b004f; stroke: #ffffff; stroke-width: 0.565685"/>
     </g>
    </g>
    <g id="text_23">
     <!-- ViTscratch-new-pipeline -->
     <g transform="translate(532.30125 200.117187) scale(0.1 -0.1)">
      <use xlink:href="#DejaVuSans-56"/>
      <use xlink:href="#DejaVuSans-69" transform="translate(66.158203 0)"/>
      <use xlink:href="#DejaVuSans-54" transform="translate(93.941406 0)"/>
      <use xlink:href="#DejaVuSans-73" transform="translate(138.525391 0)"/>
      <use xlink:href="#DejaVuSans-63" transform="translate(190.625 0)"/>
      <use xlink:href="#DejaVuSans-72" transform="translate(245.605469 0)"/>
      <use xlink:href="#DejaVuSans-61" transform="translate(286.71875 0)"/>
      <use xlink:href="#DejaVuSans-74" transform="translate(347.998047 0)"/>
      <use xlink:href="#DejaVuSans-63" transform="translate(387.207031 0)"/>
      <use xlink:href="#DejaVuSans-68" transform="translate(442.1875 0)"/>
      <use xlink:href="#DejaVuSans-2d" transform="translate(505.566406 0)"/>
      <use xlink:href="#DejaVuSans-6e" transform="translate(541.650391 0)"/>
      <use xlink:href="#DejaVuSans-65" transform="translate(605.029297 0)"/>
      <use xlink:href="#DejaVuSans-77" transform="translate(666.552734 0)"/>
      <use xlink:href="#DejaVuSans-2d" transform="translate(748.339844 0)"/>
      <use xlink:href="#DejaVuSans-70" transform="translate(784.423828 0)"/>
      <use xlink:href="#DejaVuSans-69" transform="translate(847.900391 0)"/>
      <use xlink:href="#DejaVuSans-70" transform="translate(875.683594 0)"/>
      <use xlink:href="#DejaVuSans-65" transform="translate(939.160156 0)"/>
      <use xlink:href="#DejaVuSans-6c" transform="translate(1000.683594 0)"/>
      <use xlink:href="#DejaVuSans-69" transform="translate(1028.466797 0)"/>
      <use xlink:href="#DejaVuSans-6e" transform="translate(1056.25 0)"/>
      <use xlink:href="#DejaVuSans-65" transform="translate(1119.628906 0)"/>
     </g>
    </g>
    <g id="line2d_48">
     <defs>
      <path id="m1aadf02ca8" d="M 0 3.535534 
C 0.937635 3.535534 1.836992 3.163008 2.5 2.5 
C 3.163008 1.836992 3.535534 0.937635 3.535534 0 
C 3.535534 -0.937635 3.163008 -1.836992 2.5 -2.5 
C 1.836992 -3.163008 0.937635 -3.535534 0 -3.535534 
C -0.937635 -3.535534 -1.836992 -3.163008 -2.5 -2.5 
C -3.163008 -1.836992 -3.535534 -0.937635 -3.535534 0 
C -3.535534 0.937635 -3.163008 1.836992 -2.5 2.5 
C -1.836992 3.163008 -0.937635 3.535534 0 3.535534 
z
" style="stroke: #ffffff; stroke-width: 0.565685"/>
     </defs>
     <g>
      <use xlink:href="#m1aadf02ca8" x="514.30125" y="211.295312" style="fill: #8c3bff; stroke: #ffffff; stroke-width: 0.565685"/>
     </g>
    </g>
    <g id="text_24">
     <!-- ViTscratch-old-pipeline -->
     <g transform="translate(532.30125 214.795312) scale(0.1 -0.1)">
      <use xlink:href="#DejaVuSans-56"/>
      <use xlink:href="#DejaVuSans-69" transform="translate(66.158203 0)"/>
      <use xlink:href="#DejaVuSans-54" transform="translate(93.941406 0)"/>
      <use xlink:href="#DejaVuSans-73" transform="translate(138.525391 0)"/>
      <use xlink:href="#DejaVuSans-63" transform="translate(190.625 0)"/>
      <use xlink:href="#DejaVuSans-72" transform="translate(245.605469 0)"/>
      <use xlink:href="#DejaVuSans-61" transform="translate(286.71875 0)"/>
      <use xlink:href="#DejaVuSans-74" transform="translate(347.998047 0)"/>
      <use xlink:href="#DejaVuSans-63" transform="translate(387.207031 0)"/>
      <use xlink:href="#DejaVuSans-68" transform="translate(442.1875 0)"/>
      <use xlink:href="#DejaVuSans-2d" transform="translate(505.566406 0)"/>
      <use xlink:href="#DejaVuSans-6f" transform="translate(543.525391 0)"/>
      <use xlink:href="#DejaVuSans-6c" transform="translate(604.707031 0)"/>
      <use xlink:href="#DejaVuSans-64" transform="translate(632.490234 0)"/>
      <use xlink:href="#DejaVuSans-2d" transform="translate(695.966797 0)"/>
      <use xlink:href="#DejaVuSans-70" transform="translate(732.050781 0)"/>
      <use xlink:href="#DejaVuSans-69" transform="translate(795.527344 0)"/>
      <use xlink:href="#DejaVuSans-70" transform="translate(823.310547 0)"/>
      <use xlink:href="#DejaVuSans-65" transform="translate(886.787109 0)"/>
      <use xlink:href="#DejaVuSans-6c" transform="translate(948.310547 0)"/>
      <use xlink:href="#DejaVuSans-69" transform="translate(976.09375 0)"/>
      <use xlink:href="#DejaVuSans-6e" transform="translate(1003.876953 0)"/>
      <use xlink:href="#DejaVuSans-65" transform="translate(1067.255859 0)"/>
     </g>
    </g>
    <g id="line2d_49">
     <defs>
      <path id="me4d733c259" d="M 0 3.535534 
C 0.937635 3.535534 1.836992 3.163008 2.5 2.5 
C 3.163008 1.836992 3.535534 0.937635 3.535534 0 
C 3.535534 -0.937635 3.163008 -1.836992 2.5 -2.5 
C 1.836992 -3.163008 0.937635 -3.535534 0 -3.535534 
C -0.937635 -3.535534 -1.836992 -3.163008 -2.5 -2.5 
C -3.163008 -1.836992 -3.535534 -0.937635 -3.535534 0 
C -3.535534 0.937635 -3.163008 1.836992 -2.5 2.5 
C -1.836992 3.163008 -0.937635 3.535534 0 3.535534 
z
" style="stroke: #ffffff; stroke-width: 0.565685"/>
     </defs>
     <g>
      <use xlink:href="#me4d733c259" x="514.30125" y="225.973437" style="fill: #97ff00; stroke: #ffffff; stroke-width: 0.565685"/>
     </g>
    </g>
    <g id="text_25">
     <!-- CNN_large-old-pipeline -->
     <g transform="translate(532.30125 229.473437) scale(0.1 -0.1)">
      <defs>
       <path id="DejaVuSans-43" d="M 4122 4306 
L 4122 3641 
Q 3803 3938 3442 4084 
Q 3081 4231 2675 4231 
Q 1875 4231 1450 3742 
Q 1025 3253 1025 2328 
Q 1025 1406 1450 917 
Q 1875 428 2675 428 
Q 3081 428 3442 575 
Q 3803 722 4122 1019 
L 4122 359 
Q 3791 134 3420 21 
Q 3050 -91 2638 -91 
Q 1578 -91 968 557 
Q 359 1206 359 2328 
Q 359 3453 968 4101 
Q 1578 4750 2638 4750 
Q 3056 4750 3426 4639 
Q 3797 4528 4122 4306 
z
" transform="scale(0.015625)"/>
       <path id="DejaVuSans-5f" d="M 3263 -1063 
L 3263 -1509 
L -63 -1509 
L -63 -1063 
L 3263 -1063 
z
" transform="scale(0.015625)"/>
      </defs>
      <use xlink:href="#DejaVuSans-43"/>
      <use xlink:href="#DejaVuSans-4e" transform="translate(69.824219 0)"/>
      <use xlink:href="#DejaVuSans-4e" transform="translate(144.628906 0)"/>
      <use xlink:href="#DejaVuSans-5f" transform="translate(219.433594 0)"/>
      <use xlink:href="#DejaVuSans-6c" transform="translate(269.433594 0)"/>
      <use xlink:href="#DejaVuSans-61" transform="translate(297.216797 0)"/>
      <use xlink:href="#DejaVuSans-72" transform="translate(358.496094 0)"/>
      <use xlink:href="#DejaVuSans-67" transform="translate(397.859375 0)"/>
      <use xlink:href="#DejaVuSans-65" transform="translate(461.335938 0)"/>
      <use xlink:href="#DejaVuSans-2d" transform="translate(522.859375 0)"/>
      <use xlink:href="#DejaVuSans-6f" transform="translate(560.818359 0)"/>
      <use xlink:href="#DejaVuSans-6c" transform="translate(622 0)"/>
      <use xlink:href="#DejaVuSans-64" transform="translate(649.783203 0)"/>
      <use xlink:href="#DejaVuSans-2d" transform="translate(713.259766 0)"/>
      <use xlink:href="#DejaVuSans-70" transform="translate(749.34375 0)"/>
      <use xlink:href="#DejaVuSans-69" transform="translate(812.820312 0)"/>
      <use xlink:href="#DejaVuSans-70" transform="translate(840.603516 0)"/>
      <use xlink:href="#DejaVuSans-65" transform="translate(904.080078 0)"/>
      <use xlink:href="#DejaVuSans-6c" transform="translate(965.603516 0)"/>
      <use xlink:href="#DejaVuSans-69" transform="translate(993.386719 0)"/>
      <use xlink:href="#DejaVuSans-6e" transform="translate(1021.169922 0)"/>
      <use xlink:href="#DejaVuSans-65" transform="translate(1084.548828 0)"/>
     </g>
    </g>
    <g id="line2d_50">
     <path d="M 504.30125 240.929687 
L 514.30125 240.929687 
L 524.30125 240.929687 
" style="fill: none; stroke: #008000; stroke-width: 1.5; stroke-linecap: square"/>
    </g>
    <g id="text_26">
     <!-- STAT limit -->
     <g transform="translate(532.30125 244.429687) scale(0.1 -0.1)">
      <defs>
       <path id="DejaVuSans-53" d="M 3425 4513 
L 3425 3897 
Q 3066 4069 2747 4153 
Q 2428 4238 2131 4238 
Q 1616 4238 1336 4038 
Q 1056 3838 1056 3469 
Q 1056 3159 1242 3001 
Q 1428 2844 1947 2747 
L 2328 2669 
Q 3034 2534 3370 2195 
Q 3706 1856 3706 1288 
Q 3706 609 3251 259 
Q 2797 -91 1919 -91 
Q 1588 -91 1214 -16 
Q 841 59 441 206 
L 441 856 
Q 825 641 1194 531 
Q 1563 422 1919 422 
Q 2459 422 2753 634 
Q 3047 847 3047 1241 
Q 3047 1584 2836 1778 
Q 2625 1972 2144 2069 
L 1759 2144 
Q 1053 2284 737 2584 
Q 422 2884 422 3419 
Q 422 4038 858 4394 
Q 1294 4750 2059 4750 
Q 2388 4750 2728 4690 
Q 3069 4631 3425 4513 
z
" transform="scale(0.015625)"/>
       <path id="DejaVuSans-41" d="M 2188 4044 
L 1331 1722 
L 3047 1722 
L 2188 4044 
z
M 1831 4666 
L 2547 4666 
L 4325 0 
L 3669 0 
L 3244 1197 
L 1141 1197 
L 716 0 
L 50 0 
L 1831 4666 
z
" transform="scale(0.015625)"/>
      </defs>
      <use xlink:href="#DejaVuSans-53"/>
      <use xlink:href="#DejaVuSans-54" transform="translate(63.476562 0)"/>
      <use xlink:href="#DejaVuSans-41" transform="translate(116.810547 0)"/>
      <use xlink:href="#DejaVuSans-54" transform="translate(177.46875 0)"/>
      <use xlink:href="#DejaVuSans-20" transform="translate(238.552734 0)"/>
      <use xlink:href="#DejaVuSans-6c" transform="translate(270.339844 0)"/>
      <use xlink:href="#DejaVuSans-69" transform="translate(298.123047 0)"/>
      <use xlink:href="#DejaVuSans-6d" transform="translate(325.90625 0)"/>
      <use xlink:href="#DejaVuSans-69" transform="translate(423.318359 0)"/>
      <use xlink:href="#DejaVuSans-74" transform="translate(451.101562 0)"/>
     </g>
    </g>
    <g id="line2d_51">
     <path d="M 504.30125 255.607812 
L 514.30125 255.607812 
L 524.30125 255.607812 
" style="fill: none; stroke-dasharray: 1.5,2.475; stroke-dashoffset: 0; stroke: #ffa500; stroke-width: 1.5"/>
    </g>
    <g id="text_27">
     <!-- COMP limit -->
     <g transform="translate(532.30125 259.107812) scale(0.1 -0.1)">
      <defs>
       <path id="DejaVuSans-4f" d="M 2522 4238 
Q 1834 4238 1429 3725 
Q 1025 3213 1025 2328 
Q 1025 1447 1429 934 
Q 1834 422 2522 422 
Q 3209 422 3611 934 
Q 4013 1447 4013 2328 
Q 4013 3213 3611 3725 
Q 3209 4238 2522 4238 
z
M 2522 4750 
Q 3503 4750 4090 4092 
Q 4678 3434 4678 2328 
Q 4678 1225 4090 567 
Q 3503 -91 2522 -91 
Q 1538 -91 948 565 
Q 359 1222 359 2328 
Q 359 3434 948 4092 
Q 1538 4750 2522 4750 
z
" transform="scale(0.015625)"/>
      </defs>
      <use xlink:href="#DejaVuSans-43"/>
      <use xlink:href="#DejaVuSans-4f" transform="translate(69.824219 0)"/>
      <use xlink:href="#DejaVuSans-4d" transform="translate(148.535156 0)"/>
      <use xlink:href="#DejaVuSans-50" transform="translate(234.814453 0)"/>
      <use xlink:href="#DejaVuSans-20" transform="translate(295.117188 0)"/>
      <use xlink:href="#DejaVuSans-6c" transform="translate(326.904297 0)"/>
      <use xlink:href="#DejaVuSans-69" transform="translate(354.6875 0)"/>
      <use xlink:href="#DejaVuSans-6d" transform="translate(382.470703 0)"/>
      <use xlink:href="#DejaVuSans-69" transform="translate(479.882812 0)"/>
      <use xlink:href="#DejaVuSans-74" transform="translate(507.666016 0)"/>
     </g>
    </g>
   </g>
  </g>
 </g>
 <defs>
  <clipPath id="pf7e7d6ad06">
   <rect x="48.90125" y="23.837812" width="446.4" height="332.64"/>
  </clipPath>
 </defs>
</svg>
