<?xml version="1.0" encoding="utf-8" standalone="no"?>
<!DOCTYPE svg PUBLIC "-//W3C//DTD SVG 1.1//EN"
  "http://www.w3.org/Graphics/SVG/1.1/DTD/svg11.dtd">
<svg xmlns:xlink="http://www.w3.org/1999/xlink" width="658.784063pt" height="379.331875pt" viewBox="0 0 658.784063 379.331875" xmlns="http://www.w3.org/2000/svg" version="1.1">
 <metadata>
  <rdf:RDF xmlns:dc="http://purl.org/dc/elements/1.1/" xmlns:cc="http://creativecommons.org/ns#" xmlns:rdf="http://www.w3.org/1999/02/22-rdf-syntax-ns#">
   <cc:Work>
    <dc:type rdf:resource="http://purl.org/dc/dcmitype/StillImage"/>
    <dc:date>2025-03-04T15:32:27.775501</dc:date>
    <dc:format>image/svg+xml</dc:format>
    <dc:creator>
     <cc:Agent>
      <dc:title>Matplotlib v3.8.4, https://matplotlib.org/</dc:title>
     </cc:Agent>
    </dc:creator>
   </cc:Work>
  </rdf:RDF>
 </metadata>
 <defs>
  <style type="text/css">*{stroke-linejoin: round; stroke-linecap: butt}</style>
 </defs>
 <g id="figure_1">
  <g id="patch_1">
   <path d="M 0 379.331875 
L 658.784063 379.331875 
L 658.784063 0 
L 0 0 
z
" style="fill: #ffffff"/>
  </g>
  <g id="axes_1">
   <g id="patch_2">
    <path d="M 44.555938 339.84 
L 490.955938 339.84 
L 490.955938 7.2 
L 44.555938 7.2 
z
" style="fill: #ffffff"/>
   </g>
   <g id="PathCollection_1">
    <defs>
     <path id="m1616d54b1d" d="M 0 -5.477226 
L -5.477226 5.477226 
L 5.477226 5.477226 
z
" style="stroke: #c14168; stroke-opacity: 0.5"/>
    </defs>
    <g clip-path="url(#p422fc88d15)">
     <use xlink:href="#m1616d54b1d" x="165.615543" y="95.388893" style="fill: #c14168; fill-opacity: 0.5; stroke: #c14168; stroke-opacity: 0.5"/>
    </g>
   </g>
   <g id="PathCollection_2">
    <g clip-path="url(#p422fc88d15)">
     <use xlink:href="#m1616d54b1d" x="400.820904" y="66.64624" style="fill: #c14168; fill-opacity: 0.5; stroke: #c14168; stroke-opacity: 0.5"/>
    </g>
   </g>
   <g id="PathCollection_3">
    <defs>
     <path id="C0_0_790021e92e" d="M 0 3.535534 
C 0.937635 3.535534 1.836992 3.163008 2.5 2.5 
C 3.163008 1.836992 3.535534 0.937635 3.535534 -0 
C 3.535534 -0.937635 3.163008 -1.836992 2.5 -2.5 
C 1.836992 -3.163008 0.937635 -3.535534 0 -3.535534 
C -0.937635 -3.535534 -1.836992 -3.163008 -2.5 -2.5 
C -3.163008 -1.836992 -3.535534 -0.937635 -3.535534 0 
C -3.535534 0.937635 -3.163008 1.836992 -2.5 2.5 
C -1.836992 3.163008 -0.937635 3.535534 0 3.535534 
z
"/>
    </defs>
    <g clip-path="url(#p422fc88d15)">
     <use xlink:href="#C0_0_790021e92e" x="98.461263" y="137.82952" style="fill: #97ff00; fill-opacity: 0.7; stroke: #ffffff; stroke-opacity: 0.7; stroke-width: 0.565685"/>
    </g>
    <g clip-path="url(#p422fc88d15)">
     <use xlink:href="#C0_0_790021e92e" x="96.363736" y="124.284528" style="fill: #d60000; fill-opacity: 0.7; stroke: #ffffff; stroke-opacity: 0.7; stroke-width: 0.565685"/>
    </g>
    <g clip-path="url(#p422fc88d15)">
     <use xlink:href="#C0_0_790021e92e" x="95.920104" y="133.115119" style="fill: #018700; fill-opacity: 0.7; stroke: #ffffff; stroke-opacity: 0.7; stroke-width: 0.565685"/>
    </g>
    <g clip-path="url(#p422fc88d15)">
     <use xlink:href="#C0_0_790021e92e" x="97.677353" y="124.508229" style="fill: #8c3bff; fill-opacity: 0.7; stroke: #ffffff; stroke-opacity: 0.7; stroke-width: 0.565685"/>
    </g>
   </g>
   <g id="PathCollection_4">
    <defs>
     <path id="C1_0_6433d0f17f" d="M 0 3.535534 
C 0.937635 3.535534 1.836992 3.163008 2.5 2.5 
C 3.163008 1.836992 3.535534 0.937635 3.535534 -0 
C 3.535534 -0.937635 3.163008 -1.836992 2.5 -2.5 
C 1.836992 -3.163008 0.937635 -3.535534 0 -3.535534 
C -0.937635 -3.535534 -1.836992 -3.163008 -2.5 -2.5 
C -3.163008 -1.836992 -3.535534 -0.937635 -3.535534 0 
C -3.535534 0.937635 -3.163008 1.836992 -2.5 2.5 
C -1.836992 3.163008 -0.937635 3.535534 0 3.535534 
z
"/>
    </defs>
    <g clip-path="url(#p422fc88d15)">
     <use xlink:href="#C1_0_6433d0f17f" x="466.377566" y="47.495493" style="fill: #97ff00; fill-opacity: 0.7; stroke: #ffffff; stroke-opacity: 0.7; stroke-width: 0.565685"/>
    </g>
    <g clip-path="url(#p422fc88d15)">
     <use xlink:href="#C1_0_6433d0f17f" x="470.665028" y="22.32" style="fill: #d60000; fill-opacity: 0.7; stroke: #ffffff; stroke-opacity: 0.7; stroke-width: 0.565685"/>
    </g>
    <g clip-path="url(#p422fc88d15)">
     <use xlink:href="#C1_0_6433d0f17f" x="469.071797" y="40.343554" style="fill: #018700; fill-opacity: 0.7; stroke: #ffffff; stroke-opacity: 0.7; stroke-width: 0.565685"/>
    </g>
    <g clip-path="url(#p422fc88d15)">
     <use xlink:href="#C1_0_6433d0f17f" x="465.956691" y="42.416262" style="fill: #8c3bff; fill-opacity: 0.7; stroke: #ffffff; stroke-opacity: 0.7; stroke-width: 0.565685"/>
    </g>
   </g>
   <g id="PathCollection_5">
    <defs>
     <path id="C2_0_4967f233aa" d="M 0 3.535534 
C 0.937635 3.535534 1.836992 3.163008 2.5 2.5 
C 3.163008 1.836992 3.535534 0.937635 3.535534 -0 
C 3.535534 -0.937635 3.163008 -1.836992 2.5 -2.5 
C 1.836992 -3.163008 0.937635 -3.535534 0 -3.535534 
C -0.937635 -3.535534 -1.836992 -3.163008 -2.5 -2.5 
C -3.163008 -1.836992 -3.535534 -0.937635 -3.535534 0 
C -3.535534 0.937635 -3.163008 1.836992 -2.5 2.5 
C -1.836992 3.163008 -0.937635 3.535534 0 3.535534 
z
"/>
    </defs>
    <g clip-path="url(#p422fc88d15)">
     <use xlink:href="#C2_0_4967f233aa" x="113.295829" y="126.553744" style="fill: #97ff00; fill-opacity: 0.7; stroke: #ffffff; stroke-opacity: 0.7; stroke-width: 0.565685"/>
    </g>
    <g clip-path="url(#p422fc88d15)">
     <use xlink:href="#C2_0_4967f233aa" x="114.686148" y="107.627036" style="fill: #d60000; fill-opacity: 0.7; stroke: #ffffff; stroke-opacity: 0.7; stroke-width: 0.565685"/>
    </g>
    <g clip-path="url(#p422fc88d15)">
     <use xlink:href="#C2_0_4967f233aa" x="115.621182" y="122.520349" style="fill: #018700; fill-opacity: 0.7; stroke: #ffffff; stroke-opacity: 0.7; stroke-width: 0.565685"/>
    </g>
    <g clip-path="url(#p422fc88d15)">
     <use xlink:href="#C2_0_4967f233aa" x="116.065013" y="116.236356" style="fill: #8c3bff; fill-opacity: 0.7; stroke: #ffffff; stroke-opacity: 0.7; stroke-width: 0.565685"/>
    </g>
   </g>
   <g id="PathCollection_6">
    <defs>
     <path id="C3_0_ef74e7a8a3" d="M 0 3.535534 
C 0.937635 3.535534 1.836992 3.163008 2.5 2.5 
C 3.163008 1.836992 3.535534 0.937635 3.535534 -0 
C 3.535534 -0.937635 3.163008 -1.836992 2.5 -2.5 
C 1.836992 -3.163008 0.937635 -3.535534 0 -3.535534 
C -0.937635 -3.535534 -1.836992 -3.163008 -2.5 -2.5 
C -3.163008 -1.836992 -3.535534 -0.937635 -3.535534 0 
C -3.535534 0.937635 -3.163008 1.836992 -2.5 2.5 
C -1.836992 3.163008 -0.937635 3.535534 0 3.535534 
z
"/>
    </defs>
    <g clip-path="url(#p422fc88d15)">
     <use xlink:href="#C3_0_ef74e7a8a3" x="133.386578" y="94.82447" style="fill: #d60000; fill-opacity: 0.7; stroke: #ffffff; stroke-opacity: 0.7; stroke-width: 0.565685"/>
    </g>
    <g clip-path="url(#p422fc88d15)">
     <use xlink:href="#C3_0_ef74e7a8a3" x="132.422439" y="112.712536" style="fill: #018700; fill-opacity: 0.7; stroke: #ffffff; stroke-opacity: 0.7; stroke-width: 0.565685"/>
    </g>
    <g clip-path="url(#p422fc88d15)">
     <use xlink:href="#C3_0_ef74e7a8a3" x="129.937617" y="108.19764" style="fill: #8c3bff; fill-opacity: 0.7; stroke: #ffffff; stroke-opacity: 0.7; stroke-width: 0.565685"/>
    </g>
   </g>
   <g id="PathCollection_7">
    <defs>
     <path id="C4_0_74eb6f8281" d="M 0 3.535534 
C 0.937635 3.535534 1.836992 3.163008 2.5 2.5 
C 3.163008 1.836992 3.535534 0.937635 3.535534 -0 
C 3.535534 -0.937635 3.163008 -1.836992 2.5 -2.5 
C 1.836992 -3.163008 0.937635 -3.535534 0 -3.535534 
C -0.937635 -3.535534 -1.836992 -3.163008 -2.5 -2.5 
C -3.163008 -1.836992 -3.535534 -0.937635 -3.535534 0 
C -3.535534 0.937635 -3.163008 1.836992 -2.5 2.5 
C -1.836992 3.163008 -0.937635 3.535534 0 3.535534 
z
"/>
    </defs>
    <g clip-path="url(#p422fc88d15)">
     <use xlink:href="#C4_0_74eb6f8281" x="165.098188" y="78.821599" style="fill: #d60000; fill-opacity: 0.7; stroke: #ffffff; stroke-opacity: 0.7; stroke-width: 0.565685"/>
    </g>
    <g clip-path="url(#p422fc88d15)">
     <use xlink:href="#C4_0_74eb6f8281" x="167.88599" y="100.842021" style="fill: #018700; fill-opacity: 0.7; stroke: #ffffff; stroke-opacity: 0.7; stroke-width: 0.565685"/>
    </g>
    <g clip-path="url(#p422fc88d15)">
     <use xlink:href="#C4_0_74eb6f8281" x="162.974586" y="97.025669" style="fill: #8c3bff; fill-opacity: 0.7; stroke: #ffffff; stroke-opacity: 0.7; stroke-width: 0.565685"/>
    </g>
   </g>
   <g id="PathCollection_8">
    <defs>
     <path id="C5_0_be0065eb4a" d="M 0 3.535534 
C 0.937635 3.535534 1.836992 3.163008 2.5 2.5 
C 3.163008 1.836992 3.535534 0.937635 3.535534 -0 
C 3.535534 -0.937635 3.163008 -1.836992 2.5 -2.5 
C 1.836992 -3.163008 0.937635 -3.535534 0 -3.535534 
C -0.937635 -3.535534 -1.836992 -3.163008 -2.5 -2.5 
C -3.163008 -1.836992 -3.535534 -0.937635 -3.535534 0 
C -3.535534 0.937635 -3.163008 1.836992 -2.5 2.5 
C -1.836992 3.163008 -0.937635 3.535534 0 3.535534 
z
"/>
    </defs>
    <g clip-path="url(#p422fc88d15)">
     <use xlink:href="#C5_0_be0065eb4a" x="197.157714" y="63.161329" style="fill: #d60000; fill-opacity: 0.7; stroke: #ffffff; stroke-opacity: 0.7; stroke-width: 0.565685"/>
    </g>
    <g clip-path="url(#p422fc88d15)">
     <use xlink:href="#C5_0_be0065eb4a" x="201.259605" y="70.042935" style="fill: #0000dd; fill-opacity: 0.7; stroke: #ffffff; stroke-opacity: 0.7; stroke-width: 0.565685"/>
    </g>
    <g clip-path="url(#p422fc88d15)">
     <use xlink:href="#C5_0_be0065eb4a" x="200.534044" y="75.459011" style="fill: #005659; fill-opacity: 0.7; stroke: #ffffff; stroke-opacity: 0.7; stroke-width: 0.565685"/>
    </g>
    <g clip-path="url(#p422fc88d15)">
     <use xlink:href="#C5_0_be0065eb4a" x="200.010406" y="89.914385" style="fill: #018700; fill-opacity: 0.7; stroke: #ffffff; stroke-opacity: 0.7; stroke-width: 0.565685"/>
    </g>
    <g clip-path="url(#p422fc88d15)">
     <use xlink:href="#C5_0_be0065eb4a" x="198.059226" y="87.798016" style="fill: #8c3bff; fill-opacity: 0.7; stroke: #ffffff; stroke-opacity: 0.7; stroke-width: 0.565685"/>
    </g>
   </g>
   <g id="PathCollection_9">
    <defs>
     <path id="C6_0_63f0433164" d="M 0 3.535534 
C 0.937635 3.535534 1.836992 3.163008 2.5 2.5 
C 3.163008 1.836992 3.535534 0.937635 3.535534 -0 
C 3.535534 -0.937635 3.163008 -1.836992 2.5 -2.5 
C 1.836992 -3.163008 0.937635 -3.535534 0 -3.535534 
C -0.937635 -3.535534 -1.836992 -3.163008 -2.5 -2.5 
C -3.163008 -1.836992 -3.535534 -0.937635 -3.535534 0 
C -3.535534 0.937635 -3.163008 1.836992 -2.5 2.5 
C -1.836992 3.163008 -0.937635 3.535534 0 3.535534 
z
"/>
    </defs>
    <g clip-path="url(#p422fc88d15)">
     <use xlink:href="#C6_0_63f0433164" x="226.6954" y="90.586984" style="fill: #97ff00; fill-opacity: 0.7; stroke: #ffffff; stroke-opacity: 0.7; stroke-width: 0.565685"/>
    </g>
    <g clip-path="url(#p422fc88d15)">
     <use xlink:href="#C6_0_63f0433164" x="226.644254" y="58.601897" style="fill: #d60000; fill-opacity: 0.7; stroke: #ffffff; stroke-opacity: 0.7; stroke-width: 0.565685"/>
    </g>
    <g clip-path="url(#p422fc88d15)">
     <use xlink:href="#C6_0_63f0433164" x="224.472257" y="81.849819" style="fill: #018700; fill-opacity: 0.7; stroke: #ffffff; stroke-opacity: 0.7; stroke-width: 0.565685"/>
    </g>
    <g clip-path="url(#p422fc88d15)">
     <use xlink:href="#C6_0_63f0433164" x="228.059406" y="82.469428" style="fill: #8c3bff; fill-opacity: 0.7; stroke: #ffffff; stroke-opacity: 0.7; stroke-width: 0.565685"/>
    </g>
   </g>
   <g id="PathCollection_10">
    <defs>
     <path id="C7_0_594c3794e9" d="M 0 3.535534 
C 0.937635 3.535534 1.836992 3.163008 2.5 2.5 
C 3.163008 1.836992 3.535534 0.937635 3.535534 -0 
C 3.535534 -0.937635 3.163008 -1.836992 2.5 -2.5 
C 1.836992 -3.163008 0.937635 -3.535534 0 -3.535534 
C -0.937635 -3.535534 -1.836992 -3.163008 -2.5 -2.5 
C -3.163008 -1.836992 -3.535534 -0.937635 -3.535534 0 
C -3.535534 0.937635 -3.163008 1.836992 -2.5 2.5 
C -1.836992 3.163008 -0.937635 3.535534 0 3.535534 
z
"/>
    </defs>
    <g clip-path="url(#p422fc88d15)">
     <use xlink:href="#C7_0_594c3794e9" x="268.008673" y="83.285685" style="fill: #97ff00; fill-opacity: 0.7; stroke: #ffffff; stroke-opacity: 0.7; stroke-width: 0.565685"/>
    </g>
    <g clip-path="url(#p422fc88d15)">
     <use xlink:href="#C7_0_594c3794e9" x="268.589919" y="50.256974" style="fill: #d60000; fill-opacity: 0.7; stroke: #ffffff; stroke-opacity: 0.7; stroke-width: 0.565685"/>
    </g>
    <g clip-path="url(#p422fc88d15)">
     <use xlink:href="#C7_0_594c3794e9" x="263.868539" y="77.424152" style="fill: #018700; fill-opacity: 0.7; stroke: #ffffff; stroke-opacity: 0.7; stroke-width: 0.565685"/>
    </g>
    <g clip-path="url(#p422fc88d15)">
     <use xlink:href="#C7_0_594c3794e9" x="264.477173" y="76.21099" style="fill: #8c3bff; fill-opacity: 0.7; stroke: #ffffff; stroke-opacity: 0.7; stroke-width: 0.565685"/>
    </g>
   </g>
   <g id="PathCollection_11">
    <defs>
     <path id="C8_0_ad1414d410" d="M 0 3.535534 
C 0.937635 3.535534 1.836992 3.163008 2.5 2.5 
C 3.163008 1.836992 3.535534 0.937635 3.535534 -0 
C 3.535534 -0.937635 3.163008 -1.836992 2.5 -2.5 
C 1.836992 -3.163008 0.937635 -3.535534 0 -3.535534 
C -0.937635 -3.535534 -1.836992 -3.163008 -2.5 -2.5 
C -3.163008 -1.836992 -3.535534 -0.937635 -3.535534 0 
C -3.535534 0.937635 -3.163008 1.836992 -2.5 2.5 
C -1.836992 3.163008 -0.937635 3.535534 0 3.535534 
z
"/>
    </defs>
    <g clip-path="url(#p422fc88d15)">
     <use xlink:href="#C8_0_ad1414d410" x="334.615434" y="83.339259" style="fill: #97ff00; fill-opacity: 0.7; stroke: #ffffff; stroke-opacity: 0.7; stroke-width: 0.565685"/>
    </g>
    <g clip-path="url(#p422fc88d15)">
     <use xlink:href="#C8_0_ad1414d410" x="336.307343" y="37.486822" style="fill: #d60000; fill-opacity: 0.7; stroke: #ffffff; stroke-opacity: 0.7; stroke-width: 0.565685"/>
    </g>
    <g clip-path="url(#p422fc88d15)">
     <use xlink:href="#C8_0_ad1414d410" x="334.203506" y="59.801325" style="fill: #018700; fill-opacity: 0.7; stroke: #ffffff; stroke-opacity: 0.7; stroke-width: 0.565685"/>
    </g>
    <g clip-path="url(#p422fc88d15)">
     <use xlink:href="#C8_0_ad1414d410" x="331.828169" y="61.757" style="fill: #8c3bff; fill-opacity: 0.7; stroke: #ffffff; stroke-opacity: 0.7; stroke-width: 0.565685"/>
    </g>
   </g>
   <g id="matplotlib.axis_1">
    <g id="xtick_1">
     <g id="line2d_1">
      <path d="M 64.813246 339.84 
L 64.813246 7.2 
" clip-path="url(#p422fc88d15)" style="fill: none; stroke: #b0b0b0; stroke-width: 0.8; stroke-linecap: square"/>
     </g>
     <g id="line2d_2">
      <defs>
       <path id="mfc46669f87" d="M 0 0 
L 0 3.5 
" style="stroke: #000000; stroke-width: 0.8"/>
      </defs>
      <g>
       <use xlink:href="#mfc46669f87" x="64.813246" y="339.84" style="stroke: #000000; stroke-width: 0.8"/>
      </g>
     </g>
     <g id="text_1">
      <!-- 0 -->
      <g transform="translate(61.631996 354.438438) scale(0.1 -0.1)">
       <defs>
        <path id="DejaVuSans-30" d="M 2034 4250 
Q 1547 4250 1301 3770 
Q 1056 3291 1056 2328 
Q 1056 1369 1301 889 
Q 1547 409 2034 409 
Q 2525 409 2770 889 
Q 3016 1369 3016 2328 
Q 3016 3291 2770 3770 
Q 2525 4250 2034 4250 
z
M 2034 4750 
Q 2819 4750 3233 4129 
Q 3647 3509 3647 2328 
Q 3647 1150 3233 529 
Q 2819 -91 2034 -91 
Q 1250 -91 836 529 
Q 422 1150 422 2328 
Q 422 3509 836 4129 
Q 1250 4750 2034 4750 
z
" transform="scale(0.015625)"/>
       </defs>
       <use xlink:href="#DejaVuSans-30"/>
      </g>
     </g>
    </g>
    <g id="xtick_2">
     <g id="line2d_3">
      <path d="M 132.014777 339.84 
L 132.014777 7.2 
" clip-path="url(#p422fc88d15)" style="fill: none; stroke: #b0b0b0; stroke-width: 0.8; stroke-linecap: square"/>
     </g>
     <g id="line2d_4">
      <g>
       <use xlink:href="#mfc46669f87" x="132.014777" y="339.84" style="stroke: #000000; stroke-width: 0.8"/>
      </g>
     </g>
     <g id="text_2">
      <!-- 200 -->
      <g transform="translate(122.471027 354.438438) scale(0.1 -0.1)">
       <defs>
        <path id="DejaVuSans-32" d="M 1228 531 
L 3431 531 
L 3431 0 
L 469 0 
L 469 531 
Q 828 903 1448 1529 
Q 2069 2156 2228 2338 
Q 2531 2678 2651 2914 
Q 2772 3150 2772 3378 
Q 2772 3750 2511 3984 
Q 2250 4219 1831 4219 
Q 1534 4219 1204 4116 
Q 875 4013 500 3803 
L 500 4441 
Q 881 4594 1212 4672 
Q 1544 4750 1819 4750 
Q 2544 4750 2975 4387 
Q 3406 4025 3406 3419 
Q 3406 3131 3298 2873 
Q 3191 2616 2906 2266 
Q 2828 2175 2409 1742 
Q 1991 1309 1228 531 
z
" transform="scale(0.015625)"/>
       </defs>
       <use xlink:href="#DejaVuSans-32"/>
       <use xlink:href="#DejaVuSans-30" x="63.623047"/>
       <use xlink:href="#DejaVuSans-30" x="127.246094"/>
      </g>
     </g>
    </g>
    <g id="xtick_3">
     <g id="line2d_5">
      <path d="M 199.216309 339.84 
L 199.216309 7.2 
" clip-path="url(#p422fc88d15)" style="fill: none; stroke: #b0b0b0; stroke-width: 0.8; stroke-linecap: square"/>
     </g>
     <g id="line2d_6">
      <g>
       <use xlink:href="#mfc46669f87" x="199.216309" y="339.84" style="stroke: #000000; stroke-width: 0.8"/>
      </g>
     </g>
     <g id="text_3">
      <!-- 400 -->
      <g transform="translate(189.672559 354.438438) scale(0.1 -0.1)">
       <defs>
        <path id="DejaVuSans-34" d="M 2419 4116 
L 825 1625 
L 2419 1625 
L 2419 4116 
z
M 2253 4666 
L 3047 4666 
L 3047 1625 
L 3713 1625 
L 3713 1100 
L 3047 1100 
L 3047 0 
L 2419 0 
L 2419 1100 
L 313 1100 
L 313 1709 
L 2253 4666 
z
" transform="scale(0.015625)"/>
       </defs>
       <use xlink:href="#DejaVuSans-34"/>
       <use xlink:href="#DejaVuSans-30" x="63.623047"/>
       <use xlink:href="#DejaVuSans-30" x="127.246094"/>
      </g>
     </g>
    </g>
    <g id="xtick_4">
     <g id="line2d_7">
      <path d="M 266.417841 339.84 
L 266.417841 7.2 
" clip-path="url(#p422fc88d15)" style="fill: none; stroke: #b0b0b0; stroke-width: 0.8; stroke-linecap: square"/>
     </g>
     <g id="line2d_8">
      <g>
       <use xlink:href="#mfc46669f87" x="266.417841" y="339.84" style="stroke: #000000; stroke-width: 0.8"/>
      </g>
     </g>
     <g id="text_4">
      <!-- 600 -->
      <g transform="translate(256.874091 354.438438) scale(0.1 -0.1)">
       <defs>
        <path id="DejaVuSans-36" d="M 2113 2584 
Q 1688 2584 1439 2293 
Q 1191 2003 1191 1497 
Q 1191 994 1439 701 
Q 1688 409 2113 409 
Q 2538 409 2786 701 
Q 3034 994 3034 1497 
Q 3034 2003 2786 2293 
Q 2538 2584 2113 2584 
z
M 3366 4563 
L 3366 3988 
Q 3128 4100 2886 4159 
Q 2644 4219 2406 4219 
Q 1781 4219 1451 3797 
Q 1122 3375 1075 2522 
Q 1259 2794 1537 2939 
Q 1816 3084 2150 3084 
Q 2853 3084 3261 2657 
Q 3669 2231 3669 1497 
Q 3669 778 3244 343 
Q 2819 -91 2113 -91 
Q 1303 -91 875 529 
Q 447 1150 447 2328 
Q 447 3434 972 4092 
Q 1497 4750 2381 4750 
Q 2619 4750 2861 4703 
Q 3103 4656 3366 4563 
z
" transform="scale(0.015625)"/>
       </defs>
       <use xlink:href="#DejaVuSans-36"/>
       <use xlink:href="#DejaVuSans-30" x="63.623047"/>
       <use xlink:href="#DejaVuSans-30" x="127.246094"/>
      </g>
     </g>
    </g>
    <g id="xtick_5">
     <g id="line2d_9">
      <path d="M 333.619372 339.84 
L 333.619372 7.2 
" clip-path="url(#p422fc88d15)" style="fill: none; stroke: #b0b0b0; stroke-width: 0.8; stroke-linecap: square"/>
     </g>
     <g id="line2d_10">
      <g>
       <use xlink:href="#mfc46669f87" x="333.619372" y="339.84" style="stroke: #000000; stroke-width: 0.8"/>
      </g>
     </g>
     <g id="text_5">
      <!-- 800 -->
      <g transform="translate(324.075622 354.438438) scale(0.1 -0.1)">
       <defs>
        <path id="DejaVuSans-38" d="M 2034 2216 
Q 1584 2216 1326 1975 
Q 1069 1734 1069 1313 
Q 1069 891 1326 650 
Q 1584 409 2034 409 
Q 2484 409 2743 651 
Q 3003 894 3003 1313 
Q 3003 1734 2745 1975 
Q 2488 2216 2034 2216 
z
M 1403 2484 
Q 997 2584 770 2862 
Q 544 3141 544 3541 
Q 544 4100 942 4425 
Q 1341 4750 2034 4750 
Q 2731 4750 3128 4425 
Q 3525 4100 3525 3541 
Q 3525 3141 3298 2862 
Q 3072 2584 2669 2484 
Q 3125 2378 3379 2068 
Q 3634 1759 3634 1313 
Q 3634 634 3220 271 
Q 2806 -91 2034 -91 
Q 1263 -91 848 271 
Q 434 634 434 1313 
Q 434 1759 690 2068 
Q 947 2378 1403 2484 
z
M 1172 3481 
Q 1172 3119 1398 2916 
Q 1625 2713 2034 2713 
Q 2441 2713 2670 2916 
Q 2900 3119 2900 3481 
Q 2900 3844 2670 4047 
Q 2441 4250 2034 4250 
Q 1625 4250 1398 4047 
Q 1172 3844 1172 3481 
z
" transform="scale(0.015625)"/>
       </defs>
       <use xlink:href="#DejaVuSans-38"/>
       <use xlink:href="#DejaVuSans-30" x="63.623047"/>
       <use xlink:href="#DejaVuSans-30" x="127.246094"/>
      </g>
     </g>
    </g>
    <g id="xtick_6">
     <g id="line2d_11">
      <path d="M 400.820904 339.84 
L 400.820904 7.2 
" clip-path="url(#p422fc88d15)" style="fill: none; stroke: #b0b0b0; stroke-width: 0.8; stroke-linecap: square"/>
     </g>
     <g id="line2d_12">
      <g>
       <use xlink:href="#mfc46669f87" x="400.820904" y="339.84" style="stroke: #000000; stroke-width: 0.8"/>
      </g>
     </g>
     <g id="text_6">
      <!-- 1000 -->
      <g transform="translate(388.095904 354.438438) scale(0.1 -0.1)">
       <defs>
        <path id="DejaVuSans-31" d="M 794 531 
L 1825 531 
L 1825 4091 
L 703 3866 
L 703 4441 
L 1819 4666 
L 2450 4666 
L 2450 531 
L 3481 531 
L 3481 0 
L 794 0 
L 794 531 
z
" transform="scale(0.015625)"/>
       </defs>
       <use xlink:href="#DejaVuSans-31"/>
       <use xlink:href="#DejaVuSans-30" x="63.623047"/>
       <use xlink:href="#DejaVuSans-30" x="127.246094"/>
       <use xlink:href="#DejaVuSans-30" x="190.869141"/>
      </g>
     </g>
    </g>
    <g id="xtick_7">
     <g id="line2d_13">
      <path d="M 468.022436 339.84 
L 468.022436 7.2 
" clip-path="url(#p422fc88d15)" style="fill: none; stroke: #b0b0b0; stroke-width: 0.8; stroke-linecap: square"/>
     </g>
     <g id="line2d_14">
      <g>
       <use xlink:href="#mfc46669f87" x="468.022436" y="339.84" style="stroke: #000000; stroke-width: 0.8"/>
      </g>
     </g>
     <g id="text_7">
      <!-- 1200 -->
      <g transform="translate(455.297436 354.438438) scale(0.1 -0.1)">
       <use xlink:href="#DejaVuSans-31"/>
       <use xlink:href="#DejaVuSans-32" x="63.623047"/>
       <use xlink:href="#DejaVuSans-30" x="127.246094"/>
       <use xlink:href="#DejaVuSans-30" x="190.869141"/>
      </g>
     </g>
    </g>
    <g id="text_8">
     <!-- Number of nodes -->
     <g transform="translate(215.955313 369.63625) scale(0.12 -0.12)">
      <defs>
       <path id="DejaVuSans-4e" d="M 628 4666 
L 1478 4666 
L 3547 763 
L 3547 4666 
L 4159 4666 
L 4159 0 
L 3309 0 
L 1241 3903 
L 1241 0 
L 628 0 
L 628 4666 
z
" transform="scale(0.015625)"/>
       <path id="DejaVuSans-75" d="M 544 1381 
L 544 3500 
L 1119 3500 
L 1119 1403 
Q 1119 906 1312 657 
Q 1506 409 1894 409 
Q 2359 409 2629 706 
Q 2900 1003 2900 1516 
L 2900 3500 
L 3475 3500 
L 3475 0 
L 2900 0 
L 2900 538 
Q 2691 219 2414 64 
Q 2138 -91 1772 -91 
Q 1169 -91 856 284 
Q 544 659 544 1381 
z
M 1991 3584 
L 1991 3584 
z
" transform="scale(0.015625)"/>
       <path id="DejaVuSans-6d" d="M 3328 2828 
Q 3544 3216 3844 3400 
Q 4144 3584 4550 3584 
Q 5097 3584 5394 3201 
Q 5691 2819 5691 2113 
L 5691 0 
L 5113 0 
L 5113 2094 
Q 5113 2597 4934 2840 
Q 4756 3084 4391 3084 
Q 3944 3084 3684 2787 
Q 3425 2491 3425 1978 
L 3425 0 
L 2847 0 
L 2847 2094 
Q 2847 2600 2669 2842 
Q 2491 3084 2119 3084 
Q 1678 3084 1418 2786 
Q 1159 2488 1159 1978 
L 1159 0 
L 581 0 
L 581 3500 
L 1159 3500 
L 1159 2956 
Q 1356 3278 1631 3431 
Q 1906 3584 2284 3584 
Q 2666 3584 2933 3390 
Q 3200 3197 3328 2828 
z
" transform="scale(0.015625)"/>
       <path id="DejaVuSans-62" d="M 3116 1747 
Q 3116 2381 2855 2742 
Q 2594 3103 2138 3103 
Q 1681 3103 1420 2742 
Q 1159 2381 1159 1747 
Q 1159 1113 1420 752 
Q 1681 391 2138 391 
Q 2594 391 2855 752 
Q 3116 1113 3116 1747 
z
M 1159 2969 
Q 1341 3281 1617 3432 
Q 1894 3584 2278 3584 
Q 2916 3584 3314 3078 
Q 3713 2572 3713 1747 
Q 3713 922 3314 415 
Q 2916 -91 2278 -91 
Q 1894 -91 1617 61 
Q 1341 213 1159 525 
L 1159 0 
L 581 0 
L 581 4863 
L 1159 4863 
L 1159 2969 
z
" transform="scale(0.015625)"/>
       <path id="DejaVuSans-65" d="M 3597 1894 
L 3597 1613 
L 953 1613 
Q 991 1019 1311 708 
Q 1631 397 2203 397 
Q 2534 397 2845 478 
Q 3156 559 3463 722 
L 3463 178 
Q 3153 47 2828 -22 
Q 2503 -91 2169 -91 
Q 1331 -91 842 396 
Q 353 884 353 1716 
Q 353 2575 817 3079 
Q 1281 3584 2069 3584 
Q 2775 3584 3186 3129 
Q 3597 2675 3597 1894 
z
M 3022 2063 
Q 3016 2534 2758 2815 
Q 2500 3097 2075 3097 
Q 1594 3097 1305 2825 
Q 1016 2553 972 2059 
L 3022 2063 
z
" transform="scale(0.015625)"/>
       <path id="DejaVuSans-72" d="M 2631 2963 
Q 2534 3019 2420 3045 
Q 2306 3072 2169 3072 
Q 1681 3072 1420 2755 
Q 1159 2438 1159 1844 
L 1159 0 
L 581 0 
L 581 3500 
L 1159 3500 
L 1159 2956 
Q 1341 3275 1631 3429 
Q 1922 3584 2338 3584 
Q 2397 3584 2469 3576 
Q 2541 3569 2628 3553 
L 2631 2963 
z
" transform="scale(0.015625)"/>
       <path id="DejaVuSans-20" transform="scale(0.015625)"/>
       <path id="DejaVuSans-6f" d="M 1959 3097 
Q 1497 3097 1228 2736 
Q 959 2375 959 1747 
Q 959 1119 1226 758 
Q 1494 397 1959 397 
Q 2419 397 2687 759 
Q 2956 1122 2956 1747 
Q 2956 2369 2687 2733 
Q 2419 3097 1959 3097 
z
M 1959 3584 
Q 2709 3584 3137 3096 
Q 3566 2609 3566 1747 
Q 3566 888 3137 398 
Q 2709 -91 1959 -91 
Q 1206 -91 779 398 
Q 353 888 353 1747 
Q 353 2609 779 3096 
Q 1206 3584 1959 3584 
z
" transform="scale(0.015625)"/>
       <path id="DejaVuSans-66" d="M 2375 4863 
L 2375 4384 
L 1825 4384 
Q 1516 4384 1395 4259 
Q 1275 4134 1275 3809 
L 1275 3500 
L 2222 3500 
L 2222 3053 
L 1275 3053 
L 1275 0 
L 697 0 
L 697 3053 
L 147 3053 
L 147 3500 
L 697 3500 
L 697 3744 
Q 697 4328 969 4595 
Q 1241 4863 1831 4863 
L 2375 4863 
z
" transform="scale(0.015625)"/>
       <path id="DejaVuSans-6e" d="M 3513 2113 
L 3513 0 
L 2938 0 
L 2938 2094 
Q 2938 2591 2744 2837 
Q 2550 3084 2163 3084 
Q 1697 3084 1428 2787 
Q 1159 2491 1159 1978 
L 1159 0 
L 581 0 
L 581 3500 
L 1159 3500 
L 1159 2956 
Q 1366 3272 1645 3428 
Q 1925 3584 2291 3584 
Q 2894 3584 3203 3211 
Q 3513 2838 3513 2113 
z
" transform="scale(0.015625)"/>
       <path id="DejaVuSans-64" d="M 2906 2969 
L 2906 4863 
L 3481 4863 
L 3481 0 
L 2906 0 
L 2906 525 
Q 2725 213 2448 61 
Q 2172 -91 1784 -91 
Q 1150 -91 751 415 
Q 353 922 353 1747 
Q 353 2572 751 3078 
Q 1150 3584 1784 3584 
Q 2172 3584 2448 3432 
Q 2725 3281 2906 2969 
z
M 947 1747 
Q 947 1113 1208 752 
Q 1469 391 1925 391 
Q 2381 391 2643 752 
Q 2906 1113 2906 1747 
Q 2906 2381 2643 2742 
Q 2381 3103 1925 3103 
Q 1469 3103 1208 2742 
Q 947 2381 947 1747 
z
" transform="scale(0.015625)"/>
       <path id="DejaVuSans-73" d="M 2834 3397 
L 2834 2853 
Q 2591 2978 2328 3040 
Q 2066 3103 1784 3103 
Q 1356 3103 1142 2972 
Q 928 2841 928 2578 
Q 928 2378 1081 2264 
Q 1234 2150 1697 2047 
L 1894 2003 
Q 2506 1872 2764 1633 
Q 3022 1394 3022 966 
Q 3022 478 2636 193 
Q 2250 -91 1575 -91 
Q 1294 -91 989 -36 
Q 684 19 347 128 
L 347 722 
Q 666 556 975 473 
Q 1284 391 1588 391 
Q 1994 391 2212 530 
Q 2431 669 2431 922 
Q 2431 1156 2273 1281 
Q 2116 1406 1581 1522 
L 1381 1569 
Q 847 1681 609 1914 
Q 372 2147 372 2553 
Q 372 3047 722 3315 
Q 1072 3584 1716 3584 
Q 2034 3584 2315 3537 
Q 2597 3491 2834 3397 
z
" transform="scale(0.015625)"/>
      </defs>
      <use xlink:href="#DejaVuSans-4e"/>
      <use xlink:href="#DejaVuSans-75" x="74.804688"/>
      <use xlink:href="#DejaVuSans-6d" x="138.183594"/>
      <use xlink:href="#DejaVuSans-62" x="235.595703"/>
      <use xlink:href="#DejaVuSans-65" x="299.072266"/>
      <use xlink:href="#DejaVuSans-72" x="360.595703"/>
      <use xlink:href="#DejaVuSans-20" x="401.708984"/>
      <use xlink:href="#DejaVuSans-6f" x="433.496094"/>
      <use xlink:href="#DejaVuSans-66" x="494.677734"/>
      <use xlink:href="#DejaVuSans-20" x="529.882812"/>
      <use xlink:href="#DejaVuSans-6e" x="561.669922"/>
      <use xlink:href="#DejaVuSans-6f" x="625.048828"/>
      <use xlink:href="#DejaVuSans-64" x="686.230469"/>
      <use xlink:href="#DejaVuSans-65" x="749.707031"/>
      <use xlink:href="#DejaVuSans-73" x="811.230469"/>
     </g>
    </g>
   </g>
   <g id="matplotlib.axis_2">
    <g id="ytick_1">
     <g id="line2d_15">
      <path d="M 44.555938 338.991619 
L 490.955938 338.991619 
" clip-path="url(#p422fc88d15)" style="fill: none; stroke: #b0b0b0; stroke-width: 0.8; stroke-linecap: square"/>
     </g>
     <g id="line2d_16">
      <defs>
       <path id="m94c6825ce4" d="M 0 0 
L -3.5 0 
" style="stroke: #000000; stroke-width: 0.8"/>
      </defs>
      <g>
       <use xlink:href="#m94c6825ce4" x="44.555938" y="338.991619" style="stroke: #000000; stroke-width: 0.8"/>
      </g>
     </g>
     <g id="text_9">
      <!-- −2 -->
      <g transform="translate(22.81375 342.790838) scale(0.1 -0.1)">
       <defs>
        <path id="DejaVuSans-2212" d="M 678 2272 
L 4684 2272 
L 4684 1741 
L 678 1741 
L 678 2272 
z
" transform="scale(0.015625)"/>
       </defs>
       <use xlink:href="#DejaVuSans-2212"/>
       <use xlink:href="#DejaVuSans-32" x="83.789062"/>
      </g>
     </g>
    </g>
    <g id="ytick_2">
     <g id="line2d_17">
      <path d="M 44.555938 298.06442 
L 490.955938 298.06442 
" clip-path="url(#p422fc88d15)" style="fill: none; stroke: #b0b0b0; stroke-width: 0.8; stroke-linecap: square"/>
     </g>
     <g id="line2d_18">
      <g>
       <use xlink:href="#m94c6825ce4" x="44.555938" y="298.06442" style="stroke: #000000; stroke-width: 0.8"/>
      </g>
     </g>
     <g id="text_10">
      <!-- −1 -->
      <g transform="translate(22.81375 301.863639) scale(0.1 -0.1)">
       <use xlink:href="#DejaVuSans-2212"/>
       <use xlink:href="#DejaVuSans-31" x="83.789062"/>
      </g>
     </g>
    </g>
    <g id="ytick_3">
     <g id="line2d_19">
      <path d="M 44.555938 257.137221 
L 490.955938 257.137221 
" clip-path="url(#p422fc88d15)" style="fill: none; stroke: #b0b0b0; stroke-width: 0.8; stroke-linecap: square"/>
     </g>
     <g id="line2d_20">
      <g>
       <use xlink:href="#m94c6825ce4" x="44.555938" y="257.137221" style="stroke: #000000; stroke-width: 0.8"/>
      </g>
     </g>
     <g id="text_11">
      <!-- 0 -->
      <g transform="translate(31.193438 260.936439) scale(0.1 -0.1)">
       <use xlink:href="#DejaVuSans-30"/>
      </g>
     </g>
    </g>
    <g id="ytick_4">
     <g id="line2d_21">
      <path d="M 44.555938 216.210021 
L 490.955938 216.210021 
" clip-path="url(#p422fc88d15)" style="fill: none; stroke: #b0b0b0; stroke-width: 0.8; stroke-linecap: square"/>
     </g>
     <g id="line2d_22">
      <g>
       <use xlink:href="#m94c6825ce4" x="44.555938" y="216.210021" style="stroke: #000000; stroke-width: 0.8"/>
      </g>
     </g>
     <g id="text_12">
      <!-- 1 -->
      <g transform="translate(31.193438 220.00924) scale(0.1 -0.1)">
       <use xlink:href="#DejaVuSans-31"/>
      </g>
     </g>
    </g>
    <g id="ytick_5">
     <g id="line2d_23">
      <path d="M 44.555938 175.282822 
L 490.955938 175.282822 
" clip-path="url(#p422fc88d15)" style="fill: none; stroke: #b0b0b0; stroke-width: 0.8; stroke-linecap: square"/>
     </g>
     <g id="line2d_24">
      <g>
       <use xlink:href="#m94c6825ce4" x="44.555938" y="175.282822" style="stroke: #000000; stroke-width: 0.8"/>
      </g>
     </g>
     <g id="text_13">
      <!-- 2 -->
      <g transform="translate(31.193438 179.082041) scale(0.1 -0.1)">
       <use xlink:href="#DejaVuSans-32"/>
      </g>
     </g>
    </g>
    <g id="ytick_6">
     <g id="line2d_25">
      <path d="M 44.555938 134.355623 
L 490.955938 134.355623 
" clip-path="url(#p422fc88d15)" style="fill: none; stroke: #b0b0b0; stroke-width: 0.8; stroke-linecap: square"/>
     </g>
     <g id="line2d_26">
      <g>
       <use xlink:href="#m94c6825ce4" x="44.555938" y="134.355623" style="stroke: #000000; stroke-width: 0.8"/>
      </g>
     </g>
     <g id="text_14">
      <!-- 3 -->
      <g transform="translate(31.193438 138.154841) scale(0.1 -0.1)">
       <defs>
        <path id="DejaVuSans-33" d="M 2597 2516 
Q 3050 2419 3304 2112 
Q 3559 1806 3559 1356 
Q 3559 666 3084 287 
Q 2609 -91 1734 -91 
Q 1441 -91 1130 -33 
Q 819 25 488 141 
L 488 750 
Q 750 597 1062 519 
Q 1375 441 1716 441 
Q 2309 441 2620 675 
Q 2931 909 2931 1356 
Q 2931 1769 2642 2001 
Q 2353 2234 1838 2234 
L 1294 2234 
L 1294 2753 
L 1863 2753 
Q 2328 2753 2575 2939 
Q 2822 3125 2822 3475 
Q 2822 3834 2567 4026 
Q 2313 4219 1838 4219 
Q 1578 4219 1281 4162 
Q 984 4106 628 3988 
L 628 4550 
Q 988 4650 1302 4700 
Q 1616 4750 1894 4750 
Q 2613 4750 3031 4423 
Q 3450 4097 3450 3541 
Q 3450 3153 3228 2886 
Q 3006 2619 2597 2516 
z
" transform="scale(0.015625)"/>
       </defs>
       <use xlink:href="#DejaVuSans-33"/>
      </g>
     </g>
    </g>
    <g id="ytick_7">
     <g id="line2d_27">
      <path d="M 44.555938 93.428423 
L 490.955938 93.428423 
" clip-path="url(#p422fc88d15)" style="fill: none; stroke: #b0b0b0; stroke-width: 0.8; stroke-linecap: square"/>
     </g>
     <g id="line2d_28">
      <g>
       <use xlink:href="#m94c6825ce4" x="44.555938" y="93.428423" style="stroke: #000000; stroke-width: 0.8"/>
      </g>
     </g>
     <g id="text_15">
      <!-- 4 -->
      <g transform="translate(31.193438 97.227642) scale(0.1 -0.1)">
       <use xlink:href="#DejaVuSans-34"/>
      </g>
     </g>
    </g>
    <g id="ytick_8">
     <g id="line2d_29">
      <path d="M 44.555938 52.501224 
L 490.955938 52.501224 
" clip-path="url(#p422fc88d15)" style="fill: none; stroke: #b0b0b0; stroke-width: 0.8; stroke-linecap: square"/>
     </g>
     <g id="line2d_30">
      <g>
       <use xlink:href="#m94c6825ce4" x="44.555938" y="52.501224" style="stroke: #000000; stroke-width: 0.8"/>
      </g>
     </g>
     <g id="text_16">
      <!-- 5 -->
      <g transform="translate(31.193438 56.300443) scale(0.1 -0.1)">
       <defs>
        <path id="DejaVuSans-35" d="M 691 4666 
L 3169 4666 
L 3169 4134 
L 1269 4134 
L 1269 2991 
Q 1406 3038 1543 3061 
Q 1681 3084 1819 3084 
Q 2600 3084 3056 2656 
Q 3513 2228 3513 1497 
Q 3513 744 3044 326 
Q 2575 -91 1722 -91 
Q 1428 -91 1123 -41 
Q 819 9 494 109 
L 494 744 
Q 775 591 1075 516 
Q 1375 441 1709 441 
Q 2250 441 2565 725 
Q 2881 1009 2881 1497 
Q 2881 1984 2565 2268 
Q 2250 2553 1709 2553 
Q 1456 2553 1204 2497 
Q 953 2441 691 2322 
L 691 4666 
z
" transform="scale(0.015625)"/>
       </defs>
       <use xlink:href="#DejaVuSans-35"/>
      </g>
     </g>
    </g>
    <g id="ytick_9">
     <g id="line2d_31">
      <path d="M 44.555938 11.574025 
L 490.955938 11.574025 
" clip-path="url(#p422fc88d15)" style="fill: none; stroke: #b0b0b0; stroke-width: 0.8; stroke-linecap: square"/>
     </g>
     <g id="line2d_32">
      <g>
       <use xlink:href="#m94c6825ce4" x="44.555938" y="11.574025" style="stroke: #000000; stroke-width: 0.8"/>
      </g>
     </g>
     <g id="text_17">
      <!-- 6 -->
      <g transform="translate(31.193438 15.373243) scale(0.1 -0.1)">
       <use xlink:href="#DejaVuSans-36"/>
      </g>
     </g>
    </g>
    <g id="text_18">
     <!-- Log-scaled K₀ (clique detection threshold) -->
     <g transform="translate(16.318125 298.84875) rotate(-90) scale(0.12 -0.12)">
      <defs>
       <path id="DejaVuSans-4c" d="M 628 4666 
L 1259 4666 
L 1259 531 
L 3531 531 
L 3531 0 
L 628 0 
L 628 4666 
z
" transform="scale(0.015625)"/>
       <path id="DejaVuSans-67" d="M 2906 1791 
Q 2906 2416 2648 2759 
Q 2391 3103 1925 3103 
Q 1463 3103 1205 2759 
Q 947 2416 947 1791 
Q 947 1169 1205 825 
Q 1463 481 1925 481 
Q 2391 481 2648 825 
Q 2906 1169 2906 1791 
z
M 3481 434 
Q 3481 -459 3084 -895 
Q 2688 -1331 1869 -1331 
Q 1566 -1331 1297 -1286 
Q 1028 -1241 775 -1147 
L 775 -588 
Q 1028 -725 1275 -790 
Q 1522 -856 1778 -856 
Q 2344 -856 2625 -561 
Q 2906 -266 2906 331 
L 2906 616 
Q 2728 306 2450 153 
Q 2172 0 1784 0 
Q 1141 0 747 490 
Q 353 981 353 1791 
Q 353 2603 747 3093 
Q 1141 3584 1784 3584 
Q 2172 3584 2450 3431 
Q 2728 3278 2906 2969 
L 2906 3500 
L 3481 3500 
L 3481 434 
z
" transform="scale(0.015625)"/>
       <path id="DejaVuSans-2d" d="M 313 2009 
L 1997 2009 
L 1997 1497 
L 313 1497 
L 313 2009 
z
" transform="scale(0.015625)"/>
       <path id="DejaVuSans-63" d="M 3122 3366 
L 3122 2828 
Q 2878 2963 2633 3030 
Q 2388 3097 2138 3097 
Q 1578 3097 1268 2742 
Q 959 2388 959 1747 
Q 959 1106 1268 751 
Q 1578 397 2138 397 
Q 2388 397 2633 464 
Q 2878 531 3122 666 
L 3122 134 
Q 2881 22 2623 -34 
Q 2366 -91 2075 -91 
Q 1284 -91 818 406 
Q 353 903 353 1747 
Q 353 2603 823 3093 
Q 1294 3584 2113 3584 
Q 2378 3584 2631 3529 
Q 2884 3475 3122 3366 
z
" transform="scale(0.015625)"/>
       <path id="DejaVuSans-61" d="M 2194 1759 
Q 1497 1759 1228 1600 
Q 959 1441 959 1056 
Q 959 750 1161 570 
Q 1363 391 1709 391 
Q 2188 391 2477 730 
Q 2766 1069 2766 1631 
L 2766 1759 
L 2194 1759 
z
M 3341 1997 
L 3341 0 
L 2766 0 
L 2766 531 
Q 2569 213 2275 61 
Q 1981 -91 1556 -91 
Q 1019 -91 701 211 
Q 384 513 384 1019 
Q 384 1609 779 1909 
Q 1175 2209 1959 2209 
L 2766 2209 
L 2766 2266 
Q 2766 2663 2505 2880 
Q 2244 3097 1772 3097 
Q 1472 3097 1187 3025 
Q 903 2953 641 2809 
L 641 3341 
Q 956 3463 1253 3523 
Q 1550 3584 1831 3584 
Q 2591 3584 2966 3190 
Q 3341 2797 3341 1997 
z
" transform="scale(0.015625)"/>
       <path id="DejaVuSans-6c" d="M 603 4863 
L 1178 4863 
L 1178 0 
L 603 0 
L 603 4863 
z
" transform="scale(0.015625)"/>
       <path id="DejaVuSans-4b" d="M 628 4666 
L 1259 4666 
L 1259 2694 
L 3353 4666 
L 4166 4666 
L 1850 2491 
L 4331 0 
L 3500 0 
L 1259 2247 
L 1259 0 
L 628 0 
L 628 4666 
z
" transform="scale(0.015625)"/>
       <path id="DejaVuSans-2080" d="M 1781 2091 
Q 1625 2360 1309 2360 
Q 994 2360 838 2091 
Q 678 1822 678 1285 
Q 678 744 838 476 
Q 994 207 1309 207 
Q 1625 207 1781 476 
Q 1941 744 1941 1285 
Q 1941 1822 1781 2091 
z
M 1309 2638 
Q 1813 2638 2078 2291 
Q 2344 1944 2344 1285 
Q 2344 622 2078 275 
Q 1813 -71 1309 -71 
Q 803 -71 537 275 
Q 272 622 272 1285 
Q 272 1944 537 2291 
Q 803 2638 1309 2638 
z
" transform="scale(0.015625)"/>
       <path id="DejaVuSans-28" d="M 1984 4856 
Q 1566 4138 1362 3434 
Q 1159 2731 1159 2009 
Q 1159 1288 1364 580 
Q 1569 -128 1984 -844 
L 1484 -844 
Q 1016 -109 783 600 
Q 550 1309 550 2009 
Q 550 2706 781 3412 
Q 1013 4119 1484 4856 
L 1984 4856 
z
" transform="scale(0.015625)"/>
       <path id="DejaVuSans-69" d="M 603 3500 
L 1178 3500 
L 1178 0 
L 603 0 
L 603 3500 
z
M 603 4863 
L 1178 4863 
L 1178 4134 
L 603 4134 
L 603 4863 
z
" transform="scale(0.015625)"/>
       <path id="DejaVuSans-71" d="M 947 1747 
Q 947 1113 1208 752 
Q 1469 391 1925 391 
Q 2381 391 2643 752 
Q 2906 1113 2906 1747 
Q 2906 2381 2643 2742 
Q 2381 3103 1925 3103 
Q 1469 3103 1208 2742 
Q 947 2381 947 1747 
z
M 2906 525 
Q 2725 213 2448 61 
Q 2172 -91 1784 -91 
Q 1150 -91 751 415 
Q 353 922 353 1747 
Q 353 2572 751 3078 
Q 1150 3584 1784 3584 
Q 2172 3584 2448 3432 
Q 2725 3281 2906 2969 
L 2906 3500 
L 3481 3500 
L 3481 -1331 
L 2906 -1331 
L 2906 525 
z
" transform="scale(0.015625)"/>
       <path id="DejaVuSans-74" d="M 1172 4494 
L 1172 3500 
L 2356 3500 
L 2356 3053 
L 1172 3053 
L 1172 1153 
Q 1172 725 1289 603 
Q 1406 481 1766 481 
L 2356 481 
L 2356 0 
L 1766 0 
Q 1100 0 847 248 
Q 594 497 594 1153 
L 594 3053 
L 172 3053 
L 172 3500 
L 594 3500 
L 594 4494 
L 1172 4494 
z
" transform="scale(0.015625)"/>
       <path id="DejaVuSans-68" d="M 3513 2113 
L 3513 0 
L 2938 0 
L 2938 2094 
Q 2938 2591 2744 2837 
Q 2550 3084 2163 3084 
Q 1697 3084 1428 2787 
Q 1159 2491 1159 1978 
L 1159 0 
L 581 0 
L 581 4863 
L 1159 4863 
L 1159 2956 
Q 1366 3272 1645 3428 
Q 1925 3584 2291 3584 
Q 2894 3584 3203 3211 
Q 3513 2838 3513 2113 
z
" transform="scale(0.015625)"/>
       <path id="DejaVuSans-29" d="M 513 4856 
L 1013 4856 
Q 1481 4119 1714 3412 
Q 1947 2706 1947 2009 
Q 1947 1309 1714 600 
Q 1481 -109 1013 -844 
L 513 -844 
Q 928 -128 1133 580 
Q 1338 1288 1338 2009 
Q 1338 2731 1133 3434 
Q 928 4138 513 4856 
z
" transform="scale(0.015625)"/>
      </defs>
      <use xlink:href="#DejaVuSans-4c"/>
      <use xlink:href="#DejaVuSans-6f" x="53.962891"/>
      <use xlink:href="#DejaVuSans-67" x="115.144531"/>
      <use xlink:href="#DejaVuSans-2d" x="178.621094"/>
      <use xlink:href="#DejaVuSans-73" x="214.705078"/>
      <use xlink:href="#DejaVuSans-63" x="266.804688"/>
      <use xlink:href="#DejaVuSans-61" x="321.785156"/>
      <use xlink:href="#DejaVuSans-6c" x="383.064453"/>
      <use xlink:href="#DejaVuSans-65" x="410.847656"/>
      <use xlink:href="#DejaVuSans-64" x="472.371094"/>
      <use xlink:href="#DejaVuSans-20" x="535.847656"/>
      <use xlink:href="#DejaVuSans-4b" x="567.634766"/>
      <use xlink:href="#DejaVuSans-2080" x="633.210938"/>
      <use xlink:href="#DejaVuSans-20" x="673.298828"/>
      <use xlink:href="#DejaVuSans-28" x="705.085938"/>
      <use xlink:href="#DejaVuSans-63" x="744.099609"/>
      <use xlink:href="#DejaVuSans-6c" x="799.080078"/>
      <use xlink:href="#DejaVuSans-69" x="826.863281"/>
      <use xlink:href="#DejaVuSans-71" x="854.646484"/>
      <use xlink:href="#DejaVuSans-75" x="918.123047"/>
      <use xlink:href="#DejaVuSans-65" x="981.501953"/>
      <use xlink:href="#DejaVuSans-20" x="1043.025391"/>
      <use xlink:href="#DejaVuSans-64" x="1074.8125"/>
      <use xlink:href="#DejaVuSans-65" x="1138.289062"/>
      <use xlink:href="#DejaVuSans-74" x="1199.8125"/>
      <use xlink:href="#DejaVuSans-65" x="1239.021484"/>
      <use xlink:href="#DejaVuSans-63" x="1300.544922"/>
      <use xlink:href="#DejaVuSans-74" x="1355.525391"/>
      <use xlink:href="#DejaVuSans-69" x="1394.734375"/>
      <use xlink:href="#DejaVuSans-6f" x="1422.517578"/>
      <use xlink:href="#DejaVuSans-6e" x="1483.699219"/>
      <use xlink:href="#DejaVuSans-20" x="1547.078125"/>
      <use xlink:href="#DejaVuSans-74" x="1578.865234"/>
      <use xlink:href="#DejaVuSans-68" x="1618.074219"/>
      <use xlink:href="#DejaVuSans-72" x="1681.453125"/>
      <use xlink:href="#DejaVuSans-65" x="1720.316406"/>
      <use xlink:href="#DejaVuSans-73" x="1781.839844"/>
      <use xlink:href="#DejaVuSans-68" x="1833.939453"/>
      <use xlink:href="#DejaVuSans-6f" x="1897.318359"/>
      <use xlink:href="#DejaVuSans-6c" x="1958.5"/>
      <use xlink:href="#DejaVuSans-64" x="1986.283203"/>
      <use xlink:href="#DejaVuSans-29" x="2049.759766"/>
     </g>
    </g>
   </g>
   <g id="line2d_33"/>
   <g id="line2d_34"/>
   <g id="line2d_35"/>
   <g id="line2d_36"/>
   <g id="line2d_37"/>
   <g id="line2d_38">
    <path d="M 65.182854 309.972539 
L 65.518862 225.98468 
L 65.85487 208.715524 
L 66.190877 199.677498 
L 66.862893 189.523807 
L 67.534908 183.561753 
L 68.206923 179.457208 
L 69.214946 175.095297 
L 70.222969 171.939634 
L 71.230992 169.497369 
L 72.575023 166.940648 
L 73.919053 164.910181 
L 75.263084 163.237147 
L 76.943122 161.499395 
L 78.959168 159.781298 
L 80.975214 158.348688 
L 83.327268 156.937644 
L 86.015329 155.576559 
L 89.375406 154.149124 
L 93.07149 152.83374 
L 97.439589 151.527495 
L 102.479704 150.262391 
L 108.527842 148.99096 
L 115.584003 147.751915 
L 123.648187 146.566892 
L 133.392409 145.370274 
L 144.816669 144.201458 
L 158.256976 143.056302 
L 174.385343 141.914492 
L 193.53778 140.790815 
L 216.3863 139.681754 
L 243.602921 138.590548 
L 276.195664 137.512968 
L 315.50856 136.443782 
L 362.549632 135.393371 
L 419.334926 134.354011 
L 467.720029 133.608683 
L 467.720029 133.608683 
" clip-path="url(#p422fc88d15)" style="fill: none; stroke: #008000; stroke-width: 1.5; stroke-linecap: square"/>
   </g>
   <g id="line2d_39">
    <path d="M 64.846847 324.72 
L 65.182854 275.650431 
L 65.518862 262.418112 
L 66.190877 248.726948 
L 66.862893 240.596723 
L 67.534908 234.793752 
L 68.542931 228.346059 
L 69.550954 223.450559 
L 70.558977 219.503055 
L 71.903007 215.201718 
L 73.247038 211.649343 
L 74.927076 207.93198 
L 76.607115 204.787217 
L 78.623161 201.557918 
L 80.639207 198.769448 
L 82.99126 195.933987 
L 85.343314 193.444024 
L 88.031375 190.926124 
L 91.055444 188.420656 
L 94.415521 185.955151 
L 98.111605 183.547467 
L 102.143697 181.208452 
L 106.511796 178.944012 
L 111.215903 176.75665 
L 116.592026 174.513355 
L 122.304156 172.371912 
L 128.688302 170.217053 
L 135.744462 168.072842 
L 143.472639 165.95657 
L 152.208838 163.801388 
L 161.95306 161.638253 
L 172.705305 159.489986 
L 184.465573 157.372842 
L 197.569872 155.246116 
L 212.018201 153.132056 
L 228.146568 151.004513 
L 245.954974 148.886803 
L 265.443419 146.79576 
L 287.283916 144.681215 
L 311.476468 142.568785 
L 338.021073 140.477225 
L 367.589747 138.374341 
L 400.182489 136.2822 
L 436.471317 134.179726 
L 442.519454 133.849394 
L 442.519454 133.849394 
" clip-path="url(#p422fc88d15)" style="fill: none; stroke-dasharray: 1.5,2.475; stroke-dashoffset: 0; stroke: #ffa500; stroke-width: 1.5"/>
   </g>
   <g id="line2d_40">
    <path d="M 442.855462 133.831198 
L 443.19147 133.813018 
L 443.527477 133.794854 
L 443.863485 133.776706 
L 444.199493 133.758574 
L 444.5355 133.740458 
L 444.871508 133.722358 
L 445.207516 133.704275 
L 445.543523 133.686207 
L 445.879531 133.668155 
L 446.215539 133.650119 
L 446.551546 133.632099 
L 446.887554 133.614095 
L 447.223562 133.596106 
L 447.559569 133.578134 
L 447.895577 133.560177 
L 448.231585 133.542236 
L 448.567592 133.52431 
L 448.9036 133.506401 
L 449.239608 133.488507 
L 449.575615 133.470628 
L 449.911623 133.452766 
L 450.247631 133.434918 
L 450.583638 133.417087 
L 450.919646 133.399271 
L 451.255654 133.38147 
L 451.591661 133.363685 
L 451.927669 133.345915 
L 452.263676 133.328161 
L 452.599684 133.310422 
L 452.935692 133.292698 
L 453.271699 133.27499 
L 453.607707 133.257297 
L 453.943715 133.23962 
L 454.279722 133.221957 
L 454.61573 133.20431 
L 454.951738 133.186678 
L 455.287745 133.169061 
L 455.623753 133.15146 
L 455.959761 133.133873 
L 456.295768 133.116302 
L 456.631776 133.098746 
L 456.967784 133.081205 
L 457.303791 133.063678 
L 457.639799 133.046167 
L 457.975807 133.028671 
L 458.311814 133.01119 
L 458.647822 132.993723 
L 458.98383 132.976272 
L 459.319837 132.958835 
L 459.655845 132.941413 
L 459.991853 132.924006 
L 460.32786 132.906614 
L 460.663868 132.889237 
L 460.999876 132.871874 
L 461.335883 132.854526 
L 461.671891 132.837193 
L 462.007899 132.819875 
L 462.343906 132.802571 
L 462.679914 132.785281 
L 463.015922 132.768007 
L 463.351929 132.750747 
L 463.687937 132.733501 
L 464.023945 132.71627 
L 464.359952 132.699053 
L 464.69596 132.681851 
L 465.031968 132.664664 
L 465.367975 132.64749 
L 465.703983 132.630332 
L 466.03999 132.613187 
L 466.375998 132.596057 
L 466.712006 132.578941 
L 467.048013 132.56184 
L 467.384021 132.544753 
L 467.720029 132.52768 
" clip-path="url(#p422fc88d15)" style="fill: none; stroke: #ffa500; stroke-width: 1.5; stroke-linecap: square"/>
   </g>
   <g id="patch_3">
    <path d="M 44.555938 339.84 
L 44.555938 7.2 
" style="fill: none; stroke: #000000; stroke-width: 0.8; stroke-linejoin: miter; stroke-linecap: square"/>
   </g>
   <g id="patch_4">
    <path d="M 490.955938 339.84 
L 490.955938 7.2 
" style="fill: none; stroke: #000000; stroke-width: 0.8; stroke-linejoin: miter; stroke-linecap: square"/>
   </g>
   <g id="patch_5">
    <path d="M 44.555938 339.84 
L 490.955938 339.84 
" style="fill: none; stroke: #000000; stroke-width: 0.8; stroke-linejoin: miter; stroke-linecap: square"/>
   </g>
   <g id="patch_6">
    <path d="M 44.555938 7.2 
L 490.955938 7.2 
" style="fill: none; stroke: #000000; stroke-width: 0.8; stroke-linejoin: miter; stroke-linecap: square"/>
   </g>
   <g id="legend_1">
    <g id="patch_7">
     <path d="M 497.955938 241.349688 
L 649.584063 241.349688 
Q 651.584063 241.349688 651.584063 239.349688 
L 651.584063 107.690313 
Q 651.584063 105.690313 649.584063 105.690313 
L 497.955938 105.690313 
Q 495.955938 105.690313 495.955938 107.690313 
L 495.955938 239.349688 
Q 495.955938 241.349688 497.955938 241.349688 
z
" style="fill: #ffffff; opacity: 0.8; stroke: #cccccc; stroke-linejoin: miter"/>
    </g>
    <g id="text_19">
     <!-- Legend: -->
     <g transform="translate(553.716875 117.28875) scale(0.1 -0.1)">
      <defs>
       <path id="DejaVuSans-3a" d="M 750 794 
L 1409 794 
L 1409 0 
L 750 0 
L 750 794 
z
M 750 3309 
L 1409 3309 
L 1409 2516 
L 750 2516 
L 750 3309 
z
" transform="scale(0.015625)"/>
      </defs>
      <use xlink:href="#DejaVuSans-4c"/>
      <use xlink:href="#DejaVuSans-65" x="53.962891"/>
      <use xlink:href="#DejaVuSans-67" x="115.486328"/>
      <use xlink:href="#DejaVuSans-65" x="178.962891"/>
      <use xlink:href="#DejaVuSans-6e" x="240.486328"/>
      <use xlink:href="#DejaVuSans-64" x="303.865234"/>
      <use xlink:href="#DejaVuSans-3a" x="367.341797"/>
     </g>
    </g>
    <g id="PathCollection_12">
     <g>
      <use xlink:href="#m1616d54b1d" x="509.955938" y="129.341875" style="fill: #c14168; fill-opacity: 0.5; stroke: #c14168; stroke-opacity: 0.5"/>
     </g>
    </g>
    <g id="text_20">
     <!-- Humans (mean) -->
     <g transform="translate(527.955938 131.966875) scale(0.1 -0.1)">
      <defs>
       <path id="DejaVuSans-48" d="M 628 4666 
L 1259 4666 
L 1259 2753 
L 3553 2753 
L 3553 4666 
L 4184 4666 
L 4184 0 
L 3553 0 
L 3553 2222 
L 1259 2222 
L 1259 0 
L 628 0 
L 628 4666 
z
" transform="scale(0.015625)"/>
      </defs>
      <use xlink:href="#DejaVuSans-48"/>
      <use xlink:href="#DejaVuSans-75" x="75.195312"/>
      <use xlink:href="#DejaVuSans-6d" x="138.574219"/>
      <use xlink:href="#DejaVuSans-61" x="235.986328"/>
      <use xlink:href="#DejaVuSans-6e" x="297.265625"/>
      <use xlink:href="#DejaVuSans-73" x="360.644531"/>
      <use xlink:href="#DejaVuSans-20" x="412.744141"/>
      <use xlink:href="#DejaVuSans-28" x="444.53125"/>
      <use xlink:href="#DejaVuSans-6d" x="483.544922"/>
      <use xlink:href="#DejaVuSans-65" x="580.957031"/>
      <use xlink:href="#DejaVuSans-61" x="642.480469"/>
      <use xlink:href="#DejaVuSans-6e" x="703.759766"/>
      <use xlink:href="#DejaVuSans-29" x="767.138672"/>
     </g>
    </g>
    <g id="line2d_41">
     <defs>
      <path id="m31260fabc4" d="M 0 3.535534 
C 0.937635 3.535534 1.836992 3.163008 2.5 2.5 
C 3.163008 1.836992 3.535534 0.937635 3.535534 0 
C 3.535534 -0.937635 3.163008 -1.836992 2.5 -2.5 
C 1.836992 -3.163008 0.937635 -3.535534 0 -3.535534 
C -0.937635 -3.535534 -1.836992 -3.163008 -2.5 -2.5 
C -3.163008 -1.836992 -3.535534 -0.937635 -3.535534 0 
C -3.535534 0.937635 -3.163008 1.836992 -2.5 2.5 
C -1.836992 3.163008 -0.937635 3.535534 0 3.535534 
z
" style="stroke: #ffffff; stroke-opacity: 0.7; stroke-width: 0.565685"/>
     </defs>
     <g>
      <use xlink:href="#m31260fabc4" x="509.955938" y="143.145" style="fill: #d60000; fill-opacity: 0.7; stroke: #ffffff; stroke-opacity: 0.7; stroke-width: 0.565685"/>
     </g>
    </g>
    <g id="text_21">
     <!-- MLP -->
     <g transform="translate(527.955938 146.645) scale(0.1 -0.1)">
      <defs>
       <path id="DejaVuSans-4d" d="M 628 4666 
L 1569 4666 
L 2759 1491 
L 3956 4666 
L 4897 4666 
L 4897 0 
L 4281 0 
L 4281 4097 
L 3078 897 
L 2444 897 
L 1241 4097 
L 1241 0 
L 628 0 
L 628 4666 
z
" transform="scale(0.015625)"/>
       <path id="DejaVuSans-50" d="M 1259 4147 
L 1259 2394 
L 2053 2394 
Q 2494 2394 2734 2622 
Q 2975 2850 2975 3272 
Q 2975 3691 2734 3919 
Q 2494 4147 2053 4147 
L 1259 4147 
z
M 628 4666 
L 2053 4666 
Q 2838 4666 3239 4311 
Q 3641 3956 3641 3272 
Q 3641 2581 3239 2228 
Q 2838 1875 2053 1875 
L 1259 1875 
L 1259 0 
L 628 0 
L 628 4666 
z
" transform="scale(0.015625)"/>
      </defs>
      <use xlink:href="#DejaVuSans-4d"/>
      <use xlink:href="#DejaVuSans-4c" x="86.279297"/>
      <use xlink:href="#DejaVuSans-50" x="141.992188"/>
     </g>
    </g>
    <g id="line2d_42">
     <defs>
      <path id="m03e96d2e2d" d="M 0 3.535534 
C 0.937635 3.535534 1.836992 3.163008 2.5 2.5 
C 3.163008 1.836992 3.535534 0.937635 3.535534 0 
C 3.535534 -0.937635 3.163008 -1.836992 2.5 -2.5 
C 1.836992 -3.163008 0.937635 -3.535534 0 -3.535534 
C -0.937635 -3.535534 -1.836992 -3.163008 -2.5 -2.5 
C -3.163008 -1.836992 -3.535534 -0.937635 -3.535534 0 
C -3.535534 0.937635 -3.163008 1.836992 -2.5 2.5 
C -1.836992 3.163008 -0.937635 3.535534 0 3.535534 
z
" style="stroke: #ffffff; stroke-opacity: 0.7; stroke-width: 0.565685"/>
     </defs>
     <g>
      <use xlink:href="#m03e96d2e2d" x="509.955938" y="157.823125" style="fill: #0000dd; fill-opacity: 0.7; stroke: #ffffff; stroke-opacity: 0.7; stroke-width: 0.565685"/>
     </g>
    </g>
    <g id="text_22">
     <!-- MLP_li-earlystop-scatter -->
     <g transform="translate(527.955938 161.323125) scale(0.1 -0.1)">
      <defs>
       <path id="DejaVuSans-5f" d="M 3263 -1063 
L 3263 -1509 
L -63 -1509 
L -63 -1063 
L 3263 -1063 
z
" transform="scale(0.015625)"/>
       <path id="DejaVuSans-79" d="M 2059 -325 
Q 1816 -950 1584 -1140 
Q 1353 -1331 966 -1331 
L 506 -1331 
L 506 -850 
L 844 -850 
Q 1081 -850 1212 -737 
Q 1344 -625 1503 -206 
L 1606 56 
L 191 3500 
L 800 3500 
L 1894 763 
L 2988 3500 
L 3597 3500 
L 2059 -325 
z
" transform="scale(0.015625)"/>
       <path id="DejaVuSans-70" d="M 1159 525 
L 1159 -1331 
L 581 -1331 
L 581 3500 
L 1159 3500 
L 1159 2969 
Q 1341 3281 1617 3432 
Q 1894 3584 2278 3584 
Q 2916 3584 3314 3078 
Q 3713 2572 3713 1747 
Q 3713 922 3314 415 
Q 2916 -91 2278 -91 
Q 1894 -91 1617 61 
Q 1341 213 1159 525 
z
M 3116 1747 
Q 3116 2381 2855 2742 
Q 2594 3103 2138 3103 
Q 1681 3103 1420 2742 
Q 1159 2381 1159 1747 
Q 1159 1113 1420 752 
Q 1681 391 2138 391 
Q 2594 391 2855 752 
Q 3116 1113 3116 1747 
z
" transform="scale(0.015625)"/>
      </defs>
      <use xlink:href="#DejaVuSans-4d"/>
      <use xlink:href="#DejaVuSans-4c" x="86.279297"/>
      <use xlink:href="#DejaVuSans-50" x="141.992188"/>
      <use xlink:href="#DejaVuSans-5f" x="202.294922"/>
      <use xlink:href="#DejaVuSans-6c" x="252.294922"/>
      <use xlink:href="#DejaVuSans-69" x="280.078125"/>
      <use xlink:href="#DejaVuSans-2d" x="307.861328"/>
      <use xlink:href="#DejaVuSans-65" x="343.945312"/>
      <use xlink:href="#DejaVuSans-61" x="405.46875"/>
      <use xlink:href="#DejaVuSans-72" x="466.748047"/>
      <use xlink:href="#DejaVuSans-6c" x="507.861328"/>
      <use xlink:href="#DejaVuSans-79" x="535.644531"/>
      <use xlink:href="#DejaVuSans-73" x="594.824219"/>
      <use xlink:href="#DejaVuSans-74" x="646.923828"/>
      <use xlink:href="#DejaVuSans-6f" x="686.132812"/>
      <use xlink:href="#DejaVuSans-70" x="747.314453"/>
      <use xlink:href="#DejaVuSans-2d" x="810.791016"/>
      <use xlink:href="#DejaVuSans-73" x="846.875"/>
      <use xlink:href="#DejaVuSans-63" x="898.974609"/>
      <use xlink:href="#DejaVuSans-61" x="953.955078"/>
      <use xlink:href="#DejaVuSans-74" x="1015.234375"/>
      <use xlink:href="#DejaVuSans-74" x="1054.443359"/>
      <use xlink:href="#DejaVuSans-65" x="1093.652344"/>
      <use xlink:href="#DejaVuSans-72" x="1155.175781"/>
     </g>
    </g>
    <g id="line2d_43">
     <defs>
      <path id="m4233cfc7d5" d="M 0 3.535534 
C 0.937635 3.535534 1.836992 3.163008 2.5 2.5 
C 3.163008 1.836992 3.535534 0.937635 3.535534 0 
C 3.535534 -0.937635 3.163008 -1.836992 2.5 -2.5 
C 1.836992 -3.163008 0.937635 -3.535534 0 -3.535534 
C -0.937635 -3.535534 -1.836992 -3.163008 -2.5 -2.5 
C -3.163008 -1.836992 -3.535534 -0.937635 -3.535534 0 
C -3.535534 0.937635 -3.163008 1.836992 -2.5 2.5 
C -1.836992 3.163008 -0.937635 3.535534 0 3.535534 
z
" style="stroke: #ffffff; stroke-opacity: 0.7; stroke-width: 0.565685"/>
     </defs>
     <g>
      <use xlink:href="#m4233cfc7d5" x="509.955938" y="172.779375" style="fill: #005659; fill-opacity: 0.7; stroke: #ffffff; stroke-opacity: 0.7; stroke-width: 0.565685"/>
     </g>
    </g>
    <g id="text_23">
     <!-- MLP_lr1e-5_10000steps -->
     <g transform="translate(527.955938 176.279375) scale(0.1 -0.1)">
      <use xlink:href="#DejaVuSans-4d"/>
      <use xlink:href="#DejaVuSans-4c" x="86.279297"/>
      <use xlink:href="#DejaVuSans-50" x="141.992188"/>
      <use xlink:href="#DejaVuSans-5f" x="202.294922"/>
      <use xlink:href="#DejaVuSans-6c" x="252.294922"/>
      <use xlink:href="#DejaVuSans-72" x="280.078125"/>
      <use xlink:href="#DejaVuSans-31" x="321.191406"/>
      <use xlink:href="#DejaVuSans-65" x="384.814453"/>
      <use xlink:href="#DejaVuSans-2d" x="446.337891"/>
      <use xlink:href="#DejaVuSans-35" x="482.421875"/>
      <use xlink:href="#DejaVuSans-5f" x="546.044922"/>
      <use xlink:href="#DejaVuSans-31" x="596.044922"/>
      <use xlink:href="#DejaVuSans-30" x="659.667969"/>
      <use xlink:href="#DejaVuSans-30" x="723.291016"/>
      <use xlink:href="#DejaVuSans-30" x="786.914062"/>
      <use xlink:href="#DejaVuSans-30" x="850.537109"/>
      <use xlink:href="#DejaVuSans-73" x="914.160156"/>
      <use xlink:href="#DejaVuSans-74" x="966.259766"/>
      <use xlink:href="#DejaVuSans-65" x="1005.46875"/>
      <use xlink:href="#DejaVuSans-70" x="1066.992188"/>
      <use xlink:href="#DejaVuSans-73" x="1130.46875"/>
     </g>
    </g>
    <g id="line2d_44">
     <defs>
      <path id="m72bebca370" d="M 0 3.535534 
C 0.937635 3.535534 1.836992 3.163008 2.5 2.5 
C 3.163008 1.836992 3.535534 0.937635 3.535534 0 
C 3.535534 -0.937635 3.163008 -1.836992 2.5 -2.5 
C 1.836992 -3.163008 0.937635 -3.535534 0 -3.535534 
C -0.937635 -3.535534 -1.836992 -3.163008 -2.5 -2.5 
C -3.163008 -1.836992 -3.535534 -0.937635 -3.535534 0 
C -3.535534 0.937635 -3.163008 1.836992 -2.5 2.5 
C -1.836992 3.163008 -0.937635 3.535534 0 3.535534 
z
" style="stroke: #ffffff; stroke-opacity: 0.7; stroke-width: 0.565685"/>
     </defs>
     <g>
      <use xlink:href="#m72bebca370" x="509.955938" y="187.735625" style="fill: #018700; fill-opacity: 0.7; stroke: #ffffff; stroke-opacity: 0.7; stroke-width: 0.565685"/>
     </g>
    </g>
    <g id="text_24">
     <!-- ViTpretrained -->
     <g transform="translate(527.955938 191.235625) scale(0.1 -0.1)">
      <defs>
       <path id="DejaVuSans-56" d="M 1831 0 
L 50 4666 
L 709 4666 
L 2188 738 
L 3669 4666 
L 4325 4666 
L 2547 0 
L 1831 0 
z
" transform="scale(0.015625)"/>
       <path id="DejaVuSans-54" d="M -19 4666 
L 3928 4666 
L 3928 4134 
L 2272 4134 
L 2272 0 
L 1638 0 
L 1638 4134 
L -19 4134 
L -19 4666 
z
" transform="scale(0.015625)"/>
      </defs>
      <use xlink:href="#DejaVuSans-56"/>
      <use xlink:href="#DejaVuSans-69" x="66.158203"/>
      <use xlink:href="#DejaVuSans-54" x="93.941406"/>
      <use xlink:href="#DejaVuSans-70" x="155.025391"/>
      <use xlink:href="#DejaVuSans-72" x="218.501953"/>
      <use xlink:href="#DejaVuSans-65" x="257.365234"/>
      <use xlink:href="#DejaVuSans-74" x="318.888672"/>
      <use xlink:href="#DejaVuSans-72" x="358.097656"/>
      <use xlink:href="#DejaVuSans-61" x="399.210938"/>
      <use xlink:href="#DejaVuSans-69" x="460.490234"/>
      <use xlink:href="#DejaVuSans-6e" x="488.273438"/>
      <use xlink:href="#DejaVuSans-65" x="551.652344"/>
      <use xlink:href="#DejaVuSans-64" x="613.175781"/>
     </g>
    </g>
    <g id="line2d_45">
     <defs>
      <path id="m87bad6fbce" d="M 0 3.535534 
C 0.937635 3.535534 1.836992 3.163008 2.5 2.5 
C 3.163008 1.836992 3.535534 0.937635 3.535534 0 
C 3.535534 -0.937635 3.163008 -1.836992 2.5 -2.5 
C 1.836992 -3.163008 0.937635 -3.535534 0 -3.535534 
C -0.937635 -3.535534 -1.836992 -3.163008 -2.5 -2.5 
C -3.163008 -1.836992 -3.535534 -0.937635 -3.535534 0 
C -3.535534 0.937635 -3.163008 1.836992 -2.5 2.5 
C -1.836992 3.163008 -0.937635 3.535534 0 3.535534 
z
" style="stroke: #ffffff; stroke-opacity: 0.7; stroke-width: 0.565685"/>
     </defs>
     <g>
      <use xlink:href="#m87bad6fbce" x="509.955938" y="202.41375" style="fill: #8c3bff; fill-opacity: 0.7; stroke: #ffffff; stroke-opacity: 0.7; stroke-width: 0.565685"/>
     </g>
    </g>
    <g id="text_25">
     <!-- ViTscratch -->
     <g transform="translate(527.955938 205.91375) scale(0.1 -0.1)">
      <use xlink:href="#DejaVuSans-56"/>
      <use xlink:href="#DejaVuSans-69" x="66.158203"/>
      <use xlink:href="#DejaVuSans-54" x="93.941406"/>
      <use xlink:href="#DejaVuSans-73" x="138.525391"/>
      <use xlink:href="#DejaVuSans-63" x="190.625"/>
      <use xlink:href="#DejaVuSans-72" x="245.605469"/>
      <use xlink:href="#DejaVuSans-61" x="286.71875"/>
      <use xlink:href="#DejaVuSans-74" x="347.998047"/>
      <use xlink:href="#DejaVuSans-63" x="387.207031"/>
      <use xlink:href="#DejaVuSans-68" x="442.1875"/>
     </g>
    </g>
    <g id="line2d_46">
     <path d="M 499.955938 217.091875 
L 509.955938 217.091875 
L 519.955938 217.091875 
" style="fill: none; stroke: #008000; stroke-width: 1.5; stroke-linecap: square"/>
    </g>
    <g id="text_26">
     <!-- STAT limit -->
     <g transform="translate(527.955938 220.591875) scale(0.1 -0.1)">
      <defs>
       <path id="DejaVuSans-53" d="M 3425 4513 
L 3425 3897 
Q 3066 4069 2747 4153 
Q 2428 4238 2131 4238 
Q 1616 4238 1336 4038 
Q 1056 3838 1056 3469 
Q 1056 3159 1242 3001 
Q 1428 2844 1947 2747 
L 2328 2669 
Q 3034 2534 3370 2195 
Q 3706 1856 3706 1288 
Q 3706 609 3251 259 
Q 2797 -91 1919 -91 
Q 1588 -91 1214 -16 
Q 841 59 441 206 
L 441 856 
Q 825 641 1194 531 
Q 1563 422 1919 422 
Q 2459 422 2753 634 
Q 3047 847 3047 1241 
Q 3047 1584 2836 1778 
Q 2625 1972 2144 2069 
L 1759 2144 
Q 1053 2284 737 2584 
Q 422 2884 422 3419 
Q 422 4038 858 4394 
Q 1294 4750 2059 4750 
Q 2388 4750 2728 4690 
Q 3069 4631 3425 4513 
z
" transform="scale(0.015625)"/>
       <path id="DejaVuSans-41" d="M 2188 4044 
L 1331 1722 
L 3047 1722 
L 2188 4044 
z
M 1831 4666 
L 2547 4666 
L 4325 0 
L 3669 0 
L 3244 1197 
L 1141 1197 
L 716 0 
L 50 0 
L 1831 4666 
z
" transform="scale(0.015625)"/>
      </defs>
      <use xlink:href="#DejaVuSans-53"/>
      <use xlink:href="#DejaVuSans-54" x="63.476562"/>
      <use xlink:href="#DejaVuSans-41" x="116.810547"/>
      <use xlink:href="#DejaVuSans-54" x="177.46875"/>
      <use xlink:href="#DejaVuSans-20" x="238.552734"/>
      <use xlink:href="#DejaVuSans-6c" x="270.339844"/>
      <use xlink:href="#DejaVuSans-69" x="298.123047"/>
      <use xlink:href="#DejaVuSans-6d" x="325.90625"/>
      <use xlink:href="#DejaVuSans-69" x="423.318359"/>
      <use xlink:href="#DejaVuSans-74" x="451.101562"/>
     </g>
    </g>
    <g id="line2d_47">
     <path d="M 499.955938 231.77 
L 509.955938 231.77 
L 519.955938 231.77 
" style="fill: none; stroke-dasharray: 1.5,2.475; stroke-dashoffset: 0; stroke: #ffa500; stroke-width: 1.5"/>
    </g>
    <g id="text_27">
     <!-- COMP limit -->
     <g transform="translate(527.955938 235.27) scale(0.1 -0.1)">
      <defs>
       <path id="DejaVuSans-43" d="M 4122 4306 
L 4122 3641 
Q 3803 3938 3442 4084 
Q 3081 4231 2675 4231 
Q 1875 4231 1450 3742 
Q 1025 3253 1025 2328 
Q 1025 1406 1450 917 
Q 1875 428 2675 428 
Q 3081 428 3442 575 
Q 3803 722 4122 1019 
L 4122 359 
Q 3791 134 3420 21 
Q 3050 -91 2638 -91 
Q 1578 -91 968 557 
Q 359 1206 359 2328 
Q 359 3453 968 4101 
Q 1578 4750 2638 4750 
Q 3056 4750 3426 4639 
Q 3797 4528 4122 4306 
z
" transform="scale(0.015625)"/>
       <path id="DejaVuSans-4f" d="M 2522 4238 
Q 1834 4238 1429 3725 
Q 1025 3213 1025 2328 
Q 1025 1447 1429 934 
Q 1834 422 2522 422 
Q 3209 422 3611 934 
Q 4013 1447 4013 2328 
Q 4013 3213 3611 3725 
Q 3209 4238 2522 4238 
z
M 2522 4750 
Q 3503 4750 4090 4092 
Q 4678 3434 4678 2328 
Q 4678 1225 4090 567 
Q 3503 -91 2522 -91 
Q 1538 -91 948 565 
Q 359 1222 359 2328 
Q 359 3434 948 4092 
Q 1538 4750 2522 4750 
z
" transform="scale(0.015625)"/>
      </defs>
      <use xlink:href="#DejaVuSans-43"/>
      <use xlink:href="#DejaVuSans-4f" x="69.824219"/>
      <use xlink:href="#DejaVuSans-4d" x="148.535156"/>
      <use xlink:href="#DejaVuSans-50" x="234.814453"/>
      <use xlink:href="#DejaVuSans-20" x="295.117188"/>
      <use xlink:href="#DejaVuSans-6c" x="326.904297"/>
      <use xlink:href="#DejaVuSans-69" x="354.6875"/>
      <use xlink:href="#DejaVuSans-6d" x="382.470703"/>
      <use xlink:href="#DejaVuSans-69" x="479.882812"/>
      <use xlink:href="#DejaVuSans-74" x="507.666016"/>
     </g>
    </g>
   </g>
  </g>
 </g>
 <defs>
  <clipPath id="p422fc88d15">
   <rect x="44.555938" y="7.2" width="446.4" height="332.64"/>
  </clipPath>
 </defs>
</svg>
