<?xml version="1.0" encoding="utf-8" standalone="no"?>
<!DOCTYPE svg PUBLIC "-//W3C//DTD SVG 1.1//EN"
  "http://www.w3.org/Graphics/SVG/1.1/DTD/svg11.dtd">
<svg xmlns:xlink="http://www.w3.org/1999/xlink" width="663.129375pt" height="379.331875pt" viewBox="0 0 663.129375 379.331875" xmlns="http://www.w3.org/2000/svg" version="1.1">
 <metadata>
  <rdf:RDF xmlns:dc="http://purl.org/dc/elements/1.1/" xmlns:cc="http://creativecommons.org/ns#" xmlns:rdf="http://www.w3.org/1999/02/22-rdf-syntax-ns#">
   <cc:Work>
    <dc:type rdf:resource="http://purl.org/dc/dcmitype/StillImage"/>
    <dc:date>2025-03-05T15:35:27.796654</dc:date>
    <dc:format>image/svg+xml</dc:format>
    <dc:creator>
     <cc:Agent>
      <dc:title>Matplotlib v3.8.4, https://matplotlib.org/</dc:title>
     </cc:Agent>
    </dc:creator>
   </cc:Work>
  </rdf:RDF>
 </metadata>
 <defs>
  <style type="text/css">*{stroke-linejoin: round; stroke-linecap: butt}</style>
 </defs>
 <g id="figure_1">
  <g id="patch_1">
   <path d="M 0 379.331875 
L 663.129375 379.331875 
L 663.129375 0 
L 0 0 
z
" style="fill: #ffffff"/>
  </g>
  <g id="axes_1">
   <g id="patch_2">
    <path d="M 48.90125 339.84 
L 495.30125 339.84 
L 495.30125 7.2 
L 48.90125 7.2 
z
" style="fill: #ffffff"/>
   </g>
   <g id="PathCollection_1">
    <defs>
     <path id="m0ec1ff144a" d="M 0 -5.477226 
L -5.477226 5.477226 
L 5.477226 5.477226 
z
" style="stroke: #c14168; stroke-opacity: 0.5"/>
    </defs>
    <g clip-path="url(#p2664c44cab)">
     <use xlink:href="#m0ec1ff144a" x="137.567732" y="218.086013" style="fill: #c14168; fill-opacity: 0.5; stroke: #c14168; stroke-opacity: 0.5"/>
    </g>
   </g>
   <g id="PathCollection_2">
    <g clip-path="url(#p2664c44cab)">
     <use xlink:href="#m0ec1ff144a" x="396.178304" y="149.353735" style="fill: #c14168; fill-opacity: 0.5; stroke: #c14168; stroke-opacity: 0.5"/>
    </g>
   </g>
   <g id="PathCollection_3">
    <defs>
     <path id="C0_0_9c089de9ca" d="M 0 3.535534 
C 0.937635 3.535534 1.836992 3.163008 2.5 2.5 
C 3.163008 1.836992 3.535534 0.937635 3.535534 -0 
C 3.535534 -0.937635 3.163008 -1.836992 2.5 -2.5 
C 1.836992 -3.163008 0.937635 -3.535534 0 -3.535534 
C -0.937635 -3.535534 -1.836992 -3.163008 -2.5 -2.5 
C -3.163008 -1.836992 -3.535534 -0.937635 -3.535534 0 
C -3.535534 0.937635 -3.163008 1.836992 -2.5 2.5 
C -1.836992 3.163008 -0.937635 3.535534 0 3.535534 
z
"/>
    </defs>
    <g clip-path="url(#p2664c44cab)">
     <use xlink:href="#C0_0_9c089de9ca" x="60.809774" y="319.574241" style="fill: #97ff00; fill-opacity: 0.7; stroke: #ffffff; stroke-opacity: 0.7; stroke-width: 0.565685"/>
    </g>
    <g clip-path="url(#p2664c44cab)">
     <use xlink:href="#C0_0_9c089de9ca" x="65.072589" y="287.184115" style="fill: #d60000; fill-opacity: 0.7; stroke: #ffffff; stroke-opacity: 0.7; stroke-width: 0.565685"/>
    </g>
    <g clip-path="url(#p2664c44cab)">
     <use xlink:href="#C0_0_9c089de9ca" x="64.632928" y="308.300701" style="fill: #018700; fill-opacity: 0.7; stroke: #ffffff; stroke-opacity: 0.7; stroke-width: 0.565685"/>
    </g>
    <g clip-path="url(#p2664c44cab)">
     <use xlink:href="#C0_0_9c089de9ca" x="61.957932" y="287.719053" style="fill: #8c3bff; fill-opacity: 0.7; stroke: #ffffff; stroke-opacity: 0.7; stroke-width: 0.565685"/>
    </g>
   </g>
   <g id="PathCollection_4">
    <defs>
     <path id="C1_0_92dca8aaec" d="M 0 3.535534 
C 0.937635 3.535534 1.836992 3.163008 2.5 2.5 
C 3.163008 1.836992 3.535534 0.937635 3.535534 -0 
C 3.535534 -0.937635 3.163008 -1.836992 2.5 -2.5 
C 1.836992 -3.163008 0.937635 -3.535534 0 -3.535534 
C -0.937635 -3.535534 -1.836992 -3.163008 -2.5 -2.5 
C -3.163008 -1.836992 -3.535534 -0.937635 -3.535534 0 
C -3.535534 0.937635 -3.163008 1.836992 -2.5 2.5 
C -1.836992 3.163008 -0.937635 3.535534 0 3.535534 
z
"/>
    </defs>
    <g clip-path="url(#p2664c44cab)">
     <use xlink:href="#C1_0_92dca8aaec" x="471.91858" y="103.558573" style="fill: #97ff00; fill-opacity: 0.7; stroke: #ffffff; stroke-opacity: 0.7; stroke-width: 0.565685"/>
    </g>
    <g clip-path="url(#p2664c44cab)">
     <use xlink:href="#C1_0_92dca8aaec" x="471.081306" y="43.356441" style="fill: #d60000; fill-opacity: 0.7; stroke: #ffffff; stroke-opacity: 0.7; stroke-width: 0.565685"/>
    </g>
    <g clip-path="url(#p2664c44cab)">
     <use xlink:href="#C1_0_92dca8aaec" x="468.785434" y="86.456147" style="fill: #018700; fill-opacity: 0.7; stroke: #ffffff; stroke-opacity: 0.7; stroke-width: 0.565685"/>
    </g>
    <g clip-path="url(#p2664c44cab)">
     <use xlink:href="#C1_0_92dca8aaec" x="472.990313" y="91.412613" style="fill: #8c3bff; fill-opacity: 0.7; stroke: #ffffff; stroke-opacity: 0.7; stroke-width: 0.565685"/>
    </g>
   </g>
   <g id="PathCollection_5">
    <defs>
     <path id="C2_0_437b65b88a" d="M 0 3.535534 
C 0.937635 3.535534 1.836992 3.163008 2.5 2.5 
C 3.163008 1.836992 3.535534 0.937635 3.535534 -0 
C 3.535534 -0.937635 3.163008 -1.836992 2.5 -2.5 
C 1.836992 -3.163008 0.937635 -3.535534 0 -3.535534 
C -0.937635 -3.535534 -1.836992 -3.163008 -2.5 -2.5 
C -3.163008 -1.836992 -3.535534 -0.937635 -3.535534 0 
C -3.535534 0.937635 -3.163008 1.836992 -2.5 2.5 
C -1.836992 3.163008 -0.937635 3.535534 0 3.535534 
z
"/>
    </defs>
    <g clip-path="url(#p2664c44cab)">
     <use xlink:href="#C2_0_437b65b88a" x="82.04731" y="292.61049" style="fill: #97ff00; fill-opacity: 0.7; stroke: #ffffff; stroke-opacity: 0.7; stroke-width: 0.565685"/>
    </g>
    <g clip-path="url(#p2664c44cab)">
     <use xlink:href="#C2_0_437b65b88a" x="79.306893" y="247.351071" style="fill: #d60000; fill-opacity: 0.7; stroke: #ffffff; stroke-opacity: 0.7; stroke-width: 0.565685"/>
    </g>
    <g clip-path="url(#p2664c44cab)">
     <use xlink:href="#C2_0_437b65b88a" x="83.440029" y="282.965436" style="fill: #018700; fill-opacity: 0.7; stroke: #ffffff; stroke-opacity: 0.7; stroke-width: 0.565685"/>
    </g>
    <g clip-path="url(#p2664c44cab)">
     <use xlink:href="#C2_0_437b65b88a" x="80.681026" y="267.93853" style="fill: #8c3bff; fill-opacity: 0.7; stroke: #ffffff; stroke-opacity: 0.7; stroke-width: 0.565685"/>
    </g>
   </g>
   <g id="PathCollection_6">
    <defs>
     <path id="C3_0_9d75468191" d="M 0 3.535534 
C 0.937635 3.535534 1.836992 3.163008 2.5 2.5 
C 3.163008 1.836992 3.535534 0.937635 3.535534 -0 
C 3.535534 -0.937635 3.163008 -1.836992 2.5 -2.5 
C 1.836992 -3.163008 0.937635 -3.535534 0 -3.535534 
C -0.937635 -3.535534 -1.836992 -3.163008 -2.5 -2.5 
C -3.163008 -1.836992 -3.535534 -0.937635 -3.535534 0 
C -3.535534 0.937635 -3.163008 1.836992 -2.5 2.5 
C -1.836992 3.163008 -0.937635 3.535534 0 3.535534 
z
"/>
    </defs>
    <g clip-path="url(#p2664c44cab)">
     <use xlink:href="#C3_0_9d75468191" x="100.066811" y="216.736308" style="fill: #d60000; fill-opacity: 0.7; stroke: #ffffff; stroke-opacity: 0.7; stroke-width: 0.565685"/>
    </g>
    <g clip-path="url(#p2664c44cab)">
     <use xlink:href="#C3_0_9d75468191" x="99.911065" y="259.512024" style="fill: #018700; fill-opacity: 0.7; stroke: #ffffff; stroke-opacity: 0.7; stroke-width: 0.565685"/>
    </g>
    <g clip-path="url(#p2664c44cab)">
     <use xlink:href="#C3_0_9d75468191" x="101.700922" y="248.715556" style="fill: #8c3bff; fill-opacity: 0.7; stroke: #ffffff; stroke-opacity: 0.7; stroke-width: 0.565685"/>
    </g>
   </g>
   <g id="PathCollection_7">
    <defs>
     <path id="C4_0_ec4f4e739d" d="M 0 3.535534 
C 0.937635 3.535534 1.836992 3.163008 2.5 2.5 
C 3.163008 1.836992 3.535534 0.937635 3.535534 -0 
C 3.535534 -0.937635 3.163008 -1.836992 2.5 -2.5 
C 1.836992 -3.163008 0.937635 -3.535534 0 -3.535534 
C -0.937635 -3.535534 -1.836992 -3.163008 -2.5 -2.5 
C -3.163008 -1.836992 -3.535534 -0.937635 -3.535534 0 
C -3.535534 0.937635 -3.163008 1.836992 -2.5 2.5 
C -1.836992 3.163008 -0.937635 3.535534 0 3.535534 
z
"/>
    </defs>
    <g clip-path="url(#p2664c44cab)">
     <use xlink:href="#C4_0_ec4f4e739d" x="138.472069" y="178.46866" style="fill: #d60000; fill-opacity: 0.7; stroke: #ffffff; stroke-opacity: 0.7; stroke-width: 0.565685"/>
    </g>
    <g clip-path="url(#p2664c44cab)">
     <use xlink:href="#C4_0_ec4f4e739d" x="139.914456" y="231.126072" style="fill: #018700; fill-opacity: 0.7; stroke: #ffffff; stroke-opacity: 0.7; stroke-width: 0.565685"/>
    </g>
    <g clip-path="url(#p2664c44cab)">
     <use xlink:href="#C4_0_ec4f4e739d" x="139.176148" y="222.000033" style="fill: #8c3bff; fill-opacity: 0.7; stroke: #ffffff; stroke-opacity: 0.7; stroke-width: 0.565685"/>
    </g>
   </g>
   <g id="PathCollection_8">
    <defs>
     <path id="C5_0_57487427e6" d="M 0 3.535534 
C 0.937635 3.535534 1.836992 3.163008 2.5 2.5 
C 3.163008 1.836992 3.535534 0.937635 3.535534 -0 
C 3.535534 -0.937635 3.163008 -1.836992 2.5 -2.5 
C 1.836992 -3.163008 0.937635 -3.535534 0 -3.535534 
C -0.937635 -3.535534 -1.836992 -3.163008 -2.5 -2.5 
C -3.163008 -1.836992 -3.535534 -0.937635 -3.535534 0 
C -3.535534 0.937635 -3.163008 1.836992 -2.5 2.5 
C -1.836992 3.163008 -0.937635 3.535534 0 3.535534 
z
"/>
    </defs>
    <g clip-path="url(#p2664c44cab)">
     <use xlink:href="#C5_0_57487427e6" x="176.905798" y="141.02027" style="fill: #d60000; fill-opacity: 0.7; stroke: #ffffff; stroke-opacity: 0.7; stroke-width: 0.565685"/>
    </g>
    <g clip-path="url(#p2664c44cab)">
     <use xlink:href="#C5_0_57487427e6" x="176.060531" y="157.476248" style="fill: #0000dd; fill-opacity: 0.7; stroke: #ffffff; stroke-opacity: 0.7; stroke-width: 0.565685"/>
    </g>
    <g clip-path="url(#p2664c44cab)">
     <use xlink:href="#C5_0_57487427e6" x="171.999373" y="170.427705" style="fill: #005659; fill-opacity: 0.7; stroke: #ffffff; stroke-opacity: 0.7; stroke-width: 0.565685"/>
    </g>
    <g clip-path="url(#p2664c44cab)">
     <use xlink:href="#C5_0_57487427e6" x="175.312308" y="204.994828" style="fill: #018700; fill-opacity: 0.7; stroke: #ffffff; stroke-opacity: 0.7; stroke-width: 0.565685"/>
    </g>
    <g clip-path="url(#p2664c44cab)">
     <use xlink:href="#C5_0_57487427e6" x="174.298438" y="199.933955" style="fill: #8c3bff; fill-opacity: 0.7; stroke: #ffffff; stroke-opacity: 0.7; stroke-width: 0.565685"/>
    </g>
   </g>
   <g id="PathCollection_9">
    <defs>
     <path id="C6_0_b786f3e05e" d="M 0 3.535534 
C 0.937635 3.535534 1.836992 3.163008 2.5 2.5 
C 3.163008 1.836992 3.535534 0.937635 3.535534 -0 
C 3.535534 -0.937635 3.163008 -1.836992 2.5 -2.5 
C 1.836992 -3.163008 0.937635 -3.535534 0 -3.535534 
C -0.937635 -3.535534 -1.836992 -3.163008 -2.5 -2.5 
C -3.163008 -1.836992 -3.535534 -0.937635 -3.535534 0 
C -3.535534 0.937635 -3.163008 1.836992 -2.5 2.5 
C -1.836992 3.163008 -0.937635 3.535534 0 3.535534 
z
"/>
    </defs>
    <g clip-path="url(#p2664c44cab)">
     <use xlink:href="#C6_0_b786f3e05e" x="201.845607" y="206.603213" style="fill: #97ff00; fill-opacity: 0.7; stroke: #ffffff; stroke-opacity: 0.7; stroke-width: 0.565685"/>
    </g>
    <g clip-path="url(#p2664c44cab)">
     <use xlink:href="#C6_0_b786f3e05e" x="203.751469" y="130.117306" style="fill: #d60000; fill-opacity: 0.7; stroke: #ffffff; stroke-opacity: 0.7; stroke-width: 0.565685"/>
    </g>
    <g clip-path="url(#p2664c44cab)">
     <use xlink:href="#C6_0_b786f3e05e" x="205.453492" y="185.710038" style="fill: #018700; fill-opacity: 0.7; stroke: #ffffff; stroke-opacity: 0.7; stroke-width: 0.565685"/>
    </g>
    <g clip-path="url(#p2664c44cab)">
     <use xlink:href="#C6_0_b786f3e05e" x="206.328795" y="187.19171" style="fill: #8c3bff; fill-opacity: 0.7; stroke: #ffffff; stroke-opacity: 0.7; stroke-width: 0.565685"/>
    </g>
   </g>
   <g id="PathCollection_10">
    <defs>
     <path id="C7_0_d047d1c850" d="M 0 3.535534 
C 0.937635 3.535534 1.836992 3.163008 2.5 2.5 
C 3.163008 1.836992 3.535534 0.937635 3.535534 -0 
C 3.535534 -0.937635 3.163008 -1.836992 2.5 -2.5 
C 1.836992 -3.163008 0.937635 -3.535534 0 -3.535534 
C -0.937635 -3.535534 -1.836992 -3.163008 -2.5 -2.5 
C -3.163008 -1.836992 -3.535534 -0.937635 -3.535534 0 
C -3.535534 0.937635 -3.163008 1.836992 -2.5 2.5 
C -1.836992 3.163008 -0.937635 3.535534 0 3.535534 
z
"/>
    </defs>
    <g clip-path="url(#p2664c44cab)">
     <use xlink:href="#C7_0_d047d1c850" x="249.764035" y="189.143623" style="fill: #97ff00; fill-opacity: 0.7; stroke: #ffffff; stroke-opacity: 0.7; stroke-width: 0.565685"/>
    </g>
    <g clip-path="url(#p2664c44cab)">
     <use xlink:href="#C7_0_d047d1c850" x="246.7723" y="110.162099" style="fill: #d60000; fill-opacity: 0.7; stroke: #ffffff; stroke-opacity: 0.7; stroke-width: 0.565685"/>
    </g>
    <g clip-path="url(#p2664c44cab)">
     <use xlink:href="#C7_0_d047d1c850" x="245.87047" y="175.126944" style="fill: #018700; fill-opacity: 0.7; stroke: #ffffff; stroke-opacity: 0.7; stroke-width: 0.565685"/>
    </g>
    <g clip-path="url(#p2664c44cab)">
     <use xlink:href="#C7_0_d047d1c850" x="247.990273" y="172.225912" style="fill: #8c3bff; fill-opacity: 0.7; stroke: #ffffff; stroke-opacity: 0.7; stroke-width: 0.565685"/>
    </g>
   </g>
   <g id="PathCollection_11">
    <defs>
     <path id="C8_0_0c066c37f9" d="M 0 3.535534 
C 0.937635 3.535534 1.836992 3.163008 2.5 2.5 
C 3.163008 1.836992 3.535534 0.937635 3.535534 -0 
C 3.535534 -0.937635 3.163008 -1.836992 2.5 -2.5 
C 1.836992 -3.163008 0.937635 -3.535534 0 -3.535534 
C -0.937635 -3.535534 -1.836992 -3.163008 -2.5 -2.5 
C -3.163008 -1.836992 -3.535534 -0.937635 -3.535534 0 
C -3.535534 0.937635 -3.163008 1.836992 -2.5 2.5 
C -1.836992 3.163008 -0.937635 3.535534 0 3.535534 
z
"/>
    </defs>
    <g clip-path="url(#p2664c44cab)">
     <use xlink:href="#C8_0_0c066c37f9" x="322.768707" y="189.271734" style="fill: #97ff00; fill-opacity: 0.7; stroke: #ffffff; stroke-opacity: 0.7; stroke-width: 0.565685"/>
    </g>
    <g clip-path="url(#p2664c44cab)">
     <use xlink:href="#C8_0_0c066c37f9" x="322.064866" y="79.624848" style="fill: #d60000; fill-opacity: 0.7; stroke: #ffffff; stroke-opacity: 0.7; stroke-width: 0.565685"/>
    </g>
    <g clip-path="url(#p2664c44cab)">
     <use xlink:href="#C8_0_0c066c37f9" x="322.339238" y="132.985497" style="fill: #018700; fill-opacity: 0.7; stroke: #ffffff; stroke-opacity: 0.7; stroke-width: 0.565685"/>
    </g>
    <g clip-path="url(#p2664c44cab)">
     <use xlink:href="#C8_0_0c066c37f9" x="324.061572" y="137.662101" style="fill: #8c3bff; fill-opacity: 0.7; stroke: #ffffff; stroke-opacity: 0.7; stroke-width: 0.565685"/>
    </g>
   </g>
   <g id="matplotlib.axis_1">
    <g id="xtick_1">
     <g id="line2d_1">
      <path d="M 100.623364 339.84 
L 100.623364 7.2 
" clip-path="url(#p2664c44cab)" style="fill: none; stroke: #b0b0b0; stroke-width: 0.8; stroke-linecap: square"/>
     </g>
     <g id="line2d_2">
      <defs>
       <path id="m7aed8fe3b2" d="M 0 0 
L 0 3.5 
" style="stroke: #000000; stroke-width: 0.8"/>
      </defs>
      <g>
       <use xlink:href="#m7aed8fe3b2" x="100.623364" y="339.84" style="stroke: #000000; stroke-width: 0.8"/>
      </g>
     </g>
     <g id="text_1">
      <!-- 200 -->
      <g transform="translate(91.079614 354.438437) scale(0.1 -0.1)">
       <defs>
        <path id="DejaVuSans-32" d="M 1228 531 
L 3431 531 
L 3431 0 
L 469 0 
L 469 531 
Q 828 903 1448 1529 
Q 2069 2156 2228 2338 
Q 2531 2678 2651 2914 
Q 2772 3150 2772 3378 
Q 2772 3750 2511 3984 
Q 2250 4219 1831 4219 
Q 1534 4219 1204 4116 
Q 875 4013 500 3803 
L 500 4441 
Q 881 4594 1212 4672 
Q 1544 4750 1819 4750 
Q 2544 4750 2975 4387 
Q 3406 4025 3406 3419 
Q 3406 3131 3298 2873 
Q 3191 2616 2906 2266 
Q 2828 2175 2409 1742 
Q 1991 1309 1228 531 
z
" transform="scale(0.015625)"/>
        <path id="DejaVuSans-30" d="M 2034 4250 
Q 1547 4250 1301 3770 
Q 1056 3291 1056 2328 
Q 1056 1369 1301 889 
Q 1547 409 2034 409 
Q 2525 409 2770 889 
Q 3016 1369 3016 2328 
Q 3016 3291 2770 3770 
Q 2525 4250 2034 4250 
z
M 2034 4750 
Q 2819 4750 3233 4129 
Q 3647 3509 3647 2328 
Q 3647 1150 3233 529 
Q 2819 -91 2034 -91 
Q 1250 -91 836 529 
Q 422 1150 422 2328 
Q 422 3509 836 4129 
Q 1250 4750 2034 4750 
z
" transform="scale(0.015625)"/>
       </defs>
       <use xlink:href="#DejaVuSans-32"/>
       <use xlink:href="#DejaVuSans-30" x="63.623047"/>
       <use xlink:href="#DejaVuSans-30" x="127.246094"/>
      </g>
     </g>
    </g>
    <g id="xtick_2">
     <g id="line2d_3">
      <path d="M 174.512099 339.84 
L 174.512099 7.2 
" clip-path="url(#p2664c44cab)" style="fill: none; stroke: #b0b0b0; stroke-width: 0.8; stroke-linecap: square"/>
     </g>
     <g id="line2d_4">
      <g>
       <use xlink:href="#m7aed8fe3b2" x="174.512099" y="339.84" style="stroke: #000000; stroke-width: 0.8"/>
      </g>
     </g>
     <g id="text_2">
      <!-- 400 -->
      <g transform="translate(164.968349 354.438437) scale(0.1 -0.1)">
       <defs>
        <path id="DejaVuSans-34" d="M 2419 4116 
L 825 1625 
L 2419 1625 
L 2419 4116 
z
M 2253 4666 
L 3047 4666 
L 3047 1625 
L 3713 1625 
L 3713 1100 
L 3047 1100 
L 3047 0 
L 2419 0 
L 2419 1100 
L 313 1100 
L 313 1709 
L 2253 4666 
z
" transform="scale(0.015625)"/>
       </defs>
       <use xlink:href="#DejaVuSans-34"/>
       <use xlink:href="#DejaVuSans-30" x="63.623047"/>
       <use xlink:href="#DejaVuSans-30" x="127.246094"/>
      </g>
     </g>
    </g>
    <g id="xtick_3">
     <g id="line2d_5">
      <path d="M 248.400834 339.84 
L 248.400834 7.2 
" clip-path="url(#p2664c44cab)" style="fill: none; stroke: #b0b0b0; stroke-width: 0.8; stroke-linecap: square"/>
     </g>
     <g id="line2d_6">
      <g>
       <use xlink:href="#m7aed8fe3b2" x="248.400834" y="339.84" style="stroke: #000000; stroke-width: 0.8"/>
      </g>
     </g>
     <g id="text_3">
      <!-- 600 -->
      <g transform="translate(238.857084 354.438437) scale(0.1 -0.1)">
       <defs>
        <path id="DejaVuSans-36" d="M 2113 2584 
Q 1688 2584 1439 2293 
Q 1191 2003 1191 1497 
Q 1191 994 1439 701 
Q 1688 409 2113 409 
Q 2538 409 2786 701 
Q 3034 994 3034 1497 
Q 3034 2003 2786 2293 
Q 2538 2584 2113 2584 
z
M 3366 4563 
L 3366 3988 
Q 3128 4100 2886 4159 
Q 2644 4219 2406 4219 
Q 1781 4219 1451 3797 
Q 1122 3375 1075 2522 
Q 1259 2794 1537 2939 
Q 1816 3084 2150 3084 
Q 2853 3084 3261 2657 
Q 3669 2231 3669 1497 
Q 3669 778 3244 343 
Q 2819 -91 2113 -91 
Q 1303 -91 875 529 
Q 447 1150 447 2328 
Q 447 3434 972 4092 
Q 1497 4750 2381 4750 
Q 2619 4750 2861 4703 
Q 3103 4656 3366 4563 
z
" transform="scale(0.015625)"/>
       </defs>
       <use xlink:href="#DejaVuSans-36"/>
       <use xlink:href="#DejaVuSans-30" x="63.623047"/>
       <use xlink:href="#DejaVuSans-30" x="127.246094"/>
      </g>
     </g>
    </g>
    <g id="xtick_4">
     <g id="line2d_7">
      <path d="M 322.289569 339.84 
L 322.289569 7.2 
" clip-path="url(#p2664c44cab)" style="fill: none; stroke: #b0b0b0; stroke-width: 0.8; stroke-linecap: square"/>
     </g>
     <g id="line2d_8">
      <g>
       <use xlink:href="#m7aed8fe3b2" x="322.289569" y="339.84" style="stroke: #000000; stroke-width: 0.8"/>
      </g>
     </g>
     <g id="text_4">
      <!-- 800 -->
      <g transform="translate(312.745819 354.438437) scale(0.1 -0.1)">
       <defs>
        <path id="DejaVuSans-38" d="M 2034 2216 
Q 1584 2216 1326 1975 
Q 1069 1734 1069 1313 
Q 1069 891 1326 650 
Q 1584 409 2034 409 
Q 2484 409 2743 651 
Q 3003 894 3003 1313 
Q 3003 1734 2745 1975 
Q 2488 2216 2034 2216 
z
M 1403 2484 
Q 997 2584 770 2862 
Q 544 3141 544 3541 
Q 544 4100 942 4425 
Q 1341 4750 2034 4750 
Q 2731 4750 3128 4425 
Q 3525 4100 3525 3541 
Q 3525 3141 3298 2862 
Q 3072 2584 2669 2484 
Q 3125 2378 3379 2068 
Q 3634 1759 3634 1313 
Q 3634 634 3220 271 
Q 2806 -91 2034 -91 
Q 1263 -91 848 271 
Q 434 634 434 1313 
Q 434 1759 690 2068 
Q 947 2378 1403 2484 
z
M 1172 3481 
Q 1172 3119 1398 2916 
Q 1625 2713 2034 2713 
Q 2441 2713 2670 2916 
Q 2900 3119 2900 3481 
Q 2900 3844 2670 4047 
Q 2441 4250 2034 4250 
Q 1625 4250 1398 4047 
Q 1172 3844 1172 3481 
z
" transform="scale(0.015625)"/>
       </defs>
       <use xlink:href="#DejaVuSans-38"/>
       <use xlink:href="#DejaVuSans-30" x="63.623047"/>
       <use xlink:href="#DejaVuSans-30" x="127.246094"/>
      </g>
     </g>
    </g>
    <g id="xtick_5">
     <g id="line2d_9">
      <path d="M 396.178304 339.84 
L 396.178304 7.2 
" clip-path="url(#p2664c44cab)" style="fill: none; stroke: #b0b0b0; stroke-width: 0.8; stroke-linecap: square"/>
     </g>
     <g id="line2d_10">
      <g>
       <use xlink:href="#m7aed8fe3b2" x="396.178304" y="339.84" style="stroke: #000000; stroke-width: 0.8"/>
      </g>
     </g>
     <g id="text_5">
      <!-- 1000 -->
      <g transform="translate(383.453304 354.438437) scale(0.1 -0.1)">
       <defs>
        <path id="DejaVuSans-31" d="M 794 531 
L 1825 531 
L 1825 4091 
L 703 3866 
L 703 4441 
L 1819 4666 
L 2450 4666 
L 2450 531 
L 3481 531 
L 3481 0 
L 794 0 
L 794 531 
z
" transform="scale(0.015625)"/>
       </defs>
       <use xlink:href="#DejaVuSans-31"/>
       <use xlink:href="#DejaVuSans-30" x="63.623047"/>
       <use xlink:href="#DejaVuSans-30" x="127.246094"/>
       <use xlink:href="#DejaVuSans-30" x="190.869141"/>
      </g>
     </g>
    </g>
    <g id="xtick_6">
     <g id="line2d_11">
      <path d="M 470.067039 339.84 
L 470.067039 7.2 
" clip-path="url(#p2664c44cab)" style="fill: none; stroke: #b0b0b0; stroke-width: 0.8; stroke-linecap: square"/>
     </g>
     <g id="line2d_12">
      <g>
       <use xlink:href="#m7aed8fe3b2" x="470.067039" y="339.84" style="stroke: #000000; stroke-width: 0.8"/>
      </g>
     </g>
     <g id="text_6">
      <!-- 1200 -->
      <g transform="translate(457.342039 354.438437) scale(0.1 -0.1)">
       <use xlink:href="#DejaVuSans-31"/>
       <use xlink:href="#DejaVuSans-32" x="63.623047"/>
       <use xlink:href="#DejaVuSans-30" x="127.246094"/>
       <use xlink:href="#DejaVuSans-30" x="190.869141"/>
      </g>
     </g>
    </g>
    <g id="text_7">
     <!-- Number of nodes -->
     <g transform="translate(220.300625 369.63625) scale(0.12 -0.12)">
      <defs>
       <path id="DejaVuSans-4e" d="M 628 4666 
L 1478 4666 
L 3547 763 
L 3547 4666 
L 4159 4666 
L 4159 0 
L 3309 0 
L 1241 3903 
L 1241 0 
L 628 0 
L 628 4666 
z
" transform="scale(0.015625)"/>
       <path id="DejaVuSans-75" d="M 544 1381 
L 544 3500 
L 1119 3500 
L 1119 1403 
Q 1119 906 1312 657 
Q 1506 409 1894 409 
Q 2359 409 2629 706 
Q 2900 1003 2900 1516 
L 2900 3500 
L 3475 3500 
L 3475 0 
L 2900 0 
L 2900 538 
Q 2691 219 2414 64 
Q 2138 -91 1772 -91 
Q 1169 -91 856 284 
Q 544 659 544 1381 
z
M 1991 3584 
L 1991 3584 
z
" transform="scale(0.015625)"/>
       <path id="DejaVuSans-6d" d="M 3328 2828 
Q 3544 3216 3844 3400 
Q 4144 3584 4550 3584 
Q 5097 3584 5394 3201 
Q 5691 2819 5691 2113 
L 5691 0 
L 5113 0 
L 5113 2094 
Q 5113 2597 4934 2840 
Q 4756 3084 4391 3084 
Q 3944 3084 3684 2787 
Q 3425 2491 3425 1978 
L 3425 0 
L 2847 0 
L 2847 2094 
Q 2847 2600 2669 2842 
Q 2491 3084 2119 3084 
Q 1678 3084 1418 2786 
Q 1159 2488 1159 1978 
L 1159 0 
L 581 0 
L 581 3500 
L 1159 3500 
L 1159 2956 
Q 1356 3278 1631 3431 
Q 1906 3584 2284 3584 
Q 2666 3584 2933 3390 
Q 3200 3197 3328 2828 
z
" transform="scale(0.015625)"/>
       <path id="DejaVuSans-62" d="M 3116 1747 
Q 3116 2381 2855 2742 
Q 2594 3103 2138 3103 
Q 1681 3103 1420 2742 
Q 1159 2381 1159 1747 
Q 1159 1113 1420 752 
Q 1681 391 2138 391 
Q 2594 391 2855 752 
Q 3116 1113 3116 1747 
z
M 1159 2969 
Q 1341 3281 1617 3432 
Q 1894 3584 2278 3584 
Q 2916 3584 3314 3078 
Q 3713 2572 3713 1747 
Q 3713 922 3314 415 
Q 2916 -91 2278 -91 
Q 1894 -91 1617 61 
Q 1341 213 1159 525 
L 1159 0 
L 581 0 
L 581 4863 
L 1159 4863 
L 1159 2969 
z
" transform="scale(0.015625)"/>
       <path id="DejaVuSans-65" d="M 3597 1894 
L 3597 1613 
L 953 1613 
Q 991 1019 1311 708 
Q 1631 397 2203 397 
Q 2534 397 2845 478 
Q 3156 559 3463 722 
L 3463 178 
Q 3153 47 2828 -22 
Q 2503 -91 2169 -91 
Q 1331 -91 842 396 
Q 353 884 353 1716 
Q 353 2575 817 3079 
Q 1281 3584 2069 3584 
Q 2775 3584 3186 3129 
Q 3597 2675 3597 1894 
z
M 3022 2063 
Q 3016 2534 2758 2815 
Q 2500 3097 2075 3097 
Q 1594 3097 1305 2825 
Q 1016 2553 972 2059 
L 3022 2063 
z
" transform="scale(0.015625)"/>
       <path id="DejaVuSans-72" d="M 2631 2963 
Q 2534 3019 2420 3045 
Q 2306 3072 2169 3072 
Q 1681 3072 1420 2755 
Q 1159 2438 1159 1844 
L 1159 0 
L 581 0 
L 581 3500 
L 1159 3500 
L 1159 2956 
Q 1341 3275 1631 3429 
Q 1922 3584 2338 3584 
Q 2397 3584 2469 3576 
Q 2541 3569 2628 3553 
L 2631 2963 
z
" transform="scale(0.015625)"/>
       <path id="DejaVuSans-20" transform="scale(0.015625)"/>
       <path id="DejaVuSans-6f" d="M 1959 3097 
Q 1497 3097 1228 2736 
Q 959 2375 959 1747 
Q 959 1119 1226 758 
Q 1494 397 1959 397 
Q 2419 397 2687 759 
Q 2956 1122 2956 1747 
Q 2956 2369 2687 2733 
Q 2419 3097 1959 3097 
z
M 1959 3584 
Q 2709 3584 3137 3096 
Q 3566 2609 3566 1747 
Q 3566 888 3137 398 
Q 2709 -91 1959 -91 
Q 1206 -91 779 398 
Q 353 888 353 1747 
Q 353 2609 779 3096 
Q 1206 3584 1959 3584 
z
" transform="scale(0.015625)"/>
       <path id="DejaVuSans-66" d="M 2375 4863 
L 2375 4384 
L 1825 4384 
Q 1516 4384 1395 4259 
Q 1275 4134 1275 3809 
L 1275 3500 
L 2222 3500 
L 2222 3053 
L 1275 3053 
L 1275 0 
L 697 0 
L 697 3053 
L 147 3053 
L 147 3500 
L 697 3500 
L 697 3744 
Q 697 4328 969 4595 
Q 1241 4863 1831 4863 
L 2375 4863 
z
" transform="scale(0.015625)"/>
       <path id="DejaVuSans-6e" d="M 3513 2113 
L 3513 0 
L 2938 0 
L 2938 2094 
Q 2938 2591 2744 2837 
Q 2550 3084 2163 3084 
Q 1697 3084 1428 2787 
Q 1159 2491 1159 1978 
L 1159 0 
L 581 0 
L 581 3500 
L 1159 3500 
L 1159 2956 
Q 1366 3272 1645 3428 
Q 1925 3584 2291 3584 
Q 2894 3584 3203 3211 
Q 3513 2838 3513 2113 
z
" transform="scale(0.015625)"/>
       <path id="DejaVuSans-64" d="M 2906 2969 
L 2906 4863 
L 3481 4863 
L 3481 0 
L 2906 0 
L 2906 525 
Q 2725 213 2448 61 
Q 2172 -91 1784 -91 
Q 1150 -91 751 415 
Q 353 922 353 1747 
Q 353 2572 751 3078 
Q 1150 3584 1784 3584 
Q 2172 3584 2448 3432 
Q 2725 3281 2906 2969 
z
M 947 1747 
Q 947 1113 1208 752 
Q 1469 391 1925 391 
Q 2381 391 2643 752 
Q 2906 1113 2906 1747 
Q 2906 2381 2643 2742 
Q 2381 3103 1925 3103 
Q 1469 3103 1208 2742 
Q 947 2381 947 1747 
z
" transform="scale(0.015625)"/>
       <path id="DejaVuSans-73" d="M 2834 3397 
L 2834 2853 
Q 2591 2978 2328 3040 
Q 2066 3103 1784 3103 
Q 1356 3103 1142 2972 
Q 928 2841 928 2578 
Q 928 2378 1081 2264 
Q 1234 2150 1697 2047 
L 1894 2003 
Q 2506 1872 2764 1633 
Q 3022 1394 3022 966 
Q 3022 478 2636 193 
Q 2250 -91 1575 -91 
Q 1294 -91 989 -36 
Q 684 19 347 128 
L 347 722 
Q 666 556 975 473 
Q 1284 391 1588 391 
Q 1994 391 2212 530 
Q 2431 669 2431 922 
Q 2431 1156 2273 1281 
Q 2116 1406 1581 1522 
L 1381 1569 
Q 847 1681 609 1914 
Q 372 2147 372 2553 
Q 372 3047 722 3315 
Q 1072 3584 1716 3584 
Q 2034 3584 2315 3537 
Q 2597 3491 2834 3397 
z
" transform="scale(0.015625)"/>
      </defs>
      <use xlink:href="#DejaVuSans-4e"/>
      <use xlink:href="#DejaVuSans-75" x="74.804688"/>
      <use xlink:href="#DejaVuSans-6d" x="138.183594"/>
      <use xlink:href="#DejaVuSans-62" x="235.595703"/>
      <use xlink:href="#DejaVuSans-65" x="299.072266"/>
      <use xlink:href="#DejaVuSans-72" x="360.595703"/>
      <use xlink:href="#DejaVuSans-20" x="401.708984"/>
      <use xlink:href="#DejaVuSans-6f" x="433.496094"/>
      <use xlink:href="#DejaVuSans-66" x="494.677734"/>
      <use xlink:href="#DejaVuSans-20" x="529.882812"/>
      <use xlink:href="#DejaVuSans-6e" x="561.669922"/>
      <use xlink:href="#DejaVuSans-6f" x="625.048828"/>
      <use xlink:href="#DejaVuSans-64" x="686.230469"/>
      <use xlink:href="#DejaVuSans-65" x="749.707031"/>
      <use xlink:href="#DejaVuSans-73" x="811.230469"/>
     </g>
    </g>
   </g>
   <g id="matplotlib.axis_2">
    <g id="ytick_1">
     <g id="line2d_13">
      <path d="M 48.90125 333.523668 
L 495.30125 333.523668 
" clip-path="url(#p2664c44cab)" style="fill: none; stroke: #b0b0b0; stroke-width: 0.8; stroke-linecap: square"/>
     </g>
     <g id="line2d_14">
      <defs>
       <path id="m141ab22d1f" d="M 0 0 
L -3.5 0 
" style="stroke: #000000; stroke-width: 0.8"/>
      </defs>
      <g>
       <use xlink:href="#m141ab22d1f" x="48.90125" y="333.523668" style="stroke: #000000; stroke-width: 0.8"/>
      </g>
     </g>
     <g id="text_8">
      <!-- 16 -->
      <g transform="translate(29.17625 337.322887) scale(0.1 -0.1)">
       <use xlink:href="#DejaVuSans-31"/>
       <use xlink:href="#DejaVuSans-36" x="63.623047"/>
      </g>
     </g>
    </g>
    <g id="ytick_2">
     <g id="line2d_15">
      <path d="M 48.90125 265.685928 
L 495.30125 265.685928 
" clip-path="url(#p2664c44cab)" style="fill: none; stroke: #b0b0b0; stroke-width: 0.8; stroke-linecap: square"/>
     </g>
     <g id="line2d_16">
      <g>
       <use xlink:href="#m141ab22d1f" x="48.90125" y="265.685928" style="stroke: #000000; stroke-width: 0.8"/>
      </g>
     </g>
     <g id="text_9">
      <!-- 32 -->
      <g transform="translate(29.17625 269.485147) scale(0.1 -0.1)">
       <defs>
        <path id="DejaVuSans-33" d="M 2597 2516 
Q 3050 2419 3304 2112 
Q 3559 1806 3559 1356 
Q 3559 666 3084 287 
Q 2609 -91 1734 -91 
Q 1441 -91 1130 -33 
Q 819 25 488 141 
L 488 750 
Q 750 597 1062 519 
Q 1375 441 1716 441 
Q 2309 441 2620 675 
Q 2931 909 2931 1356 
Q 2931 1769 2642 2001 
Q 2353 2234 1838 2234 
L 1294 2234 
L 1294 2753 
L 1863 2753 
Q 2328 2753 2575 2939 
Q 2822 3125 2822 3475 
Q 2822 3834 2567 4026 
Q 2313 4219 1838 4219 
Q 1578 4219 1281 4162 
Q 984 4106 628 3988 
L 628 4550 
Q 988 4650 1302 4700 
Q 1616 4750 1894 4750 
Q 2613 4750 3031 4423 
Q 3450 4097 3450 3541 
Q 3450 3153 3228 2886 
Q 3006 2619 2597 2516 
z
" transform="scale(0.015625)"/>
       </defs>
       <use xlink:href="#DejaVuSans-33"/>
       <use xlink:href="#DejaVuSans-32" x="63.623047"/>
      </g>
     </g>
    </g>
    <g id="ytick_3">
     <g id="line2d_17">
      <path d="M 48.90125 197.848188 
L 495.30125 197.848188 
" clip-path="url(#p2664c44cab)" style="fill: none; stroke: #b0b0b0; stroke-width: 0.8; stroke-linecap: square"/>
     </g>
     <g id="line2d_18">
      <g>
       <use xlink:href="#m141ab22d1f" x="48.90125" y="197.848188" style="stroke: #000000; stroke-width: 0.8"/>
      </g>
     </g>
     <g id="text_10">
      <!-- 64 -->
      <g transform="translate(29.17625 201.647407) scale(0.1 -0.1)">
       <use xlink:href="#DejaVuSans-36"/>
       <use xlink:href="#DejaVuSans-34" x="63.623047"/>
      </g>
     </g>
    </g>
    <g id="ytick_4">
     <g id="line2d_19">
      <path d="M 48.90125 130.010448 
L 495.30125 130.010448 
" clip-path="url(#p2664c44cab)" style="fill: none; stroke: #b0b0b0; stroke-width: 0.8; stroke-linecap: square"/>
     </g>
     <g id="line2d_20">
      <g>
       <use xlink:href="#m141ab22d1f" x="48.90125" y="130.010448" style="stroke: #000000; stroke-width: 0.8"/>
      </g>
     </g>
     <g id="text_11">
      <!-- 128 -->
      <g transform="translate(22.81375 133.809666) scale(0.1 -0.1)">
       <use xlink:href="#DejaVuSans-31"/>
       <use xlink:href="#DejaVuSans-32" x="63.623047"/>
       <use xlink:href="#DejaVuSans-38" x="127.246094"/>
      </g>
     </g>
    </g>
    <g id="ytick_5">
     <g id="line2d_21">
      <path d="M 48.90125 62.172707 
L 495.30125 62.172707 
" clip-path="url(#p2664c44cab)" style="fill: none; stroke: #b0b0b0; stroke-width: 0.8; stroke-linecap: square"/>
     </g>
     <g id="line2d_22">
      <g>
       <use xlink:href="#m141ab22d1f" x="48.90125" y="62.172707" style="stroke: #000000; stroke-width: 0.8"/>
      </g>
     </g>
     <g id="text_12">
      <!-- 256 -->
      <g transform="translate(22.81375 65.971926) scale(0.1 -0.1)">
       <defs>
        <path id="DejaVuSans-35" d="M 691 4666 
L 3169 4666 
L 3169 4134 
L 1269 4134 
L 1269 2991 
Q 1406 3038 1543 3061 
Q 1681 3084 1819 3084 
Q 2600 3084 3056 2656 
Q 3513 2228 3513 1497 
Q 3513 744 3044 326 
Q 2575 -91 1722 -91 
Q 1428 -91 1123 -41 
Q 819 9 494 109 
L 494 744 
Q 775 591 1075 516 
Q 1375 441 1709 441 
Q 2250 441 2565 725 
Q 2881 1009 2881 1497 
Q 2881 1984 2565 2268 
Q 2250 2553 1709 2553 
Q 1456 2553 1204 2497 
Q 953 2441 691 2322 
L 691 4666 
z
" transform="scale(0.015625)"/>
       </defs>
       <use xlink:href="#DejaVuSans-32"/>
       <use xlink:href="#DejaVuSans-35" x="63.623047"/>
       <use xlink:href="#DejaVuSans-36" x="127.246094"/>
      </g>
     </g>
    </g>
    <g id="text_13">
     <!-- K₀ (clique detection threshold) -->
     <g transform="translate(16.318125 264.789375) rotate(-90) scale(0.12 -0.12)">
      <defs>
       <path id="DejaVuSans-4b" d="M 628 4666 
L 1259 4666 
L 1259 2694 
L 3353 4666 
L 4166 4666 
L 1850 2491 
L 4331 0 
L 3500 0 
L 1259 2247 
L 1259 0 
L 628 0 
L 628 4666 
z
" transform="scale(0.015625)"/>
       <path id="DejaVuSans-2080" d="M 1781 2091 
Q 1625 2360 1309 2360 
Q 994 2360 838 2091 
Q 678 1822 678 1285 
Q 678 744 838 476 
Q 994 207 1309 207 
Q 1625 207 1781 476 
Q 1941 744 1941 1285 
Q 1941 1822 1781 2091 
z
M 1309 2638 
Q 1813 2638 2078 2291 
Q 2344 1944 2344 1285 
Q 2344 622 2078 275 
Q 1813 -71 1309 -71 
Q 803 -71 537 275 
Q 272 622 272 1285 
Q 272 1944 537 2291 
Q 803 2638 1309 2638 
z
" transform="scale(0.015625)"/>
       <path id="DejaVuSans-28" d="M 1984 4856 
Q 1566 4138 1362 3434 
Q 1159 2731 1159 2009 
Q 1159 1288 1364 580 
Q 1569 -128 1984 -844 
L 1484 -844 
Q 1016 -109 783 600 
Q 550 1309 550 2009 
Q 550 2706 781 3412 
Q 1013 4119 1484 4856 
L 1984 4856 
z
" transform="scale(0.015625)"/>
       <path id="DejaVuSans-63" d="M 3122 3366 
L 3122 2828 
Q 2878 2963 2633 3030 
Q 2388 3097 2138 3097 
Q 1578 3097 1268 2742 
Q 959 2388 959 1747 
Q 959 1106 1268 751 
Q 1578 397 2138 397 
Q 2388 397 2633 464 
Q 2878 531 3122 666 
L 3122 134 
Q 2881 22 2623 -34 
Q 2366 -91 2075 -91 
Q 1284 -91 818 406 
Q 353 903 353 1747 
Q 353 2603 823 3093 
Q 1294 3584 2113 3584 
Q 2378 3584 2631 3529 
Q 2884 3475 3122 3366 
z
" transform="scale(0.015625)"/>
       <path id="DejaVuSans-6c" d="M 603 4863 
L 1178 4863 
L 1178 0 
L 603 0 
L 603 4863 
z
" transform="scale(0.015625)"/>
       <path id="DejaVuSans-69" d="M 603 3500 
L 1178 3500 
L 1178 0 
L 603 0 
L 603 3500 
z
M 603 4863 
L 1178 4863 
L 1178 4134 
L 603 4134 
L 603 4863 
z
" transform="scale(0.015625)"/>
       <path id="DejaVuSans-71" d="M 947 1747 
Q 947 1113 1208 752 
Q 1469 391 1925 391 
Q 2381 391 2643 752 
Q 2906 1113 2906 1747 
Q 2906 2381 2643 2742 
Q 2381 3103 1925 3103 
Q 1469 3103 1208 2742 
Q 947 2381 947 1747 
z
M 2906 525 
Q 2725 213 2448 61 
Q 2172 -91 1784 -91 
Q 1150 -91 751 415 
Q 353 922 353 1747 
Q 353 2572 751 3078 
Q 1150 3584 1784 3584 
Q 2172 3584 2448 3432 
Q 2725 3281 2906 2969 
L 2906 3500 
L 3481 3500 
L 3481 -1331 
L 2906 -1331 
L 2906 525 
z
" transform="scale(0.015625)"/>
       <path id="DejaVuSans-74" d="M 1172 4494 
L 1172 3500 
L 2356 3500 
L 2356 3053 
L 1172 3053 
L 1172 1153 
Q 1172 725 1289 603 
Q 1406 481 1766 481 
L 2356 481 
L 2356 0 
L 1766 0 
Q 1100 0 847 248 
Q 594 497 594 1153 
L 594 3053 
L 172 3053 
L 172 3500 
L 594 3500 
L 594 4494 
L 1172 4494 
z
" transform="scale(0.015625)"/>
       <path id="DejaVuSans-68" d="M 3513 2113 
L 3513 0 
L 2938 0 
L 2938 2094 
Q 2938 2591 2744 2837 
Q 2550 3084 2163 3084 
Q 1697 3084 1428 2787 
Q 1159 2491 1159 1978 
L 1159 0 
L 581 0 
L 581 4863 
L 1159 4863 
L 1159 2956 
Q 1366 3272 1645 3428 
Q 1925 3584 2291 3584 
Q 2894 3584 3203 3211 
Q 3513 2838 3513 2113 
z
" transform="scale(0.015625)"/>
       <path id="DejaVuSans-29" d="M 513 4856 
L 1013 4856 
Q 1481 4119 1714 3412 
Q 1947 2706 1947 2009 
Q 1947 1309 1714 600 
Q 1481 -109 1013 -844 
L 513 -844 
Q 928 -128 1133 580 
Q 1338 1288 1338 2009 
Q 1338 2731 1133 3434 
Q 928 4138 513 4856 
z
" transform="scale(0.015625)"/>
      </defs>
      <use xlink:href="#DejaVuSans-4b"/>
      <use xlink:href="#DejaVuSans-2080" x="65.576172"/>
      <use xlink:href="#DejaVuSans-20" x="105.664062"/>
      <use xlink:href="#DejaVuSans-28" x="137.451172"/>
      <use xlink:href="#DejaVuSans-63" x="176.464844"/>
      <use xlink:href="#DejaVuSans-6c" x="231.445312"/>
      <use xlink:href="#DejaVuSans-69" x="259.228516"/>
      <use xlink:href="#DejaVuSans-71" x="287.011719"/>
      <use xlink:href="#DejaVuSans-75" x="350.488281"/>
      <use xlink:href="#DejaVuSans-65" x="413.867188"/>
      <use xlink:href="#DejaVuSans-20" x="475.390625"/>
      <use xlink:href="#DejaVuSans-64" x="507.177734"/>
      <use xlink:href="#DejaVuSans-65" x="570.654297"/>
      <use xlink:href="#DejaVuSans-74" x="632.177734"/>
      <use xlink:href="#DejaVuSans-65" x="671.386719"/>
      <use xlink:href="#DejaVuSans-63" x="732.910156"/>
      <use xlink:href="#DejaVuSans-74" x="787.890625"/>
      <use xlink:href="#DejaVuSans-69" x="827.099609"/>
      <use xlink:href="#DejaVuSans-6f" x="854.882812"/>
      <use xlink:href="#DejaVuSans-6e" x="916.064453"/>
      <use xlink:href="#DejaVuSans-20" x="979.443359"/>
      <use xlink:href="#DejaVuSans-74" x="1011.230469"/>
      <use xlink:href="#DejaVuSans-68" x="1050.439453"/>
      <use xlink:href="#DejaVuSans-72" x="1113.818359"/>
      <use xlink:href="#DejaVuSans-65" x="1152.681641"/>
      <use xlink:href="#DejaVuSans-73" x="1214.205078"/>
      <use xlink:href="#DejaVuSans-68" x="1266.304688"/>
      <use xlink:href="#DejaVuSans-6f" x="1329.683594"/>
      <use xlink:href="#DejaVuSans-6c" x="1390.865234"/>
      <use xlink:href="#DejaVuSans-64" x="1418.648438"/>
      <use xlink:href="#DejaVuSans-29" x="1482.125"/>
     </g>
    </g>
   </g>
   <g id="line2d_23"/>
   <g id="line2d_24"/>
   <g id="line2d_25"/>
   <g id="line2d_26"/>
   <g id="line2d_27"/>
   <g id="line2d_28"/>
   <g id="line2d_29"/>
   <g id="line2d_30"/>
   <g id="line2d_31"/>
   <g id="line2d_32">
    <path d="M 48.568751 363.571476 
L 51.154856 360.922044 
L 53.740962 358.599295 
L 56.696512 356.259235 
L 60.021505 353.943754 
L 63.346498 351.895092 
L 67.040934 349.869115 
L 71.104815 347.885775 
L 75.538139 345.958369 
L 80.71035 343.960181 
L 86.252006 342.059696 
L 92.532548 340.146566 
L 99.551978 338.250739 
L 107.310295 336.393184 
L 115.8075 334.587792 
L 125.413035 332.777379 
L 136.126902 330.98845 
L 148.318543 329.187888 
L 161.618515 327.450616 
L 176.765706 325.700971 
L 193.760115 323.968036 
L 212.971186 322.240599 
L 234.398919 320.5426 
L 258.412758 318.865641 
L 285.75159 317.18529 
L 316.415415 315.528288 
L 351.14312 313.879553 
L 390.30415 312.24758 
L 434.637391 310.627131 
L 469.73454 309.480958 
L 469.73454 309.480958 
" clip-path="url(#p2664c44cab)" style="fill: none; stroke: #008000; stroke-width: 1.5; stroke-linecap: square"/>
   </g>
   <g id="line2d_33">
    <path d="M 125.512672 380.331875 
L 132.801909 376.84775 
L 140.560226 373.393271 
L 148.687987 370.018192 
L 157.554635 366.583781 
L 166.790727 363.245431 
L 176.765706 359.87876 
L 187.479572 356.503426 
L 198.932326 353.135537 
L 211.123968 349.788104 
L 224.054496 346.471484 
L 237.723912 343.193785 
L 252.501659 339.881095 
L 268.387737 336.553561 
L 285.382146 333.227823 
L 303.484886 329.917432 
L 322.695957 326.633271 
L 343.384803 323.326819 
L 365.18198 320.069198 
L 388.826375 316.76469 
L 413.948545 313.482174 
L 440.917933 310.187343 
L 442.026264 310.056572 
L 442.026264 310.056572 
" clip-path="url(#p2664c44cab)" style="fill: none; stroke-dasharray: 1.5,2.475; stroke-dashoffset: 0; stroke: #ffa500; stroke-width: 1.5"/>
   </g>
   <g id="line2d_34">
    <path d="M 442.395708 310.013059 
L 442.765152 309.969584 
L 443.134595 309.926149 
L 443.504039 309.882752 
L 443.873483 309.839393 
L 444.242927 309.796073 
L 444.61237 309.752791 
L 444.981814 309.709547 
L 445.351258 309.666342 
L 445.720701 309.623174 
L 446.090145 309.580045 
L 446.459589 309.536953 
L 446.829032 309.4939 
L 447.198476 309.450884 
L 447.56792 309.407906 
L 447.937363 309.364966 
L 448.306807 309.322064 
L 448.676251 309.279199 
L 449.045694 309.236371 
L 449.415138 309.193581 
L 449.784582 309.150829 
L 450.154025 309.108114 
L 450.523469 309.065436 
L 450.892913 309.022795 
L 451.262356 308.980191 
L 451.6318 308.937625 
L 452.001244 308.895095 
L 452.370687 308.852602 
L 452.740131 308.810146 
L 453.109575 308.767727 
L 453.479018 308.725345 
L 453.848462 308.682999 
L 454.217906 308.64069 
L 454.587349 308.598418 
L 454.956793 308.556182 
L 455.326237 308.513983 
L 455.69568 308.471819 
L 456.065124 308.429692 
L 456.434568 308.387602 
L 456.804011 308.345547 
L 457.173455 308.303529 
L 457.542899 308.261547 
L 457.912342 308.2196 
L 458.281786 308.17769 
L 458.65123 308.135815 
L 459.020674 308.093977 
L 459.390117 308.052174 
L 459.759561 308.010406 
L 460.129005 307.968675 
L 460.498448 307.926978 
L 460.867892 307.885318 
L 461.237336 307.843693 
L 461.606779 307.802103 
L 461.976223 307.760548 
L 462.345667 307.719029 
L 462.71511 307.677545 
L 463.084554 307.636096 
L 463.453998 307.594682 
L 463.823441 307.553303 
L 464.192885 307.51196 
L 464.562329 307.470651 
L 464.931772 307.429376 
L 465.301216 307.388137 
L 465.67066 307.346933 
L 466.040103 307.305763 
L 466.409547 307.264627 
L 466.778991 307.223527 
L 467.148434 307.18246 
L 467.517878 307.141428 
L 467.887322 307.100431 
L 468.256765 307.059468 
L 468.626209 307.018539 
L 468.995653 306.977644 
L 469.365096 306.936784 
L 469.73454 306.895957 
" clip-path="url(#p2664c44cab)" style="fill: none; stroke: #ffa500; stroke-width: 1.5; stroke-linecap: square"/>
   </g>
   <g id="patch_3">
    <path d="M 48.90125 339.84 
L 48.90125 7.2 
" style="fill: none; stroke: #000000; stroke-width: 0.8; stroke-linejoin: miter; stroke-linecap: square"/>
   </g>
   <g id="patch_4">
    <path d="M 495.30125 339.84 
L 495.30125 7.2 
" style="fill: none; stroke: #000000; stroke-width: 0.8; stroke-linejoin: miter; stroke-linecap: square"/>
   </g>
   <g id="patch_5">
    <path d="M 48.90125 339.84 
L 495.30125 339.84 
" style="fill: none; stroke: #000000; stroke-width: 0.8; stroke-linejoin: miter; stroke-linecap: square"/>
   </g>
   <g id="patch_6">
    <path d="M 48.90125 7.2 
L 495.30125 7.2 
" style="fill: none; stroke: #000000; stroke-width: 0.8; stroke-linejoin: miter; stroke-linecap: square"/>
   </g>
   <g id="legend_1">
    <g id="patch_7">
     <path d="M 502.30125 248.827812 
L 653.929375 248.827812 
Q 655.929375 248.827812 655.929375 246.827812 
L 655.929375 100.212187 
Q 655.929375 98.212187 653.929375 98.212187 
L 502.30125 98.212187 
Q 500.30125 98.212187 500.30125 100.212187 
L 500.30125 246.827812 
Q 500.30125 248.827812 502.30125 248.827812 
z
" style="fill: #ffffff; opacity: 0.8; stroke: #cccccc; stroke-linejoin: miter"/>
    </g>
    <g id="text_14">
     <!-- Legend: -->
     <g transform="translate(558.062187 109.810625) scale(0.1 -0.1)">
      <defs>
       <path id="DejaVuSans-4c" d="M 628 4666 
L 1259 4666 
L 1259 531 
L 3531 531 
L 3531 0 
L 628 0 
L 628 4666 
z
" transform="scale(0.015625)"/>
       <path id="DejaVuSans-67" d="M 2906 1791 
Q 2906 2416 2648 2759 
Q 2391 3103 1925 3103 
Q 1463 3103 1205 2759 
Q 947 2416 947 1791 
Q 947 1169 1205 825 
Q 1463 481 1925 481 
Q 2391 481 2648 825 
Q 2906 1169 2906 1791 
z
M 3481 434 
Q 3481 -459 3084 -895 
Q 2688 -1331 1869 -1331 
Q 1566 -1331 1297 -1286 
Q 1028 -1241 775 -1147 
L 775 -588 
Q 1028 -725 1275 -790 
Q 1522 -856 1778 -856 
Q 2344 -856 2625 -561 
Q 2906 -266 2906 331 
L 2906 616 
Q 2728 306 2450 153 
Q 2172 0 1784 0 
Q 1141 0 747 490 
Q 353 981 353 1791 
Q 353 2603 747 3093 
Q 1141 3584 1784 3584 
Q 2172 3584 2450 3431 
Q 2728 3278 2906 2969 
L 2906 3500 
L 3481 3500 
L 3481 434 
z
" transform="scale(0.015625)"/>
       <path id="DejaVuSans-3a" d="M 750 794 
L 1409 794 
L 1409 0 
L 750 0 
L 750 794 
z
M 750 3309 
L 1409 3309 
L 1409 2516 
L 750 2516 
L 750 3309 
z
" transform="scale(0.015625)"/>
      </defs>
      <use xlink:href="#DejaVuSans-4c"/>
      <use xlink:href="#DejaVuSans-65" x="53.962891"/>
      <use xlink:href="#DejaVuSans-67" x="115.486328"/>
      <use xlink:href="#DejaVuSans-65" x="178.962891"/>
      <use xlink:href="#DejaVuSans-6e" x="240.486328"/>
      <use xlink:href="#DejaVuSans-64" x="303.865234"/>
      <use xlink:href="#DejaVuSans-3a" x="367.341797"/>
     </g>
    </g>
    <g id="PathCollection_12">
     <g>
      <use xlink:href="#m0ec1ff144a" x="514.30125" y="121.86375" style="fill: #c14168; fill-opacity: 0.5; stroke: #c14168; stroke-opacity: 0.5"/>
     </g>
    </g>
    <g id="text_15">
     <!-- Humans (mean) -->
     <g transform="translate(532.30125 124.48875) scale(0.1 -0.1)">
      <defs>
       <path id="DejaVuSans-48" d="M 628 4666 
L 1259 4666 
L 1259 2753 
L 3553 2753 
L 3553 4666 
L 4184 4666 
L 4184 0 
L 3553 0 
L 3553 2222 
L 1259 2222 
L 1259 0 
L 628 0 
L 628 4666 
z
" transform="scale(0.015625)"/>
       <path id="DejaVuSans-61" d="M 2194 1759 
Q 1497 1759 1228 1600 
Q 959 1441 959 1056 
Q 959 750 1161 570 
Q 1363 391 1709 391 
Q 2188 391 2477 730 
Q 2766 1069 2766 1631 
L 2766 1759 
L 2194 1759 
z
M 3341 1997 
L 3341 0 
L 2766 0 
L 2766 531 
Q 2569 213 2275 61 
Q 1981 -91 1556 -91 
Q 1019 -91 701 211 
Q 384 513 384 1019 
Q 384 1609 779 1909 
Q 1175 2209 1959 2209 
L 2766 2209 
L 2766 2266 
Q 2766 2663 2505 2880 
Q 2244 3097 1772 3097 
Q 1472 3097 1187 3025 
Q 903 2953 641 2809 
L 641 3341 
Q 956 3463 1253 3523 
Q 1550 3584 1831 3584 
Q 2591 3584 2966 3190 
Q 3341 2797 3341 1997 
z
" transform="scale(0.015625)"/>
      </defs>
      <use xlink:href="#DejaVuSans-48"/>
      <use xlink:href="#DejaVuSans-75" x="75.195312"/>
      <use xlink:href="#DejaVuSans-6d" x="138.574219"/>
      <use xlink:href="#DejaVuSans-61" x="235.986328"/>
      <use xlink:href="#DejaVuSans-6e" x="297.265625"/>
      <use xlink:href="#DejaVuSans-73" x="360.644531"/>
      <use xlink:href="#DejaVuSans-20" x="412.744141"/>
      <use xlink:href="#DejaVuSans-28" x="444.53125"/>
      <use xlink:href="#DejaVuSans-6d" x="483.544922"/>
      <use xlink:href="#DejaVuSans-65" x="580.957031"/>
      <use xlink:href="#DejaVuSans-61" x="642.480469"/>
      <use xlink:href="#DejaVuSans-6e" x="703.759766"/>
      <use xlink:href="#DejaVuSans-29" x="767.138672"/>
     </g>
    </g>
    <g id="line2d_35">
     <defs>
      <path id="m843cb945ae" d="M 0 3.535534 
C 0.937635 3.535534 1.836992 3.163008 2.5 2.5 
C 3.163008 1.836992 3.535534 0.937635 3.535534 0 
C 3.535534 -0.937635 3.163008 -1.836992 2.5 -2.5 
C 1.836992 -3.163008 0.937635 -3.535534 0 -3.535534 
C -0.937635 -3.535534 -1.836992 -3.163008 -2.5 -2.5 
C -3.163008 -1.836992 -3.535534 -0.937635 -3.535534 0 
C -3.535534 0.937635 -3.163008 1.836992 -2.5 2.5 
C -1.836992 3.163008 -0.937635 3.535534 0 3.535534 
z
" style="stroke: #ffffff; stroke-opacity: 0.7; stroke-width: 0.565685"/>
     </defs>
     <g>
      <use xlink:href="#m843cb945ae" x="514.30125" y="135.666875" style="fill: #d60000; fill-opacity: 0.7; stroke: #ffffff; stroke-opacity: 0.7; stroke-width: 0.565685"/>
     </g>
    </g>
    <g id="text_16">
     <!-- MLP -->
     <g transform="translate(532.30125 139.166875) scale(0.1 -0.1)">
      <defs>
       <path id="DejaVuSans-4d" d="M 628 4666 
L 1569 4666 
L 2759 1491 
L 3956 4666 
L 4897 4666 
L 4897 0 
L 4281 0 
L 4281 4097 
L 3078 897 
L 2444 897 
L 1241 4097 
L 1241 0 
L 628 0 
L 628 4666 
z
" transform="scale(0.015625)"/>
       <path id="DejaVuSans-50" d="M 1259 4147 
L 1259 2394 
L 2053 2394 
Q 2494 2394 2734 2622 
Q 2975 2850 2975 3272 
Q 2975 3691 2734 3919 
Q 2494 4147 2053 4147 
L 1259 4147 
z
M 628 4666 
L 2053 4666 
Q 2838 4666 3239 4311 
Q 3641 3956 3641 3272 
Q 3641 2581 3239 2228 
Q 2838 1875 2053 1875 
L 1259 1875 
L 1259 0 
L 628 0 
L 628 4666 
z
" transform="scale(0.015625)"/>
      </defs>
      <use xlink:href="#DejaVuSans-4d"/>
      <use xlink:href="#DejaVuSans-4c" x="86.279297"/>
      <use xlink:href="#DejaVuSans-50" x="141.992188"/>
     </g>
    </g>
    <g id="line2d_36">
     <defs>
      <path id="mdd8e025cd3" d="M 0 3.535534 
C 0.937635 3.535534 1.836992 3.163008 2.5 2.5 
C 3.163008 1.836992 3.535534 0.937635 3.535534 0 
C 3.535534 -0.937635 3.163008 -1.836992 2.5 -2.5 
C 1.836992 -3.163008 0.937635 -3.535534 0 -3.535534 
C -0.937635 -3.535534 -1.836992 -3.163008 -2.5 -2.5 
C -3.163008 -1.836992 -3.535534 -0.937635 -3.535534 0 
C -3.535534 0.937635 -3.163008 1.836992 -2.5 2.5 
C -1.836992 3.163008 -0.937635 3.535534 0 3.535534 
z
" style="stroke: #ffffff; stroke-opacity: 0.7; stroke-width: 0.565685"/>
     </defs>
     <g>
      <use xlink:href="#mdd8e025cd3" x="514.30125" y="150.345" style="fill: #0000dd; fill-opacity: 0.7; stroke: #ffffff; stroke-opacity: 0.7; stroke-width: 0.565685"/>
     </g>
    </g>
    <g id="text_17">
     <!-- MLP_li-earlystop-scatter -->
     <g transform="translate(532.30125 153.845) scale(0.1 -0.1)">
      <defs>
       <path id="DejaVuSans-5f" d="M 3263 -1063 
L 3263 -1509 
L -63 -1509 
L -63 -1063 
L 3263 -1063 
z
" transform="scale(0.015625)"/>
       <path id="DejaVuSans-2d" d="M 313 2009 
L 1997 2009 
L 1997 1497 
L 313 1497 
L 313 2009 
z
" transform="scale(0.015625)"/>
       <path id="DejaVuSans-79" d="M 2059 -325 
Q 1816 -950 1584 -1140 
Q 1353 -1331 966 -1331 
L 506 -1331 
L 506 -850 
L 844 -850 
Q 1081 -850 1212 -737 
Q 1344 -625 1503 -206 
L 1606 56 
L 191 3500 
L 800 3500 
L 1894 763 
L 2988 3500 
L 3597 3500 
L 2059 -325 
z
" transform="scale(0.015625)"/>
       <path id="DejaVuSans-70" d="M 1159 525 
L 1159 -1331 
L 581 -1331 
L 581 3500 
L 1159 3500 
L 1159 2969 
Q 1341 3281 1617 3432 
Q 1894 3584 2278 3584 
Q 2916 3584 3314 3078 
Q 3713 2572 3713 1747 
Q 3713 922 3314 415 
Q 2916 -91 2278 -91 
Q 1894 -91 1617 61 
Q 1341 213 1159 525 
z
M 3116 1747 
Q 3116 2381 2855 2742 
Q 2594 3103 2138 3103 
Q 1681 3103 1420 2742 
Q 1159 2381 1159 1747 
Q 1159 1113 1420 752 
Q 1681 391 2138 391 
Q 2594 391 2855 752 
Q 3116 1113 3116 1747 
z
" transform="scale(0.015625)"/>
      </defs>
      <use xlink:href="#DejaVuSans-4d"/>
      <use xlink:href="#DejaVuSans-4c" x="86.279297"/>
      <use xlink:href="#DejaVuSans-50" x="141.992188"/>
      <use xlink:href="#DejaVuSans-5f" x="202.294922"/>
      <use xlink:href="#DejaVuSans-6c" x="252.294922"/>
      <use xlink:href="#DejaVuSans-69" x="280.078125"/>
      <use xlink:href="#DejaVuSans-2d" x="307.861328"/>
      <use xlink:href="#DejaVuSans-65" x="343.945312"/>
      <use xlink:href="#DejaVuSans-61" x="405.46875"/>
      <use xlink:href="#DejaVuSans-72" x="466.748047"/>
      <use xlink:href="#DejaVuSans-6c" x="507.861328"/>
      <use xlink:href="#DejaVuSans-79" x="535.644531"/>
      <use xlink:href="#DejaVuSans-73" x="594.824219"/>
      <use xlink:href="#DejaVuSans-74" x="646.923828"/>
      <use xlink:href="#DejaVuSans-6f" x="686.132812"/>
      <use xlink:href="#DejaVuSans-70" x="747.314453"/>
      <use xlink:href="#DejaVuSans-2d" x="810.791016"/>
      <use xlink:href="#DejaVuSans-73" x="846.875"/>
      <use xlink:href="#DejaVuSans-63" x="898.974609"/>
      <use xlink:href="#DejaVuSans-61" x="953.955078"/>
      <use xlink:href="#DejaVuSans-74" x="1015.234375"/>
      <use xlink:href="#DejaVuSans-74" x="1054.443359"/>
      <use xlink:href="#DejaVuSans-65" x="1093.652344"/>
      <use xlink:href="#DejaVuSans-72" x="1155.175781"/>
     </g>
    </g>
    <g id="line2d_37">
     <defs>
      <path id="mb03f1d441a" d="M 0 3.535534 
C 0.937635 3.535534 1.836992 3.163008 2.5 2.5 
C 3.163008 1.836992 3.535534 0.937635 3.535534 0 
C 3.535534 -0.937635 3.163008 -1.836992 2.5 -2.5 
C 1.836992 -3.163008 0.937635 -3.535534 0 -3.535534 
C -0.937635 -3.535534 -1.836992 -3.163008 -2.5 -2.5 
C -3.163008 -1.836992 -3.535534 -0.937635 -3.535534 0 
C -3.535534 0.937635 -3.163008 1.836992 -2.5 2.5 
C -1.836992 3.163008 -0.937635 3.535534 0 3.535534 
z
" style="stroke: #ffffff; stroke-opacity: 0.7; stroke-width: 0.565685"/>
     </defs>
     <g>
      <use xlink:href="#mb03f1d441a" x="514.30125" y="165.30125" style="fill: #005659; fill-opacity: 0.7; stroke: #ffffff; stroke-opacity: 0.7; stroke-width: 0.565685"/>
     </g>
    </g>
    <g id="text_18">
     <!-- MLP_lr1e-5_10000steps -->
     <g transform="translate(532.30125 168.80125) scale(0.1 -0.1)">
      <use xlink:href="#DejaVuSans-4d"/>
      <use xlink:href="#DejaVuSans-4c" x="86.279297"/>
      <use xlink:href="#DejaVuSans-50" x="141.992188"/>
      <use xlink:href="#DejaVuSans-5f" x="202.294922"/>
      <use xlink:href="#DejaVuSans-6c" x="252.294922"/>
      <use xlink:href="#DejaVuSans-72" x="280.078125"/>
      <use xlink:href="#DejaVuSans-31" x="321.191406"/>
      <use xlink:href="#DejaVuSans-65" x="384.814453"/>
      <use xlink:href="#DejaVuSans-2d" x="446.337891"/>
      <use xlink:href="#DejaVuSans-35" x="482.421875"/>
      <use xlink:href="#DejaVuSans-5f" x="546.044922"/>
      <use xlink:href="#DejaVuSans-31" x="596.044922"/>
      <use xlink:href="#DejaVuSans-30" x="659.667969"/>
      <use xlink:href="#DejaVuSans-30" x="723.291016"/>
      <use xlink:href="#DejaVuSans-30" x="786.914062"/>
      <use xlink:href="#DejaVuSans-30" x="850.537109"/>
      <use xlink:href="#DejaVuSans-73" x="914.160156"/>
      <use xlink:href="#DejaVuSans-74" x="966.259766"/>
      <use xlink:href="#DejaVuSans-65" x="1005.46875"/>
      <use xlink:href="#DejaVuSans-70" x="1066.992188"/>
      <use xlink:href="#DejaVuSans-73" x="1130.46875"/>
     </g>
    </g>
    <g id="line2d_38">
     <defs>
      <path id="mfae922fdf8" d="M 0 3.535534 
C 0.937635 3.535534 1.836992 3.163008 2.5 2.5 
C 3.163008 1.836992 3.535534 0.937635 3.535534 0 
C 3.535534 -0.937635 3.163008 -1.836992 2.5 -2.5 
C 1.836992 -3.163008 0.937635 -3.535534 0 -3.535534 
C -0.937635 -3.535534 -1.836992 -3.163008 -2.5 -2.5 
C -3.163008 -1.836992 -3.535534 -0.937635 -3.535534 0 
C -3.535534 0.937635 -3.163008 1.836992 -2.5 2.5 
C -1.836992 3.163008 -0.937635 3.535534 0 3.535534 
z
" style="stroke: #ffffff; stroke-opacity: 0.7; stroke-width: 0.565685"/>
     </defs>
     <g>
      <use xlink:href="#mfae922fdf8" x="514.30125" y="180.2575" style="fill: #018700; fill-opacity: 0.7; stroke: #ffffff; stroke-opacity: 0.7; stroke-width: 0.565685"/>
     </g>
    </g>
    <g id="text_19">
     <!-- ViTpretrained -->
     <g transform="translate(532.30125 183.7575) scale(0.1 -0.1)">
      <defs>
       <path id="DejaVuSans-56" d="M 1831 0 
L 50 4666 
L 709 4666 
L 2188 738 
L 3669 4666 
L 4325 4666 
L 2547 0 
L 1831 0 
z
" transform="scale(0.015625)"/>
       <path id="DejaVuSans-54" d="M -19 4666 
L 3928 4666 
L 3928 4134 
L 2272 4134 
L 2272 0 
L 1638 0 
L 1638 4134 
L -19 4134 
L -19 4666 
z
" transform="scale(0.015625)"/>
      </defs>
      <use xlink:href="#DejaVuSans-56"/>
      <use xlink:href="#DejaVuSans-69" x="66.158203"/>
      <use xlink:href="#DejaVuSans-54" x="93.941406"/>
      <use xlink:href="#DejaVuSans-70" x="155.025391"/>
      <use xlink:href="#DejaVuSans-72" x="218.501953"/>
      <use xlink:href="#DejaVuSans-65" x="257.365234"/>
      <use xlink:href="#DejaVuSans-74" x="318.888672"/>
      <use xlink:href="#DejaVuSans-72" x="358.097656"/>
      <use xlink:href="#DejaVuSans-61" x="399.210938"/>
      <use xlink:href="#DejaVuSans-69" x="460.490234"/>
      <use xlink:href="#DejaVuSans-6e" x="488.273438"/>
      <use xlink:href="#DejaVuSans-65" x="551.652344"/>
      <use xlink:href="#DejaVuSans-64" x="613.175781"/>
     </g>
    </g>
    <g id="line2d_39">
     <defs>
      <path id="m0f93dea026" d="M 0 3.535534 
C 0.937635 3.535534 1.836992 3.163008 2.5 2.5 
C 3.163008 1.836992 3.535534 0.937635 3.535534 0 
C 3.535534 -0.937635 3.163008 -1.836992 2.5 -2.5 
C 1.836992 -3.163008 0.937635 -3.535534 0 -3.535534 
C -0.937635 -3.535534 -1.836992 -3.163008 -2.5 -2.5 
C -3.163008 -1.836992 -3.535534 -0.937635 -3.535534 0 
C -3.535534 0.937635 -3.163008 1.836992 -2.5 2.5 
C -1.836992 3.163008 -0.937635 3.535534 0 3.535534 
z
" style="stroke: #ffffff; stroke-opacity: 0.7; stroke-width: 0.565685"/>
     </defs>
     <g>
      <use xlink:href="#m0f93dea026" x="514.30125" y="194.935625" style="fill: #8c3bff; fill-opacity: 0.7; stroke: #ffffff; stroke-opacity: 0.7; stroke-width: 0.565685"/>
     </g>
    </g>
    <g id="text_20">
     <!-- ViTscratch -->
     <g transform="translate(532.30125 198.435625) scale(0.1 -0.1)">
      <use xlink:href="#DejaVuSans-56"/>
      <use xlink:href="#DejaVuSans-69" x="66.158203"/>
      <use xlink:href="#DejaVuSans-54" x="93.941406"/>
      <use xlink:href="#DejaVuSans-73" x="138.525391"/>
      <use xlink:href="#DejaVuSans-63" x="190.625"/>
      <use xlink:href="#DejaVuSans-72" x="245.605469"/>
      <use xlink:href="#DejaVuSans-61" x="286.71875"/>
      <use xlink:href="#DejaVuSans-74" x="347.998047"/>
      <use xlink:href="#DejaVuSans-63" x="387.207031"/>
      <use xlink:href="#DejaVuSans-68" x="442.1875"/>
     </g>
    </g>
    <g id="line2d_40">
     <defs>
      <path id="m648dd133e4" d="M 0 3.535534 
C 0.937635 3.535534 1.836992 3.163008 2.5 2.5 
C 3.163008 1.836992 3.535534 0.937635 3.535534 0 
C 3.535534 -0.937635 3.163008 -1.836992 2.5 -2.5 
C 1.836992 -3.163008 0.937635 -3.535534 0 -3.535534 
C -0.937635 -3.535534 -1.836992 -3.163008 -2.5 -2.5 
C -3.163008 -1.836992 -3.535534 -0.937635 -3.535534 0 
C -3.535534 0.937635 -3.163008 1.836992 -2.5 2.5 
C -1.836992 3.163008 -0.937635 3.535534 0 3.535534 
z
" style="stroke: #ffffff; stroke-opacity: 0.7; stroke-width: 0.565685"/>
     </defs>
     <g>
      <use xlink:href="#m648dd133e4" x="514.30125" y="209.61375" style="fill: #97ff00; fill-opacity: 0.7; stroke: #ffffff; stroke-opacity: 0.7; stroke-width: 0.565685"/>
     </g>
    </g>
    <g id="text_21">
     <!-- CNN_large -->
     <g transform="translate(532.30125 213.11375) scale(0.1 -0.1)">
      <defs>
       <path id="DejaVuSans-43" d="M 4122 4306 
L 4122 3641 
Q 3803 3938 3442 4084 
Q 3081 4231 2675 4231 
Q 1875 4231 1450 3742 
Q 1025 3253 1025 2328 
Q 1025 1406 1450 917 
Q 1875 428 2675 428 
Q 3081 428 3442 575 
Q 3803 722 4122 1019 
L 4122 359 
Q 3791 134 3420 21 
Q 3050 -91 2638 -91 
Q 1578 -91 968 557 
Q 359 1206 359 2328 
Q 359 3453 968 4101 
Q 1578 4750 2638 4750 
Q 3056 4750 3426 4639 
Q 3797 4528 4122 4306 
z
" transform="scale(0.015625)"/>
      </defs>
      <use xlink:href="#DejaVuSans-43"/>
      <use xlink:href="#DejaVuSans-4e" x="69.824219"/>
      <use xlink:href="#DejaVuSans-4e" x="144.628906"/>
      <use xlink:href="#DejaVuSans-5f" x="219.433594"/>
      <use xlink:href="#DejaVuSans-6c" x="269.433594"/>
      <use xlink:href="#DejaVuSans-61" x="297.216797"/>
      <use xlink:href="#DejaVuSans-72" x="358.496094"/>
      <use xlink:href="#DejaVuSans-67" x="397.859375"/>
      <use xlink:href="#DejaVuSans-65" x="461.335938"/>
     </g>
    </g>
    <g id="line2d_41">
     <path d="M 504.30125 224.57 
L 514.30125 224.57 
L 524.30125 224.57 
" style="fill: none; stroke: #008000; stroke-width: 1.5; stroke-linecap: square"/>
    </g>
    <g id="text_22">
     <!-- STAT limit -->
     <g transform="translate(532.30125 228.07) scale(0.1 -0.1)">
      <defs>
       <path id="DejaVuSans-53" d="M 3425 4513 
L 3425 3897 
Q 3066 4069 2747 4153 
Q 2428 4238 2131 4238 
Q 1616 4238 1336 4038 
Q 1056 3838 1056 3469 
Q 1056 3159 1242 3001 
Q 1428 2844 1947 2747 
L 2328 2669 
Q 3034 2534 3370 2195 
Q 3706 1856 3706 1288 
Q 3706 609 3251 259 
Q 2797 -91 1919 -91 
Q 1588 -91 1214 -16 
Q 841 59 441 206 
L 441 856 
Q 825 641 1194 531 
Q 1563 422 1919 422 
Q 2459 422 2753 634 
Q 3047 847 3047 1241 
Q 3047 1584 2836 1778 
Q 2625 1972 2144 2069 
L 1759 2144 
Q 1053 2284 737 2584 
Q 422 2884 422 3419 
Q 422 4038 858 4394 
Q 1294 4750 2059 4750 
Q 2388 4750 2728 4690 
Q 3069 4631 3425 4513 
z
" transform="scale(0.015625)"/>
       <path id="DejaVuSans-41" d="M 2188 4044 
L 1331 1722 
L 3047 1722 
L 2188 4044 
z
M 1831 4666 
L 2547 4666 
L 4325 0 
L 3669 0 
L 3244 1197 
L 1141 1197 
L 716 0 
L 50 0 
L 1831 4666 
z
" transform="scale(0.015625)"/>
      </defs>
      <use xlink:href="#DejaVuSans-53"/>
      <use xlink:href="#DejaVuSans-54" x="63.476562"/>
      <use xlink:href="#DejaVuSans-41" x="116.810547"/>
      <use xlink:href="#DejaVuSans-54" x="177.46875"/>
      <use xlink:href="#DejaVuSans-20" x="238.552734"/>
      <use xlink:href="#DejaVuSans-6c" x="270.339844"/>
      <use xlink:href="#DejaVuSans-69" x="298.123047"/>
      <use xlink:href="#DejaVuSans-6d" x="325.90625"/>
      <use xlink:href="#DejaVuSans-69" x="423.318359"/>
      <use xlink:href="#DejaVuSans-74" x="451.101562"/>
     </g>
    </g>
    <g id="line2d_42">
     <path d="M 504.30125 239.248125 
L 514.30125 239.248125 
L 524.30125 239.248125 
" style="fill: none; stroke-dasharray: 1.5,2.475; stroke-dashoffset: 0; stroke: #ffa500; stroke-width: 1.5"/>
    </g>
    <g id="text_23">
     <!-- COMP limit -->
     <g transform="translate(532.30125 242.748125) scale(0.1 -0.1)">
      <defs>
       <path id="DejaVuSans-4f" d="M 2522 4238 
Q 1834 4238 1429 3725 
Q 1025 3213 1025 2328 
Q 1025 1447 1429 934 
Q 1834 422 2522 422 
Q 3209 422 3611 934 
Q 4013 1447 4013 2328 
Q 4013 3213 3611 3725 
Q 3209 4238 2522 4238 
z
M 2522 4750 
Q 3503 4750 4090 4092 
Q 4678 3434 4678 2328 
Q 4678 1225 4090 567 
Q 3503 -91 2522 -91 
Q 1538 -91 948 565 
Q 359 1222 359 2328 
Q 359 3434 948 4092 
Q 1538 4750 2522 4750 
z
" transform="scale(0.015625)"/>
      </defs>
      <use xlink:href="#DejaVuSans-43"/>
      <use xlink:href="#DejaVuSans-4f" x="69.824219"/>
      <use xlink:href="#DejaVuSans-4d" x="148.535156"/>
      <use xlink:href="#DejaVuSans-50" x="234.814453"/>
      <use xlink:href="#DejaVuSans-20" x="295.117188"/>
      <use xlink:href="#DejaVuSans-6c" x="326.904297"/>
      <use xlink:href="#DejaVuSans-69" x="354.6875"/>
      <use xlink:href="#DejaVuSans-6d" x="382.470703"/>
      <use xlink:href="#DejaVuSans-69" x="479.882812"/>
      <use xlink:href="#DejaVuSans-74" x="507.666016"/>
     </g>
    </g>
   </g>
  </g>
 </g>
 <defs>
  <clipPath id="p2664c44cab">
   <rect x="48.90125" y="7.2" width="446.4" height="332.64"/>
  </clipPath>
 </defs>
</svg>
