<?xml version="1.0" encoding="utf-8" standalone="no"?>
<!DOCTYPE svg PUBLIC "-//W3C//DTD SVG 1.1//EN"
  "http://www.w3.org/Graphics/SVG/1.1/DTD/svg11.dtd">
<svg xmlns:xlink="http://www.w3.org/1999/xlink" width="498.155937pt" height="395.969687pt" viewBox="0 0 498.155937 395.969687" xmlns="http://www.w3.org/2000/svg" version="1.1">
 <metadata>
  <rdf:RDF xmlns:dc="http://purl.org/dc/elements/1.1/" xmlns:cc="http://creativecommons.org/ns#" xmlns:rdf="http://www.w3.org/1999/02/22-rdf-syntax-ns#">
   <cc:Work>
    <dc:type rdf:resource="http://purl.org/dc/dcmitype/StillImage"/>
    <dc:date>2025-03-04T12:00:23.717884</dc:date>
    <dc:format>image/svg+xml</dc:format>
    <dc:creator>
     <cc:Agent>
      <dc:title>Matplotlib v3.8.4, https://matplotlib.org/</dc:title>
     </cc:Agent>
    </dc:creator>
   </cc:Work>
  </rdf:RDF>
 </metadata>
 <defs>
  <style type="text/css">*{stroke-linejoin: round; stroke-linecap: butt}</style>
 </defs>
 <g id="figure_1">
  <g id="patch_1">
   <path d="M 0 395.969687 
L 498.155937 395.969687 
L 498.155937 0 
L 0 0 
z
" style="fill: #ffffff"/>
  </g>
  <g id="axes_1">
   <g id="patch_2">
    <path d="M 44.555938 356.477812 
L 490.955938 356.477812 
L 490.955938 23.837812 
L 44.555938 23.837812 
z
" style="fill: #ffffff"/>
   </g>
   <g id="PathCollection_1">
    <defs>
     <path id="C0_0_ef1e77cde4" d="M 0 3.535534 
C 0.937635 3.535534 1.836992 3.163008 2.5 2.5 
C 3.163008 1.836992 3.535534 0.937635 3.535534 -0 
C 3.535534 -0.937635 3.163008 -1.836992 2.5 -2.5 
C 1.836992 -3.163008 0.937635 -3.535534 0 -3.535534 
C -0.937635 -3.535534 -1.836992 -3.163008 -2.5 -2.5 
C -3.163008 -1.836992 -3.535534 -0.937635 -3.535534 0 
C -3.535534 0.937635 -3.163008 1.836992 -2.5 2.5 
C -1.836992 3.163008 -0.937635 3.535534 0 3.535534 
z
"/>
    </defs>
    <g clip-path="url(#p1ea085139a)">
     <use xlink:href="#C0_0_ef1e77cde4" x="97.218142" y="154.467332" style="fill: #97ff00; stroke: #ffffff; stroke-width: 0.565685"/>
    </g>
    <g clip-path="url(#p1ea085139a)">
     <use xlink:href="#C0_0_ef1e77cde4" x="98.668884" y="140.92234" style="fill: #d60000; stroke: #ffffff; stroke-width: 0.565685"/>
    </g>
    <g clip-path="url(#p1ea085139a)">
     <use xlink:href="#C0_0_ef1e77cde4" x="96.738404" y="149.752932" style="fill: #018700; stroke: #ffffff; stroke-width: 0.565685"/>
    </g>
    <g clip-path="url(#p1ea085139a)">
     <use xlink:href="#C0_0_ef1e77cde4" x="98.972228" y="141.146042" style="fill: #8c3bff; stroke: #ffffff; stroke-width: 0.565685"/>
    </g>
   </g>
   <g id="PathCollection_2">
    <defs>
     <path id="C1_0_f06be674df" d="M 0 3.535534 
C 0.937635 3.535534 1.836992 3.163008 2.5 2.5 
C 3.163008 1.836992 3.535534 0.937635 3.535534 -0 
C 3.535534 -0.937635 3.163008 -1.836992 2.5 -2.5 
C 1.836992 -3.163008 0.937635 -3.535534 0 -3.535534 
C -0.937635 -3.535534 -1.836992 -3.163008 -2.5 -2.5 
C -3.163008 -1.836992 -3.535534 -0.937635 -3.535534 0 
C -3.535534 0.937635 -3.163008 1.836992 -2.5 2.5 
C -1.836992 3.163008 -0.937635 3.535534 0 3.535534 
z
"/>
    </defs>
    <g clip-path="url(#p1ea085139a)">
     <use xlink:href="#C1_0_f06be674df" x="470.665028" y="64.133306" style="fill: #97ff00; stroke: #ffffff; stroke-width: 0.565685"/>
    </g>
    <g clip-path="url(#p1ea085139a)">
     <use xlink:href="#C1_0_f06be674df" x="467.028522" y="38.957812" style="fill: #d60000; stroke: #ffffff; stroke-width: 0.565685"/>
    </g>
    <g clip-path="url(#p1ea085139a)">
     <use xlink:href="#C1_0_f06be674df" x="467.539226" y="56.981366" style="fill: #018700; stroke: #ffffff; stroke-width: 0.565685"/>
    </g>
    <g clip-path="url(#p1ea085139a)">
     <use xlink:href="#C1_0_f06be674df" x="469.654646" y="59.054075" style="fill: #8c3bff; stroke: #ffffff; stroke-width: 0.565685"/>
    </g>
   </g>
   <g id="PathCollection_3">
    <defs>
     <path id="C2_0_b42f829b67" d="M 0 3.535534 
C 0.937635 3.535534 1.836992 3.163008 2.5 2.5 
C 3.163008 1.836992 3.535534 0.937635 3.535534 -0 
C 3.535534 -0.937635 3.163008 -1.836992 2.5 -2.5 
C 1.836992 -3.163008 0.937635 -3.535534 0 -3.535534 
C -0.937635 -3.535534 -1.836992 -3.163008 -2.5 -2.5 
C -3.163008 -1.836992 -3.535534 -0.937635 -3.535534 0 
C -3.535534 0.937635 -3.163008 1.836992 -2.5 2.5 
C -1.836992 3.163008 -0.937635 3.535534 0 3.535534 
z
"/>
    </defs>
    <g clip-path="url(#p1ea085139a)">
     <use xlink:href="#C2_0_b42f829b67" x="115.10248" y="143.191556" style="fill: #97ff00; stroke: #ffffff; stroke-width: 0.565685"/>
    </g>
    <g clip-path="url(#p1ea085139a)">
     <use xlink:href="#C2_0_b42f829b67" x="117.736658" y="124.264848" style="fill: #d60000; stroke: #ffffff; stroke-width: 0.565685"/>
    </g>
    <g clip-path="url(#p1ea085139a)">
     <use xlink:href="#C2_0_b42f829b67" x="114.642426" y="139.158161" style="fill: #018700; stroke: #ffffff; stroke-width: 0.565685"/>
    </g>
    <g clip-path="url(#p1ea085139a)">
     <use xlink:href="#C2_0_b42f829b67" x="116.198805" y="132.874168" style="fill: #8c3bff; stroke: #ffffff; stroke-width: 0.565685"/>
    </g>
   </g>
   <g id="PathCollection_4">
    <defs>
     <path id="C3_0_03a3fa0126" d="M 0 3.535534 
C 0.937635 3.535534 1.836992 3.163008 2.5 2.5 
C 3.163008 1.836992 3.535534 0.937635 3.535534 -0 
C 3.535534 -0.937635 3.163008 -1.836992 2.5 -2.5 
C 1.836992 -3.163008 0.937635 -3.535534 0 -3.535534 
C -0.937635 -3.535534 -1.836992 -3.163008 -2.5 -2.5 
C -3.163008 -1.836992 -3.535534 -0.937635 -3.535534 0 
C -3.535534 0.937635 -3.163008 1.836992 -2.5 2.5 
C -1.836992 3.163008 -0.937635 3.535534 0 3.535534 
z
"/>
    </defs>
    <g clip-path="url(#p1ea085139a)">
     <use xlink:href="#C3_0_03a3fa0126" x="131.902989" y="111.462282" style="fill: #d60000; stroke: #ffffff; stroke-width: 0.565685"/>
    </g>
    <g clip-path="url(#p1ea085139a)">
     <use xlink:href="#C3_0_03a3fa0126" x="128.811532" y="129.350349" style="fill: #018700; stroke: #ffffff; stroke-width: 0.565685"/>
    </g>
    <g clip-path="url(#p1ea085139a)">
     <use xlink:href="#C3_0_03a3fa0126" x="132.213059" y="124.835452" style="fill: #8c3bff; stroke: #ffffff; stroke-width: 0.565685"/>
    </g>
   </g>
   <g id="PathCollection_5">
    <defs>
     <path id="C4_0_2fb6aaf623" d="M 0 3.535534 
C 0.937635 3.535534 1.836992 3.163008 2.5 2.5 
C 3.163008 1.836992 3.535534 0.937635 3.535534 -0 
C 3.535534 -0.937635 3.163008 -1.836992 2.5 -2.5 
C 1.836992 -3.163008 0.937635 -3.535534 0 -3.535534 
C -0.937635 -3.535534 -1.836992 -3.163008 -2.5 -2.5 
C -3.163008 -1.836992 -3.535534 -0.937635 -3.535534 0 
C -3.535534 0.937635 -3.163008 1.836992 -2.5 2.5 
C -1.836992 3.163008 -0.937635 3.535534 0 3.535534 
z
"/>
    </defs>
    <g clip-path="url(#p1ea085139a)">
     <use xlink:href="#C4_0_2fb6aaf623" x="164.03471" y="95.459412" style="fill: #d60000; stroke: #ffffff; stroke-width: 0.565685"/>
    </g>
    <g clip-path="url(#p1ea085139a)">
     <use xlink:href="#C4_0_2fb6aaf623" x="163.922102" y="117.479833" style="fill: #018700; stroke: #ffffff; stroke-width: 0.565685"/>
    </g>
    <g clip-path="url(#p1ea085139a)">
     <use xlink:href="#C4_0_2fb6aaf623" x="168.444544" y="113.663481" style="fill: #8c3bff; stroke: #ffffff; stroke-width: 0.565685"/>
    </g>
   </g>
   <g id="PathCollection_6">
    <defs>
     <path id="C5_0_8d3ddd3eab" d="M 0 3.535534 
C 0.937635 3.535534 1.836992 3.163008 2.5 2.5 
C 3.163008 1.836992 3.535534 0.937635 3.535534 -0 
C 3.535534 -0.937635 3.163008 -1.836992 2.5 -2.5 
C 1.836992 -3.163008 0.937635 -3.535534 0 -3.535534 
C -0.937635 -3.535534 -1.836992 -3.163008 -2.5 -2.5 
C -3.163008 -1.836992 -3.535534 -0.937635 -3.535534 0 
C -3.535534 0.937635 -3.163008 1.836992 -2.5 2.5 
C -1.836992 3.163008 -0.937635 3.535534 0 3.535534 
z
"/>
    </defs>
    <g clip-path="url(#p1ea085139a)">
     <use xlink:href="#C5_0_8d3ddd3eab" x="200.612079" y="79.799141" style="fill: #d60000; stroke: #ffffff; stroke-width: 0.565685"/>
    </g>
    <g clip-path="url(#p1ea085139a)">
     <use xlink:href="#C5_0_8d3ddd3eab" x="196.316475" y="86.680747" style="fill: #0000dd; stroke: #ffffff; stroke-width: 0.565685"/>
    </g>
    <g clip-path="url(#p1ea085139a)">
     <use xlink:href="#C5_0_8d3ddd3eab" x="196.911944" y="92.096823" style="fill: #005659; stroke: #ffffff; stroke-width: 0.565685"/>
    </g>
    <g clip-path="url(#p1ea085139a)">
     <use xlink:href="#C5_0_8d3ddd3eab" x="196.67691" y="106.552198" style="fill: #018700; stroke: #ffffff; stroke-width: 0.565685"/>
    </g>
    <g clip-path="url(#p1ea085139a)">
     <use xlink:href="#C5_0_8d3ddd3eab" x="201.796765" y="104.435828" style="fill: #8c3bff; stroke: #ffffff; stroke-width: 0.565685"/>
    </g>
   </g>
   <g id="PathCollection_7">
    <defs>
     <path id="C6_0_a8ab7d4158" d="M 0 3.535534 
C 0.937635 3.535534 1.836992 3.163008 2.5 2.5 
C 3.163008 1.836992 3.535534 0.937635 3.535534 -0 
C 3.535534 -0.937635 3.163008 -1.836992 2.5 -2.5 
C 1.836992 -3.163008 0.937635 -3.535534 0 -3.535534 
C -0.937635 -3.535534 -1.836992 -3.163008 -2.5 -2.5 
C -3.163008 -1.836992 -3.535534 -0.937635 -3.535534 0 
C -3.535534 0.937635 -3.163008 1.836992 -2.5 2.5 
C -1.836992 3.163008 -0.937635 3.535534 0 3.535534 
z
"/>
    </defs>
    <g clip-path="url(#p1ea085139a)">
     <use xlink:href="#C6_0_a8ab7d4158" x="228.746373" y="107.224797" style="fill: #97ff00; stroke: #ffffff; stroke-width: 0.565685"/>
    </g>
    <g clip-path="url(#p1ea085139a)">
     <use xlink:href="#C6_0_a8ab7d4158" x="228.930723" y="75.23971" style="fill: #d60000; stroke: #ffffff; stroke-width: 0.565685"/>
    </g>
    <g clip-path="url(#p1ea085139a)">
     <use xlink:href="#C6_0_a8ab7d4158" x="223.688458" y="98.487631" style="fill: #018700; stroke: #ffffff; stroke-width: 0.565685"/>
    </g>
    <g clip-path="url(#p1ea085139a)">
     <use xlink:href="#C6_0_a8ab7d4158" x="223.956264" y="99.107241" style="fill: #8c3bff; stroke: #ffffff; stroke-width: 0.565685"/>
    </g>
   </g>
   <g id="PathCollection_8">
    <defs>
     <path id="C7_0_644f2d7d7f" d="M 0 3.535534 
C 0.937635 3.535534 1.836992 3.163008 2.5 2.5 
C 3.163008 1.836992 3.535534 0.937635 3.535534 -0 
C 3.535534 -0.937635 3.163008 -1.836992 2.5 -2.5 
C 1.836992 -3.163008 0.937635 -3.535534 0 -3.535534 
C -0.937635 -3.535534 -1.836992 -3.163008 -2.5 -2.5 
C -3.163008 -1.836992 -3.535534 -0.937635 -3.535534 0 
C -3.535534 0.937635 -3.163008 1.836992 -2.5 2.5 
C -1.836992 3.163008 -0.937635 3.535534 0 3.535534 
z
"/>
    </defs>
    <g clip-path="url(#p1ea085139a)">
     <use xlink:href="#C7_0_644f2d7d7f" x="264.55912" y="99.923497" style="fill: #97ff00; stroke: #ffffff; stroke-width: 0.565685"/>
    </g>
    <g clip-path="url(#p1ea085139a)">
     <use xlink:href="#C7_0_644f2d7d7f" x="267.500008" y="66.894786" style="fill: #d60000; stroke: #ffffff; stroke-width: 0.565685"/>
    </g>
    <g clip-path="url(#p1ea085139a)">
     <use xlink:href="#C7_0_644f2d7d7f" x="268.452462" y="94.061964" style="fill: #018700; stroke: #ffffff; stroke-width: 0.565685"/>
    </g>
    <g clip-path="url(#p1ea085139a)">
     <use xlink:href="#C7_0_644f2d7d7f" x="266.230105" y="92.848802" style="fill: #8c3bff; stroke: #ffffff; stroke-width: 0.565685"/>
    </g>
   </g>
   <g id="PathCollection_9">
    <defs>
     <path id="C8_0_70a4c9547d" d="M 0 3.535534 
C 0.937635 3.535534 1.836992 3.163008 2.5 2.5 
C 3.163008 1.836992 3.535534 0.937635 3.535534 -0 
C 3.535534 -0.937635 3.163008 -1.836992 2.5 -2.5 
C 1.836992 -3.163008 0.937635 -3.535534 0 -3.535534 
C -0.937635 -3.535534 -1.836992 -3.163008 -2.5 -2.5 
C -3.163008 -1.836992 -3.535534 -0.937635 -3.535534 0 
C -3.535534 0.937635 -3.163008 1.836992 -2.5 2.5 
C -1.836992 3.163008 -0.937635 3.535534 0 3.535534 
z
"/>
    </defs>
    <g clip-path="url(#p1ea085139a)">
     <use xlink:href="#C8_0_70a4c9547d" x="334.335627" y="99.977071" style="fill: #97ff00; stroke: #ffffff; stroke-width: 0.565685"/>
    </g>
    <g clip-path="url(#p1ea085139a)">
     <use xlink:href="#C8_0_70a4c9547d" x="335.69217" y="54.124635" style="fill: #d60000; stroke: #ffffff; stroke-width: 0.565685"/>
    </g>
    <g clip-path="url(#p1ea085139a)">
     <use xlink:href="#C8_0_70a4c9547d" x="336.990133" y="76.439137" style="fill: #018700; stroke: #ffffff; stroke-width: 0.565685"/>
    </g>
    <g clip-path="url(#p1ea085139a)">
     <use xlink:href="#C8_0_70a4c9547d" x="333.492982" y="78.394813" style="fill: #8c3bff; stroke: #ffffff; stroke-width: 0.565685"/>
    </g>
   </g>
   <g id="matplotlib.axis_1">
    <g id="xtick_1">
     <g id="line2d_1">
      <defs>
       <path id="md766fec00b" d="M 0 0 
L 0 3.5 
" style="stroke: #000000; stroke-width: 0.8"/>
      </defs>
      <g>
       <use xlink:href="#md766fec00b" x="64.813209" y="356.477812" style="stroke: #000000; stroke-width: 0.8"/>
      </g>
     </g>
     <g id="text_1">
      <!-- 0 -->
      <g transform="translate(61.631959 371.07625) scale(0.1 -0.1)">
       <defs>
        <path id="DejaVuSans-30" d="M 2034 4250 
Q 1547 4250 1301 3770 
Q 1056 3291 1056 2328 
Q 1056 1369 1301 889 
Q 1547 409 2034 409 
Q 2525 409 2770 889 
Q 3016 1369 3016 2328 
Q 3016 3291 2770 3770 
Q 2525 4250 2034 4250 
z
M 2034 4750 
Q 2819 4750 3233 4129 
Q 3647 3509 3647 2328 
Q 3647 1150 3233 529 
Q 2819 -91 2034 -91 
Q 1250 -91 836 529 
Q 422 1150 422 2328 
Q 422 3509 836 4129 
Q 1250 4750 2034 4750 
z
" transform="scale(0.015625)"/>
       </defs>
       <use xlink:href="#DejaVuSans-30"/>
      </g>
     </g>
    </g>
    <g id="xtick_2">
     <g id="line2d_2">
      <g>
       <use xlink:href="#md766fec00b" x="132.087473" y="356.477812" style="stroke: #000000; stroke-width: 0.8"/>
      </g>
     </g>
     <g id="text_2">
      <!-- 200 -->
      <g transform="translate(122.543723 371.07625) scale(0.1 -0.1)">
       <defs>
        <path id="DejaVuSans-32" d="M 1228 531 
L 3431 531 
L 3431 0 
L 469 0 
L 469 531 
Q 828 903 1448 1529 
Q 2069 2156 2228 2338 
Q 2531 2678 2651 2914 
Q 2772 3150 2772 3378 
Q 2772 3750 2511 3984 
Q 2250 4219 1831 4219 
Q 1534 4219 1204 4116 
Q 875 4013 500 3803 
L 500 4441 
Q 881 4594 1212 4672 
Q 1544 4750 1819 4750 
Q 2544 4750 2975 4387 
Q 3406 4025 3406 3419 
Q 3406 3131 3298 2873 
Q 3191 2616 2906 2266 
Q 2828 2175 2409 1742 
Q 1991 1309 1228 531 
z
" transform="scale(0.015625)"/>
       </defs>
       <use xlink:href="#DejaVuSans-32"/>
       <use xlink:href="#DejaVuSans-30" x="63.623047"/>
       <use xlink:href="#DejaVuSans-30" x="127.246094"/>
      </g>
     </g>
    </g>
    <g id="xtick_3">
     <g id="line2d_3">
      <g>
       <use xlink:href="#md766fec00b" x="199.361736" y="356.477812" style="stroke: #000000; stroke-width: 0.8"/>
      </g>
     </g>
     <g id="text_3">
      <!-- 400 -->
      <g transform="translate(189.817986 371.07625) scale(0.1 -0.1)">
       <defs>
        <path id="DejaVuSans-34" d="M 2419 4116 
L 825 1625 
L 2419 1625 
L 2419 4116 
z
M 2253 4666 
L 3047 4666 
L 3047 1625 
L 3713 1625 
L 3713 1100 
L 3047 1100 
L 3047 0 
L 2419 0 
L 2419 1100 
L 313 1100 
L 313 1709 
L 2253 4666 
z
" transform="scale(0.015625)"/>
       </defs>
       <use xlink:href="#DejaVuSans-34"/>
       <use xlink:href="#DejaVuSans-30" x="63.623047"/>
       <use xlink:href="#DejaVuSans-30" x="127.246094"/>
      </g>
     </g>
    </g>
    <g id="xtick_4">
     <g id="line2d_4">
      <g>
       <use xlink:href="#md766fec00b" x="266.636" y="356.477812" style="stroke: #000000; stroke-width: 0.8"/>
      </g>
     </g>
     <g id="text_4">
      <!-- 600 -->
      <g transform="translate(257.09225 371.07625) scale(0.1 -0.1)">
       <defs>
        <path id="DejaVuSans-36" d="M 2113 2584 
Q 1688 2584 1439 2293 
Q 1191 2003 1191 1497 
Q 1191 994 1439 701 
Q 1688 409 2113 409 
Q 2538 409 2786 701 
Q 3034 994 3034 1497 
Q 3034 2003 2786 2293 
Q 2538 2584 2113 2584 
z
M 3366 4563 
L 3366 3988 
Q 3128 4100 2886 4159 
Q 2644 4219 2406 4219 
Q 1781 4219 1451 3797 
Q 1122 3375 1075 2522 
Q 1259 2794 1537 2939 
Q 1816 3084 2150 3084 
Q 2853 3084 3261 2657 
Q 3669 2231 3669 1497 
Q 3669 778 3244 343 
Q 2819 -91 2113 -91 
Q 1303 -91 875 529 
Q 447 1150 447 2328 
Q 447 3434 972 4092 
Q 1497 4750 2381 4750 
Q 2619 4750 2861 4703 
Q 3103 4656 3366 4563 
z
" transform="scale(0.015625)"/>
       </defs>
       <use xlink:href="#DejaVuSans-36"/>
       <use xlink:href="#DejaVuSans-30" x="63.623047"/>
       <use xlink:href="#DejaVuSans-30" x="127.246094"/>
      </g>
     </g>
    </g>
    <g id="xtick_5">
     <g id="line2d_5">
      <g>
       <use xlink:href="#md766fec00b" x="333.910263" y="356.477812" style="stroke: #000000; stroke-width: 0.8"/>
      </g>
     </g>
     <g id="text_5">
      <!-- 800 -->
      <g transform="translate(324.366513 371.07625) scale(0.1 -0.1)">
       <defs>
        <path id="DejaVuSans-38" d="M 2034 2216 
Q 1584 2216 1326 1975 
Q 1069 1734 1069 1313 
Q 1069 891 1326 650 
Q 1584 409 2034 409 
Q 2484 409 2743 651 
Q 3003 894 3003 1313 
Q 3003 1734 2745 1975 
Q 2488 2216 2034 2216 
z
M 1403 2484 
Q 997 2584 770 2862 
Q 544 3141 544 3541 
Q 544 4100 942 4425 
Q 1341 4750 2034 4750 
Q 2731 4750 3128 4425 
Q 3525 4100 3525 3541 
Q 3525 3141 3298 2862 
Q 3072 2584 2669 2484 
Q 3125 2378 3379 2068 
Q 3634 1759 3634 1313 
Q 3634 634 3220 271 
Q 2806 -91 2034 -91 
Q 1263 -91 848 271 
Q 434 634 434 1313 
Q 434 1759 690 2068 
Q 947 2378 1403 2484 
z
M 1172 3481 
Q 1172 3119 1398 2916 
Q 1625 2713 2034 2713 
Q 2441 2713 2670 2916 
Q 2900 3119 2900 3481 
Q 2900 3844 2670 4047 
Q 2441 4250 2034 4250 
Q 1625 4250 1398 4047 
Q 1172 3844 1172 3481 
z
" transform="scale(0.015625)"/>
       </defs>
       <use xlink:href="#DejaVuSans-38"/>
       <use xlink:href="#DejaVuSans-30" x="63.623047"/>
       <use xlink:href="#DejaVuSans-30" x="127.246094"/>
      </g>
     </g>
    </g>
    <g id="xtick_6">
     <g id="line2d_6">
      <g>
       <use xlink:href="#md766fec00b" x="401.184527" y="356.477812" style="stroke: #000000; stroke-width: 0.8"/>
      </g>
     </g>
     <g id="text_6">
      <!-- 1000 -->
      <g transform="translate(388.459527 371.07625) scale(0.1 -0.1)">
       <defs>
        <path id="DejaVuSans-31" d="M 794 531 
L 1825 531 
L 1825 4091 
L 703 3866 
L 703 4441 
L 1819 4666 
L 2450 4666 
L 2450 531 
L 3481 531 
L 3481 0 
L 794 0 
L 794 531 
z
" transform="scale(0.015625)"/>
       </defs>
       <use xlink:href="#DejaVuSans-31"/>
       <use xlink:href="#DejaVuSans-30" x="63.623047"/>
       <use xlink:href="#DejaVuSans-30" x="127.246094"/>
       <use xlink:href="#DejaVuSans-30" x="190.869141"/>
      </g>
     </g>
    </g>
    <g id="xtick_7">
     <g id="line2d_7">
      <g>
       <use xlink:href="#md766fec00b" x="468.45879" y="356.477812" style="stroke: #000000; stroke-width: 0.8"/>
      </g>
     </g>
     <g id="text_7">
      <!-- 1200 -->
      <g transform="translate(455.73379 371.07625) scale(0.1 -0.1)">
       <use xlink:href="#DejaVuSans-31"/>
       <use xlink:href="#DejaVuSans-32" x="63.623047"/>
       <use xlink:href="#DejaVuSans-30" x="127.246094"/>
       <use xlink:href="#DejaVuSans-30" x="190.869141"/>
      </g>
     </g>
    </g>
    <g id="text_8">
     <!-- Number of nodes -->
     <g transform="translate(215.955313 386.274062) scale(0.12 -0.12)">
      <defs>
       <path id="DejaVuSans-4e" d="M 628 4666 
L 1478 4666 
L 3547 763 
L 3547 4666 
L 4159 4666 
L 4159 0 
L 3309 0 
L 1241 3903 
L 1241 0 
L 628 0 
L 628 4666 
z
" transform="scale(0.015625)"/>
       <path id="DejaVuSans-75" d="M 544 1381 
L 544 3500 
L 1119 3500 
L 1119 1403 
Q 1119 906 1312 657 
Q 1506 409 1894 409 
Q 2359 409 2629 706 
Q 2900 1003 2900 1516 
L 2900 3500 
L 3475 3500 
L 3475 0 
L 2900 0 
L 2900 538 
Q 2691 219 2414 64 
Q 2138 -91 1772 -91 
Q 1169 -91 856 284 
Q 544 659 544 1381 
z
M 1991 3584 
L 1991 3584 
z
" transform="scale(0.015625)"/>
       <path id="DejaVuSans-6d" d="M 3328 2828 
Q 3544 3216 3844 3400 
Q 4144 3584 4550 3584 
Q 5097 3584 5394 3201 
Q 5691 2819 5691 2113 
L 5691 0 
L 5113 0 
L 5113 2094 
Q 5113 2597 4934 2840 
Q 4756 3084 4391 3084 
Q 3944 3084 3684 2787 
Q 3425 2491 3425 1978 
L 3425 0 
L 2847 0 
L 2847 2094 
Q 2847 2600 2669 2842 
Q 2491 3084 2119 3084 
Q 1678 3084 1418 2786 
Q 1159 2488 1159 1978 
L 1159 0 
L 581 0 
L 581 3500 
L 1159 3500 
L 1159 2956 
Q 1356 3278 1631 3431 
Q 1906 3584 2284 3584 
Q 2666 3584 2933 3390 
Q 3200 3197 3328 2828 
z
" transform="scale(0.015625)"/>
       <path id="DejaVuSans-62" d="M 3116 1747 
Q 3116 2381 2855 2742 
Q 2594 3103 2138 3103 
Q 1681 3103 1420 2742 
Q 1159 2381 1159 1747 
Q 1159 1113 1420 752 
Q 1681 391 2138 391 
Q 2594 391 2855 752 
Q 3116 1113 3116 1747 
z
M 1159 2969 
Q 1341 3281 1617 3432 
Q 1894 3584 2278 3584 
Q 2916 3584 3314 3078 
Q 3713 2572 3713 1747 
Q 3713 922 3314 415 
Q 2916 -91 2278 -91 
Q 1894 -91 1617 61 
Q 1341 213 1159 525 
L 1159 0 
L 581 0 
L 581 4863 
L 1159 4863 
L 1159 2969 
z
" transform="scale(0.015625)"/>
       <path id="DejaVuSans-65" d="M 3597 1894 
L 3597 1613 
L 953 1613 
Q 991 1019 1311 708 
Q 1631 397 2203 397 
Q 2534 397 2845 478 
Q 3156 559 3463 722 
L 3463 178 
Q 3153 47 2828 -22 
Q 2503 -91 2169 -91 
Q 1331 -91 842 396 
Q 353 884 353 1716 
Q 353 2575 817 3079 
Q 1281 3584 2069 3584 
Q 2775 3584 3186 3129 
Q 3597 2675 3597 1894 
z
M 3022 2063 
Q 3016 2534 2758 2815 
Q 2500 3097 2075 3097 
Q 1594 3097 1305 2825 
Q 1016 2553 972 2059 
L 3022 2063 
z
" transform="scale(0.015625)"/>
       <path id="DejaVuSans-72" d="M 2631 2963 
Q 2534 3019 2420 3045 
Q 2306 3072 2169 3072 
Q 1681 3072 1420 2755 
Q 1159 2438 1159 1844 
L 1159 0 
L 581 0 
L 581 3500 
L 1159 3500 
L 1159 2956 
Q 1341 3275 1631 3429 
Q 1922 3584 2338 3584 
Q 2397 3584 2469 3576 
Q 2541 3569 2628 3553 
L 2631 2963 
z
" transform="scale(0.015625)"/>
       <path id="DejaVuSans-20" transform="scale(0.015625)"/>
       <path id="DejaVuSans-6f" d="M 1959 3097 
Q 1497 3097 1228 2736 
Q 959 2375 959 1747 
Q 959 1119 1226 758 
Q 1494 397 1959 397 
Q 2419 397 2687 759 
Q 2956 1122 2956 1747 
Q 2956 2369 2687 2733 
Q 2419 3097 1959 3097 
z
M 1959 3584 
Q 2709 3584 3137 3096 
Q 3566 2609 3566 1747 
Q 3566 888 3137 398 
Q 2709 -91 1959 -91 
Q 1206 -91 779 398 
Q 353 888 353 1747 
Q 353 2609 779 3096 
Q 1206 3584 1959 3584 
z
" transform="scale(0.015625)"/>
       <path id="DejaVuSans-66" d="M 2375 4863 
L 2375 4384 
L 1825 4384 
Q 1516 4384 1395 4259 
Q 1275 4134 1275 3809 
L 1275 3500 
L 2222 3500 
L 2222 3053 
L 1275 3053 
L 1275 0 
L 697 0 
L 697 3053 
L 147 3053 
L 147 3500 
L 697 3500 
L 697 3744 
Q 697 4328 969 4595 
Q 1241 4863 1831 4863 
L 2375 4863 
z
" transform="scale(0.015625)"/>
       <path id="DejaVuSans-6e" d="M 3513 2113 
L 3513 0 
L 2938 0 
L 2938 2094 
Q 2938 2591 2744 2837 
Q 2550 3084 2163 3084 
Q 1697 3084 1428 2787 
Q 1159 2491 1159 1978 
L 1159 0 
L 581 0 
L 581 3500 
L 1159 3500 
L 1159 2956 
Q 1366 3272 1645 3428 
Q 1925 3584 2291 3584 
Q 2894 3584 3203 3211 
Q 3513 2838 3513 2113 
z
" transform="scale(0.015625)"/>
       <path id="DejaVuSans-64" d="M 2906 2969 
L 2906 4863 
L 3481 4863 
L 3481 0 
L 2906 0 
L 2906 525 
Q 2725 213 2448 61 
Q 2172 -91 1784 -91 
Q 1150 -91 751 415 
Q 353 922 353 1747 
Q 353 2572 751 3078 
Q 1150 3584 1784 3584 
Q 2172 3584 2448 3432 
Q 2725 3281 2906 2969 
z
M 947 1747 
Q 947 1113 1208 752 
Q 1469 391 1925 391 
Q 2381 391 2643 752 
Q 2906 1113 2906 1747 
Q 2906 2381 2643 2742 
Q 2381 3103 1925 3103 
Q 1469 3103 1208 2742 
Q 947 2381 947 1747 
z
" transform="scale(0.015625)"/>
       <path id="DejaVuSans-73" d="M 2834 3397 
L 2834 2853 
Q 2591 2978 2328 3040 
Q 2066 3103 1784 3103 
Q 1356 3103 1142 2972 
Q 928 2841 928 2578 
Q 928 2378 1081 2264 
Q 1234 2150 1697 2047 
L 1894 2003 
Q 2506 1872 2764 1633 
Q 3022 1394 3022 966 
Q 3022 478 2636 193 
Q 2250 -91 1575 -91 
Q 1294 -91 989 -36 
Q 684 19 347 128 
L 347 722 
Q 666 556 975 473 
Q 1284 391 1588 391 
Q 1994 391 2212 530 
Q 2431 669 2431 922 
Q 2431 1156 2273 1281 
Q 2116 1406 1581 1522 
L 1381 1569 
Q 847 1681 609 1914 
Q 372 2147 372 2553 
Q 372 3047 722 3315 
Q 1072 3584 1716 3584 
Q 2034 3584 2315 3537 
Q 2597 3491 2834 3397 
z
" transform="scale(0.015625)"/>
      </defs>
      <use xlink:href="#DejaVuSans-4e"/>
      <use xlink:href="#DejaVuSans-75" x="74.804688"/>
      <use xlink:href="#DejaVuSans-6d" x="138.183594"/>
      <use xlink:href="#DejaVuSans-62" x="235.595703"/>
      <use xlink:href="#DejaVuSans-65" x="299.072266"/>
      <use xlink:href="#DejaVuSans-72" x="360.595703"/>
      <use xlink:href="#DejaVuSans-20" x="401.708984"/>
      <use xlink:href="#DejaVuSans-6f" x="433.496094"/>
      <use xlink:href="#DejaVuSans-66" x="494.677734"/>
      <use xlink:href="#DejaVuSans-20" x="529.882812"/>
      <use xlink:href="#DejaVuSans-6e" x="561.669922"/>
      <use xlink:href="#DejaVuSans-6f" x="625.048828"/>
      <use xlink:href="#DejaVuSans-64" x="686.230469"/>
      <use xlink:href="#DejaVuSans-65" x="749.707031"/>
      <use xlink:href="#DejaVuSans-73" x="811.230469"/>
     </g>
    </g>
   </g>
   <g id="matplotlib.axis_2">
    <g id="ytick_1">
     <g id="line2d_8">
      <defs>
       <path id="m03f8503afb" d="M 0 0 
L -3.5 0 
" style="stroke: #000000; stroke-width: 0.8"/>
      </defs>
      <g>
       <use xlink:href="#m03f8503afb" x="44.555938" y="355.629432" style="stroke: #000000; stroke-width: 0.8"/>
      </g>
     </g>
     <g id="text_9">
      <!-- −2 -->
      <g transform="translate(22.81375 359.428651) scale(0.1 -0.1)">
       <defs>
        <path id="DejaVuSans-2212" d="M 678 2272 
L 4684 2272 
L 4684 1741 
L 678 1741 
L 678 2272 
z
" transform="scale(0.015625)"/>
       </defs>
       <use xlink:href="#DejaVuSans-2212"/>
       <use xlink:href="#DejaVuSans-32" x="83.789062"/>
      </g>
     </g>
    </g>
    <g id="ytick_2">
     <g id="line2d_9">
      <g>
       <use xlink:href="#m03f8503afb" x="44.555938" y="314.702233" style="stroke: #000000; stroke-width: 0.8"/>
      </g>
     </g>
     <g id="text_10">
      <!-- −1 -->
      <g transform="translate(22.81375 318.501451) scale(0.1 -0.1)">
       <use xlink:href="#DejaVuSans-2212"/>
       <use xlink:href="#DejaVuSans-31" x="83.789062"/>
      </g>
     </g>
    </g>
    <g id="ytick_3">
     <g id="line2d_10">
      <g>
       <use xlink:href="#m03f8503afb" x="44.555938" y="273.775033" style="stroke: #000000; stroke-width: 0.8"/>
      </g>
     </g>
     <g id="text_11">
      <!-- 0 -->
      <g transform="translate(31.193438 277.574252) scale(0.1 -0.1)">
       <use xlink:href="#DejaVuSans-30"/>
      </g>
     </g>
    </g>
    <g id="ytick_4">
     <g id="line2d_11">
      <g>
       <use xlink:href="#m03f8503afb" x="44.555938" y="232.847834" style="stroke: #000000; stroke-width: 0.8"/>
      </g>
     </g>
     <g id="text_12">
      <!-- 1 -->
      <g transform="translate(31.193438 236.647053) scale(0.1 -0.1)">
       <use xlink:href="#DejaVuSans-31"/>
      </g>
     </g>
    </g>
    <g id="ytick_5">
     <g id="line2d_12">
      <g>
       <use xlink:href="#m03f8503afb" x="44.555938" y="191.920635" style="stroke: #000000; stroke-width: 0.8"/>
      </g>
     </g>
     <g id="text_13">
      <!-- 2 -->
      <g transform="translate(31.193438 195.719853) scale(0.1 -0.1)">
       <use xlink:href="#DejaVuSans-32"/>
      </g>
     </g>
    </g>
    <g id="ytick_6">
     <g id="line2d_13">
      <g>
       <use xlink:href="#m03f8503afb" x="44.555938" y="150.993435" style="stroke: #000000; stroke-width: 0.8"/>
      </g>
     </g>
     <g id="text_14">
      <!-- 3 -->
      <g transform="translate(31.193438 154.792654) scale(0.1 -0.1)">
       <defs>
        <path id="DejaVuSans-33" d="M 2597 2516 
Q 3050 2419 3304 2112 
Q 3559 1806 3559 1356 
Q 3559 666 3084 287 
Q 2609 -91 1734 -91 
Q 1441 -91 1130 -33 
Q 819 25 488 141 
L 488 750 
Q 750 597 1062 519 
Q 1375 441 1716 441 
Q 2309 441 2620 675 
Q 2931 909 2931 1356 
Q 2931 1769 2642 2001 
Q 2353 2234 1838 2234 
L 1294 2234 
L 1294 2753 
L 1863 2753 
Q 2328 2753 2575 2939 
Q 2822 3125 2822 3475 
Q 2822 3834 2567 4026 
Q 2313 4219 1838 4219 
Q 1578 4219 1281 4162 
Q 984 4106 628 3988 
L 628 4550 
Q 988 4650 1302 4700 
Q 1616 4750 1894 4750 
Q 2613 4750 3031 4423 
Q 3450 4097 3450 3541 
Q 3450 3153 3228 2886 
Q 3006 2619 2597 2516 
z
" transform="scale(0.015625)"/>
       </defs>
       <use xlink:href="#DejaVuSans-33"/>
      </g>
     </g>
    </g>
    <g id="ytick_7">
     <g id="line2d_14">
      <g>
       <use xlink:href="#m03f8503afb" x="44.555938" y="110.066236" style="stroke: #000000; stroke-width: 0.8"/>
      </g>
     </g>
     <g id="text_15">
      <!-- 4 -->
      <g transform="translate(31.193438 113.865455) scale(0.1 -0.1)">
       <use xlink:href="#DejaVuSans-34"/>
      </g>
     </g>
    </g>
    <g id="ytick_8">
     <g id="line2d_15">
      <g>
       <use xlink:href="#m03f8503afb" x="44.555938" y="69.139036" style="stroke: #000000; stroke-width: 0.8"/>
      </g>
     </g>
     <g id="text_16">
      <!-- 5 -->
      <g transform="translate(31.193438 72.938255) scale(0.1 -0.1)">
       <defs>
        <path id="DejaVuSans-35" d="M 691 4666 
L 3169 4666 
L 3169 4134 
L 1269 4134 
L 1269 2991 
Q 1406 3038 1543 3061 
Q 1681 3084 1819 3084 
Q 2600 3084 3056 2656 
Q 3513 2228 3513 1497 
Q 3513 744 3044 326 
Q 2575 -91 1722 -91 
Q 1428 -91 1123 -41 
Q 819 9 494 109 
L 494 744 
Q 775 591 1075 516 
Q 1375 441 1709 441 
Q 2250 441 2565 725 
Q 2881 1009 2881 1497 
Q 2881 1984 2565 2268 
Q 2250 2553 1709 2553 
Q 1456 2553 1204 2497 
Q 953 2441 691 2322 
L 691 4666 
z
" transform="scale(0.015625)"/>
       </defs>
       <use xlink:href="#DejaVuSans-35"/>
      </g>
     </g>
    </g>
    <g id="ytick_9">
     <g id="line2d_16">
      <g>
       <use xlink:href="#m03f8503afb" x="44.555938" y="28.211837" style="stroke: #000000; stroke-width: 0.8"/>
      </g>
     </g>
     <g id="text_17">
      <!-- 6 -->
      <g transform="translate(31.193438 32.011056) scale(0.1 -0.1)">
       <use xlink:href="#DejaVuSans-36"/>
      </g>
     </g>
    </g>
    <g id="text_18">
     <!-- Log-scaled K₀ (clique detection threshold) -->
     <g transform="translate(16.318125 315.486562) rotate(-90) scale(0.12 -0.12)">
      <defs>
       <path id="DejaVuSans-4c" d="M 628 4666 
L 1259 4666 
L 1259 531 
L 3531 531 
L 3531 0 
L 628 0 
L 628 4666 
z
" transform="scale(0.015625)"/>
       <path id="DejaVuSans-67" d="M 2906 1791 
Q 2906 2416 2648 2759 
Q 2391 3103 1925 3103 
Q 1463 3103 1205 2759 
Q 947 2416 947 1791 
Q 947 1169 1205 825 
Q 1463 481 1925 481 
Q 2391 481 2648 825 
Q 2906 1169 2906 1791 
z
M 3481 434 
Q 3481 -459 3084 -895 
Q 2688 -1331 1869 -1331 
Q 1566 -1331 1297 -1286 
Q 1028 -1241 775 -1147 
L 775 -588 
Q 1028 -725 1275 -790 
Q 1522 -856 1778 -856 
Q 2344 -856 2625 -561 
Q 2906 -266 2906 331 
L 2906 616 
Q 2728 306 2450 153 
Q 2172 0 1784 0 
Q 1141 0 747 490 
Q 353 981 353 1791 
Q 353 2603 747 3093 
Q 1141 3584 1784 3584 
Q 2172 3584 2450 3431 
Q 2728 3278 2906 2969 
L 2906 3500 
L 3481 3500 
L 3481 434 
z
" transform="scale(0.015625)"/>
       <path id="DejaVuSans-2d" d="M 313 2009 
L 1997 2009 
L 1997 1497 
L 313 1497 
L 313 2009 
z
" transform="scale(0.015625)"/>
       <path id="DejaVuSans-63" d="M 3122 3366 
L 3122 2828 
Q 2878 2963 2633 3030 
Q 2388 3097 2138 3097 
Q 1578 3097 1268 2742 
Q 959 2388 959 1747 
Q 959 1106 1268 751 
Q 1578 397 2138 397 
Q 2388 397 2633 464 
Q 2878 531 3122 666 
L 3122 134 
Q 2881 22 2623 -34 
Q 2366 -91 2075 -91 
Q 1284 -91 818 406 
Q 353 903 353 1747 
Q 353 2603 823 3093 
Q 1294 3584 2113 3584 
Q 2378 3584 2631 3529 
Q 2884 3475 3122 3366 
z
" transform="scale(0.015625)"/>
       <path id="DejaVuSans-61" d="M 2194 1759 
Q 1497 1759 1228 1600 
Q 959 1441 959 1056 
Q 959 750 1161 570 
Q 1363 391 1709 391 
Q 2188 391 2477 730 
Q 2766 1069 2766 1631 
L 2766 1759 
L 2194 1759 
z
M 3341 1997 
L 3341 0 
L 2766 0 
L 2766 531 
Q 2569 213 2275 61 
Q 1981 -91 1556 -91 
Q 1019 -91 701 211 
Q 384 513 384 1019 
Q 384 1609 779 1909 
Q 1175 2209 1959 2209 
L 2766 2209 
L 2766 2266 
Q 2766 2663 2505 2880 
Q 2244 3097 1772 3097 
Q 1472 3097 1187 3025 
Q 903 2953 641 2809 
L 641 3341 
Q 956 3463 1253 3523 
Q 1550 3584 1831 3584 
Q 2591 3584 2966 3190 
Q 3341 2797 3341 1997 
z
" transform="scale(0.015625)"/>
       <path id="DejaVuSans-6c" d="M 603 4863 
L 1178 4863 
L 1178 0 
L 603 0 
L 603 4863 
z
" transform="scale(0.015625)"/>
       <path id="DejaVuSans-4b" d="M 628 4666 
L 1259 4666 
L 1259 2694 
L 3353 4666 
L 4166 4666 
L 1850 2491 
L 4331 0 
L 3500 0 
L 1259 2247 
L 1259 0 
L 628 0 
L 628 4666 
z
" transform="scale(0.015625)"/>
       <path id="DejaVuSans-2080" d="M 1781 2091 
Q 1625 2360 1309 2360 
Q 994 2360 838 2091 
Q 678 1822 678 1285 
Q 678 744 838 476 
Q 994 207 1309 207 
Q 1625 207 1781 476 
Q 1941 744 1941 1285 
Q 1941 1822 1781 2091 
z
M 1309 2638 
Q 1813 2638 2078 2291 
Q 2344 1944 2344 1285 
Q 2344 622 2078 275 
Q 1813 -71 1309 -71 
Q 803 -71 537 275 
Q 272 622 272 1285 
Q 272 1944 537 2291 
Q 803 2638 1309 2638 
z
" transform="scale(0.015625)"/>
       <path id="DejaVuSans-28" d="M 1984 4856 
Q 1566 4138 1362 3434 
Q 1159 2731 1159 2009 
Q 1159 1288 1364 580 
Q 1569 -128 1984 -844 
L 1484 -844 
Q 1016 -109 783 600 
Q 550 1309 550 2009 
Q 550 2706 781 3412 
Q 1013 4119 1484 4856 
L 1984 4856 
z
" transform="scale(0.015625)"/>
       <path id="DejaVuSans-69" d="M 603 3500 
L 1178 3500 
L 1178 0 
L 603 0 
L 603 3500 
z
M 603 4863 
L 1178 4863 
L 1178 4134 
L 603 4134 
L 603 4863 
z
" transform="scale(0.015625)"/>
       <path id="DejaVuSans-71" d="M 947 1747 
Q 947 1113 1208 752 
Q 1469 391 1925 391 
Q 2381 391 2643 752 
Q 2906 1113 2906 1747 
Q 2906 2381 2643 2742 
Q 2381 3103 1925 3103 
Q 1469 3103 1208 2742 
Q 947 2381 947 1747 
z
M 2906 525 
Q 2725 213 2448 61 
Q 2172 -91 1784 -91 
Q 1150 -91 751 415 
Q 353 922 353 1747 
Q 353 2572 751 3078 
Q 1150 3584 1784 3584 
Q 2172 3584 2448 3432 
Q 2725 3281 2906 2969 
L 2906 3500 
L 3481 3500 
L 3481 -1331 
L 2906 -1331 
L 2906 525 
z
" transform="scale(0.015625)"/>
       <path id="DejaVuSans-74" d="M 1172 4494 
L 1172 3500 
L 2356 3500 
L 2356 3053 
L 1172 3053 
L 1172 1153 
Q 1172 725 1289 603 
Q 1406 481 1766 481 
L 2356 481 
L 2356 0 
L 1766 0 
Q 1100 0 847 248 
Q 594 497 594 1153 
L 594 3053 
L 172 3053 
L 172 3500 
L 594 3500 
L 594 4494 
L 1172 4494 
z
" transform="scale(0.015625)"/>
       <path id="DejaVuSans-68" d="M 3513 2113 
L 3513 0 
L 2938 0 
L 2938 2094 
Q 2938 2591 2744 2837 
Q 2550 3084 2163 3084 
Q 1697 3084 1428 2787 
Q 1159 2491 1159 1978 
L 1159 0 
L 581 0 
L 581 4863 
L 1159 4863 
L 1159 2956 
Q 1366 3272 1645 3428 
Q 1925 3584 2291 3584 
Q 2894 3584 3203 3211 
Q 3513 2838 3513 2113 
z
" transform="scale(0.015625)"/>
       <path id="DejaVuSans-29" d="M 513 4856 
L 1013 4856 
Q 1481 4119 1714 3412 
Q 1947 2706 1947 2009 
Q 1947 1309 1714 600 
Q 1481 -109 1013 -844 
L 513 -844 
Q 928 -128 1133 580 
Q 1338 1288 1338 2009 
Q 1338 2731 1133 3434 
Q 928 4138 513 4856 
z
" transform="scale(0.015625)"/>
      </defs>
      <use xlink:href="#DejaVuSans-4c"/>
      <use xlink:href="#DejaVuSans-6f" x="53.962891"/>
      <use xlink:href="#DejaVuSans-67" x="115.144531"/>
      <use xlink:href="#DejaVuSans-2d" x="178.621094"/>
      <use xlink:href="#DejaVuSans-73" x="214.705078"/>
      <use xlink:href="#DejaVuSans-63" x="266.804688"/>
      <use xlink:href="#DejaVuSans-61" x="321.785156"/>
      <use xlink:href="#DejaVuSans-6c" x="383.064453"/>
      <use xlink:href="#DejaVuSans-65" x="410.847656"/>
      <use xlink:href="#DejaVuSans-64" x="472.371094"/>
      <use xlink:href="#DejaVuSans-20" x="535.847656"/>
      <use xlink:href="#DejaVuSans-4b" x="567.634766"/>
      <use xlink:href="#DejaVuSans-2080" x="633.210938"/>
      <use xlink:href="#DejaVuSans-20" x="673.298828"/>
      <use xlink:href="#DejaVuSans-28" x="705.085938"/>
      <use xlink:href="#DejaVuSans-63" x="744.099609"/>
      <use xlink:href="#DejaVuSans-6c" x="799.080078"/>
      <use xlink:href="#DejaVuSans-69" x="826.863281"/>
      <use xlink:href="#DejaVuSans-71" x="854.646484"/>
      <use xlink:href="#DejaVuSans-75" x="918.123047"/>
      <use xlink:href="#DejaVuSans-65" x="981.501953"/>
      <use xlink:href="#DejaVuSans-20" x="1043.025391"/>
      <use xlink:href="#DejaVuSans-64" x="1074.8125"/>
      <use xlink:href="#DejaVuSans-65" x="1138.289062"/>
      <use xlink:href="#DejaVuSans-74" x="1199.8125"/>
      <use xlink:href="#DejaVuSans-65" x="1239.021484"/>
      <use xlink:href="#DejaVuSans-63" x="1300.544922"/>
      <use xlink:href="#DejaVuSans-74" x="1355.525391"/>
      <use xlink:href="#DejaVuSans-69" x="1394.734375"/>
      <use xlink:href="#DejaVuSans-6f" x="1422.517578"/>
      <use xlink:href="#DejaVuSans-6e" x="1483.699219"/>
      <use xlink:href="#DejaVuSans-20" x="1547.078125"/>
      <use xlink:href="#DejaVuSans-74" x="1578.865234"/>
      <use xlink:href="#DejaVuSans-68" x="1618.074219"/>
      <use xlink:href="#DejaVuSans-72" x="1681.453125"/>
      <use xlink:href="#DejaVuSans-65" x="1720.316406"/>
      <use xlink:href="#DejaVuSans-73" x="1781.839844"/>
      <use xlink:href="#DejaVuSans-68" x="1833.939453"/>
      <use xlink:href="#DejaVuSans-6f" x="1897.318359"/>
      <use xlink:href="#DejaVuSans-6c" x="1958.5"/>
      <use xlink:href="#DejaVuSans-64" x="1986.283203"/>
      <use xlink:href="#DejaVuSans-29" x="2049.759766"/>
     </g>
    </g>
   </g>
   <g id="line2d_17"/>
   <g id="line2d_18"/>
   <g id="line2d_19"/>
   <g id="line2d_20"/>
   <g id="line2d_21"/>
   <g id="line2d_22">
    <path d="M 65.183218 326.610351 
L 65.519589 242.622492 
L 65.855961 225.353336 
L 66.192332 216.31531 
L 66.865074 206.161619 
L 67.537817 200.199566 
L 68.21056 196.09502 
L 69.219674 191.73311 
L 70.228788 188.577446 
L 71.237902 186.135181 
L 72.583387 183.57846 
L 73.928872 181.547993 
L 75.274357 179.874959 
L 76.956214 178.137207 
L 78.974442 176.419111 
L 80.99267 174.9865 
L 83.347269 173.575456 
L 86.03824 172.214371 
L 89.401953 170.786936 
L 93.102037 169.471553 
L 97.474864 168.165308 
L 102.520434 166.900203 
L 108.575118 165.628773 
L 115.638915 164.389728 
L 123.711827 163.204705 
L 133.466595 162.008086 
L 144.90322 160.839271 
L 158.358073 159.694115 
L 174.503896 158.552305 
L 193.677061 157.428627 
L 216.550311 156.319567 
L 243.796387 155.22836 
L 276.424405 154.15078 
L 315.779849 153.081595 
L 362.871834 152.031183 
L 419.718586 150.991823 
L 468.156056 150.246495 
L 468.156056 150.246495 
" clip-path="url(#p1ea085139a)" style="fill: none; stroke: #008000; stroke-width: 1.5; stroke-linecap: square"/>
   </g>
   <g id="line2d_23">
    <path d="M 64.846847 341.357812 
L 65.183218 292.288244 
L 65.519589 279.055924 
L 66.192332 265.36476 
L 66.865074 257.234535 
L 67.537817 251.431564 
L 68.546931 244.983872 
L 69.556045 240.088371 
L 70.565159 236.140868 
L 71.910644 231.83953 
L 73.25613 228.287156 
L 74.937986 224.569793 
L 76.619843 221.425029 
L 78.638071 218.19573 
L 80.656299 215.40726 
L 83.010898 212.5718 
L 85.365497 210.081836 
L 88.056467 207.563936 
L 91.083809 205.058469 
L 94.447523 202.592964 
L 98.147607 200.18528 
L 102.184063 197.846265 
L 106.55689 195.581824 
L 111.266088 193.394463 
L 116.648029 191.151168 
L 122.366342 189.009725 
L 128.757397 186.854865 
L 135.821195 184.710654 
L 143.557735 182.594382 
L 152.303389 180.439201 
L 162.058157 178.276066 
L 172.822039 176.127798 
L 184.595036 174.010655 
L 197.713517 171.883928 
L 212.177484 169.769868 
L 228.323307 167.642326 
L 246.150987 165.524615 
L 265.660523 163.433572 
L 287.524659 161.319028 
L 311.743393 159.206598 
L 338.316728 157.115037 
L 367.917403 155.012154 
L 400.545421 152.920012 
L 436.873523 150.817538 
L 442.928207 150.487207 
L 442.928207 150.487207 
" clip-path="url(#p1ea085139a)" style="fill: none; stroke-dasharray: 1.5,2.475; stroke-dashoffset: 0; stroke: #ffa500; stroke-width: 1.5"/>
   </g>
   <g id="line2d_24">
    <path d="M 443.264579 150.46901 
L 443.60095 150.45083 
L 443.937321 150.432666 
L 444.273692 150.414518 
L 444.610064 150.396386 
L 444.946435 150.378271 
L 445.282806 150.360171 
L 445.619178 150.342087 
L 445.955549 150.324019 
L 446.29192 150.305967 
L 446.628292 150.287931 
L 446.964663 150.269911 
L 447.301034 150.251907 
L 447.637406 150.233919 
L 447.973777 150.215946 
L 448.310148 150.197989 
L 448.64652 150.180048 
L 448.982891 150.162123 
L 449.319262 150.144213 
L 449.655634 150.126319 
L 449.992005 150.108441 
L 450.328376 150.090578 
L 450.664747 150.072731 
L 451.001119 150.054899 
L 451.33749 150.037083 
L 451.673861 150.019282 
L 452.010233 150.001497 
L 452.346604 149.983728 
L 452.682975 149.965973 
L 453.019347 149.948234 
L 453.355718 149.930511 
L 453.692089 149.912803 
L 454.028461 149.89511 
L 454.364832 149.877432 
L 454.701203 149.85977 
L 455.037575 149.842123 
L 455.373946 149.824491 
L 455.710317 149.806874 
L 456.046689 149.789272 
L 456.38306 149.771686 
L 456.719431 149.754115 
L 457.055803 149.736558 
L 457.392174 149.719017 
L 457.728545 149.701491 
L 458.064916 149.68398 
L 458.401288 149.666483 
L 458.737659 149.649002 
L 459.07403 149.631536 
L 459.410402 149.614084 
L 459.746773 149.596648 
L 460.083144 149.579226 
L 460.419516 149.561819 
L 460.755887 149.544427 
L 461.092258 149.527049 
L 461.42863 149.509687 
L 461.765001 149.492339 
L 462.101372 149.475006 
L 462.437744 149.457687 
L 462.774115 149.440383 
L 463.110486 149.423094 
L 463.446858 149.405819 
L 463.783229 149.388559 
L 464.1196 149.371314 
L 464.455972 149.354082 
L 464.792343 149.336866 
L 465.128714 149.319664 
L 465.465085 149.302476 
L 465.801457 149.285303 
L 466.137828 149.268144 
L 466.474199 149.251 
L 466.810571 149.23387 
L 467.146942 149.216754 
L 467.483313 149.199652 
L 467.819685 149.182565 
L 468.156056 149.165492 
" clip-path="url(#p1ea085139a)" style="fill: none; stroke: #ffa500; stroke-width: 1.5; stroke-linecap: square"/>
   </g>
   <g id="patch_3">
    <path d="M 44.555938 356.477812 
L 44.555938 23.837812 
" style="fill: none; stroke: #000000; stroke-width: 0.8; stroke-linejoin: miter; stroke-linecap: square"/>
   </g>
   <g id="patch_4">
    <path d="M 490.955938 356.477812 
L 490.955938 23.837812 
" style="fill: none; stroke: #000000; stroke-width: 0.8; stroke-linejoin: miter; stroke-linecap: square"/>
   </g>
   <g id="patch_5">
    <path d="M 44.555938 356.477812 
L 490.955938 356.477812 
" style="fill: none; stroke: #000000; stroke-width: 0.8; stroke-linejoin: miter; stroke-linecap: square"/>
   </g>
   <g id="patch_6">
    <path d="M 44.555938 23.837812 
L 490.955938 23.837812 
" style="fill: none; stroke: #000000; stroke-width: 0.8; stroke-linejoin: miter; stroke-linecap: square"/>
   </g>
   <g id="text_19">
    <!-- Machines: K₀ as a function of N -->
    <g transform="translate(158.899375 17.837812) scale(0.14 -0.14)">
     <defs>
      <path id="DejaVuSans-4d" d="M 628 4666 
L 1569 4666 
L 2759 1491 
L 3956 4666 
L 4897 4666 
L 4897 0 
L 4281 0 
L 4281 4097 
L 3078 897 
L 2444 897 
L 1241 4097 
L 1241 0 
L 628 0 
L 628 4666 
z
" transform="scale(0.015625)"/>
      <path id="DejaVuSans-3a" d="M 750 794 
L 1409 794 
L 1409 0 
L 750 0 
L 750 794 
z
M 750 3309 
L 1409 3309 
L 1409 2516 
L 750 2516 
L 750 3309 
z
" transform="scale(0.015625)"/>
     </defs>
     <use xlink:href="#DejaVuSans-4d"/>
     <use xlink:href="#DejaVuSans-61" x="86.279297"/>
     <use xlink:href="#DejaVuSans-63" x="147.558594"/>
     <use xlink:href="#DejaVuSans-68" x="202.539062"/>
     <use xlink:href="#DejaVuSans-69" x="265.917969"/>
     <use xlink:href="#DejaVuSans-6e" x="293.701172"/>
     <use xlink:href="#DejaVuSans-65" x="357.080078"/>
     <use xlink:href="#DejaVuSans-73" x="418.603516"/>
     <use xlink:href="#DejaVuSans-3a" x="470.703125"/>
     <use xlink:href="#DejaVuSans-20" x="504.394531"/>
     <use xlink:href="#DejaVuSans-4b" x="536.181641"/>
     <use xlink:href="#DejaVuSans-2080" x="601.757812"/>
     <use xlink:href="#DejaVuSans-20" x="641.845703"/>
     <use xlink:href="#DejaVuSans-61" x="673.632812"/>
     <use xlink:href="#DejaVuSans-73" x="734.912109"/>
     <use xlink:href="#DejaVuSans-20" x="787.011719"/>
     <use xlink:href="#DejaVuSans-61" x="818.798828"/>
     <use xlink:href="#DejaVuSans-20" x="880.078125"/>
     <use xlink:href="#DejaVuSans-66" x="911.865234"/>
     <use xlink:href="#DejaVuSans-75" x="947.070312"/>
     <use xlink:href="#DejaVuSans-6e" x="1010.449219"/>
     <use xlink:href="#DejaVuSans-63" x="1073.828125"/>
     <use xlink:href="#DejaVuSans-74" x="1128.808594"/>
     <use xlink:href="#DejaVuSans-69" x="1168.017578"/>
     <use xlink:href="#DejaVuSans-6f" x="1195.800781"/>
     <use xlink:href="#DejaVuSans-6e" x="1256.982422"/>
     <use xlink:href="#DejaVuSans-20" x="1320.361328"/>
     <use xlink:href="#DejaVuSans-6f" x="1352.148438"/>
     <use xlink:href="#DejaVuSans-66" x="1413.330078"/>
     <use xlink:href="#DejaVuSans-20" x="1448.535156"/>
     <use xlink:href="#DejaVuSans-4e" x="1480.322266"/>
    </g>
   </g>
   <g id="legend_1">
    <g id="patch_7">
     <path d="M 332.327812 351.477812 
L 483.955938 351.477812 
Q 485.955938 351.477812 485.955938 349.477812 
L 485.955938 261.852812 
Q 485.955938 259.852812 483.955938 259.852812 
L 332.327812 259.852812 
Q 330.327812 259.852812 330.327812 261.852812 
L 330.327812 349.477812 
Q 330.327812 351.477812 332.327812 351.477812 
z
" style="fill: #ffffff; opacity: 0.8; stroke: #cccccc; stroke-linejoin: miter"/>
    </g>
    <g id="text_20">
     <!-- model -->
     <g transform="translate(392.572344 271.45125) scale(0.1 -0.1)">
      <use xlink:href="#DejaVuSans-6d"/>
      <use xlink:href="#DejaVuSans-6f" x="97.412109"/>
      <use xlink:href="#DejaVuSans-64" x="158.59375"/>
      <use xlink:href="#DejaVuSans-65" x="222.070312"/>
      <use xlink:href="#DejaVuSans-6c" x="283.59375"/>
     </g>
    </g>
    <g id="line2d_25">
     <defs>
      <path id="meee3c6e2f4" d="M 0 3.535534 
C 0.937635 3.535534 1.836992 3.163008 2.5 2.5 
C 3.163008 1.836992 3.535534 0.937635 3.535534 0 
C 3.535534 -0.937635 3.163008 -1.836992 2.5 -2.5 
C 1.836992 -3.163008 0.937635 -3.535534 0 -3.535534 
C -0.937635 -3.535534 -1.836992 -3.163008 -2.5 -2.5 
C -3.163008 -1.836992 -3.535534 -0.937635 -3.535534 0 
C -3.535534 0.937635 -3.163008 1.836992 -2.5 2.5 
C -1.836992 3.163008 -0.937635 3.535534 0 3.535534 
z
" style="stroke: #ffffff; stroke-width: 0.565685"/>
     </defs>
     <g>
      <use xlink:href="#meee3c6e2f4" x="344.327812" y="282.629375" style="fill: #d60000; stroke: #ffffff; stroke-width: 0.565685"/>
     </g>
    </g>
    <g id="text_21">
     <!-- MLP -->
     <g transform="translate(362.327812 286.129375) scale(0.1 -0.1)">
      <defs>
       <path id="DejaVuSans-50" d="M 1259 4147 
L 1259 2394 
L 2053 2394 
Q 2494 2394 2734 2622 
Q 2975 2850 2975 3272 
Q 2975 3691 2734 3919 
Q 2494 4147 2053 4147 
L 1259 4147 
z
M 628 4666 
L 2053 4666 
Q 2838 4666 3239 4311 
Q 3641 3956 3641 3272 
Q 3641 2581 3239 2228 
Q 2838 1875 2053 1875 
L 1259 1875 
L 1259 0 
L 628 0 
L 628 4666 
z
" transform="scale(0.015625)"/>
      </defs>
      <use xlink:href="#DejaVuSans-4d"/>
      <use xlink:href="#DejaVuSans-4c" x="86.279297"/>
      <use xlink:href="#DejaVuSans-50" x="141.992188"/>
     </g>
    </g>
    <g id="line2d_26">
     <defs>
      <path id="m5791e8951b" d="M 0 3.535534 
C 0.937635 3.535534 1.836992 3.163008 2.5 2.5 
C 3.163008 1.836992 3.535534 0.937635 3.535534 0 
C 3.535534 -0.937635 3.163008 -1.836992 2.5 -2.5 
C 1.836992 -3.163008 0.937635 -3.535534 0 -3.535534 
C -0.937635 -3.535534 -1.836992 -3.163008 -2.5 -2.5 
C -3.163008 -1.836992 -3.535534 -0.937635 -3.535534 0 
C -3.535534 0.937635 -3.163008 1.836992 -2.5 2.5 
C -1.836992 3.163008 -0.937635 3.535534 0 3.535534 
z
" style="stroke: #ffffff; stroke-width: 0.565685"/>
     </defs>
     <g>
      <use xlink:href="#m5791e8951b" x="344.327812" y="297.3075" style="fill: #0000dd; stroke: #ffffff; stroke-width: 0.565685"/>
     </g>
    </g>
    <g id="text_22">
     <!-- MLP_li-earlystop-scatter -->
     <g transform="translate(362.327812 300.8075) scale(0.1 -0.1)">
      <defs>
       <path id="DejaVuSans-5f" d="M 3263 -1063 
L 3263 -1509 
L -63 -1509 
L -63 -1063 
L 3263 -1063 
z
" transform="scale(0.015625)"/>
       <path id="DejaVuSans-79" d="M 2059 -325 
Q 1816 -950 1584 -1140 
Q 1353 -1331 966 -1331 
L 506 -1331 
L 506 -850 
L 844 -850 
Q 1081 -850 1212 -737 
Q 1344 -625 1503 -206 
L 1606 56 
L 191 3500 
L 800 3500 
L 1894 763 
L 2988 3500 
L 3597 3500 
L 2059 -325 
z
" transform="scale(0.015625)"/>
       <path id="DejaVuSans-70" d="M 1159 525 
L 1159 -1331 
L 581 -1331 
L 581 3500 
L 1159 3500 
L 1159 2969 
Q 1341 3281 1617 3432 
Q 1894 3584 2278 3584 
Q 2916 3584 3314 3078 
Q 3713 2572 3713 1747 
Q 3713 922 3314 415 
Q 2916 -91 2278 -91 
Q 1894 -91 1617 61 
Q 1341 213 1159 525 
z
M 3116 1747 
Q 3116 2381 2855 2742 
Q 2594 3103 2138 3103 
Q 1681 3103 1420 2742 
Q 1159 2381 1159 1747 
Q 1159 1113 1420 752 
Q 1681 391 2138 391 
Q 2594 391 2855 752 
Q 3116 1113 3116 1747 
z
" transform="scale(0.015625)"/>
      </defs>
      <use xlink:href="#DejaVuSans-4d"/>
      <use xlink:href="#DejaVuSans-4c" x="86.279297"/>
      <use xlink:href="#DejaVuSans-50" x="141.992188"/>
      <use xlink:href="#DejaVuSans-5f" x="202.294922"/>
      <use xlink:href="#DejaVuSans-6c" x="252.294922"/>
      <use xlink:href="#DejaVuSans-69" x="280.078125"/>
      <use xlink:href="#DejaVuSans-2d" x="307.861328"/>
      <use xlink:href="#DejaVuSans-65" x="343.945312"/>
      <use xlink:href="#DejaVuSans-61" x="405.46875"/>
      <use xlink:href="#DejaVuSans-72" x="466.748047"/>
      <use xlink:href="#DejaVuSans-6c" x="507.861328"/>
      <use xlink:href="#DejaVuSans-79" x="535.644531"/>
      <use xlink:href="#DejaVuSans-73" x="594.824219"/>
      <use xlink:href="#DejaVuSans-74" x="646.923828"/>
      <use xlink:href="#DejaVuSans-6f" x="686.132812"/>
      <use xlink:href="#DejaVuSans-70" x="747.314453"/>
      <use xlink:href="#DejaVuSans-2d" x="810.791016"/>
      <use xlink:href="#DejaVuSans-73" x="846.875"/>
      <use xlink:href="#DejaVuSans-63" x="898.974609"/>
      <use xlink:href="#DejaVuSans-61" x="953.955078"/>
      <use xlink:href="#DejaVuSans-74" x="1015.234375"/>
      <use xlink:href="#DejaVuSans-74" x="1054.443359"/>
      <use xlink:href="#DejaVuSans-65" x="1093.652344"/>
      <use xlink:href="#DejaVuSans-72" x="1155.175781"/>
     </g>
    </g>
    <g id="line2d_27">
     <defs>
      <path id="mf9c833f19a" d="M 0 3.535534 
C 0.937635 3.535534 1.836992 3.163008 2.5 2.5 
C 3.163008 1.836992 3.535534 0.937635 3.535534 0 
C 3.535534 -0.937635 3.163008 -1.836992 2.5 -2.5 
C 1.836992 -3.163008 0.937635 -3.535534 0 -3.535534 
C -0.937635 -3.535534 -1.836992 -3.163008 -2.5 -2.5 
C -3.163008 -1.836992 -3.535534 -0.937635 -3.535534 0 
C -3.535534 0.937635 -3.163008 1.836992 -2.5 2.5 
C -1.836992 3.163008 -0.937635 3.535534 0 3.535534 
z
" style="stroke: #ffffff; stroke-width: 0.565685"/>
     </defs>
     <g>
      <use xlink:href="#mf9c833f19a" x="344.327812" y="312.26375" style="fill: #005659; stroke: #ffffff; stroke-width: 0.565685"/>
     </g>
    </g>
    <g id="text_23">
     <!-- MLP_lr1e-5_10000steps -->
     <g transform="translate(362.327812 315.76375) scale(0.1 -0.1)">
      <use xlink:href="#DejaVuSans-4d"/>
      <use xlink:href="#DejaVuSans-4c" x="86.279297"/>
      <use xlink:href="#DejaVuSans-50" x="141.992188"/>
      <use xlink:href="#DejaVuSans-5f" x="202.294922"/>
      <use xlink:href="#DejaVuSans-6c" x="252.294922"/>
      <use xlink:href="#DejaVuSans-72" x="280.078125"/>
      <use xlink:href="#DejaVuSans-31" x="321.191406"/>
      <use xlink:href="#DejaVuSans-65" x="384.814453"/>
      <use xlink:href="#DejaVuSans-2d" x="446.337891"/>
      <use xlink:href="#DejaVuSans-35" x="482.421875"/>
      <use xlink:href="#DejaVuSans-5f" x="546.044922"/>
      <use xlink:href="#DejaVuSans-31" x="596.044922"/>
      <use xlink:href="#DejaVuSans-30" x="659.667969"/>
      <use xlink:href="#DejaVuSans-30" x="723.291016"/>
      <use xlink:href="#DejaVuSans-30" x="786.914062"/>
      <use xlink:href="#DejaVuSans-30" x="850.537109"/>
      <use xlink:href="#DejaVuSans-73" x="914.160156"/>
      <use xlink:href="#DejaVuSans-74" x="966.259766"/>
      <use xlink:href="#DejaVuSans-65" x="1005.46875"/>
      <use xlink:href="#DejaVuSans-70" x="1066.992188"/>
      <use xlink:href="#DejaVuSans-73" x="1130.46875"/>
     </g>
    </g>
    <g id="line2d_28">
     <defs>
      <path id="m5003b36288" d="M 0 3.535534 
C 0.937635 3.535534 1.836992 3.163008 2.5 2.5 
C 3.163008 1.836992 3.535534 0.937635 3.535534 0 
C 3.535534 -0.937635 3.163008 -1.836992 2.5 -2.5 
C 1.836992 -3.163008 0.937635 -3.535534 0 -3.535534 
C -0.937635 -3.535534 -1.836992 -3.163008 -2.5 -2.5 
C -3.163008 -1.836992 -3.535534 -0.937635 -3.535534 0 
C -3.535534 0.937635 -3.163008 1.836992 -2.5 2.5 
C -1.836992 3.163008 -0.937635 3.535534 0 3.535534 
z
" style="stroke: #ffffff; stroke-width: 0.565685"/>
     </defs>
     <g>
      <use xlink:href="#m5003b36288" x="344.327812" y="327.22" style="fill: #018700; stroke: #ffffff; stroke-width: 0.565685"/>
     </g>
    </g>
    <g id="text_24">
     <!-- ViTpretrained -->
     <g transform="translate(362.327812 330.72) scale(0.1 -0.1)">
      <defs>
       <path id="DejaVuSans-56" d="M 1831 0 
L 50 4666 
L 709 4666 
L 2188 738 
L 3669 4666 
L 4325 4666 
L 2547 0 
L 1831 0 
z
" transform="scale(0.015625)"/>
       <path id="DejaVuSans-54" d="M -19 4666 
L 3928 4666 
L 3928 4134 
L 2272 4134 
L 2272 0 
L 1638 0 
L 1638 4134 
L -19 4134 
L -19 4666 
z
" transform="scale(0.015625)"/>
      </defs>
      <use xlink:href="#DejaVuSans-56"/>
      <use xlink:href="#DejaVuSans-69" x="66.158203"/>
      <use xlink:href="#DejaVuSans-54" x="93.941406"/>
      <use xlink:href="#DejaVuSans-70" x="155.025391"/>
      <use xlink:href="#DejaVuSans-72" x="218.501953"/>
      <use xlink:href="#DejaVuSans-65" x="257.365234"/>
      <use xlink:href="#DejaVuSans-74" x="318.888672"/>
      <use xlink:href="#DejaVuSans-72" x="358.097656"/>
      <use xlink:href="#DejaVuSans-61" x="399.210938"/>
      <use xlink:href="#DejaVuSans-69" x="460.490234"/>
      <use xlink:href="#DejaVuSans-6e" x="488.273438"/>
      <use xlink:href="#DejaVuSans-65" x="551.652344"/>
      <use xlink:href="#DejaVuSans-64" x="613.175781"/>
     </g>
    </g>
    <g id="line2d_29">
     <defs>
      <path id="m85a7026ac9" d="M 0 3.535534 
C 0.937635 3.535534 1.836992 3.163008 2.5 2.5 
C 3.163008 1.836992 3.535534 0.937635 3.535534 0 
C 3.535534 -0.937635 3.163008 -1.836992 2.5 -2.5 
C 1.836992 -3.163008 0.937635 -3.535534 0 -3.535534 
C -0.937635 -3.535534 -1.836992 -3.163008 -2.5 -2.5 
C -3.163008 -1.836992 -3.535534 -0.937635 -3.535534 0 
C -3.535534 0.937635 -3.163008 1.836992 -2.5 2.5 
C -1.836992 3.163008 -0.937635 3.535534 0 3.535534 
z
" style="stroke: #ffffff; stroke-width: 0.565685"/>
     </defs>
     <g>
      <use xlink:href="#m85a7026ac9" x="344.327812" y="341.898125" style="fill: #8c3bff; stroke: #ffffff; stroke-width: 0.565685"/>
     </g>
    </g>
    <g id="text_25">
     <!-- ViTscratch -->
     <g transform="translate(362.327812 345.398125) scale(0.1 -0.1)">
      <use xlink:href="#DejaVuSans-56"/>
      <use xlink:href="#DejaVuSans-69" x="66.158203"/>
      <use xlink:href="#DejaVuSans-54" x="93.941406"/>
      <use xlink:href="#DejaVuSans-73" x="138.525391"/>
      <use xlink:href="#DejaVuSans-63" x="190.625"/>
      <use xlink:href="#DejaVuSans-72" x="245.605469"/>
      <use xlink:href="#DejaVuSans-61" x="286.71875"/>
      <use xlink:href="#DejaVuSans-74" x="347.998047"/>
      <use xlink:href="#DejaVuSans-63" x="387.207031"/>
      <use xlink:href="#DejaVuSans-68" x="442.1875"/>
     </g>
    </g>
   </g>
  </g>
 </g>
 <defs>
  <clipPath id="p1ea085139a">
   <rect x="44.555938" y="23.837812" width="446.4" height="332.64"/>
  </clipPath>
 </defs>
</svg>
